%TF.GenerationSoftware,KiCad,Pcbnew,(6.0.4-0)*%
%TF.CreationDate,2022-06-06T20:21:29-07:00*%
%TF.ProjectId,Receiver Schematic,52656365-6976-4657-9220-536368656d61,rev?*%
%TF.SameCoordinates,Original*%
%TF.FileFunction,Soldermask,Bot*%
%TF.FilePolarity,Negative*%
%FSLAX46Y46*%
G04 Gerber Fmt 4.6, Leading zero omitted, Abs format (unit mm)*
G04 Created by KiCad (PCBNEW (6.0.4-0)) date 2022-06-06 20:21:29*
%MOMM*%
%LPD*%
G01*
G04 APERTURE LIST*
%ADD10R,2.000000X2.000000*%
%ADD11C,1.200000*%
%ADD12O,2.616000X1.308000*%
%ADD13O,1.308000X2.616000*%
%ADD14O,2.500000X1.600000*%
%ADD15O,7.000000X3.500000*%
%ADD16C,2.000000*%
%ADD17R,2.400000X2.400000*%
%ADD18C,2.400000*%
%ADD19O,1.800000X1.800000*%
%ADD20O,1.500000X1.500000*%
%ADD21O,1.700000X1.700000*%
%ADD22R,1.700000X1.700000*%
G04 APERTURE END LIST*
D10*
%TO.C,TP11*%
X126492000Y-76200000D03*
%TD*%
D11*
%TO.C,J1*%
X137080000Y-51308000D03*
X127080000Y-51308000D03*
X132080000Y-56308000D03*
X127080000Y-48808000D03*
X137080000Y-48808000D03*
D12*
X132080000Y-51308000D03*
D13*
X127080000Y-56308000D03*
X137080000Y-56308000D03*
X129580000Y-56308000D03*
X134580000Y-56308000D03*
%TD*%
D14*
%TO.C,AntennaConnector1*%
X63810000Y-128270000D03*
D15*
X58730000Y-123190000D03*
X58730000Y-133350000D03*
D14*
X63810000Y-130810000D03*
%TD*%
D16*
%TO.C,L3*%
X129032000Y-130048000D03*
X134112000Y-130048000D03*
%TD*%
D10*
%TO.C,TP15*%
X120015000Y-59690000D03*
%TD*%
D17*
%TO.C,C10*%
X106172000Y-57868755D03*
D18*
X106172000Y-50368755D03*
%TD*%
D10*
%TO.C,TP9*%
X122555000Y-93532500D03*
%TD*%
%TO.C,TP7*%
X141605000Y-93532500D03*
%TD*%
%TO.C,TP2*%
X83820000Y-111760000D03*
%TD*%
%TO.C,TP4*%
X83820000Y-102235000D03*
%TD*%
%TO.C,TP5*%
X83820000Y-106680000D03*
%TD*%
%TO.C,TP3*%
X130810000Y-110490000D03*
%TD*%
D16*
%TO.C,L1*%
X102616000Y-130048000D03*
X107696000Y-130048000D03*
%TD*%
D10*
%TO.C,TP12*%
X135890000Y-87884000D03*
%TD*%
%TO.C,TP14*%
X142875000Y-57150000D03*
%TD*%
%TO.C,TP8*%
X116205000Y-93532500D03*
%TD*%
%TO.C,TP6*%
X133350000Y-93532500D03*
%TD*%
%TO.C,TP1*%
X93345000Y-133985000D03*
%TD*%
%TO.C,TP10*%
X115570000Y-69850000D03*
%TD*%
D16*
%TO.C,L2*%
X118364000Y-125984000D03*
X118364000Y-120904000D03*
%TD*%
D10*
%TO.C,TP13*%
X140335000Y-76200000D03*
%TD*%
D19*
%TO.C,U1*%
X54105000Y-81730000D03*
D20*
X57135000Y-86880000D03*
D19*
X54105000Y-87180000D03*
D20*
X57135000Y-82030000D03*
D21*
X53975000Y-93345000D03*
X56515000Y-93345000D03*
D22*
X59055000Y-93345000D03*
D21*
X61595000Y-93345000D03*
X64135000Y-93345000D03*
X66675000Y-93345000D03*
X69215000Y-93345000D03*
D22*
X71755000Y-93345000D03*
D21*
X74295000Y-93345000D03*
X76835000Y-93345000D03*
X79375000Y-93345000D03*
X81915000Y-93345000D03*
D22*
X84455000Y-93345000D03*
D21*
X86995000Y-93345000D03*
X89535000Y-93345000D03*
X92075000Y-93345000D03*
X94615000Y-93345000D03*
D22*
X97155000Y-93345000D03*
D21*
X99695000Y-93345000D03*
X102235000Y-93345000D03*
X102235000Y-75565000D03*
X99695000Y-75565000D03*
D22*
X97155000Y-75565000D03*
D21*
X94615000Y-75565000D03*
X92075000Y-75565000D03*
X89535000Y-75565000D03*
X86995000Y-75565000D03*
D22*
X84455000Y-75565000D03*
D21*
X81915000Y-75565000D03*
X79375000Y-75565000D03*
X76835000Y-75565000D03*
X74295000Y-75565000D03*
D22*
X71755000Y-75565000D03*
D21*
X69215000Y-75565000D03*
X66675000Y-75565000D03*
X64135000Y-75565000D03*
X61595000Y-75565000D03*
D22*
X59055000Y-75565000D03*
D21*
X56515000Y-75565000D03*
X53975000Y-75565000D03*
X102005000Y-86995000D03*
D22*
X102005000Y-84455000D03*
D21*
X102005000Y-81915000D03*
%TD*%
M02*
