%TF.GenerationSoftware,KiCad,Pcbnew,(6.0.4-0)*%
%TF.CreationDate,2022-06-06T20:21:29-07:00*%
%TF.ProjectId,Receiver Schematic,52656365-6976-4657-9220-536368656d61,rev?*%
%TF.SameCoordinates,Original*%
%TF.FileFunction,Copper,L2,Bot*%
%TF.FilePolarity,Positive*%
%FSLAX46Y46*%
G04 Gerber Fmt 4.6, Leading zero omitted, Abs format (unit mm)*
G04 Created by KiCad (PCBNEW (6.0.4-0)) date 2022-06-06 20:21:29*
%MOMM*%
%LPD*%
G01*
G04 APERTURE LIST*
%TA.AperFunction,ComponentPad*%
%ADD10R,2.000000X2.000000*%
%TD*%
%TA.AperFunction,ComponentPad*%
%ADD11O,2.616000X1.308000*%
%TD*%
%TA.AperFunction,ComponentPad*%
%ADD12O,1.308000X2.616000*%
%TD*%
%TA.AperFunction,ComponentPad*%
%ADD13O,2.500000X1.600000*%
%TD*%
%TA.AperFunction,ComponentPad*%
%ADD14O,7.000000X3.500000*%
%TD*%
%TA.AperFunction,ComponentPad*%
%ADD15C,2.000000*%
%TD*%
%TA.AperFunction,ComponentPad*%
%ADD16R,2.400000X2.400000*%
%TD*%
%TA.AperFunction,ComponentPad*%
%ADD17C,2.400000*%
%TD*%
%TA.AperFunction,ComponentPad*%
%ADD18O,1.700000X1.700000*%
%TD*%
%TA.AperFunction,ComponentPad*%
%ADD19R,1.700000X1.700000*%
%TD*%
%TA.AperFunction,ViaPad*%
%ADD20C,0.800000*%
%TD*%
%TA.AperFunction,Conductor*%
%ADD21C,0.250000*%
%TD*%
G04 APERTURE END LIST*
D10*
%TO.P,TP11,1,1*%
%TO.N,Net-(C17-Pad1)*%
X126492000Y-76200000D03*
%TD*%
D11*
%TO.P,J1,1*%
%TO.N,GND*%
X132080000Y-51308000D03*
D12*
%TO.P,J1,2*%
%TO.N,/Q signal*%
X127080000Y-56308000D03*
%TO.P,J1,3*%
%TO.N,/I signal*%
X137080000Y-56308000D03*
%TO.P,J1,10*%
%TO.N,unconnected-(J1-Pad10)*%
X129580000Y-56308000D03*
%TO.P,J1,11*%
%TO.N,unconnected-(J1-Pad11)*%
X134580000Y-56308000D03*
%TD*%
D13*
%TO.P,AntennaConnector1,1,In*%
%TO.N,Net-(AntennaConnector1-Pad1)*%
X63810000Y-128270000D03*
D14*
%TO.P,AntennaConnector1,2,Ext*%
%TO.N,GND*%
X58730000Y-123190000D03*
X58730000Y-133350000D03*
D13*
X63810000Y-130810000D03*
%TD*%
D15*
%TO.P,L3,1,1*%
%TO.N,Net-(C7-Pad2)*%
X129032000Y-130048000D03*
%TO.P,L3,2,2*%
%TO.N,Net-(L3-Pad2)*%
X134112000Y-130048000D03*
%TD*%
D10*
%TO.P,TP15,1,1*%
%TO.N,Net-(C17-Pad2)*%
X120015000Y-59690000D03*
%TD*%
D16*
%TO.P,C10,1*%
%TO.N,Smoothed 5V*%
X106172000Y-57868755D03*
D17*
%TO.P,C10,2*%
%TO.N,GND*%
X106172000Y-50368755D03*
%TD*%
D10*
%TO.P,TP9,1,1*%
%TO.N,/90 degrees*%
X122555000Y-93532500D03*
%TD*%
%TO.P,TP7,1,1*%
%TO.N,/180 degrees*%
X141605000Y-93532500D03*
%TD*%
%TO.P,TP2,1,1*%
%TO.N,Net-(TP2-Pad1)*%
X83820000Y-111760000D03*
%TD*%
%TO.P,TP4,1,1*%
%TO.N,Net-(TP4-Pad1)*%
X83820000Y-102235000D03*
%TD*%
%TO.P,TP5,1,1*%
%TO.N,Net-(TP5-Pad1)*%
X83820000Y-106680000D03*
%TD*%
%TO.P,TP3,1,1*%
%TO.N,Net-(L3-Pad2)*%
X130810000Y-110490000D03*
%TD*%
D15*
%TO.P,L1,1,1*%
%TO.N,Net-(C3-Pad1)*%
X102616000Y-130048000D03*
%TO.P,L1,2,2*%
%TO.N,Net-(C5-Pad1)*%
X107696000Y-130048000D03*
%TD*%
D10*
%TO.P,TP12,1,1*%
%TO.N,Net-(C9-Pad1)*%
X135890000Y-87884000D03*
%TD*%
%TO.P,TP14,1,1*%
%TO.N,Net-(C16-Pad1)*%
X142875000Y-57150000D03*
%TD*%
%TO.P,TP8,1,1*%
%TO.N,/270 degrees*%
X116205000Y-93532500D03*
%TD*%
%TO.P,TP6,1,1*%
%TO.N,/0 degrees*%
X133350000Y-93532500D03*
%TD*%
%TO.P,TP1,1,1*%
%TO.N,Net-(AntennaConnector1-Pad1)*%
X93345000Y-133985000D03*
%TD*%
%TO.P,TP10,1,1*%
%TO.N,Net-(C14-Pad2)*%
X115570000Y-69850000D03*
%TD*%
D15*
%TO.P,L2,1,1*%
%TO.N,Net-(C5-Pad1)*%
X118364000Y-125984000D03*
%TO.P,L2,2,2*%
%TO.N,GND*%
X118364000Y-120904000D03*
%TD*%
D10*
%TO.P,TP13,1,1*%
%TO.N,Net-(C16-Pad2)*%
X140335000Y-76200000D03*
%TD*%
D18*
%TO.P,U1,1,GPIO0*%
%TO.N,unconnected-(U1-Pad1)*%
X53975000Y-93345000D03*
%TO.P,U1,2,GPIO1*%
%TO.N,unconnected-(U1-Pad2)*%
X56515000Y-93345000D03*
D19*
%TO.P,U1,3,GND*%
%TO.N,unconnected-(U1-Pad3)*%
X59055000Y-93345000D03*
D18*
%TO.P,U1,4,GPIO2*%
%TO.N,unconnected-(U1-Pad4)*%
X61595000Y-93345000D03*
%TO.P,U1,5,GPIO3*%
%TO.N,unconnected-(U1-Pad5)*%
X64135000Y-93345000D03*
%TO.P,U1,6,GPIO4*%
%TO.N,/SDA*%
X66675000Y-93345000D03*
%TO.P,U1,7,GPIO5*%
%TO.N,/SCL*%
X69215000Y-93345000D03*
D19*
%TO.P,U1,8,GND*%
%TO.N,unconnected-(U1-Pad8)*%
X71755000Y-93345000D03*
D18*
%TO.P,U1,9,GPIO6*%
%TO.N,unconnected-(U1-Pad9)*%
X74295000Y-93345000D03*
%TO.P,U1,10,GPIO7*%
%TO.N,unconnected-(U1-Pad10)*%
X76835000Y-93345000D03*
%TO.P,U1,11,GPIO8*%
%TO.N,unconnected-(U1-Pad11)*%
X79375000Y-93345000D03*
%TO.P,U1,12,GPIO9*%
%TO.N,unconnected-(U1-Pad12)*%
X81915000Y-93345000D03*
D19*
%TO.P,U1,13,GND*%
%TO.N,unconnected-(U1-Pad13)*%
X84455000Y-93345000D03*
D18*
%TO.P,U1,14,GPIO10*%
%TO.N,unconnected-(U1-Pad14)*%
X86995000Y-93345000D03*
%TO.P,U1,15,GPIO11*%
%TO.N,unconnected-(U1-Pad15)*%
X89535000Y-93345000D03*
%TO.P,U1,16,GPIO12*%
%TO.N,unconnected-(U1-Pad16)*%
X92075000Y-93345000D03*
%TO.P,U1,17,GPIO13*%
%TO.N,unconnected-(U1-Pad17)*%
X94615000Y-93345000D03*
D19*
%TO.P,U1,18,GND*%
%TO.N,unconnected-(U1-Pad18)*%
X97155000Y-93345000D03*
D18*
%TO.P,U1,19,GPIO14*%
%TO.N,unconnected-(U1-Pad19)*%
X99695000Y-93345000D03*
%TO.P,U1,20,GPIO15*%
%TO.N,unconnected-(U1-Pad20)*%
X102235000Y-93345000D03*
%TO.P,U1,21,GPIO16*%
%TO.N,unconnected-(U1-Pad21)*%
X102235000Y-75565000D03*
%TO.P,U1,22,GPIO17*%
%TO.N,unconnected-(U1-Pad22)*%
X99695000Y-75565000D03*
D19*
%TO.P,U1,23,GND*%
%TO.N,unconnected-(U1-Pad23)*%
X97155000Y-75565000D03*
D18*
%TO.P,U1,24,GPIO18*%
%TO.N,unconnected-(U1-Pad24)*%
X94615000Y-75565000D03*
%TO.P,U1,25,GPIO19*%
%TO.N,unconnected-(U1-Pad25)*%
X92075000Y-75565000D03*
%TO.P,U1,26,GPIO20*%
%TO.N,unconnected-(U1-Pad26)*%
X89535000Y-75565000D03*
%TO.P,U1,27,GPIO21*%
%TO.N,unconnected-(U1-Pad27)*%
X86995000Y-75565000D03*
D19*
%TO.P,U1,28,GND*%
%TO.N,unconnected-(U1-Pad28)*%
X84455000Y-75565000D03*
D18*
%TO.P,U1,29,GPIO22*%
%TO.N,unconnected-(U1-Pad29)*%
X81915000Y-75565000D03*
%TO.P,U1,30,RUN*%
%TO.N,unconnected-(U1-Pad30)*%
X79375000Y-75565000D03*
%TO.P,U1,31,GPIO26_ADC0*%
%TO.N,unconnected-(U1-Pad31)*%
X76835000Y-75565000D03*
%TO.P,U1,32,GPIO27_ADC1*%
%TO.N,unconnected-(U1-Pad32)*%
X74295000Y-75565000D03*
D19*
%TO.P,U1,33,AGND*%
%TO.N,unconnected-(U1-Pad33)*%
X71755000Y-75565000D03*
D18*
%TO.P,U1,34,GPIO28_ADC2*%
%TO.N,unconnected-(U1-Pad34)*%
X69215000Y-75565000D03*
%TO.P,U1,35,ADC_VREF*%
%TO.N,unconnected-(U1-Pad35)*%
X66675000Y-75565000D03*
%TO.P,U1,36,3V3*%
%TO.N,+3V3*%
X64135000Y-75565000D03*
%TO.P,U1,37,3V3_EN*%
%TO.N,unconnected-(U1-Pad37)*%
X61595000Y-75565000D03*
D19*
%TO.P,U1,38,GND*%
%TO.N,GND*%
X59055000Y-75565000D03*
D18*
%TO.P,U1,39,VSYS*%
%TO.N,unconnected-(U1-Pad39)*%
X56515000Y-75565000D03*
%TO.P,U1,40,VBUS*%
%TO.N,5V*%
X53975000Y-75565000D03*
%TO.P,U1,41,SWCLK*%
%TO.N,unconnected-(U1-Pad41)*%
X102005000Y-86995000D03*
D19*
%TO.P,U1,42,GND*%
%TO.N,unconnected-(U1-Pad42)*%
X102005000Y-84455000D03*
D18*
%TO.P,U1,43,SWDIO*%
%TO.N,unconnected-(U1-Pad43)*%
X102005000Y-81915000D03*
%TD*%
D20*
%TO.N,GND*%
X128270000Y-66040000D03*
X111125000Y-94615000D03*
X127000000Y-67584020D03*
X116840000Y-95885000D03*
X121285000Y-99060000D03*
X121285000Y-102870000D03*
%TO.N,Net-(C8-Pad1)*%
X135890000Y-73025000D03*
X135269085Y-76392520D03*
X135128000Y-78232000D03*
X139065000Y-73025000D03*
%TO.N,Net-(C14-Pad2)*%
X116840000Y-72390000D03*
X132495335Y-73752665D03*
%TO.N,Net-(C16-Pad1)*%
X129540000Y-67584020D03*
X134620000Y-65532000D03*
%TO.N,Net-(C17-Pad1)*%
X133604000Y-74168000D03*
X123952000Y-78232000D03*
X121920000Y-78232000D03*
X132080000Y-75692000D03*
%TO.N,/180 degrees*%
X127000000Y-97977500D03*
X132080000Y-97977500D03*
%TO.N,/SDA*%
X71120000Y-107950000D03*
X66675000Y-103505000D03*
%TO.N,/SCL*%
X71778801Y-107198344D03*
X70485000Y-105410000D03*
%TO.N,Net-(TP5-Pad1)*%
X124460000Y-107950000D03*
X120650000Y-109220000D03*
%TD*%
D21*
%TO.N,GND*%
X128270000Y-66314020D02*
X127000000Y-67584020D01*
X112395000Y-95885000D02*
X116840000Y-95885000D01*
X111125000Y-94615000D02*
X112395000Y-95885000D01*
X128270000Y-66040000D02*
X128270000Y-66314020D01*
X121285000Y-99060000D02*
X121285000Y-102870000D01*
%TO.N,Net-(C8-Pad1)*%
X135269085Y-76392520D02*
X135269085Y-78090915D01*
X139065000Y-73025000D02*
X135890000Y-73025000D01*
X135269085Y-78090915D02*
X135128000Y-78232000D01*
%TO.N,Net-(C14-Pad2)*%
X132495335Y-73752665D02*
X131470737Y-74777263D01*
X119227263Y-74777263D02*
X116840000Y-72390000D01*
X131470737Y-74777263D02*
X119227263Y-74777263D01*
%TO.N,Net-(C16-Pad1)*%
X132567980Y-67584020D02*
X134620000Y-65532000D01*
X129540000Y-67584020D02*
X132567980Y-67584020D01*
%TO.N,Net-(C17-Pad1)*%
X133604000Y-74168000D02*
X132080000Y-75692000D01*
X121920000Y-78232000D02*
X123952000Y-78232000D01*
%TO.N,/180 degrees*%
X127000000Y-97977500D02*
X131445000Y-97977500D01*
X131445000Y-97977500D02*
X132080000Y-97977500D01*
%TO.N,/SDA*%
X71120000Y-107950000D02*
X66675000Y-103505000D01*
%TO.N,/SCL*%
X70485000Y-105410000D02*
X70485000Y-105904543D01*
X70485000Y-105904543D02*
X71778801Y-107198344D01*
%TO.N,Net-(TP5-Pad1)*%
X123190000Y-109220000D02*
X124460000Y-107950000D01*
X120650000Y-109220000D02*
X123190000Y-109220000D01*
%TD*%
%TA.AperFunction,Conductor*%
%TO.N,GND*%
G36*
X145991121Y-44471002D02*
G01*
X146037614Y-44524658D01*
X146049000Y-44577000D01*
X146049000Y-139573000D01*
X146028998Y-139641121D01*
X145975342Y-139687614D01*
X145923000Y-139699000D01*
X50927000Y-139699000D01*
X50858879Y-139678998D01*
X50812386Y-139625342D01*
X50801000Y-139573000D01*
X50801000Y-133620272D01*
X54736942Y-133620272D01*
X54743222Y-133692053D01*
X54744497Y-133700292D01*
X54808110Y-133984880D01*
X54810464Y-133992877D01*
X54911150Y-134266534D01*
X54914550Y-134274172D01*
X55050549Y-134532115D01*
X55054916Y-134539213D01*
X55223835Y-134776905D01*
X55229108Y-134783372D01*
X55427983Y-134996639D01*
X55434067Y-135002351D01*
X55659393Y-135187437D01*
X55666174Y-135192292D01*
X55914013Y-135345958D01*
X55921373Y-135349871D01*
X56187346Y-135469404D01*
X56195169Y-135472314D01*
X56474625Y-135555624D01*
X56482746Y-135557469D01*
X56771429Y-135603191D01*
X56778403Y-135603899D01*
X56867286Y-135607936D01*
X56870119Y-135608000D01*
X58457885Y-135608000D01*
X58473124Y-135603525D01*
X58474329Y-135602135D01*
X58476000Y-135594452D01*
X58476000Y-135589885D01*
X58984000Y-135589885D01*
X58988475Y-135605124D01*
X58989865Y-135606329D01*
X58997548Y-135608000D01*
X60553993Y-135608000D01*
X60558182Y-135607861D01*
X60775132Y-135593451D01*
X60783403Y-135592347D01*
X61069251Y-135534710D01*
X61077303Y-135532522D01*
X61353005Y-135437591D01*
X61360716Y-135434350D01*
X61621444Y-135303787D01*
X61628638Y-135299566D01*
X61869820Y-135135659D01*
X61876390Y-135130526D01*
X62017065Y-135004748D01*
X92144500Y-135004748D01*
X92156133Y-135063231D01*
X92200448Y-135129552D01*
X92266769Y-135173867D01*
X92278938Y-135176288D01*
X92278939Y-135176288D01*
X92319184Y-135184293D01*
X92325252Y-135185500D01*
X94364748Y-135185500D01*
X94370816Y-135184293D01*
X94411061Y-135176288D01*
X94411062Y-135176288D01*
X94423231Y-135173867D01*
X94489552Y-135129552D01*
X94533867Y-135063231D01*
X94545500Y-135004748D01*
X94545500Y-132965252D01*
X94533867Y-132906769D01*
X94489552Y-132840448D01*
X94423231Y-132796133D01*
X94411062Y-132793712D01*
X94411061Y-132793712D01*
X94370816Y-132785707D01*
X94364748Y-132784500D01*
X92325252Y-132784500D01*
X92319184Y-132785707D01*
X92278939Y-132793712D01*
X92278938Y-132793712D01*
X92266769Y-132796133D01*
X92200448Y-132840448D01*
X92156133Y-132906769D01*
X92144500Y-132965252D01*
X92144500Y-135004748D01*
X62017065Y-135004748D01*
X62093775Y-134936161D01*
X62099608Y-134930205D01*
X62289378Y-134708797D01*
X62294376Y-134702116D01*
X62453191Y-134457563D01*
X62457265Y-134450273D01*
X62582338Y-134186868D01*
X62585414Y-134179100D01*
X62674552Y-133901469D01*
X62676573Y-133893363D01*
X62725429Y-133621830D01*
X62723997Y-133608571D01*
X62709387Y-133604000D01*
X59002115Y-133604000D01*
X58986876Y-133608475D01*
X58985671Y-133609865D01*
X58984000Y-133617548D01*
X58984000Y-135589885D01*
X58476000Y-135589885D01*
X58476000Y-133622115D01*
X58471525Y-133606876D01*
X58470135Y-133605671D01*
X58462452Y-133604000D01*
X54753633Y-133604000D01*
X54739004Y-133608295D01*
X54736942Y-133620272D01*
X50801000Y-133620272D01*
X50801000Y-133078170D01*
X54734571Y-133078170D01*
X54736003Y-133091429D01*
X54750613Y-133096000D01*
X58457885Y-133096000D01*
X58473124Y-133091525D01*
X58474329Y-133090135D01*
X58476000Y-133082452D01*
X58476000Y-133077885D01*
X58984000Y-133077885D01*
X58988475Y-133093124D01*
X58989865Y-133094329D01*
X58997548Y-133096000D01*
X62706367Y-133096000D01*
X62720996Y-133091705D01*
X62723058Y-133079728D01*
X62716778Y-133007947D01*
X62715503Y-132999708D01*
X62651890Y-132715120D01*
X62649536Y-132707123D01*
X62548850Y-132433466D01*
X62545450Y-132425828D01*
X62409451Y-132167885D01*
X62405084Y-132160787D01*
X62236165Y-131923095D01*
X62230892Y-131916628D01*
X62032017Y-131703361D01*
X62025933Y-131697649D01*
X61800607Y-131512563D01*
X61793826Y-131507708D01*
X61545987Y-131354042D01*
X61538627Y-131350129D01*
X61272654Y-131230596D01*
X61264831Y-131227686D01*
X60985375Y-131144376D01*
X60977254Y-131142531D01*
X60688571Y-131096809D01*
X60681597Y-131096101D01*
X60592714Y-131092064D01*
X60589881Y-131092000D01*
X59002115Y-131092000D01*
X58986876Y-131096475D01*
X58985671Y-131097865D01*
X58984000Y-131105548D01*
X58984000Y-133077885D01*
X58476000Y-133077885D01*
X58476000Y-131110115D01*
X58471525Y-131094876D01*
X58470135Y-131093671D01*
X58462452Y-131092000D01*
X56906007Y-131092000D01*
X56901818Y-131092139D01*
X56684868Y-131106549D01*
X56676597Y-131107653D01*
X56390749Y-131165290D01*
X56382697Y-131167478D01*
X56106995Y-131262409D01*
X56099284Y-131265650D01*
X55838556Y-131396213D01*
X55831362Y-131400434D01*
X55590180Y-131564341D01*
X55583610Y-131569474D01*
X55366225Y-131763839D01*
X55360392Y-131769795D01*
X55170622Y-131991203D01*
X55165624Y-131997884D01*
X55006809Y-132242437D01*
X55002735Y-132249727D01*
X54877662Y-132513132D01*
X54874586Y-132520900D01*
X54785448Y-132798531D01*
X54783427Y-132806637D01*
X54734571Y-133078170D01*
X50801000Y-133078170D01*
X50801000Y-131076522D01*
X62077273Y-131076522D01*
X62124764Y-131253761D01*
X62128510Y-131264053D01*
X62220586Y-131461511D01*
X62226069Y-131471007D01*
X62351028Y-131649467D01*
X62358084Y-131657875D01*
X62512125Y-131811916D01*
X62520533Y-131818972D01*
X62698993Y-131943931D01*
X62708489Y-131949414D01*
X62905947Y-132041490D01*
X62916239Y-132045236D01*
X63126688Y-132101625D01*
X63137481Y-132103528D01*
X63300170Y-132117762D01*
X63305635Y-132118000D01*
X63537885Y-132118000D01*
X63553124Y-132113525D01*
X63554329Y-132112135D01*
X63556000Y-132104452D01*
X63556000Y-132099885D01*
X64064000Y-132099885D01*
X64068475Y-132115124D01*
X64069865Y-132116329D01*
X64077548Y-132118000D01*
X64314365Y-132118000D01*
X64319830Y-132117762D01*
X64482519Y-132103528D01*
X64493312Y-132101625D01*
X64703761Y-132045236D01*
X64714053Y-132041490D01*
X64911511Y-131949414D01*
X64921007Y-131943931D01*
X65099467Y-131818972D01*
X65107875Y-131811916D01*
X65261916Y-131657875D01*
X65268972Y-131649467D01*
X65393931Y-131471007D01*
X65399414Y-131461511D01*
X65491490Y-131264053D01*
X65495236Y-131253761D01*
X65541394Y-131081497D01*
X65541058Y-131067401D01*
X65533116Y-131064000D01*
X64082115Y-131064000D01*
X64066876Y-131068475D01*
X64065671Y-131069865D01*
X64064000Y-131077548D01*
X64064000Y-132099885D01*
X63556000Y-132099885D01*
X63556000Y-131082115D01*
X63551525Y-131066876D01*
X63550135Y-131065671D01*
X63542452Y-131064000D01*
X62092033Y-131064000D01*
X62078502Y-131067973D01*
X62077273Y-131076522D01*
X50801000Y-131076522D01*
X50801000Y-130538503D01*
X62078606Y-130538503D01*
X62078942Y-130552599D01*
X62086884Y-130556000D01*
X65527967Y-130556000D01*
X65541498Y-130552027D01*
X65542727Y-130543478D01*
X65495236Y-130366239D01*
X65491490Y-130355947D01*
X65399414Y-130158489D01*
X65393931Y-130148993D01*
X65301116Y-130016440D01*
X101410770Y-130016440D01*
X101425200Y-130236604D01*
X101426621Y-130242200D01*
X101426622Y-130242205D01*
X101458123Y-130366239D01*
X101479511Y-130450452D01*
X101481928Y-130455694D01*
X101481928Y-130455695D01*
X101520046Y-130538379D01*
X101571883Y-130650821D01*
X101699222Y-130831002D01*
X101857264Y-130984961D01*
X101862060Y-130988166D01*
X101862063Y-130988168D01*
X101981501Y-131067973D01*
X102040717Y-131107540D01*
X102046020Y-131109818D01*
X102046023Y-131109820D01*
X102180226Y-131167478D01*
X102243436Y-131194635D01*
X102323088Y-131212658D01*
X102452995Y-131242054D01*
X102453001Y-131242055D01*
X102458632Y-131243329D01*
X102464403Y-131243556D01*
X102464405Y-131243556D01*
X102532211Y-131246220D01*
X102679098Y-131251991D01*
X102788275Y-131236161D01*
X102891738Y-131221160D01*
X102891743Y-131221159D01*
X102897452Y-131220331D01*
X102902916Y-131218476D01*
X102902921Y-131218475D01*
X103100907Y-131151268D01*
X103100912Y-131151266D01*
X103106379Y-131149410D01*
X103118663Y-131142531D01*
X103208644Y-131092139D01*
X103298884Y-131041602D01*
X103468518Y-130900518D01*
X103609602Y-130730884D01*
X103707542Y-130556000D01*
X103714586Y-130543422D01*
X103714587Y-130543420D01*
X103717410Y-130538379D01*
X103719266Y-130532912D01*
X103719268Y-130532907D01*
X103786475Y-130334921D01*
X103786476Y-130334916D01*
X103788331Y-130329452D01*
X103789159Y-130323743D01*
X103789160Y-130323738D01*
X103808346Y-130191413D01*
X103819991Y-130111098D01*
X103821643Y-130048000D01*
X103818743Y-130016440D01*
X106490770Y-130016440D01*
X106505200Y-130236604D01*
X106506621Y-130242200D01*
X106506622Y-130242205D01*
X106538123Y-130366239D01*
X106559511Y-130450452D01*
X106561928Y-130455694D01*
X106561928Y-130455695D01*
X106600046Y-130538379D01*
X106651883Y-130650821D01*
X106779222Y-130831002D01*
X106937264Y-130984961D01*
X106942060Y-130988166D01*
X106942063Y-130988168D01*
X107061501Y-131067973D01*
X107120717Y-131107540D01*
X107126020Y-131109818D01*
X107126023Y-131109820D01*
X107260226Y-131167478D01*
X107323436Y-131194635D01*
X107403088Y-131212658D01*
X107532995Y-131242054D01*
X107533001Y-131242055D01*
X107538632Y-131243329D01*
X107544403Y-131243556D01*
X107544405Y-131243556D01*
X107612211Y-131246220D01*
X107759098Y-131251991D01*
X107868275Y-131236161D01*
X107971738Y-131221160D01*
X107971743Y-131221159D01*
X107977452Y-131220331D01*
X107982916Y-131218476D01*
X107982921Y-131218475D01*
X108180907Y-131151268D01*
X108180912Y-131151266D01*
X108186379Y-131149410D01*
X108198663Y-131142531D01*
X108288644Y-131092139D01*
X108378884Y-131041602D01*
X108548518Y-130900518D01*
X108689602Y-130730884D01*
X108787542Y-130556000D01*
X108794586Y-130543422D01*
X108794587Y-130543420D01*
X108797410Y-130538379D01*
X108799266Y-130532912D01*
X108799268Y-130532907D01*
X108866475Y-130334921D01*
X108866476Y-130334916D01*
X108868331Y-130329452D01*
X108869159Y-130323743D01*
X108869160Y-130323738D01*
X108888346Y-130191413D01*
X108899991Y-130111098D01*
X108901643Y-130048000D01*
X108898743Y-130016440D01*
X127826770Y-130016440D01*
X127841200Y-130236604D01*
X127842621Y-130242200D01*
X127842622Y-130242205D01*
X127874123Y-130366239D01*
X127895511Y-130450452D01*
X127897928Y-130455694D01*
X127897928Y-130455695D01*
X127936046Y-130538379D01*
X127987883Y-130650821D01*
X128115222Y-130831002D01*
X128273264Y-130984961D01*
X128278060Y-130988166D01*
X128278063Y-130988168D01*
X128397501Y-131067973D01*
X128456717Y-131107540D01*
X128462020Y-131109818D01*
X128462023Y-131109820D01*
X128596226Y-131167478D01*
X128659436Y-131194635D01*
X128739088Y-131212658D01*
X128868995Y-131242054D01*
X128869001Y-131242055D01*
X128874632Y-131243329D01*
X128880403Y-131243556D01*
X128880405Y-131243556D01*
X128948211Y-131246220D01*
X129095098Y-131251991D01*
X129204275Y-131236161D01*
X129307738Y-131221160D01*
X129307743Y-131221159D01*
X129313452Y-131220331D01*
X129318916Y-131218476D01*
X129318921Y-131218475D01*
X129516907Y-131151268D01*
X129516912Y-131151266D01*
X129522379Y-131149410D01*
X129534663Y-131142531D01*
X129624644Y-131092139D01*
X129714884Y-131041602D01*
X129884518Y-130900518D01*
X130025602Y-130730884D01*
X130123542Y-130556000D01*
X130130586Y-130543422D01*
X130130587Y-130543420D01*
X130133410Y-130538379D01*
X130135266Y-130532912D01*
X130135268Y-130532907D01*
X130202475Y-130334921D01*
X130202476Y-130334916D01*
X130204331Y-130329452D01*
X130205159Y-130323743D01*
X130205160Y-130323738D01*
X130224346Y-130191413D01*
X130235991Y-130111098D01*
X130237643Y-130048000D01*
X130234743Y-130016440D01*
X132906770Y-130016440D01*
X132921200Y-130236604D01*
X132922621Y-130242200D01*
X132922622Y-130242205D01*
X132954123Y-130366239D01*
X132975511Y-130450452D01*
X132977928Y-130455694D01*
X132977928Y-130455695D01*
X133016046Y-130538379D01*
X133067883Y-130650821D01*
X133195222Y-130831002D01*
X133353264Y-130984961D01*
X133358060Y-130988166D01*
X133358063Y-130988168D01*
X133477501Y-131067973D01*
X133536717Y-131107540D01*
X133542020Y-131109818D01*
X133542023Y-131109820D01*
X133676226Y-131167478D01*
X133739436Y-131194635D01*
X133819088Y-131212658D01*
X133948995Y-131242054D01*
X133949001Y-131242055D01*
X133954632Y-131243329D01*
X133960403Y-131243556D01*
X133960405Y-131243556D01*
X134028211Y-131246220D01*
X134175098Y-131251991D01*
X134284275Y-131236161D01*
X134387738Y-131221160D01*
X134387743Y-131221159D01*
X134393452Y-131220331D01*
X134398916Y-131218476D01*
X134398921Y-131218475D01*
X134596907Y-131151268D01*
X134596912Y-131151266D01*
X134602379Y-131149410D01*
X134614663Y-131142531D01*
X134704644Y-131092139D01*
X134794884Y-131041602D01*
X134964518Y-130900518D01*
X135105602Y-130730884D01*
X135203542Y-130556000D01*
X135210586Y-130543422D01*
X135210587Y-130543420D01*
X135213410Y-130538379D01*
X135215266Y-130532912D01*
X135215268Y-130532907D01*
X135282475Y-130334921D01*
X135282476Y-130334916D01*
X135284331Y-130329452D01*
X135285159Y-130323743D01*
X135285160Y-130323738D01*
X135304346Y-130191413D01*
X135315991Y-130111098D01*
X135317643Y-130048000D01*
X135297454Y-129828289D01*
X135237565Y-129615936D01*
X135139980Y-129418053D01*
X135094015Y-129356498D01*
X135011420Y-129245891D01*
X135011420Y-129245890D01*
X135007967Y-129241267D01*
X134845949Y-129091499D01*
X134659350Y-128973764D01*
X134454421Y-128892006D01*
X134448761Y-128890880D01*
X134448757Y-128890879D01*
X134243691Y-128850089D01*
X134243688Y-128850089D01*
X134238024Y-128848962D01*
X134232249Y-128848886D01*
X134232245Y-128848886D01*
X134121504Y-128847437D01*
X134017406Y-128846074D01*
X134011709Y-128847053D01*
X134011708Y-128847053D01*
X133805654Y-128882459D01*
X133805653Y-128882459D01*
X133799957Y-128883438D01*
X133592957Y-128959804D01*
X133403341Y-129072614D01*
X133237457Y-129218090D01*
X133100863Y-129391360D01*
X132998131Y-129586620D01*
X132932703Y-129797333D01*
X132906770Y-130016440D01*
X130234743Y-130016440D01*
X130217454Y-129828289D01*
X130157565Y-129615936D01*
X130059980Y-129418053D01*
X130014015Y-129356498D01*
X129931420Y-129245891D01*
X129931420Y-129245890D01*
X129927967Y-129241267D01*
X129765949Y-129091499D01*
X129579350Y-128973764D01*
X129374421Y-128892006D01*
X129368761Y-128890880D01*
X129368757Y-128890879D01*
X129163691Y-128850089D01*
X129163688Y-128850089D01*
X129158024Y-128848962D01*
X129152249Y-128848886D01*
X129152245Y-128848886D01*
X129041504Y-128847437D01*
X128937406Y-128846074D01*
X128931709Y-128847053D01*
X128931708Y-128847053D01*
X128725654Y-128882459D01*
X128725653Y-128882459D01*
X128719957Y-128883438D01*
X128512957Y-128959804D01*
X128323341Y-129072614D01*
X128157457Y-129218090D01*
X128020863Y-129391360D01*
X127918131Y-129586620D01*
X127852703Y-129797333D01*
X127826770Y-130016440D01*
X108898743Y-130016440D01*
X108881454Y-129828289D01*
X108821565Y-129615936D01*
X108723980Y-129418053D01*
X108678015Y-129356498D01*
X108595420Y-129245891D01*
X108595420Y-129245890D01*
X108591967Y-129241267D01*
X108429949Y-129091499D01*
X108243350Y-128973764D01*
X108038421Y-128892006D01*
X108032761Y-128890880D01*
X108032757Y-128890879D01*
X107827691Y-128850089D01*
X107827688Y-128850089D01*
X107822024Y-128848962D01*
X107816249Y-128848886D01*
X107816245Y-128848886D01*
X107705504Y-128847437D01*
X107601406Y-128846074D01*
X107595709Y-128847053D01*
X107595708Y-128847053D01*
X107389654Y-128882459D01*
X107389653Y-128882459D01*
X107383957Y-128883438D01*
X107176957Y-128959804D01*
X106987341Y-129072614D01*
X106821457Y-129218090D01*
X106684863Y-129391360D01*
X106582131Y-129586620D01*
X106516703Y-129797333D01*
X106490770Y-130016440D01*
X103818743Y-130016440D01*
X103801454Y-129828289D01*
X103741565Y-129615936D01*
X103643980Y-129418053D01*
X103598015Y-129356498D01*
X103515420Y-129245891D01*
X103515420Y-129245890D01*
X103511967Y-129241267D01*
X103349949Y-129091499D01*
X103163350Y-128973764D01*
X102958421Y-128892006D01*
X102952761Y-128890880D01*
X102952757Y-128890879D01*
X102747691Y-128850089D01*
X102747688Y-128850089D01*
X102742024Y-128848962D01*
X102736249Y-128848886D01*
X102736245Y-128848886D01*
X102625504Y-128847437D01*
X102521406Y-128846074D01*
X102515709Y-128847053D01*
X102515708Y-128847053D01*
X102309654Y-128882459D01*
X102309653Y-128882459D01*
X102303957Y-128883438D01*
X102096957Y-128959804D01*
X101907341Y-129072614D01*
X101741457Y-129218090D01*
X101604863Y-129391360D01*
X101502131Y-129586620D01*
X101436703Y-129797333D01*
X101410770Y-130016440D01*
X65301116Y-130016440D01*
X65268972Y-129970533D01*
X65261916Y-129962125D01*
X65107875Y-129808084D01*
X65099467Y-129801028D01*
X64921007Y-129676069D01*
X64911511Y-129670586D01*
X64714053Y-129578510D01*
X64703761Y-129574764D01*
X64493312Y-129518375D01*
X64482520Y-129516472D01*
X64417143Y-129510752D01*
X64351025Y-129484888D01*
X64309386Y-129427385D01*
X64305445Y-129356498D01*
X64340454Y-129294733D01*
X64403299Y-129261701D01*
X64415390Y-129259876D01*
X64430558Y-129258336D01*
X64455868Y-129255765D01*
X64455870Y-129255765D01*
X64462216Y-129255120D01*
X64656172Y-129194338D01*
X64833944Y-129095797D01*
X64988271Y-128963523D01*
X65112848Y-128802919D01*
X65202587Y-128620545D01*
X65228752Y-128520097D01*
X65252212Y-128430034D01*
X65252212Y-128430031D01*
X65253822Y-128423852D01*
X65264459Y-128220874D01*
X65234065Y-128019903D01*
X65163881Y-127829148D01*
X65110345Y-127742802D01*
X65060137Y-127661824D01*
X65060134Y-127661820D01*
X65056774Y-127656401D01*
X64917119Y-127508720D01*
X64750621Y-127392137D01*
X64564081Y-127311414D01*
X64518053Y-127301798D01*
X64369856Y-127270838D01*
X64369851Y-127270837D01*
X64365120Y-127269849D01*
X64360238Y-127269593D01*
X64360129Y-127269587D01*
X64360113Y-127269587D01*
X64358461Y-127269500D01*
X63309200Y-127269500D01*
X63261207Y-127274375D01*
X63164132Y-127284235D01*
X63164130Y-127284235D01*
X63157784Y-127284880D01*
X62963828Y-127345662D01*
X62786056Y-127444203D01*
X62631729Y-127576477D01*
X62507152Y-127737081D01*
X62417413Y-127919455D01*
X62415804Y-127925633D01*
X62415803Y-127925635D01*
X62389603Y-128026220D01*
X62366178Y-128116148D01*
X62355541Y-128319126D01*
X62385935Y-128520097D01*
X62456119Y-128710852D01*
X62459479Y-128716272D01*
X62459480Y-128716273D01*
X62559863Y-128878176D01*
X62559866Y-128878180D01*
X62563226Y-128883599D01*
X62702881Y-129031280D01*
X62869379Y-129147863D01*
X63055919Y-129228586D01*
X63186018Y-129255765D01*
X63216031Y-129262035D01*
X63278622Y-129295544D01*
X63313160Y-129357574D01*
X63308680Y-129428429D01*
X63266604Y-129485614D01*
X63201246Y-129510893D01*
X63137480Y-129516472D01*
X63126688Y-129518375D01*
X62916239Y-129574764D01*
X62905947Y-129578510D01*
X62708489Y-129670586D01*
X62698993Y-129676069D01*
X62520533Y-129801028D01*
X62512125Y-129808084D01*
X62358084Y-129962125D01*
X62351028Y-129970533D01*
X62226069Y-130148993D01*
X62220586Y-130158489D01*
X62128510Y-130355947D01*
X62124764Y-130366239D01*
X62078606Y-130538503D01*
X50801000Y-130538503D01*
X50801000Y-125952440D01*
X117158770Y-125952440D01*
X117173200Y-126172604D01*
X117174621Y-126178200D01*
X117174622Y-126178205D01*
X117226090Y-126380857D01*
X117227511Y-126386452D01*
X117229928Y-126391694D01*
X117229928Y-126391695D01*
X117268046Y-126474379D01*
X117319883Y-126586821D01*
X117447222Y-126767002D01*
X117605264Y-126920961D01*
X117610060Y-126924166D01*
X117610063Y-126924168D01*
X117694261Y-126980427D01*
X117788717Y-127043540D01*
X117794020Y-127045818D01*
X117794023Y-127045820D01*
X117986129Y-127128355D01*
X117991436Y-127130635D01*
X118071088Y-127148658D01*
X118200995Y-127178054D01*
X118201001Y-127178055D01*
X118206632Y-127179329D01*
X118212403Y-127179556D01*
X118212405Y-127179556D01*
X118280211Y-127182220D01*
X118427098Y-127187991D01*
X118536275Y-127172161D01*
X118639738Y-127157160D01*
X118639743Y-127157159D01*
X118645452Y-127156331D01*
X118650916Y-127154476D01*
X118650921Y-127154475D01*
X118848907Y-127087268D01*
X118848912Y-127087266D01*
X118854379Y-127085410D01*
X119046884Y-126977602D01*
X119216518Y-126836518D01*
X119357602Y-126666884D01*
X119465410Y-126474379D01*
X119467266Y-126468912D01*
X119467268Y-126468907D01*
X119534475Y-126270921D01*
X119534476Y-126270916D01*
X119536331Y-126265452D01*
X119537159Y-126259743D01*
X119537160Y-126259738D01*
X119567458Y-126050772D01*
X119567991Y-126047098D01*
X119569643Y-125984000D01*
X119549454Y-125764289D01*
X119489565Y-125551936D01*
X119391980Y-125354053D01*
X119259967Y-125177267D01*
X119097949Y-125027499D01*
X118911350Y-124909764D01*
X118706421Y-124828006D01*
X118700761Y-124826880D01*
X118700757Y-124826879D01*
X118495691Y-124786089D01*
X118495688Y-124786089D01*
X118490024Y-124784962D01*
X118484249Y-124784886D01*
X118484245Y-124784886D01*
X118373504Y-124783437D01*
X118269406Y-124782074D01*
X118263709Y-124783053D01*
X118263708Y-124783053D01*
X118057654Y-124818459D01*
X118057653Y-124818459D01*
X118051957Y-124819438D01*
X117844957Y-124895804D01*
X117655341Y-125008614D01*
X117489457Y-125154090D01*
X117352863Y-125327360D01*
X117250131Y-125522620D01*
X117184703Y-125733333D01*
X117158770Y-125952440D01*
X50801000Y-125952440D01*
X50801000Y-123460272D01*
X54736942Y-123460272D01*
X54743222Y-123532053D01*
X54744497Y-123540292D01*
X54808110Y-123824880D01*
X54810464Y-123832877D01*
X54911150Y-124106534D01*
X54914550Y-124114172D01*
X55050549Y-124372115D01*
X55054916Y-124379213D01*
X55223835Y-124616905D01*
X55229108Y-124623372D01*
X55427983Y-124836639D01*
X55434067Y-124842351D01*
X55659393Y-125027437D01*
X55666174Y-125032292D01*
X55914013Y-125185958D01*
X55921373Y-125189871D01*
X56187346Y-125309404D01*
X56195169Y-125312314D01*
X56474625Y-125395624D01*
X56482746Y-125397469D01*
X56771429Y-125443191D01*
X56778403Y-125443899D01*
X56867286Y-125447936D01*
X56870119Y-125448000D01*
X58457885Y-125448000D01*
X58473124Y-125443525D01*
X58474329Y-125442135D01*
X58476000Y-125434452D01*
X58476000Y-125429885D01*
X58984000Y-125429885D01*
X58988475Y-125445124D01*
X58989865Y-125446329D01*
X58997548Y-125448000D01*
X60553993Y-125448000D01*
X60558182Y-125447861D01*
X60775132Y-125433451D01*
X60783403Y-125432347D01*
X61069251Y-125374710D01*
X61077303Y-125372522D01*
X61353005Y-125277591D01*
X61360716Y-125274350D01*
X61621444Y-125143787D01*
X61628638Y-125139566D01*
X61869820Y-124975659D01*
X61876390Y-124970526D01*
X62093775Y-124776161D01*
X62099608Y-124770205D01*
X62289378Y-124548797D01*
X62294376Y-124542116D01*
X62453191Y-124297563D01*
X62457265Y-124290273D01*
X62582338Y-124026868D01*
X62585414Y-124019100D01*
X62674552Y-123741469D01*
X62676573Y-123733363D01*
X62725429Y-123461830D01*
X62723997Y-123448571D01*
X62709387Y-123444000D01*
X59002115Y-123444000D01*
X58986876Y-123448475D01*
X58985671Y-123449865D01*
X58984000Y-123457548D01*
X58984000Y-125429885D01*
X58476000Y-125429885D01*
X58476000Y-123462115D01*
X58471525Y-123446876D01*
X58470135Y-123445671D01*
X58462452Y-123444000D01*
X54753633Y-123444000D01*
X54739004Y-123448295D01*
X54736942Y-123460272D01*
X50801000Y-123460272D01*
X50801000Y-122918170D01*
X54734571Y-122918170D01*
X54736003Y-122931429D01*
X54750613Y-122936000D01*
X58457885Y-122936000D01*
X58473124Y-122931525D01*
X58474329Y-122930135D01*
X58476000Y-122922452D01*
X58476000Y-122917885D01*
X58984000Y-122917885D01*
X58988475Y-122933124D01*
X58989865Y-122934329D01*
X58997548Y-122936000D01*
X62706367Y-122936000D01*
X62720996Y-122931705D01*
X62723058Y-122919728D01*
X62716778Y-122847947D01*
X62715503Y-122839708D01*
X62651890Y-122555120D01*
X62649536Y-122547123D01*
X62548850Y-122273466D01*
X62545450Y-122265828D01*
X62477352Y-122136670D01*
X117496160Y-122136670D01*
X117501887Y-122144320D01*
X117673042Y-122249205D01*
X117681837Y-122253687D01*
X117891988Y-122340734D01*
X117901373Y-122343783D01*
X118122554Y-122396885D01*
X118132301Y-122398428D01*
X118359070Y-122416275D01*
X118368930Y-122416275D01*
X118595699Y-122398428D01*
X118605446Y-122396885D01*
X118826627Y-122343783D01*
X118836012Y-122340734D01*
X119046163Y-122253687D01*
X119054958Y-122249205D01*
X119222445Y-122146568D01*
X119231907Y-122136110D01*
X119228124Y-122127334D01*
X118376812Y-121276022D01*
X118362868Y-121268408D01*
X118361035Y-121268539D01*
X118354420Y-121272790D01*
X117502920Y-122124290D01*
X117496160Y-122136670D01*
X62477352Y-122136670D01*
X62409451Y-122007885D01*
X62405084Y-122000787D01*
X62236165Y-121763095D01*
X62230892Y-121756628D01*
X62032017Y-121543361D01*
X62025933Y-121537649D01*
X61800607Y-121352563D01*
X61793826Y-121347708D01*
X61545987Y-121194042D01*
X61538627Y-121190129D01*
X61272654Y-121070596D01*
X61264831Y-121067686D01*
X60985375Y-120984376D01*
X60977254Y-120982531D01*
X60688571Y-120936809D01*
X60681597Y-120936101D01*
X60592714Y-120932064D01*
X60589881Y-120932000D01*
X59002115Y-120932000D01*
X58986876Y-120936475D01*
X58985671Y-120937865D01*
X58984000Y-120945548D01*
X58984000Y-122917885D01*
X58476000Y-122917885D01*
X58476000Y-120950115D01*
X58471525Y-120934876D01*
X58470135Y-120933671D01*
X58462452Y-120932000D01*
X56906007Y-120932000D01*
X56901818Y-120932139D01*
X56684868Y-120946549D01*
X56676597Y-120947653D01*
X56390749Y-121005290D01*
X56382697Y-121007478D01*
X56106995Y-121102409D01*
X56099284Y-121105650D01*
X55838556Y-121236213D01*
X55831362Y-121240434D01*
X55590180Y-121404341D01*
X55583610Y-121409474D01*
X55366225Y-121603839D01*
X55360392Y-121609795D01*
X55170622Y-121831203D01*
X55165624Y-121837884D01*
X55006809Y-122082437D01*
X55002735Y-122089727D01*
X54877662Y-122353132D01*
X54874586Y-122360900D01*
X54785448Y-122638531D01*
X54783427Y-122646637D01*
X54734571Y-122918170D01*
X50801000Y-122918170D01*
X50801000Y-120908930D01*
X116851725Y-120908930D01*
X116869572Y-121135699D01*
X116871115Y-121145446D01*
X116924217Y-121366627D01*
X116927266Y-121376012D01*
X117014313Y-121586163D01*
X117018795Y-121594958D01*
X117121432Y-121762445D01*
X117131890Y-121771907D01*
X117140666Y-121768124D01*
X117991978Y-120916812D01*
X117998356Y-120905132D01*
X118728408Y-120905132D01*
X118728539Y-120906965D01*
X118732790Y-120913580D01*
X119584290Y-121765080D01*
X119596670Y-121771840D01*
X119604320Y-121766113D01*
X119709205Y-121594958D01*
X119713687Y-121586163D01*
X119800734Y-121376012D01*
X119803783Y-121366627D01*
X119856885Y-121145446D01*
X119858428Y-121135699D01*
X119876275Y-120908930D01*
X119876275Y-120899070D01*
X119858428Y-120672301D01*
X119856885Y-120662554D01*
X119803783Y-120441373D01*
X119800734Y-120431988D01*
X119713687Y-120221837D01*
X119709205Y-120213042D01*
X119606568Y-120045555D01*
X119596110Y-120036093D01*
X119587334Y-120039876D01*
X118736022Y-120891188D01*
X118728408Y-120905132D01*
X117998356Y-120905132D01*
X117999592Y-120902868D01*
X117999461Y-120901035D01*
X117995210Y-120894420D01*
X117143710Y-120042920D01*
X117131330Y-120036160D01*
X117123680Y-120041887D01*
X117018795Y-120213042D01*
X117014313Y-120221837D01*
X116927266Y-120431988D01*
X116924217Y-120441373D01*
X116871115Y-120662554D01*
X116869572Y-120672301D01*
X116851725Y-120899070D01*
X116851725Y-120908930D01*
X50801000Y-120908930D01*
X50801000Y-119671890D01*
X117496093Y-119671890D01*
X117499876Y-119680666D01*
X118351188Y-120531978D01*
X118365132Y-120539592D01*
X118366965Y-120539461D01*
X118373580Y-120535210D01*
X119225080Y-119683710D01*
X119231840Y-119671330D01*
X119226113Y-119663680D01*
X119054958Y-119558795D01*
X119046163Y-119554313D01*
X118836012Y-119467266D01*
X118826627Y-119464217D01*
X118605446Y-119411115D01*
X118595699Y-119409572D01*
X118368930Y-119391725D01*
X118359070Y-119391725D01*
X118132301Y-119409572D01*
X118122554Y-119411115D01*
X117901373Y-119464217D01*
X117891988Y-119467266D01*
X117681837Y-119554313D01*
X117673042Y-119558795D01*
X117505555Y-119661432D01*
X117496093Y-119671890D01*
X50801000Y-119671890D01*
X50801000Y-112779748D01*
X82619500Y-112779748D01*
X82631133Y-112838231D01*
X82675448Y-112904552D01*
X82741769Y-112948867D01*
X82753938Y-112951288D01*
X82753939Y-112951288D01*
X82794184Y-112959293D01*
X82800252Y-112960500D01*
X84839748Y-112960500D01*
X84845816Y-112959293D01*
X84886061Y-112951288D01*
X84886062Y-112951288D01*
X84898231Y-112948867D01*
X84964552Y-112904552D01*
X85008867Y-112838231D01*
X85020500Y-112779748D01*
X85020500Y-111509748D01*
X129609500Y-111509748D01*
X129621133Y-111568231D01*
X129665448Y-111634552D01*
X129731769Y-111678867D01*
X129743938Y-111681288D01*
X129743939Y-111681288D01*
X129784184Y-111689293D01*
X129790252Y-111690500D01*
X131829748Y-111690500D01*
X131835816Y-111689293D01*
X131876061Y-111681288D01*
X131876062Y-111681288D01*
X131888231Y-111678867D01*
X131954552Y-111634552D01*
X131998867Y-111568231D01*
X132010500Y-111509748D01*
X132010500Y-109470252D01*
X131998867Y-109411769D01*
X131954552Y-109345448D01*
X131888231Y-109301133D01*
X131876062Y-109298712D01*
X131876061Y-109298712D01*
X131835816Y-109290707D01*
X131829748Y-109289500D01*
X129790252Y-109289500D01*
X129784184Y-109290707D01*
X129743939Y-109298712D01*
X129743938Y-109298712D01*
X129731769Y-109301133D01*
X129665448Y-109345448D01*
X129621133Y-109411769D01*
X129609500Y-109470252D01*
X129609500Y-111509748D01*
X85020500Y-111509748D01*
X85020500Y-110740252D01*
X85008867Y-110681769D01*
X84964552Y-110615448D01*
X84898231Y-110571133D01*
X84886062Y-110568712D01*
X84886061Y-110568712D01*
X84845816Y-110560707D01*
X84839748Y-110559500D01*
X82800252Y-110559500D01*
X82794184Y-110560707D01*
X82753939Y-110568712D01*
X82753938Y-110568712D01*
X82741769Y-110571133D01*
X82675448Y-110615448D01*
X82631133Y-110681769D01*
X82619500Y-110740252D01*
X82619500Y-112779748D01*
X50801000Y-112779748D01*
X50801000Y-109220000D01*
X120044318Y-109220000D01*
X120064956Y-109376762D01*
X120125464Y-109522841D01*
X120221718Y-109648282D01*
X120347159Y-109744536D01*
X120493238Y-109805044D01*
X120650000Y-109825682D01*
X120658188Y-109824604D01*
X120798574Y-109806122D01*
X120806762Y-109805044D01*
X120952841Y-109744536D01*
X121078282Y-109648282D01*
X121119323Y-109594796D01*
X121176661Y-109552929D01*
X121219286Y-109545500D01*
X123170290Y-109545500D01*
X123181272Y-109545980D01*
X123207820Y-109548303D01*
X123207822Y-109548303D01*
X123218807Y-109549264D01*
X123255215Y-109539508D01*
X123265942Y-109537130D01*
X123269301Y-109536538D01*
X123303045Y-109530588D01*
X123312590Y-109525077D01*
X123315866Y-109523885D01*
X123319034Y-109522408D01*
X123329684Y-109519554D01*
X123360544Y-109497945D01*
X123369815Y-109492039D01*
X123392910Y-109478705D01*
X123392911Y-109478704D01*
X123402455Y-109473194D01*
X123426685Y-109444319D01*
X123434110Y-109436217D01*
X124287618Y-108582709D01*
X124349930Y-108548683D01*
X124393158Y-108546882D01*
X124460000Y-108555682D01*
X124468188Y-108554604D01*
X124608574Y-108536122D01*
X124616762Y-108535044D01*
X124762841Y-108474536D01*
X124888282Y-108378282D01*
X124984536Y-108252841D01*
X125045044Y-108106762D01*
X125065682Y-107950000D01*
X125045044Y-107793238D01*
X124984536Y-107647159D01*
X124888282Y-107521718D01*
X124762841Y-107425464D01*
X124616762Y-107364956D01*
X124460000Y-107344318D01*
X124303238Y-107364956D01*
X124157159Y-107425464D01*
X124031718Y-107521718D01*
X123935464Y-107647159D01*
X123874956Y-107793238D01*
X123854318Y-107950000D01*
X123863118Y-108016841D01*
X123852179Y-108086988D01*
X123827292Y-108122381D01*
X123092079Y-108857595D01*
X123029766Y-108891620D01*
X123002983Y-108894500D01*
X121219286Y-108894500D01*
X121151165Y-108874498D01*
X121119323Y-108845204D01*
X121083305Y-108798264D01*
X121078282Y-108791718D01*
X120952841Y-108695464D01*
X120806762Y-108634956D01*
X120650000Y-108614318D01*
X120493238Y-108634956D01*
X120347159Y-108695464D01*
X120221718Y-108791718D01*
X120125464Y-108917159D01*
X120064956Y-109063238D01*
X120044318Y-109220000D01*
X50801000Y-109220000D01*
X50801000Y-103505000D01*
X66069318Y-103505000D01*
X66089956Y-103661762D01*
X66150464Y-103807841D01*
X66246718Y-103933282D01*
X66372159Y-104029536D01*
X66518238Y-104090044D01*
X66675000Y-104110682D01*
X66741843Y-104101882D01*
X66811990Y-104112821D01*
X66847383Y-104137709D01*
X70487291Y-107777618D01*
X70521317Y-107839930D01*
X70523118Y-107883158D01*
X70514318Y-107950000D01*
X70534956Y-108106762D01*
X70595464Y-108252841D01*
X70691718Y-108378282D01*
X70817159Y-108474536D01*
X70963238Y-108535044D01*
X71120000Y-108555682D01*
X71128188Y-108554604D01*
X71268574Y-108536122D01*
X71276762Y-108535044D01*
X71422841Y-108474536D01*
X71548282Y-108378282D01*
X71644536Y-108252841D01*
X71705044Y-108106762D01*
X71725682Y-107950000D01*
X71724143Y-107938309D01*
X71724604Y-107935353D01*
X71724604Y-107933553D01*
X71724885Y-107933553D01*
X71735082Y-107868160D01*
X71782211Y-107815062D01*
X71832619Y-107796941D01*
X71899912Y-107788082D01*
X71935563Y-107783388D01*
X72081642Y-107722880D01*
X72111788Y-107699748D01*
X82619500Y-107699748D01*
X82631133Y-107758231D01*
X82675448Y-107824552D01*
X82741769Y-107868867D01*
X82753938Y-107871288D01*
X82753939Y-107871288D01*
X82794184Y-107879293D01*
X82800252Y-107880500D01*
X84839748Y-107880500D01*
X84845816Y-107879293D01*
X84886061Y-107871288D01*
X84886062Y-107871288D01*
X84898231Y-107868867D01*
X84964552Y-107824552D01*
X85008867Y-107758231D01*
X85020500Y-107699748D01*
X85020500Y-105660252D01*
X85008867Y-105601769D01*
X84964552Y-105535448D01*
X84898231Y-105491133D01*
X84886062Y-105488712D01*
X84886061Y-105488712D01*
X84845816Y-105480707D01*
X84839748Y-105479500D01*
X82800252Y-105479500D01*
X82794184Y-105480707D01*
X82753939Y-105488712D01*
X82753938Y-105488712D01*
X82741769Y-105491133D01*
X82675448Y-105535448D01*
X82631133Y-105601769D01*
X82619500Y-105660252D01*
X82619500Y-107699748D01*
X72111788Y-107699748D01*
X72207083Y-107626626D01*
X72303337Y-107501185D01*
X72363845Y-107355106D01*
X72384483Y-107198344D01*
X72363845Y-107041582D01*
X72303337Y-106895503D01*
X72207083Y-106770062D01*
X72081642Y-106673808D01*
X71935563Y-106613300D01*
X71778801Y-106592662D01*
X71711958Y-106601462D01*
X71641811Y-106590523D01*
X71606418Y-106565635D01*
X70976561Y-105935778D01*
X70942535Y-105873466D01*
X70947600Y-105802651D01*
X70965693Y-105769980D01*
X71004507Y-105719396D01*
X71004509Y-105719392D01*
X71009536Y-105712841D01*
X71070044Y-105566762D01*
X71090682Y-105410000D01*
X71070044Y-105253238D01*
X71009536Y-105107159D01*
X70913282Y-104981718D01*
X70787841Y-104885464D01*
X70641762Y-104824956D01*
X70485000Y-104804318D01*
X70328238Y-104824956D01*
X70182159Y-104885464D01*
X70056718Y-104981718D01*
X69960464Y-105107159D01*
X69899956Y-105253238D01*
X69879318Y-105410000D01*
X69899956Y-105566762D01*
X69960464Y-105712841D01*
X70056718Y-105838282D01*
X70063264Y-105843305D01*
X70063265Y-105843306D01*
X70115366Y-105883285D01*
X70157233Y-105940623D01*
X70160367Y-105950634D01*
X70165490Y-105969752D01*
X70167870Y-105980485D01*
X70174412Y-106017588D01*
X70179923Y-106027133D01*
X70181115Y-106030409D01*
X70182592Y-106033577D01*
X70185446Y-106044227D01*
X70191770Y-106053258D01*
X70207055Y-106075087D01*
X70212961Y-106084358D01*
X70226293Y-106107449D01*
X70231806Y-106116998D01*
X70240251Y-106124084D01*
X70260682Y-106141228D01*
X70268785Y-106148654D01*
X71146092Y-107025961D01*
X71180118Y-107088273D01*
X71181919Y-107131501D01*
X71173119Y-107198344D01*
X71174197Y-107206532D01*
X71174197Y-107206533D01*
X71174658Y-107210035D01*
X71174197Y-107212991D01*
X71174197Y-107214791D01*
X71173916Y-107214791D01*
X71163719Y-107280184D01*
X71116590Y-107333282D01*
X71066187Y-107351402D01*
X71053164Y-107353117D01*
X70983015Y-107342181D01*
X70947618Y-107317291D01*
X67307709Y-103677383D01*
X67273683Y-103615071D01*
X67271882Y-103571842D01*
X67279604Y-103513188D01*
X67280682Y-103505000D01*
X67260044Y-103348238D01*
X67221319Y-103254748D01*
X82619500Y-103254748D01*
X82631133Y-103313231D01*
X82675448Y-103379552D01*
X82741769Y-103423867D01*
X82753938Y-103426288D01*
X82753939Y-103426288D01*
X82794184Y-103434293D01*
X82800252Y-103435500D01*
X84839748Y-103435500D01*
X84845816Y-103434293D01*
X84886061Y-103426288D01*
X84886062Y-103426288D01*
X84898231Y-103423867D01*
X84964552Y-103379552D01*
X85008867Y-103313231D01*
X85020500Y-103254748D01*
X85020500Y-101215252D01*
X85008867Y-101156769D01*
X84964552Y-101090448D01*
X84898231Y-101046133D01*
X84886062Y-101043712D01*
X84886061Y-101043712D01*
X84845816Y-101035707D01*
X84839748Y-101034500D01*
X82800252Y-101034500D01*
X82794184Y-101035707D01*
X82753939Y-101043712D01*
X82753938Y-101043712D01*
X82741769Y-101046133D01*
X82675448Y-101090448D01*
X82631133Y-101156769D01*
X82619500Y-101215252D01*
X82619500Y-103254748D01*
X67221319Y-103254748D01*
X67199536Y-103202159D01*
X67103282Y-103076718D01*
X66977841Y-102980464D01*
X66831762Y-102919956D01*
X66675000Y-102899318D01*
X66518238Y-102919956D01*
X66372159Y-102980464D01*
X66246718Y-103076718D01*
X66150464Y-103202159D01*
X66089956Y-103348238D01*
X66069318Y-103505000D01*
X50801000Y-103505000D01*
X50801000Y-97977500D01*
X126394318Y-97977500D01*
X126414956Y-98134262D01*
X126475464Y-98280341D01*
X126571718Y-98405782D01*
X126697159Y-98502036D01*
X126843238Y-98562544D01*
X127000000Y-98583182D01*
X127008188Y-98582104D01*
X127148574Y-98563622D01*
X127156762Y-98562544D01*
X127302841Y-98502036D01*
X127428282Y-98405782D01*
X127469323Y-98352296D01*
X127526661Y-98310429D01*
X127569286Y-98303000D01*
X131510714Y-98303000D01*
X131578835Y-98323002D01*
X131610677Y-98352296D01*
X131651718Y-98405782D01*
X131777159Y-98502036D01*
X131923238Y-98562544D01*
X132080000Y-98583182D01*
X132088188Y-98582104D01*
X132228574Y-98563622D01*
X132236762Y-98562544D01*
X132382841Y-98502036D01*
X132508282Y-98405782D01*
X132604536Y-98280341D01*
X132665044Y-98134262D01*
X132685682Y-97977500D01*
X132665044Y-97820738D01*
X132604536Y-97674659D01*
X132508282Y-97549218D01*
X132382841Y-97452964D01*
X132236762Y-97392456D01*
X132080000Y-97371818D01*
X131923238Y-97392456D01*
X131777159Y-97452964D01*
X131651718Y-97549218D01*
X131646695Y-97555764D01*
X131610677Y-97602704D01*
X131553339Y-97644571D01*
X131510714Y-97652000D01*
X127569286Y-97652000D01*
X127501165Y-97631998D01*
X127469323Y-97602704D01*
X127433305Y-97555764D01*
X127428282Y-97549218D01*
X127302841Y-97452964D01*
X127156762Y-97392456D01*
X127000000Y-97371818D01*
X126843238Y-97392456D01*
X126697159Y-97452964D01*
X126571718Y-97549218D01*
X126475464Y-97674659D01*
X126414956Y-97820738D01*
X126394318Y-97977500D01*
X50801000Y-97977500D01*
X50801000Y-94552248D01*
X115004500Y-94552248D01*
X115016133Y-94610731D01*
X115060448Y-94677052D01*
X115126769Y-94721367D01*
X115138938Y-94723788D01*
X115138939Y-94723788D01*
X115179184Y-94731793D01*
X115185252Y-94733000D01*
X117224748Y-94733000D01*
X117230816Y-94731793D01*
X117271061Y-94723788D01*
X117271062Y-94723788D01*
X117283231Y-94721367D01*
X117349552Y-94677052D01*
X117393867Y-94610731D01*
X117405500Y-94552248D01*
X121354500Y-94552248D01*
X121366133Y-94610731D01*
X121410448Y-94677052D01*
X121476769Y-94721367D01*
X121488938Y-94723788D01*
X121488939Y-94723788D01*
X121529184Y-94731793D01*
X121535252Y-94733000D01*
X123574748Y-94733000D01*
X123580816Y-94731793D01*
X123621061Y-94723788D01*
X123621062Y-94723788D01*
X123633231Y-94721367D01*
X123699552Y-94677052D01*
X123743867Y-94610731D01*
X123755500Y-94552248D01*
X132149500Y-94552248D01*
X132161133Y-94610731D01*
X132205448Y-94677052D01*
X132271769Y-94721367D01*
X132283938Y-94723788D01*
X132283939Y-94723788D01*
X132324184Y-94731793D01*
X132330252Y-94733000D01*
X134369748Y-94733000D01*
X134375816Y-94731793D01*
X134416061Y-94723788D01*
X134416062Y-94723788D01*
X134428231Y-94721367D01*
X134494552Y-94677052D01*
X134538867Y-94610731D01*
X134550500Y-94552248D01*
X140404500Y-94552248D01*
X140416133Y-94610731D01*
X140460448Y-94677052D01*
X140526769Y-94721367D01*
X140538938Y-94723788D01*
X140538939Y-94723788D01*
X140579184Y-94731793D01*
X140585252Y-94733000D01*
X142624748Y-94733000D01*
X142630816Y-94731793D01*
X142671061Y-94723788D01*
X142671062Y-94723788D01*
X142683231Y-94721367D01*
X142749552Y-94677052D01*
X142793867Y-94610731D01*
X142805500Y-94552248D01*
X142805500Y-92512752D01*
X142804293Y-92506684D01*
X142796288Y-92466439D01*
X142796288Y-92466438D01*
X142793867Y-92454269D01*
X142749552Y-92387948D01*
X142683231Y-92343633D01*
X142671062Y-92341212D01*
X142671061Y-92341212D01*
X142630816Y-92333207D01*
X142624748Y-92332000D01*
X140585252Y-92332000D01*
X140579184Y-92333207D01*
X140538939Y-92341212D01*
X140538938Y-92341212D01*
X140526769Y-92343633D01*
X140460448Y-92387948D01*
X140416133Y-92454269D01*
X140413712Y-92466438D01*
X140413712Y-92466439D01*
X140405707Y-92506684D01*
X140404500Y-92512752D01*
X140404500Y-94552248D01*
X134550500Y-94552248D01*
X134550500Y-92512752D01*
X134549293Y-92506684D01*
X134541288Y-92466439D01*
X134541288Y-92466438D01*
X134538867Y-92454269D01*
X134494552Y-92387948D01*
X134428231Y-92343633D01*
X134416062Y-92341212D01*
X134416061Y-92341212D01*
X134375816Y-92333207D01*
X134369748Y-92332000D01*
X132330252Y-92332000D01*
X132324184Y-92333207D01*
X132283939Y-92341212D01*
X132283938Y-92341212D01*
X132271769Y-92343633D01*
X132205448Y-92387948D01*
X132161133Y-92454269D01*
X132158712Y-92466438D01*
X132158712Y-92466439D01*
X132150707Y-92506684D01*
X132149500Y-92512752D01*
X132149500Y-94552248D01*
X123755500Y-94552248D01*
X123755500Y-92512752D01*
X123754293Y-92506684D01*
X123746288Y-92466439D01*
X123746288Y-92466438D01*
X123743867Y-92454269D01*
X123699552Y-92387948D01*
X123633231Y-92343633D01*
X123621062Y-92341212D01*
X123621061Y-92341212D01*
X123580816Y-92333207D01*
X123574748Y-92332000D01*
X121535252Y-92332000D01*
X121529184Y-92333207D01*
X121488939Y-92341212D01*
X121488938Y-92341212D01*
X121476769Y-92343633D01*
X121410448Y-92387948D01*
X121366133Y-92454269D01*
X121363712Y-92466438D01*
X121363712Y-92466439D01*
X121355707Y-92506684D01*
X121354500Y-92512752D01*
X121354500Y-94552248D01*
X117405500Y-94552248D01*
X117405500Y-92512752D01*
X117404293Y-92506684D01*
X117396288Y-92466439D01*
X117396288Y-92466438D01*
X117393867Y-92454269D01*
X117349552Y-92387948D01*
X117283231Y-92343633D01*
X117271062Y-92341212D01*
X117271061Y-92341212D01*
X117230816Y-92333207D01*
X117224748Y-92332000D01*
X115185252Y-92332000D01*
X115179184Y-92333207D01*
X115138939Y-92341212D01*
X115138938Y-92341212D01*
X115126769Y-92343633D01*
X115060448Y-92387948D01*
X115016133Y-92454269D01*
X115013712Y-92466438D01*
X115013712Y-92466439D01*
X115005707Y-92506684D01*
X115004500Y-92512752D01*
X115004500Y-94552248D01*
X50801000Y-94552248D01*
X50801000Y-93330262D01*
X52919520Y-93330262D01*
X52936759Y-93535553D01*
X52993544Y-93733586D01*
X52996359Y-93739063D01*
X52996360Y-93739066D01*
X53017247Y-93779707D01*
X53087712Y-93916818D01*
X53215677Y-94078270D01*
X53372564Y-94211791D01*
X53552398Y-94312297D01*
X53636280Y-94339552D01*
X53742471Y-94374056D01*
X53742475Y-94374057D01*
X53748329Y-94375959D01*
X53952894Y-94400351D01*
X53959029Y-94399879D01*
X53959031Y-94399879D01*
X54031625Y-94394293D01*
X54158300Y-94384546D01*
X54164230Y-94382890D01*
X54164232Y-94382890D01*
X54350797Y-94330800D01*
X54350796Y-94330800D01*
X54356725Y-94329145D01*
X54362214Y-94326372D01*
X54362220Y-94326370D01*
X54535116Y-94239033D01*
X54540610Y-94236258D01*
X54702951Y-94109424D01*
X54837564Y-93953472D01*
X54858387Y-93916818D01*
X54936276Y-93779707D01*
X54939323Y-93774344D01*
X55004351Y-93578863D01*
X55030171Y-93374474D01*
X55030583Y-93345000D01*
X55029138Y-93330262D01*
X55459520Y-93330262D01*
X55476759Y-93535553D01*
X55533544Y-93733586D01*
X55536359Y-93739063D01*
X55536360Y-93739066D01*
X55557247Y-93779707D01*
X55627712Y-93916818D01*
X55755677Y-94078270D01*
X55912564Y-94211791D01*
X56092398Y-94312297D01*
X56176280Y-94339552D01*
X56282471Y-94374056D01*
X56282475Y-94374057D01*
X56288329Y-94375959D01*
X56492894Y-94400351D01*
X56499029Y-94399879D01*
X56499031Y-94399879D01*
X56571625Y-94394293D01*
X56698300Y-94384546D01*
X56704230Y-94382890D01*
X56704232Y-94382890D01*
X56890797Y-94330800D01*
X56890796Y-94330800D01*
X56896725Y-94329145D01*
X56902214Y-94326372D01*
X56902220Y-94326370D01*
X57075116Y-94239033D01*
X57080610Y-94236258D01*
X57108142Y-94214748D01*
X58004500Y-94214748D01*
X58005707Y-94220816D01*
X58009331Y-94239033D01*
X58016133Y-94273231D01*
X58060448Y-94339552D01*
X58126769Y-94383867D01*
X58138938Y-94386288D01*
X58138939Y-94386288D01*
X58179184Y-94394293D01*
X58185252Y-94395500D01*
X59924748Y-94395500D01*
X59930816Y-94394293D01*
X59971061Y-94386288D01*
X59971062Y-94386288D01*
X59983231Y-94383867D01*
X60049552Y-94339552D01*
X60093867Y-94273231D01*
X60100670Y-94239033D01*
X60104293Y-94220816D01*
X60105500Y-94214748D01*
X60105500Y-93330262D01*
X60539520Y-93330262D01*
X60556759Y-93535553D01*
X60613544Y-93733586D01*
X60616359Y-93739063D01*
X60616360Y-93739066D01*
X60637247Y-93779707D01*
X60707712Y-93916818D01*
X60835677Y-94078270D01*
X60992564Y-94211791D01*
X61172398Y-94312297D01*
X61256280Y-94339552D01*
X61362471Y-94374056D01*
X61362475Y-94374057D01*
X61368329Y-94375959D01*
X61572894Y-94400351D01*
X61579029Y-94399879D01*
X61579031Y-94399879D01*
X61651625Y-94394293D01*
X61778300Y-94384546D01*
X61784230Y-94382890D01*
X61784232Y-94382890D01*
X61970797Y-94330800D01*
X61970796Y-94330800D01*
X61976725Y-94329145D01*
X61982214Y-94326372D01*
X61982220Y-94326370D01*
X62155116Y-94239033D01*
X62160610Y-94236258D01*
X62322951Y-94109424D01*
X62457564Y-93953472D01*
X62478387Y-93916818D01*
X62556276Y-93779707D01*
X62559323Y-93774344D01*
X62624351Y-93578863D01*
X62650171Y-93374474D01*
X62650583Y-93345000D01*
X62649138Y-93330262D01*
X63079520Y-93330262D01*
X63096759Y-93535553D01*
X63153544Y-93733586D01*
X63156359Y-93739063D01*
X63156360Y-93739066D01*
X63177247Y-93779707D01*
X63247712Y-93916818D01*
X63375677Y-94078270D01*
X63532564Y-94211791D01*
X63712398Y-94312297D01*
X63796280Y-94339552D01*
X63902471Y-94374056D01*
X63902475Y-94374057D01*
X63908329Y-94375959D01*
X64112894Y-94400351D01*
X64119029Y-94399879D01*
X64119031Y-94399879D01*
X64191625Y-94394293D01*
X64318300Y-94384546D01*
X64324230Y-94382890D01*
X64324232Y-94382890D01*
X64510797Y-94330800D01*
X64510796Y-94330800D01*
X64516725Y-94329145D01*
X64522214Y-94326372D01*
X64522220Y-94326370D01*
X64695116Y-94239033D01*
X64700610Y-94236258D01*
X64862951Y-94109424D01*
X64997564Y-93953472D01*
X65018387Y-93916818D01*
X65096276Y-93779707D01*
X65099323Y-93774344D01*
X65164351Y-93578863D01*
X65190171Y-93374474D01*
X65190583Y-93345000D01*
X65189138Y-93330262D01*
X65619520Y-93330262D01*
X65636759Y-93535553D01*
X65693544Y-93733586D01*
X65696359Y-93739063D01*
X65696360Y-93739066D01*
X65717247Y-93779707D01*
X65787712Y-93916818D01*
X65915677Y-94078270D01*
X66072564Y-94211791D01*
X66252398Y-94312297D01*
X66336280Y-94339552D01*
X66442471Y-94374056D01*
X66442475Y-94374057D01*
X66448329Y-94375959D01*
X66652894Y-94400351D01*
X66659029Y-94399879D01*
X66659031Y-94399879D01*
X66731625Y-94394293D01*
X66858300Y-94384546D01*
X66864230Y-94382890D01*
X66864232Y-94382890D01*
X67050797Y-94330800D01*
X67050796Y-94330800D01*
X67056725Y-94329145D01*
X67062214Y-94326372D01*
X67062220Y-94326370D01*
X67235116Y-94239033D01*
X67240610Y-94236258D01*
X67402951Y-94109424D01*
X67537564Y-93953472D01*
X67558387Y-93916818D01*
X67636276Y-93779707D01*
X67639323Y-93774344D01*
X67704351Y-93578863D01*
X67730171Y-93374474D01*
X67730583Y-93345000D01*
X67729138Y-93330262D01*
X68159520Y-93330262D01*
X68176759Y-93535553D01*
X68233544Y-93733586D01*
X68236359Y-93739063D01*
X68236360Y-93739066D01*
X68257247Y-93779707D01*
X68327712Y-93916818D01*
X68455677Y-94078270D01*
X68612564Y-94211791D01*
X68792398Y-94312297D01*
X68876280Y-94339552D01*
X68982471Y-94374056D01*
X68982475Y-94374057D01*
X68988329Y-94375959D01*
X69192894Y-94400351D01*
X69199029Y-94399879D01*
X69199031Y-94399879D01*
X69271625Y-94394293D01*
X69398300Y-94384546D01*
X69404230Y-94382890D01*
X69404232Y-94382890D01*
X69590797Y-94330800D01*
X69590796Y-94330800D01*
X69596725Y-94329145D01*
X69602214Y-94326372D01*
X69602220Y-94326370D01*
X69775116Y-94239033D01*
X69780610Y-94236258D01*
X69808142Y-94214748D01*
X70704500Y-94214748D01*
X70705707Y-94220816D01*
X70709331Y-94239033D01*
X70716133Y-94273231D01*
X70760448Y-94339552D01*
X70826769Y-94383867D01*
X70838938Y-94386288D01*
X70838939Y-94386288D01*
X70879184Y-94394293D01*
X70885252Y-94395500D01*
X72624748Y-94395500D01*
X72630816Y-94394293D01*
X72671061Y-94386288D01*
X72671062Y-94386288D01*
X72683231Y-94383867D01*
X72749552Y-94339552D01*
X72793867Y-94273231D01*
X72800670Y-94239033D01*
X72804293Y-94220816D01*
X72805500Y-94214748D01*
X72805500Y-93330262D01*
X73239520Y-93330262D01*
X73256759Y-93535553D01*
X73313544Y-93733586D01*
X73316359Y-93739063D01*
X73316360Y-93739066D01*
X73337247Y-93779707D01*
X73407712Y-93916818D01*
X73535677Y-94078270D01*
X73692564Y-94211791D01*
X73872398Y-94312297D01*
X73956280Y-94339552D01*
X74062471Y-94374056D01*
X74062475Y-94374057D01*
X74068329Y-94375959D01*
X74272894Y-94400351D01*
X74279029Y-94399879D01*
X74279031Y-94399879D01*
X74351625Y-94394293D01*
X74478300Y-94384546D01*
X74484230Y-94382890D01*
X74484232Y-94382890D01*
X74670797Y-94330800D01*
X74670796Y-94330800D01*
X74676725Y-94329145D01*
X74682214Y-94326372D01*
X74682220Y-94326370D01*
X74855116Y-94239033D01*
X74860610Y-94236258D01*
X75022951Y-94109424D01*
X75157564Y-93953472D01*
X75178387Y-93916818D01*
X75256276Y-93779707D01*
X75259323Y-93774344D01*
X75324351Y-93578863D01*
X75350171Y-93374474D01*
X75350583Y-93345000D01*
X75349138Y-93330262D01*
X75779520Y-93330262D01*
X75796759Y-93535553D01*
X75853544Y-93733586D01*
X75856359Y-93739063D01*
X75856360Y-93739066D01*
X75877247Y-93779707D01*
X75947712Y-93916818D01*
X76075677Y-94078270D01*
X76232564Y-94211791D01*
X76412398Y-94312297D01*
X76496280Y-94339552D01*
X76602471Y-94374056D01*
X76602475Y-94374057D01*
X76608329Y-94375959D01*
X76812894Y-94400351D01*
X76819029Y-94399879D01*
X76819031Y-94399879D01*
X76891625Y-94394293D01*
X77018300Y-94384546D01*
X77024230Y-94382890D01*
X77024232Y-94382890D01*
X77210797Y-94330800D01*
X77210796Y-94330800D01*
X77216725Y-94329145D01*
X77222214Y-94326372D01*
X77222220Y-94326370D01*
X77395116Y-94239033D01*
X77400610Y-94236258D01*
X77562951Y-94109424D01*
X77697564Y-93953472D01*
X77718387Y-93916818D01*
X77796276Y-93779707D01*
X77799323Y-93774344D01*
X77864351Y-93578863D01*
X77890171Y-93374474D01*
X77890583Y-93345000D01*
X77889138Y-93330262D01*
X78319520Y-93330262D01*
X78336759Y-93535553D01*
X78393544Y-93733586D01*
X78396359Y-93739063D01*
X78396360Y-93739066D01*
X78417247Y-93779707D01*
X78487712Y-93916818D01*
X78615677Y-94078270D01*
X78772564Y-94211791D01*
X78952398Y-94312297D01*
X79036280Y-94339552D01*
X79142471Y-94374056D01*
X79142475Y-94374057D01*
X79148329Y-94375959D01*
X79352894Y-94400351D01*
X79359029Y-94399879D01*
X79359031Y-94399879D01*
X79431625Y-94394293D01*
X79558300Y-94384546D01*
X79564230Y-94382890D01*
X79564232Y-94382890D01*
X79750797Y-94330800D01*
X79750796Y-94330800D01*
X79756725Y-94329145D01*
X79762214Y-94326372D01*
X79762220Y-94326370D01*
X79935116Y-94239033D01*
X79940610Y-94236258D01*
X80102951Y-94109424D01*
X80237564Y-93953472D01*
X80258387Y-93916818D01*
X80336276Y-93779707D01*
X80339323Y-93774344D01*
X80404351Y-93578863D01*
X80430171Y-93374474D01*
X80430583Y-93345000D01*
X80429138Y-93330262D01*
X80859520Y-93330262D01*
X80876759Y-93535553D01*
X80933544Y-93733586D01*
X80936359Y-93739063D01*
X80936360Y-93739066D01*
X80957247Y-93779707D01*
X81027712Y-93916818D01*
X81155677Y-94078270D01*
X81312564Y-94211791D01*
X81492398Y-94312297D01*
X81576280Y-94339552D01*
X81682471Y-94374056D01*
X81682475Y-94374057D01*
X81688329Y-94375959D01*
X81892894Y-94400351D01*
X81899029Y-94399879D01*
X81899031Y-94399879D01*
X81971625Y-94394293D01*
X82098300Y-94384546D01*
X82104230Y-94382890D01*
X82104232Y-94382890D01*
X82290797Y-94330800D01*
X82290796Y-94330800D01*
X82296725Y-94329145D01*
X82302214Y-94326372D01*
X82302220Y-94326370D01*
X82475116Y-94239033D01*
X82480610Y-94236258D01*
X82508142Y-94214748D01*
X83404500Y-94214748D01*
X83405707Y-94220816D01*
X83409331Y-94239033D01*
X83416133Y-94273231D01*
X83460448Y-94339552D01*
X83526769Y-94383867D01*
X83538938Y-94386288D01*
X83538939Y-94386288D01*
X83579184Y-94394293D01*
X83585252Y-94395500D01*
X85324748Y-94395500D01*
X85330816Y-94394293D01*
X85371061Y-94386288D01*
X85371062Y-94386288D01*
X85383231Y-94383867D01*
X85449552Y-94339552D01*
X85493867Y-94273231D01*
X85500670Y-94239033D01*
X85504293Y-94220816D01*
X85505500Y-94214748D01*
X85505500Y-93330262D01*
X85939520Y-93330262D01*
X85956759Y-93535553D01*
X86013544Y-93733586D01*
X86016359Y-93739063D01*
X86016360Y-93739066D01*
X86037247Y-93779707D01*
X86107712Y-93916818D01*
X86235677Y-94078270D01*
X86392564Y-94211791D01*
X86572398Y-94312297D01*
X86656280Y-94339552D01*
X86762471Y-94374056D01*
X86762475Y-94374057D01*
X86768329Y-94375959D01*
X86972894Y-94400351D01*
X86979029Y-94399879D01*
X86979031Y-94399879D01*
X87051625Y-94394293D01*
X87178300Y-94384546D01*
X87184230Y-94382890D01*
X87184232Y-94382890D01*
X87370797Y-94330800D01*
X87370796Y-94330800D01*
X87376725Y-94329145D01*
X87382214Y-94326372D01*
X87382220Y-94326370D01*
X87555116Y-94239033D01*
X87560610Y-94236258D01*
X87722951Y-94109424D01*
X87857564Y-93953472D01*
X87878387Y-93916818D01*
X87956276Y-93779707D01*
X87959323Y-93774344D01*
X88024351Y-93578863D01*
X88050171Y-93374474D01*
X88050583Y-93345000D01*
X88049138Y-93330262D01*
X88479520Y-93330262D01*
X88496759Y-93535553D01*
X88553544Y-93733586D01*
X88556359Y-93739063D01*
X88556360Y-93739066D01*
X88577247Y-93779707D01*
X88647712Y-93916818D01*
X88775677Y-94078270D01*
X88932564Y-94211791D01*
X89112398Y-94312297D01*
X89196280Y-94339552D01*
X89302471Y-94374056D01*
X89302475Y-94374057D01*
X89308329Y-94375959D01*
X89512894Y-94400351D01*
X89519029Y-94399879D01*
X89519031Y-94399879D01*
X89591625Y-94394293D01*
X89718300Y-94384546D01*
X89724230Y-94382890D01*
X89724232Y-94382890D01*
X89910797Y-94330800D01*
X89910796Y-94330800D01*
X89916725Y-94329145D01*
X89922214Y-94326372D01*
X89922220Y-94326370D01*
X90095116Y-94239033D01*
X90100610Y-94236258D01*
X90262951Y-94109424D01*
X90397564Y-93953472D01*
X90418387Y-93916818D01*
X90496276Y-93779707D01*
X90499323Y-93774344D01*
X90564351Y-93578863D01*
X90590171Y-93374474D01*
X90590583Y-93345000D01*
X90589138Y-93330262D01*
X91019520Y-93330262D01*
X91036759Y-93535553D01*
X91093544Y-93733586D01*
X91096359Y-93739063D01*
X91096360Y-93739066D01*
X91117247Y-93779707D01*
X91187712Y-93916818D01*
X91315677Y-94078270D01*
X91472564Y-94211791D01*
X91652398Y-94312297D01*
X91736280Y-94339552D01*
X91842471Y-94374056D01*
X91842475Y-94374057D01*
X91848329Y-94375959D01*
X92052894Y-94400351D01*
X92059029Y-94399879D01*
X92059031Y-94399879D01*
X92131625Y-94394293D01*
X92258300Y-94384546D01*
X92264230Y-94382890D01*
X92264232Y-94382890D01*
X92450797Y-94330800D01*
X92450796Y-94330800D01*
X92456725Y-94329145D01*
X92462214Y-94326372D01*
X92462220Y-94326370D01*
X92635116Y-94239033D01*
X92640610Y-94236258D01*
X92802951Y-94109424D01*
X92937564Y-93953472D01*
X92958387Y-93916818D01*
X93036276Y-93779707D01*
X93039323Y-93774344D01*
X93104351Y-93578863D01*
X93130171Y-93374474D01*
X93130583Y-93345000D01*
X93129138Y-93330262D01*
X93559520Y-93330262D01*
X93576759Y-93535553D01*
X93633544Y-93733586D01*
X93636359Y-93739063D01*
X93636360Y-93739066D01*
X93657247Y-93779707D01*
X93727712Y-93916818D01*
X93855677Y-94078270D01*
X94012564Y-94211791D01*
X94192398Y-94312297D01*
X94276280Y-94339552D01*
X94382471Y-94374056D01*
X94382475Y-94374057D01*
X94388329Y-94375959D01*
X94592894Y-94400351D01*
X94599029Y-94399879D01*
X94599031Y-94399879D01*
X94671625Y-94394293D01*
X94798300Y-94384546D01*
X94804230Y-94382890D01*
X94804232Y-94382890D01*
X94990797Y-94330800D01*
X94990796Y-94330800D01*
X94996725Y-94329145D01*
X95002214Y-94326372D01*
X95002220Y-94326370D01*
X95175116Y-94239033D01*
X95180610Y-94236258D01*
X95208142Y-94214748D01*
X96104500Y-94214748D01*
X96105707Y-94220816D01*
X96109331Y-94239033D01*
X96116133Y-94273231D01*
X96160448Y-94339552D01*
X96226769Y-94383867D01*
X96238938Y-94386288D01*
X96238939Y-94386288D01*
X96279184Y-94394293D01*
X96285252Y-94395500D01*
X98024748Y-94395500D01*
X98030816Y-94394293D01*
X98071061Y-94386288D01*
X98071062Y-94386288D01*
X98083231Y-94383867D01*
X98149552Y-94339552D01*
X98193867Y-94273231D01*
X98200670Y-94239033D01*
X98204293Y-94220816D01*
X98205500Y-94214748D01*
X98205500Y-93330262D01*
X98639520Y-93330262D01*
X98656759Y-93535553D01*
X98713544Y-93733586D01*
X98716359Y-93739063D01*
X98716360Y-93739066D01*
X98737247Y-93779707D01*
X98807712Y-93916818D01*
X98935677Y-94078270D01*
X99092564Y-94211791D01*
X99272398Y-94312297D01*
X99356280Y-94339552D01*
X99462471Y-94374056D01*
X99462475Y-94374057D01*
X99468329Y-94375959D01*
X99672894Y-94400351D01*
X99679029Y-94399879D01*
X99679031Y-94399879D01*
X99751625Y-94394293D01*
X99878300Y-94384546D01*
X99884230Y-94382890D01*
X99884232Y-94382890D01*
X100070797Y-94330800D01*
X100070796Y-94330800D01*
X100076725Y-94329145D01*
X100082214Y-94326372D01*
X100082220Y-94326370D01*
X100255116Y-94239033D01*
X100260610Y-94236258D01*
X100422951Y-94109424D01*
X100557564Y-93953472D01*
X100578387Y-93916818D01*
X100656276Y-93779707D01*
X100659323Y-93774344D01*
X100724351Y-93578863D01*
X100750171Y-93374474D01*
X100750583Y-93345000D01*
X100749138Y-93330262D01*
X101179520Y-93330262D01*
X101196759Y-93535553D01*
X101253544Y-93733586D01*
X101256359Y-93739063D01*
X101256360Y-93739066D01*
X101277247Y-93779707D01*
X101347712Y-93916818D01*
X101475677Y-94078270D01*
X101632564Y-94211791D01*
X101812398Y-94312297D01*
X101896280Y-94339552D01*
X102002471Y-94374056D01*
X102002475Y-94374057D01*
X102008329Y-94375959D01*
X102212894Y-94400351D01*
X102219029Y-94399879D01*
X102219031Y-94399879D01*
X102291625Y-94394293D01*
X102418300Y-94384546D01*
X102424230Y-94382890D01*
X102424232Y-94382890D01*
X102610797Y-94330800D01*
X102610796Y-94330800D01*
X102616725Y-94329145D01*
X102622214Y-94326372D01*
X102622220Y-94326370D01*
X102795116Y-94239033D01*
X102800610Y-94236258D01*
X102962951Y-94109424D01*
X103097564Y-93953472D01*
X103118387Y-93916818D01*
X103196276Y-93779707D01*
X103199323Y-93774344D01*
X103264351Y-93578863D01*
X103290171Y-93374474D01*
X103290583Y-93345000D01*
X103270480Y-93139970D01*
X103210935Y-92942749D01*
X103114218Y-92760849D01*
X103040859Y-92670902D01*
X102987906Y-92605975D01*
X102987903Y-92605972D01*
X102984011Y-92601200D01*
X102869761Y-92506684D01*
X102830025Y-92473811D01*
X102830021Y-92473809D01*
X102825275Y-92469882D01*
X102644055Y-92371897D01*
X102447254Y-92310977D01*
X102441129Y-92310333D01*
X102441128Y-92310333D01*
X102248498Y-92290087D01*
X102248496Y-92290087D01*
X102242369Y-92289443D01*
X102155529Y-92297346D01*
X102043342Y-92307555D01*
X102043339Y-92307556D01*
X102037203Y-92308114D01*
X101839572Y-92366280D01*
X101657002Y-92461726D01*
X101652201Y-92465586D01*
X101652198Y-92465588D01*
X101601085Y-92506684D01*
X101496447Y-92590815D01*
X101364024Y-92748630D01*
X101361056Y-92754028D01*
X101361053Y-92754033D01*
X101354315Y-92766290D01*
X101264776Y-92929162D01*
X101202484Y-93125532D01*
X101201798Y-93131649D01*
X101201797Y-93131653D01*
X101180207Y-93324137D01*
X101179520Y-93330262D01*
X100749138Y-93330262D01*
X100730480Y-93139970D01*
X100670935Y-92942749D01*
X100574218Y-92760849D01*
X100500859Y-92670902D01*
X100447906Y-92605975D01*
X100447903Y-92605972D01*
X100444011Y-92601200D01*
X100329761Y-92506684D01*
X100290025Y-92473811D01*
X100290021Y-92473809D01*
X100285275Y-92469882D01*
X100104055Y-92371897D01*
X99907254Y-92310977D01*
X99901129Y-92310333D01*
X99901128Y-92310333D01*
X99708498Y-92290087D01*
X99708496Y-92290087D01*
X99702369Y-92289443D01*
X99615529Y-92297346D01*
X99503342Y-92307555D01*
X99503339Y-92307556D01*
X99497203Y-92308114D01*
X99299572Y-92366280D01*
X99117002Y-92461726D01*
X99112201Y-92465586D01*
X99112198Y-92465588D01*
X99061085Y-92506684D01*
X98956447Y-92590815D01*
X98824024Y-92748630D01*
X98821056Y-92754028D01*
X98821053Y-92754033D01*
X98814315Y-92766290D01*
X98724776Y-92929162D01*
X98662484Y-93125532D01*
X98661798Y-93131649D01*
X98661797Y-93131653D01*
X98640207Y-93324137D01*
X98639520Y-93330262D01*
X98205500Y-93330262D01*
X98205500Y-92475252D01*
X98193867Y-92416769D01*
X98149552Y-92350448D01*
X98083231Y-92306133D01*
X98071062Y-92303712D01*
X98071061Y-92303712D01*
X98030816Y-92295707D01*
X98024748Y-92294500D01*
X96285252Y-92294500D01*
X96279184Y-92295707D01*
X96238939Y-92303712D01*
X96238938Y-92303712D01*
X96226769Y-92306133D01*
X96160448Y-92350448D01*
X96116133Y-92416769D01*
X96104500Y-92475252D01*
X96104500Y-94214748D01*
X95208142Y-94214748D01*
X95342951Y-94109424D01*
X95477564Y-93953472D01*
X95498387Y-93916818D01*
X95576276Y-93779707D01*
X95579323Y-93774344D01*
X95644351Y-93578863D01*
X95670171Y-93374474D01*
X95670583Y-93345000D01*
X95650480Y-93139970D01*
X95590935Y-92942749D01*
X95494218Y-92760849D01*
X95420859Y-92670902D01*
X95367906Y-92605975D01*
X95367903Y-92605972D01*
X95364011Y-92601200D01*
X95249761Y-92506684D01*
X95210025Y-92473811D01*
X95210021Y-92473809D01*
X95205275Y-92469882D01*
X95024055Y-92371897D01*
X94827254Y-92310977D01*
X94821129Y-92310333D01*
X94821128Y-92310333D01*
X94628498Y-92290087D01*
X94628496Y-92290087D01*
X94622369Y-92289443D01*
X94535529Y-92297346D01*
X94423342Y-92307555D01*
X94423339Y-92307556D01*
X94417203Y-92308114D01*
X94219572Y-92366280D01*
X94037002Y-92461726D01*
X94032201Y-92465586D01*
X94032198Y-92465588D01*
X93981085Y-92506684D01*
X93876447Y-92590815D01*
X93744024Y-92748630D01*
X93741056Y-92754028D01*
X93741053Y-92754033D01*
X93734315Y-92766290D01*
X93644776Y-92929162D01*
X93582484Y-93125532D01*
X93581798Y-93131649D01*
X93581797Y-93131653D01*
X93560207Y-93324137D01*
X93559520Y-93330262D01*
X93129138Y-93330262D01*
X93110480Y-93139970D01*
X93050935Y-92942749D01*
X92954218Y-92760849D01*
X92880859Y-92670902D01*
X92827906Y-92605975D01*
X92827903Y-92605972D01*
X92824011Y-92601200D01*
X92709761Y-92506684D01*
X92670025Y-92473811D01*
X92670021Y-92473809D01*
X92665275Y-92469882D01*
X92484055Y-92371897D01*
X92287254Y-92310977D01*
X92281129Y-92310333D01*
X92281128Y-92310333D01*
X92088498Y-92290087D01*
X92088496Y-92290087D01*
X92082369Y-92289443D01*
X91995529Y-92297346D01*
X91883342Y-92307555D01*
X91883339Y-92307556D01*
X91877203Y-92308114D01*
X91679572Y-92366280D01*
X91497002Y-92461726D01*
X91492201Y-92465586D01*
X91492198Y-92465588D01*
X91441085Y-92506684D01*
X91336447Y-92590815D01*
X91204024Y-92748630D01*
X91201056Y-92754028D01*
X91201053Y-92754033D01*
X91194315Y-92766290D01*
X91104776Y-92929162D01*
X91042484Y-93125532D01*
X91041798Y-93131649D01*
X91041797Y-93131653D01*
X91020207Y-93324137D01*
X91019520Y-93330262D01*
X90589138Y-93330262D01*
X90570480Y-93139970D01*
X90510935Y-92942749D01*
X90414218Y-92760849D01*
X90340859Y-92670902D01*
X90287906Y-92605975D01*
X90287903Y-92605972D01*
X90284011Y-92601200D01*
X90169761Y-92506684D01*
X90130025Y-92473811D01*
X90130021Y-92473809D01*
X90125275Y-92469882D01*
X89944055Y-92371897D01*
X89747254Y-92310977D01*
X89741129Y-92310333D01*
X89741128Y-92310333D01*
X89548498Y-92290087D01*
X89548496Y-92290087D01*
X89542369Y-92289443D01*
X89455529Y-92297346D01*
X89343342Y-92307555D01*
X89343339Y-92307556D01*
X89337203Y-92308114D01*
X89139572Y-92366280D01*
X88957002Y-92461726D01*
X88952201Y-92465586D01*
X88952198Y-92465588D01*
X88901085Y-92506684D01*
X88796447Y-92590815D01*
X88664024Y-92748630D01*
X88661056Y-92754028D01*
X88661053Y-92754033D01*
X88654315Y-92766290D01*
X88564776Y-92929162D01*
X88502484Y-93125532D01*
X88501798Y-93131649D01*
X88501797Y-93131653D01*
X88480207Y-93324137D01*
X88479520Y-93330262D01*
X88049138Y-93330262D01*
X88030480Y-93139970D01*
X87970935Y-92942749D01*
X87874218Y-92760849D01*
X87800859Y-92670902D01*
X87747906Y-92605975D01*
X87747903Y-92605972D01*
X87744011Y-92601200D01*
X87629761Y-92506684D01*
X87590025Y-92473811D01*
X87590021Y-92473809D01*
X87585275Y-92469882D01*
X87404055Y-92371897D01*
X87207254Y-92310977D01*
X87201129Y-92310333D01*
X87201128Y-92310333D01*
X87008498Y-92290087D01*
X87008496Y-92290087D01*
X87002369Y-92289443D01*
X86915529Y-92297346D01*
X86803342Y-92307555D01*
X86803339Y-92307556D01*
X86797203Y-92308114D01*
X86599572Y-92366280D01*
X86417002Y-92461726D01*
X86412201Y-92465586D01*
X86412198Y-92465588D01*
X86361085Y-92506684D01*
X86256447Y-92590815D01*
X86124024Y-92748630D01*
X86121056Y-92754028D01*
X86121053Y-92754033D01*
X86114315Y-92766290D01*
X86024776Y-92929162D01*
X85962484Y-93125532D01*
X85961798Y-93131649D01*
X85961797Y-93131653D01*
X85940207Y-93324137D01*
X85939520Y-93330262D01*
X85505500Y-93330262D01*
X85505500Y-92475252D01*
X85493867Y-92416769D01*
X85449552Y-92350448D01*
X85383231Y-92306133D01*
X85371062Y-92303712D01*
X85371061Y-92303712D01*
X85330816Y-92295707D01*
X85324748Y-92294500D01*
X83585252Y-92294500D01*
X83579184Y-92295707D01*
X83538939Y-92303712D01*
X83538938Y-92303712D01*
X83526769Y-92306133D01*
X83460448Y-92350448D01*
X83416133Y-92416769D01*
X83404500Y-92475252D01*
X83404500Y-94214748D01*
X82508142Y-94214748D01*
X82642951Y-94109424D01*
X82777564Y-93953472D01*
X82798387Y-93916818D01*
X82876276Y-93779707D01*
X82879323Y-93774344D01*
X82944351Y-93578863D01*
X82970171Y-93374474D01*
X82970583Y-93345000D01*
X82950480Y-93139970D01*
X82890935Y-92942749D01*
X82794218Y-92760849D01*
X82720859Y-92670902D01*
X82667906Y-92605975D01*
X82667903Y-92605972D01*
X82664011Y-92601200D01*
X82549761Y-92506684D01*
X82510025Y-92473811D01*
X82510021Y-92473809D01*
X82505275Y-92469882D01*
X82324055Y-92371897D01*
X82127254Y-92310977D01*
X82121129Y-92310333D01*
X82121128Y-92310333D01*
X81928498Y-92290087D01*
X81928496Y-92290087D01*
X81922369Y-92289443D01*
X81835529Y-92297346D01*
X81723342Y-92307555D01*
X81723339Y-92307556D01*
X81717203Y-92308114D01*
X81519572Y-92366280D01*
X81337002Y-92461726D01*
X81332201Y-92465586D01*
X81332198Y-92465588D01*
X81281085Y-92506684D01*
X81176447Y-92590815D01*
X81044024Y-92748630D01*
X81041056Y-92754028D01*
X81041053Y-92754033D01*
X81034315Y-92766290D01*
X80944776Y-92929162D01*
X80882484Y-93125532D01*
X80881798Y-93131649D01*
X80881797Y-93131653D01*
X80860207Y-93324137D01*
X80859520Y-93330262D01*
X80429138Y-93330262D01*
X80410480Y-93139970D01*
X80350935Y-92942749D01*
X80254218Y-92760849D01*
X80180859Y-92670902D01*
X80127906Y-92605975D01*
X80127903Y-92605972D01*
X80124011Y-92601200D01*
X80009761Y-92506684D01*
X79970025Y-92473811D01*
X79970021Y-92473809D01*
X79965275Y-92469882D01*
X79784055Y-92371897D01*
X79587254Y-92310977D01*
X79581129Y-92310333D01*
X79581128Y-92310333D01*
X79388498Y-92290087D01*
X79388496Y-92290087D01*
X79382369Y-92289443D01*
X79295529Y-92297346D01*
X79183342Y-92307555D01*
X79183339Y-92307556D01*
X79177203Y-92308114D01*
X78979572Y-92366280D01*
X78797002Y-92461726D01*
X78792201Y-92465586D01*
X78792198Y-92465588D01*
X78741085Y-92506684D01*
X78636447Y-92590815D01*
X78504024Y-92748630D01*
X78501056Y-92754028D01*
X78501053Y-92754033D01*
X78494315Y-92766290D01*
X78404776Y-92929162D01*
X78342484Y-93125532D01*
X78341798Y-93131649D01*
X78341797Y-93131653D01*
X78320207Y-93324137D01*
X78319520Y-93330262D01*
X77889138Y-93330262D01*
X77870480Y-93139970D01*
X77810935Y-92942749D01*
X77714218Y-92760849D01*
X77640859Y-92670902D01*
X77587906Y-92605975D01*
X77587903Y-92605972D01*
X77584011Y-92601200D01*
X77469761Y-92506684D01*
X77430025Y-92473811D01*
X77430021Y-92473809D01*
X77425275Y-92469882D01*
X77244055Y-92371897D01*
X77047254Y-92310977D01*
X77041129Y-92310333D01*
X77041128Y-92310333D01*
X76848498Y-92290087D01*
X76848496Y-92290087D01*
X76842369Y-92289443D01*
X76755529Y-92297346D01*
X76643342Y-92307555D01*
X76643339Y-92307556D01*
X76637203Y-92308114D01*
X76439572Y-92366280D01*
X76257002Y-92461726D01*
X76252201Y-92465586D01*
X76252198Y-92465588D01*
X76201085Y-92506684D01*
X76096447Y-92590815D01*
X75964024Y-92748630D01*
X75961056Y-92754028D01*
X75961053Y-92754033D01*
X75954315Y-92766290D01*
X75864776Y-92929162D01*
X75802484Y-93125532D01*
X75801798Y-93131649D01*
X75801797Y-93131653D01*
X75780207Y-93324137D01*
X75779520Y-93330262D01*
X75349138Y-93330262D01*
X75330480Y-93139970D01*
X75270935Y-92942749D01*
X75174218Y-92760849D01*
X75100859Y-92670902D01*
X75047906Y-92605975D01*
X75047903Y-92605972D01*
X75044011Y-92601200D01*
X74929761Y-92506684D01*
X74890025Y-92473811D01*
X74890021Y-92473809D01*
X74885275Y-92469882D01*
X74704055Y-92371897D01*
X74507254Y-92310977D01*
X74501129Y-92310333D01*
X74501128Y-92310333D01*
X74308498Y-92290087D01*
X74308496Y-92290087D01*
X74302369Y-92289443D01*
X74215529Y-92297346D01*
X74103342Y-92307555D01*
X74103339Y-92307556D01*
X74097203Y-92308114D01*
X73899572Y-92366280D01*
X73717002Y-92461726D01*
X73712201Y-92465586D01*
X73712198Y-92465588D01*
X73661085Y-92506684D01*
X73556447Y-92590815D01*
X73424024Y-92748630D01*
X73421056Y-92754028D01*
X73421053Y-92754033D01*
X73414315Y-92766290D01*
X73324776Y-92929162D01*
X73262484Y-93125532D01*
X73261798Y-93131649D01*
X73261797Y-93131653D01*
X73240207Y-93324137D01*
X73239520Y-93330262D01*
X72805500Y-93330262D01*
X72805500Y-92475252D01*
X72793867Y-92416769D01*
X72749552Y-92350448D01*
X72683231Y-92306133D01*
X72671062Y-92303712D01*
X72671061Y-92303712D01*
X72630816Y-92295707D01*
X72624748Y-92294500D01*
X70885252Y-92294500D01*
X70879184Y-92295707D01*
X70838939Y-92303712D01*
X70838938Y-92303712D01*
X70826769Y-92306133D01*
X70760448Y-92350448D01*
X70716133Y-92416769D01*
X70704500Y-92475252D01*
X70704500Y-94214748D01*
X69808142Y-94214748D01*
X69942951Y-94109424D01*
X70077564Y-93953472D01*
X70098387Y-93916818D01*
X70176276Y-93779707D01*
X70179323Y-93774344D01*
X70244351Y-93578863D01*
X70270171Y-93374474D01*
X70270583Y-93345000D01*
X70250480Y-93139970D01*
X70190935Y-92942749D01*
X70094218Y-92760849D01*
X70020859Y-92670902D01*
X69967906Y-92605975D01*
X69967903Y-92605972D01*
X69964011Y-92601200D01*
X69849761Y-92506684D01*
X69810025Y-92473811D01*
X69810021Y-92473809D01*
X69805275Y-92469882D01*
X69624055Y-92371897D01*
X69427254Y-92310977D01*
X69421129Y-92310333D01*
X69421128Y-92310333D01*
X69228498Y-92290087D01*
X69228496Y-92290087D01*
X69222369Y-92289443D01*
X69135529Y-92297346D01*
X69023342Y-92307555D01*
X69023339Y-92307556D01*
X69017203Y-92308114D01*
X68819572Y-92366280D01*
X68637002Y-92461726D01*
X68632201Y-92465586D01*
X68632198Y-92465588D01*
X68581085Y-92506684D01*
X68476447Y-92590815D01*
X68344024Y-92748630D01*
X68341056Y-92754028D01*
X68341053Y-92754033D01*
X68334315Y-92766290D01*
X68244776Y-92929162D01*
X68182484Y-93125532D01*
X68181798Y-93131649D01*
X68181797Y-93131653D01*
X68160207Y-93324137D01*
X68159520Y-93330262D01*
X67729138Y-93330262D01*
X67710480Y-93139970D01*
X67650935Y-92942749D01*
X67554218Y-92760849D01*
X67480859Y-92670902D01*
X67427906Y-92605975D01*
X67427903Y-92605972D01*
X67424011Y-92601200D01*
X67309761Y-92506684D01*
X67270025Y-92473811D01*
X67270021Y-92473809D01*
X67265275Y-92469882D01*
X67084055Y-92371897D01*
X66887254Y-92310977D01*
X66881129Y-92310333D01*
X66881128Y-92310333D01*
X66688498Y-92290087D01*
X66688496Y-92290087D01*
X66682369Y-92289443D01*
X66595529Y-92297346D01*
X66483342Y-92307555D01*
X66483339Y-92307556D01*
X66477203Y-92308114D01*
X66279572Y-92366280D01*
X66097002Y-92461726D01*
X66092201Y-92465586D01*
X66092198Y-92465588D01*
X66041085Y-92506684D01*
X65936447Y-92590815D01*
X65804024Y-92748630D01*
X65801056Y-92754028D01*
X65801053Y-92754033D01*
X65794315Y-92766290D01*
X65704776Y-92929162D01*
X65642484Y-93125532D01*
X65641798Y-93131649D01*
X65641797Y-93131653D01*
X65620207Y-93324137D01*
X65619520Y-93330262D01*
X65189138Y-93330262D01*
X65170480Y-93139970D01*
X65110935Y-92942749D01*
X65014218Y-92760849D01*
X64940859Y-92670902D01*
X64887906Y-92605975D01*
X64887903Y-92605972D01*
X64884011Y-92601200D01*
X64769761Y-92506684D01*
X64730025Y-92473811D01*
X64730021Y-92473809D01*
X64725275Y-92469882D01*
X64544055Y-92371897D01*
X64347254Y-92310977D01*
X64341129Y-92310333D01*
X64341128Y-92310333D01*
X64148498Y-92290087D01*
X64148496Y-92290087D01*
X64142369Y-92289443D01*
X64055529Y-92297346D01*
X63943342Y-92307555D01*
X63943339Y-92307556D01*
X63937203Y-92308114D01*
X63739572Y-92366280D01*
X63557002Y-92461726D01*
X63552201Y-92465586D01*
X63552198Y-92465588D01*
X63501085Y-92506684D01*
X63396447Y-92590815D01*
X63264024Y-92748630D01*
X63261056Y-92754028D01*
X63261053Y-92754033D01*
X63254315Y-92766290D01*
X63164776Y-92929162D01*
X63102484Y-93125532D01*
X63101798Y-93131649D01*
X63101797Y-93131653D01*
X63080207Y-93324137D01*
X63079520Y-93330262D01*
X62649138Y-93330262D01*
X62630480Y-93139970D01*
X62570935Y-92942749D01*
X62474218Y-92760849D01*
X62400859Y-92670902D01*
X62347906Y-92605975D01*
X62347903Y-92605972D01*
X62344011Y-92601200D01*
X62229761Y-92506684D01*
X62190025Y-92473811D01*
X62190021Y-92473809D01*
X62185275Y-92469882D01*
X62004055Y-92371897D01*
X61807254Y-92310977D01*
X61801129Y-92310333D01*
X61801128Y-92310333D01*
X61608498Y-92290087D01*
X61608496Y-92290087D01*
X61602369Y-92289443D01*
X61515529Y-92297346D01*
X61403342Y-92307555D01*
X61403339Y-92307556D01*
X61397203Y-92308114D01*
X61199572Y-92366280D01*
X61017002Y-92461726D01*
X61012201Y-92465586D01*
X61012198Y-92465588D01*
X60961085Y-92506684D01*
X60856447Y-92590815D01*
X60724024Y-92748630D01*
X60721056Y-92754028D01*
X60721053Y-92754033D01*
X60714315Y-92766290D01*
X60624776Y-92929162D01*
X60562484Y-93125532D01*
X60561798Y-93131649D01*
X60561797Y-93131653D01*
X60540207Y-93324137D01*
X60539520Y-93330262D01*
X60105500Y-93330262D01*
X60105500Y-92475252D01*
X60093867Y-92416769D01*
X60049552Y-92350448D01*
X59983231Y-92306133D01*
X59971062Y-92303712D01*
X59971061Y-92303712D01*
X59930816Y-92295707D01*
X59924748Y-92294500D01*
X58185252Y-92294500D01*
X58179184Y-92295707D01*
X58138939Y-92303712D01*
X58138938Y-92303712D01*
X58126769Y-92306133D01*
X58060448Y-92350448D01*
X58016133Y-92416769D01*
X58004500Y-92475252D01*
X58004500Y-94214748D01*
X57108142Y-94214748D01*
X57242951Y-94109424D01*
X57377564Y-93953472D01*
X57398387Y-93916818D01*
X57476276Y-93779707D01*
X57479323Y-93774344D01*
X57544351Y-93578863D01*
X57570171Y-93374474D01*
X57570583Y-93345000D01*
X57550480Y-93139970D01*
X57490935Y-92942749D01*
X57394218Y-92760849D01*
X57320859Y-92670902D01*
X57267906Y-92605975D01*
X57267903Y-92605972D01*
X57264011Y-92601200D01*
X57149761Y-92506684D01*
X57110025Y-92473811D01*
X57110021Y-92473809D01*
X57105275Y-92469882D01*
X56924055Y-92371897D01*
X56727254Y-92310977D01*
X56721129Y-92310333D01*
X56721128Y-92310333D01*
X56528498Y-92290087D01*
X56528496Y-92290087D01*
X56522369Y-92289443D01*
X56435529Y-92297346D01*
X56323342Y-92307555D01*
X56323339Y-92307556D01*
X56317203Y-92308114D01*
X56119572Y-92366280D01*
X55937002Y-92461726D01*
X55932201Y-92465586D01*
X55932198Y-92465588D01*
X55881085Y-92506684D01*
X55776447Y-92590815D01*
X55644024Y-92748630D01*
X55641056Y-92754028D01*
X55641053Y-92754033D01*
X55634315Y-92766290D01*
X55544776Y-92929162D01*
X55482484Y-93125532D01*
X55481798Y-93131649D01*
X55481797Y-93131653D01*
X55460207Y-93324137D01*
X55459520Y-93330262D01*
X55029138Y-93330262D01*
X55010480Y-93139970D01*
X54950935Y-92942749D01*
X54854218Y-92760849D01*
X54780859Y-92670902D01*
X54727906Y-92605975D01*
X54727903Y-92605972D01*
X54724011Y-92601200D01*
X54609761Y-92506684D01*
X54570025Y-92473811D01*
X54570021Y-92473809D01*
X54565275Y-92469882D01*
X54384055Y-92371897D01*
X54187254Y-92310977D01*
X54181129Y-92310333D01*
X54181128Y-92310333D01*
X53988498Y-92290087D01*
X53988496Y-92290087D01*
X53982369Y-92289443D01*
X53895529Y-92297346D01*
X53783342Y-92307555D01*
X53783339Y-92307556D01*
X53777203Y-92308114D01*
X53579572Y-92366280D01*
X53397002Y-92461726D01*
X53392201Y-92465586D01*
X53392198Y-92465588D01*
X53341085Y-92506684D01*
X53236447Y-92590815D01*
X53104024Y-92748630D01*
X53101056Y-92754028D01*
X53101053Y-92754033D01*
X53094315Y-92766290D01*
X53004776Y-92929162D01*
X52942484Y-93125532D01*
X52941798Y-93131649D01*
X52941797Y-93131653D01*
X52920207Y-93324137D01*
X52919520Y-93330262D01*
X50801000Y-93330262D01*
X50801000Y-88903748D01*
X134689500Y-88903748D01*
X134701133Y-88962231D01*
X134745448Y-89028552D01*
X134811769Y-89072867D01*
X134823938Y-89075288D01*
X134823939Y-89075288D01*
X134864184Y-89083293D01*
X134870252Y-89084500D01*
X136909748Y-89084500D01*
X136915816Y-89083293D01*
X136956061Y-89075288D01*
X136956062Y-89075288D01*
X136968231Y-89072867D01*
X137034552Y-89028552D01*
X137078867Y-88962231D01*
X137090500Y-88903748D01*
X137090500Y-86864252D01*
X137078867Y-86805769D01*
X137034552Y-86739448D01*
X136968231Y-86695133D01*
X136956062Y-86692712D01*
X136956061Y-86692712D01*
X136915816Y-86684707D01*
X136909748Y-86683500D01*
X134870252Y-86683500D01*
X134864184Y-86684707D01*
X134823939Y-86692712D01*
X134823938Y-86692712D01*
X134811769Y-86695133D01*
X134745448Y-86739448D01*
X134701133Y-86805769D01*
X134689500Y-86864252D01*
X134689500Y-88903748D01*
X50801000Y-88903748D01*
X50801000Y-87270654D01*
X52953133Y-87270654D01*
X52988941Y-87479047D01*
X53062127Y-87677425D01*
X53065079Y-87682386D01*
X53065079Y-87682387D01*
X53156499Y-87836050D01*
X53170238Y-87859144D01*
X53309655Y-88018119D01*
X53475708Y-88149024D01*
X53480819Y-88151713D01*
X53480822Y-88151715D01*
X53511241Y-88167719D01*
X53662836Y-88247477D01*
X53864773Y-88310180D01*
X53870510Y-88310859D01*
X54032768Y-88330064D01*
X54032775Y-88330064D01*
X54036455Y-88330500D01*
X54158641Y-88330500D01*
X54315560Y-88316081D01*
X54321122Y-88314512D01*
X54321124Y-88314512D01*
X54377225Y-88298690D01*
X54519069Y-88258686D01*
X54524247Y-88256133D01*
X54524251Y-88256131D01*
X54703531Y-88167719D01*
X54708710Y-88165165D01*
X54878133Y-88038651D01*
X54970910Y-87938286D01*
X55017743Y-87887622D01*
X55017745Y-87887620D01*
X55021663Y-87883381D01*
X55035285Y-87861791D01*
X55131416Y-87709434D01*
X55131416Y-87709433D01*
X55134495Y-87704554D01*
X55212848Y-87508160D01*
X55213973Y-87502503D01*
X55213975Y-87502497D01*
X55252972Y-87306442D01*
X55252972Y-87306440D01*
X55254099Y-87300775D01*
X55254494Y-87270654D01*
X55256791Y-87095128D01*
X55256867Y-87089346D01*
X55229337Y-86929126D01*
X56130541Y-86929126D01*
X56160935Y-87130097D01*
X56231119Y-87320852D01*
X56234479Y-87326272D01*
X56234480Y-87326273D01*
X56334863Y-87488176D01*
X56334866Y-87488180D01*
X56338226Y-87493599D01*
X56477881Y-87641280D01*
X56644379Y-87757863D01*
X56830919Y-87838586D01*
X56876947Y-87848202D01*
X57025144Y-87879162D01*
X57025149Y-87879163D01*
X57029880Y-87880151D01*
X57034762Y-87880407D01*
X57034871Y-87880413D01*
X57034887Y-87880413D01*
X57036539Y-87880500D01*
X57185800Y-87880500D01*
X57233793Y-87875625D01*
X57330868Y-87865765D01*
X57330870Y-87865765D01*
X57337216Y-87865120D01*
X57531172Y-87804338D01*
X57708944Y-87705797D01*
X57863271Y-87573523D01*
X57872721Y-87561341D01*
X57983939Y-87417958D01*
X57987848Y-87412919D01*
X58077587Y-87230545D01*
X58089307Y-87185553D01*
X58127212Y-87040034D01*
X58127212Y-87040031D01*
X58128822Y-87033852D01*
X58131631Y-86980262D01*
X100949520Y-86980262D01*
X100966759Y-87185553D01*
X101023544Y-87383586D01*
X101026359Y-87389063D01*
X101026360Y-87389066D01*
X101114897Y-87561341D01*
X101117712Y-87566818D01*
X101245677Y-87728270D01*
X101250370Y-87732264D01*
X101250371Y-87732265D01*
X101376833Y-87839892D01*
X101402564Y-87861791D01*
X101407942Y-87864797D01*
X101407944Y-87864798D01*
X101446342Y-87886258D01*
X101582398Y-87962297D01*
X101677238Y-87993113D01*
X101772471Y-88024056D01*
X101772475Y-88024057D01*
X101778329Y-88025959D01*
X101982894Y-88050351D01*
X101989029Y-88049879D01*
X101989031Y-88049879D01*
X102045039Y-88045569D01*
X102188300Y-88034546D01*
X102194230Y-88032890D01*
X102194232Y-88032890D01*
X102380797Y-87980800D01*
X102380796Y-87980800D01*
X102386725Y-87979145D01*
X102392214Y-87976372D01*
X102392220Y-87976370D01*
X102565116Y-87889033D01*
X102570610Y-87886258D01*
X102578092Y-87880413D01*
X102728101Y-87763213D01*
X102732951Y-87759424D01*
X102737460Y-87754201D01*
X102863540Y-87608134D01*
X102863540Y-87608133D01*
X102867564Y-87603472D01*
X102884578Y-87573523D01*
X102927346Y-87498237D01*
X102969323Y-87424344D01*
X103034351Y-87228863D01*
X103060171Y-87024474D01*
X103060583Y-86995000D01*
X103040480Y-86789970D01*
X102980935Y-86592749D01*
X102884218Y-86410849D01*
X102766409Y-86266401D01*
X102757906Y-86255975D01*
X102757903Y-86255972D01*
X102754011Y-86251200D01*
X102736786Y-86236950D01*
X102600025Y-86123811D01*
X102600021Y-86123809D01*
X102595275Y-86119882D01*
X102428923Y-86029936D01*
X102419474Y-86024827D01*
X102414055Y-86021897D01*
X102217254Y-85960977D01*
X102211129Y-85960333D01*
X102211128Y-85960333D01*
X102018498Y-85940087D01*
X102018496Y-85940087D01*
X102012369Y-85939443D01*
X101925529Y-85947346D01*
X101813342Y-85957555D01*
X101813339Y-85957556D01*
X101807203Y-85958114D01*
X101609572Y-86016280D01*
X101427002Y-86111726D01*
X101422201Y-86115586D01*
X101422198Y-86115588D01*
X101411971Y-86123811D01*
X101266447Y-86240815D01*
X101134024Y-86398630D01*
X101131056Y-86404028D01*
X101131053Y-86404033D01*
X101058705Y-86535635D01*
X101034776Y-86579162D01*
X101032913Y-86585035D01*
X100990111Y-86719966D01*
X100972484Y-86775532D01*
X100971798Y-86781649D01*
X100971797Y-86781653D01*
X100961267Y-86875530D01*
X100949520Y-86980262D01*
X58131631Y-86980262D01*
X58138064Y-86857503D01*
X58139125Y-86837256D01*
X58139125Y-86837252D01*
X58139459Y-86830874D01*
X58109065Y-86629903D01*
X58038881Y-86439148D01*
X57985345Y-86352802D01*
X57935137Y-86271824D01*
X57935134Y-86271820D01*
X57931774Y-86266401D01*
X57852267Y-86182325D01*
X57796508Y-86123361D01*
X57796507Y-86123360D01*
X57792119Y-86118720D01*
X57625621Y-86002137D01*
X57439081Y-85921414D01*
X57393053Y-85911798D01*
X57244856Y-85880838D01*
X57244851Y-85880837D01*
X57240120Y-85879849D01*
X57235238Y-85879593D01*
X57235129Y-85879587D01*
X57235113Y-85879587D01*
X57233461Y-85879500D01*
X57084200Y-85879500D01*
X57036207Y-85884375D01*
X56939132Y-85894235D01*
X56939130Y-85894235D01*
X56932784Y-85894880D01*
X56738828Y-85955662D01*
X56733239Y-85958760D01*
X56725953Y-85962799D01*
X56561056Y-86054203D01*
X56406729Y-86186477D01*
X56402822Y-86191514D01*
X56402820Y-86191516D01*
X56384951Y-86214553D01*
X56282152Y-86347081D01*
X56192413Y-86529455D01*
X56190804Y-86535633D01*
X56190803Y-86535635D01*
X56151973Y-86684707D01*
X56141178Y-86726148D01*
X56140844Y-86732527D01*
X56133350Y-86875530D01*
X56130541Y-86929126D01*
X55229337Y-86929126D01*
X55221059Y-86880953D01*
X55147873Y-86682575D01*
X55112969Y-86623907D01*
X55042716Y-86505821D01*
X55042715Y-86505820D01*
X55039762Y-86500856D01*
X54900345Y-86341881D01*
X54734292Y-86210976D01*
X54729181Y-86208287D01*
X54729178Y-86208285D01*
X54634362Y-86158400D01*
X54547164Y-86112523D01*
X54345227Y-86049820D01*
X54330801Y-86048113D01*
X54177232Y-86029936D01*
X54177225Y-86029936D01*
X54173545Y-86029500D01*
X54051359Y-86029500D01*
X53894440Y-86043919D01*
X53888878Y-86045488D01*
X53888876Y-86045488D01*
X53857975Y-86054203D01*
X53690931Y-86101314D01*
X53685753Y-86103867D01*
X53685749Y-86103869D01*
X53526658Y-86182325D01*
X53501290Y-86194835D01*
X53331867Y-86321349D01*
X53264799Y-86393903D01*
X53217439Y-86445137D01*
X53188337Y-86476619D01*
X53185256Y-86481502D01*
X53091622Y-86629903D01*
X53075505Y-86655446D01*
X52997152Y-86851840D01*
X52996027Y-86857497D01*
X52996025Y-86857503D01*
X52970385Y-86986406D01*
X52955901Y-87059225D01*
X52955825Y-87065000D01*
X52955825Y-87065004D01*
X52955431Y-87095128D01*
X52953133Y-87270654D01*
X50801000Y-87270654D01*
X50801000Y-85324748D01*
X100954500Y-85324748D01*
X100966133Y-85383231D01*
X101010448Y-85449552D01*
X101076769Y-85493867D01*
X101088938Y-85496288D01*
X101088939Y-85496288D01*
X101129184Y-85504293D01*
X101135252Y-85505500D01*
X102874748Y-85505500D01*
X102880816Y-85504293D01*
X102921061Y-85496288D01*
X102921062Y-85496288D01*
X102933231Y-85493867D01*
X102999552Y-85449552D01*
X103043867Y-85383231D01*
X103055500Y-85324748D01*
X103055500Y-83585252D01*
X103043867Y-83526769D01*
X102999552Y-83460448D01*
X102933231Y-83416133D01*
X102921062Y-83413712D01*
X102921061Y-83413712D01*
X102880816Y-83405707D01*
X102874748Y-83404500D01*
X101135252Y-83404500D01*
X101129184Y-83405707D01*
X101088939Y-83413712D01*
X101088938Y-83413712D01*
X101076769Y-83416133D01*
X101010448Y-83460448D01*
X100966133Y-83526769D01*
X100954500Y-83585252D01*
X100954500Y-85324748D01*
X50801000Y-85324748D01*
X50801000Y-81820654D01*
X52953133Y-81820654D01*
X52954112Y-81826351D01*
X52954112Y-81826352D01*
X52969950Y-81918522D01*
X52988941Y-82029047D01*
X53062127Y-82227425D01*
X53170238Y-82409144D01*
X53309655Y-82568119D01*
X53475708Y-82699024D01*
X53480819Y-82701713D01*
X53480822Y-82701715D01*
X53530164Y-82727675D01*
X53662836Y-82797477D01*
X53864773Y-82860180D01*
X53870510Y-82860859D01*
X54032768Y-82880064D01*
X54032775Y-82880064D01*
X54036455Y-82880500D01*
X54158641Y-82880500D01*
X54315560Y-82866081D01*
X54321122Y-82864512D01*
X54321124Y-82864512D01*
X54377225Y-82848690D01*
X54519069Y-82808686D01*
X54524247Y-82806133D01*
X54524251Y-82806131D01*
X54703531Y-82717719D01*
X54708710Y-82715165D01*
X54878133Y-82588651D01*
X54987025Y-82470852D01*
X55017743Y-82437622D01*
X55017745Y-82437620D01*
X55021663Y-82433381D01*
X55034215Y-82413488D01*
X55131416Y-82259434D01*
X55131416Y-82259433D01*
X55134495Y-82254554D01*
X55204483Y-82079126D01*
X56130541Y-82079126D01*
X56160935Y-82280097D01*
X56231119Y-82470852D01*
X56234479Y-82476272D01*
X56234480Y-82476273D01*
X56334863Y-82638176D01*
X56334866Y-82638180D01*
X56338226Y-82643599D01*
X56342612Y-82648237D01*
X56468908Y-82781791D01*
X56477881Y-82791280D01*
X56644379Y-82907863D01*
X56830919Y-82988586D01*
X56876947Y-82998202D01*
X57025144Y-83029162D01*
X57025149Y-83029163D01*
X57029880Y-83030151D01*
X57034762Y-83030407D01*
X57034871Y-83030413D01*
X57034887Y-83030413D01*
X57036539Y-83030500D01*
X57185800Y-83030500D01*
X57233793Y-83025625D01*
X57330868Y-83015765D01*
X57330870Y-83015765D01*
X57337216Y-83015120D01*
X57531172Y-82954338D01*
X57708944Y-82855797D01*
X57863271Y-82723523D01*
X57882275Y-82699024D01*
X57971175Y-82584414D01*
X57987848Y-82562919D01*
X58077587Y-82380545D01*
X58087017Y-82344344D01*
X58127212Y-82190034D01*
X58127212Y-82190031D01*
X58128822Y-82183852D01*
X58135706Y-82052497D01*
X58139125Y-81987256D01*
X58139125Y-81987252D01*
X58139459Y-81980874D01*
X58127268Y-81900262D01*
X100949520Y-81900262D01*
X100950036Y-81906406D01*
X100963230Y-82063524D01*
X100966759Y-82105553D01*
X100968458Y-82111478D01*
X101016809Y-82280097D01*
X101023544Y-82303586D01*
X101026359Y-82309063D01*
X101026360Y-82309066D01*
X101114897Y-82481341D01*
X101117712Y-82486818D01*
X101245677Y-82648270D01*
X101250370Y-82652264D01*
X101250371Y-82652265D01*
X101324279Y-82715165D01*
X101402564Y-82781791D01*
X101407942Y-82784797D01*
X101407944Y-82784798D01*
X101433696Y-82799190D01*
X101582398Y-82882297D01*
X101661082Y-82907863D01*
X101772471Y-82944056D01*
X101772475Y-82944057D01*
X101778329Y-82945959D01*
X101982894Y-82970351D01*
X101989029Y-82969879D01*
X101989031Y-82969879D01*
X102045039Y-82965569D01*
X102188300Y-82954546D01*
X102194230Y-82952890D01*
X102194232Y-82952890D01*
X102380797Y-82900800D01*
X102380796Y-82900800D01*
X102386725Y-82899145D01*
X102392214Y-82896372D01*
X102392220Y-82896370D01*
X102565116Y-82809033D01*
X102570610Y-82806258D01*
X102595722Y-82786639D01*
X102671192Y-82727675D01*
X102732951Y-82679424D01*
X102811304Y-82588651D01*
X102863540Y-82528134D01*
X102863540Y-82528133D01*
X102867564Y-82523472D01*
X102888387Y-82486818D01*
X102935332Y-82404179D01*
X102969323Y-82344344D01*
X103034351Y-82148863D01*
X103060171Y-81944474D01*
X103060583Y-81915000D01*
X103040480Y-81709970D01*
X102980935Y-81512749D01*
X102884218Y-81330849D01*
X102804067Y-81232575D01*
X102757906Y-81175975D01*
X102757903Y-81175972D01*
X102754011Y-81171200D01*
X102736786Y-81156950D01*
X102600025Y-81043811D01*
X102600021Y-81043809D01*
X102595275Y-81039882D01*
X102414055Y-80941897D01*
X102217254Y-80880977D01*
X102211129Y-80880333D01*
X102211128Y-80880333D01*
X102018498Y-80860087D01*
X102018496Y-80860087D01*
X102012369Y-80859443D01*
X101925529Y-80867346D01*
X101813342Y-80877555D01*
X101813339Y-80877556D01*
X101807203Y-80878114D01*
X101609572Y-80936280D01*
X101427002Y-81031726D01*
X101422201Y-81035586D01*
X101422198Y-81035588D01*
X101280393Y-81149602D01*
X101266447Y-81160815D01*
X101134024Y-81318630D01*
X101131056Y-81324028D01*
X101131053Y-81324033D01*
X101075255Y-81425530D01*
X101034776Y-81499162D01*
X101032913Y-81505035D01*
X100975624Y-81685635D01*
X100972484Y-81695532D01*
X100971798Y-81701649D01*
X100971797Y-81701653D01*
X100963693Y-81773907D01*
X100949520Y-81900262D01*
X58127268Y-81900262D01*
X58109065Y-81779903D01*
X58038881Y-81589148D01*
X57983088Y-81499162D01*
X57935137Y-81421824D01*
X57935134Y-81421820D01*
X57931774Y-81416401D01*
X57852267Y-81332325D01*
X57796508Y-81273361D01*
X57796507Y-81273360D01*
X57792119Y-81268720D01*
X57644767Y-81165543D01*
X57630851Y-81155799D01*
X57630850Y-81155799D01*
X57625621Y-81152137D01*
X57439081Y-81071414D01*
X57393053Y-81061798D01*
X57244856Y-81030838D01*
X57244851Y-81030837D01*
X57240120Y-81029849D01*
X57235238Y-81029593D01*
X57235129Y-81029587D01*
X57235113Y-81029587D01*
X57233461Y-81029500D01*
X57084200Y-81029500D01*
X57036207Y-81034375D01*
X56939132Y-81044235D01*
X56939130Y-81044235D01*
X56932784Y-81044880D01*
X56738828Y-81105662D01*
X56561056Y-81204203D01*
X56406729Y-81336477D01*
X56282152Y-81497081D01*
X56192413Y-81679455D01*
X56190804Y-81685633D01*
X56190803Y-81685635D01*
X56149293Y-81844996D01*
X56141178Y-81876148D01*
X56137782Y-81940949D01*
X56131359Y-82063524D01*
X56130541Y-82079126D01*
X55204483Y-82079126D01*
X55212848Y-82058160D01*
X55213973Y-82052503D01*
X55213975Y-82052497D01*
X55252972Y-81856442D01*
X55252972Y-81856440D01*
X55254099Y-81850775D01*
X55254494Y-81820654D01*
X55256791Y-81645128D01*
X55256867Y-81639346D01*
X55234179Y-81507310D01*
X55222038Y-81436650D01*
X55222038Y-81436649D01*
X55221059Y-81430953D01*
X55147873Y-81232575D01*
X55107993Y-81165543D01*
X55042716Y-81055821D01*
X55042715Y-81055820D01*
X55039762Y-81050856D01*
X54900345Y-80891881D01*
X54734292Y-80760976D01*
X54729181Y-80758287D01*
X54729178Y-80758285D01*
X54634362Y-80708400D01*
X54547164Y-80662523D01*
X54345227Y-80599820D01*
X54330801Y-80598113D01*
X54177232Y-80579936D01*
X54177225Y-80579936D01*
X54173545Y-80579500D01*
X54051359Y-80579500D01*
X53894440Y-80593919D01*
X53888878Y-80595488D01*
X53888876Y-80595488D01*
X53832775Y-80611310D01*
X53690931Y-80651314D01*
X53685753Y-80653867D01*
X53685749Y-80653869D01*
X53510508Y-80740289D01*
X53501290Y-80744835D01*
X53331867Y-80871349D01*
X53188337Y-81026619D01*
X53185256Y-81031502D01*
X53173045Y-81050856D01*
X53075505Y-81205446D01*
X52997152Y-81401840D01*
X52996027Y-81407497D01*
X52996025Y-81407503D01*
X52958703Y-81595137D01*
X52955901Y-81609225D01*
X52955825Y-81615000D01*
X52955825Y-81615004D01*
X52954901Y-81685635D01*
X52953133Y-81820654D01*
X50801000Y-81820654D01*
X50801000Y-78232000D01*
X121314318Y-78232000D01*
X121334956Y-78388762D01*
X121395464Y-78534841D01*
X121491718Y-78660282D01*
X121617159Y-78756536D01*
X121763238Y-78817044D01*
X121920000Y-78837682D01*
X121928188Y-78836604D01*
X122068574Y-78818122D01*
X122076762Y-78817044D01*
X122222841Y-78756536D01*
X122348282Y-78660282D01*
X122389323Y-78606796D01*
X122446661Y-78564929D01*
X122489286Y-78557500D01*
X123382714Y-78557500D01*
X123450835Y-78577502D01*
X123482677Y-78606796D01*
X123523718Y-78660282D01*
X123649159Y-78756536D01*
X123795238Y-78817044D01*
X123952000Y-78837682D01*
X123960188Y-78836604D01*
X124100574Y-78818122D01*
X124108762Y-78817044D01*
X124254841Y-78756536D01*
X124380282Y-78660282D01*
X124476536Y-78534841D01*
X124537044Y-78388762D01*
X124557682Y-78232000D01*
X134522318Y-78232000D01*
X134542956Y-78388762D01*
X134603464Y-78534841D01*
X134699718Y-78660282D01*
X134825159Y-78756536D01*
X134971238Y-78817044D01*
X135128000Y-78837682D01*
X135136188Y-78836604D01*
X135276574Y-78818122D01*
X135284762Y-78817044D01*
X135430841Y-78756536D01*
X135556282Y-78660282D01*
X135652536Y-78534841D01*
X135713044Y-78388762D01*
X135733682Y-78232000D01*
X135713044Y-78075238D01*
X135652536Y-77929159D01*
X135620621Y-77887567D01*
X135595022Y-77821348D01*
X135594585Y-77810865D01*
X135594585Y-77219748D01*
X139134500Y-77219748D01*
X139146133Y-77278231D01*
X139190448Y-77344552D01*
X139256769Y-77388867D01*
X139268938Y-77391288D01*
X139268939Y-77391288D01*
X139309184Y-77399293D01*
X139315252Y-77400500D01*
X141354748Y-77400500D01*
X141360816Y-77399293D01*
X141401061Y-77391288D01*
X141401062Y-77391288D01*
X141413231Y-77388867D01*
X141479552Y-77344552D01*
X141523867Y-77278231D01*
X141535500Y-77219748D01*
X141535500Y-75180252D01*
X141532909Y-75167228D01*
X141526288Y-75133939D01*
X141526288Y-75133938D01*
X141523867Y-75121769D01*
X141479552Y-75055448D01*
X141413231Y-75011133D01*
X141401062Y-75008712D01*
X141401061Y-75008712D01*
X141360816Y-75000707D01*
X141354748Y-74999500D01*
X139315252Y-74999500D01*
X139309184Y-75000707D01*
X139268939Y-75008712D01*
X139268938Y-75008712D01*
X139256769Y-75011133D01*
X139190448Y-75055448D01*
X139146133Y-75121769D01*
X139143712Y-75133938D01*
X139143712Y-75133939D01*
X139137091Y-75167228D01*
X139134500Y-75180252D01*
X139134500Y-77219748D01*
X135594585Y-77219748D01*
X135594585Y-76961806D01*
X135614587Y-76893685D01*
X135643881Y-76861843D01*
X135690821Y-76825825D01*
X135697367Y-76820802D01*
X135793621Y-76695361D01*
X135854129Y-76549282D01*
X135874767Y-76392520D01*
X135854129Y-76235758D01*
X135793621Y-76089679D01*
X135697367Y-75964238D01*
X135571926Y-75867984D01*
X135425847Y-75807476D01*
X135269085Y-75786838D01*
X135112323Y-75807476D01*
X134966244Y-75867984D01*
X134840803Y-75964238D01*
X134744549Y-76089679D01*
X134684041Y-76235758D01*
X134663403Y-76392520D01*
X134684041Y-76549282D01*
X134744549Y-76695361D01*
X134840803Y-76820802D01*
X134847349Y-76825825D01*
X134894289Y-76861843D01*
X134936156Y-76919181D01*
X134943585Y-76961806D01*
X134943585Y-77574220D01*
X134923583Y-77642341D01*
X134865802Y-77690629D01*
X134832791Y-77704302D01*
X134832787Y-77704304D01*
X134825159Y-77707464D01*
X134699718Y-77803718D01*
X134603464Y-77929159D01*
X134542956Y-78075238D01*
X134522318Y-78232000D01*
X124557682Y-78232000D01*
X124537044Y-78075238D01*
X124476536Y-77929159D01*
X124380282Y-77803718D01*
X124254841Y-77707464D01*
X124108762Y-77646956D01*
X124073708Y-77642341D01*
X123960188Y-77627396D01*
X123952000Y-77626318D01*
X123943812Y-77627396D01*
X123830293Y-77642341D01*
X123795238Y-77646956D01*
X123649159Y-77707464D01*
X123523718Y-77803718D01*
X123518695Y-77810264D01*
X123482677Y-77857204D01*
X123425339Y-77899071D01*
X123382714Y-77906500D01*
X122489286Y-77906500D01*
X122421165Y-77886498D01*
X122389323Y-77857204D01*
X122353305Y-77810264D01*
X122348282Y-77803718D01*
X122222841Y-77707464D01*
X122076762Y-77646956D01*
X122041708Y-77642341D01*
X121928188Y-77627396D01*
X121920000Y-77626318D01*
X121911812Y-77627396D01*
X121798293Y-77642341D01*
X121763238Y-77646956D01*
X121617159Y-77707464D01*
X121491718Y-77803718D01*
X121395464Y-77929159D01*
X121334956Y-78075238D01*
X121314318Y-78232000D01*
X50801000Y-78232000D01*
X50801000Y-75550262D01*
X52919520Y-75550262D01*
X52936759Y-75755553D01*
X52938458Y-75761478D01*
X52970440Y-75873011D01*
X52993544Y-75953586D01*
X52996359Y-75959063D01*
X52996360Y-75959066D01*
X53081795Y-76125305D01*
X53087712Y-76136818D01*
X53215677Y-76298270D01*
X53220370Y-76302264D01*
X53220371Y-76302265D01*
X53336042Y-76400708D01*
X53372564Y-76431791D01*
X53552398Y-76532297D01*
X53628152Y-76556911D01*
X53742471Y-76594056D01*
X53742475Y-76594057D01*
X53748329Y-76595959D01*
X53952894Y-76620351D01*
X53959029Y-76619879D01*
X53959031Y-76619879D01*
X54031625Y-76614293D01*
X54158300Y-76604546D01*
X54164230Y-76602890D01*
X54164232Y-76602890D01*
X54350797Y-76550800D01*
X54350796Y-76550800D01*
X54356725Y-76549145D01*
X54362214Y-76546372D01*
X54362220Y-76546370D01*
X54535116Y-76459033D01*
X54540610Y-76456258D01*
X54702951Y-76329424D01*
X54731281Y-76296604D01*
X54833540Y-76178134D01*
X54833540Y-76178133D01*
X54837564Y-76173472D01*
X54858387Y-76136818D01*
X54936276Y-75999707D01*
X54939323Y-75994344D01*
X55004351Y-75798863D01*
X55030171Y-75594474D01*
X55030583Y-75565000D01*
X55029138Y-75550262D01*
X55459520Y-75550262D01*
X55476759Y-75755553D01*
X55478458Y-75761478D01*
X55510440Y-75873011D01*
X55533544Y-75953586D01*
X55536359Y-75959063D01*
X55536360Y-75959066D01*
X55621795Y-76125305D01*
X55627712Y-76136818D01*
X55755677Y-76298270D01*
X55760370Y-76302264D01*
X55760371Y-76302265D01*
X55876042Y-76400708D01*
X55912564Y-76431791D01*
X56092398Y-76532297D01*
X56168152Y-76556911D01*
X56282471Y-76594056D01*
X56282475Y-76594057D01*
X56288329Y-76595959D01*
X56492894Y-76620351D01*
X56499029Y-76619879D01*
X56499031Y-76619879D01*
X56571625Y-76614293D01*
X56698300Y-76604546D01*
X56704230Y-76602890D01*
X56704232Y-76602890D01*
X56890797Y-76550800D01*
X56890796Y-76550800D01*
X56896725Y-76549145D01*
X56902214Y-76546372D01*
X56902220Y-76546370D01*
X57075116Y-76459033D01*
X57080610Y-76456258D01*
X57242951Y-76329424D01*
X57271281Y-76296604D01*
X57373540Y-76178134D01*
X57373540Y-76178133D01*
X57377564Y-76173472D01*
X57398387Y-76136818D01*
X57461445Y-76025815D01*
X57512484Y-75976464D01*
X57582102Y-75962542D01*
X57648196Y-75988468D01*
X57689781Y-76046011D01*
X57697001Y-76088052D01*
X57697001Y-76459669D01*
X57697371Y-76466490D01*
X57702895Y-76517352D01*
X57706521Y-76532604D01*
X57751676Y-76653054D01*
X57760214Y-76668649D01*
X57836715Y-76770724D01*
X57849276Y-76783285D01*
X57951351Y-76859786D01*
X57966946Y-76868324D01*
X58087394Y-76913478D01*
X58102649Y-76917105D01*
X58153514Y-76922631D01*
X58160328Y-76923000D01*
X58782885Y-76923000D01*
X58798124Y-76918525D01*
X58799329Y-76917135D01*
X58801000Y-76909452D01*
X58801000Y-76904884D01*
X59309000Y-76904884D01*
X59313475Y-76920123D01*
X59314865Y-76921328D01*
X59322548Y-76922999D01*
X59949669Y-76922999D01*
X59956490Y-76922629D01*
X60007352Y-76917105D01*
X60022604Y-76913479D01*
X60143054Y-76868324D01*
X60158649Y-76859786D01*
X60260724Y-76783285D01*
X60273285Y-76770724D01*
X60349786Y-76668649D01*
X60358324Y-76653054D01*
X60403478Y-76532606D01*
X60407105Y-76517351D01*
X60412631Y-76466486D01*
X60413000Y-76459672D01*
X60413000Y-76084192D01*
X60433002Y-76016071D01*
X60486658Y-75969578D01*
X60556932Y-75959474D01*
X60621512Y-75988968D01*
X60651067Y-76026598D01*
X60695850Y-76113736D01*
X60707712Y-76136818D01*
X60835677Y-76298270D01*
X60840370Y-76302264D01*
X60840371Y-76302265D01*
X60956042Y-76400708D01*
X60992564Y-76431791D01*
X61172398Y-76532297D01*
X61248152Y-76556911D01*
X61362471Y-76594056D01*
X61362475Y-76594057D01*
X61368329Y-76595959D01*
X61572894Y-76620351D01*
X61579029Y-76619879D01*
X61579031Y-76619879D01*
X61651625Y-76614293D01*
X61778300Y-76604546D01*
X61784230Y-76602890D01*
X61784232Y-76602890D01*
X61970797Y-76550800D01*
X61970796Y-76550800D01*
X61976725Y-76549145D01*
X61982214Y-76546372D01*
X61982220Y-76546370D01*
X62155116Y-76459033D01*
X62160610Y-76456258D01*
X62322951Y-76329424D01*
X62351281Y-76296604D01*
X62453540Y-76178134D01*
X62453540Y-76178133D01*
X62457564Y-76173472D01*
X62478387Y-76136818D01*
X62556276Y-75999707D01*
X62559323Y-75994344D01*
X62624351Y-75798863D01*
X62650171Y-75594474D01*
X62650583Y-75565000D01*
X62649138Y-75550262D01*
X63079520Y-75550262D01*
X63096759Y-75755553D01*
X63098458Y-75761478D01*
X63130440Y-75873011D01*
X63153544Y-75953586D01*
X63156359Y-75959063D01*
X63156360Y-75959066D01*
X63241795Y-76125305D01*
X63247712Y-76136818D01*
X63375677Y-76298270D01*
X63380370Y-76302264D01*
X63380371Y-76302265D01*
X63496042Y-76400708D01*
X63532564Y-76431791D01*
X63712398Y-76532297D01*
X63788152Y-76556911D01*
X63902471Y-76594056D01*
X63902475Y-76594057D01*
X63908329Y-76595959D01*
X64112894Y-76620351D01*
X64119029Y-76619879D01*
X64119031Y-76619879D01*
X64191625Y-76614293D01*
X64318300Y-76604546D01*
X64324230Y-76602890D01*
X64324232Y-76602890D01*
X64510797Y-76550800D01*
X64510796Y-76550800D01*
X64516725Y-76549145D01*
X64522214Y-76546372D01*
X64522220Y-76546370D01*
X64695116Y-76459033D01*
X64700610Y-76456258D01*
X64862951Y-76329424D01*
X64891281Y-76296604D01*
X64993540Y-76178134D01*
X64993540Y-76178133D01*
X64997564Y-76173472D01*
X65018387Y-76136818D01*
X65096276Y-75999707D01*
X65099323Y-75994344D01*
X65164351Y-75798863D01*
X65190171Y-75594474D01*
X65190583Y-75565000D01*
X65189138Y-75550262D01*
X65619520Y-75550262D01*
X65636759Y-75755553D01*
X65638458Y-75761478D01*
X65670440Y-75873011D01*
X65693544Y-75953586D01*
X65696359Y-75959063D01*
X65696360Y-75959066D01*
X65781795Y-76125305D01*
X65787712Y-76136818D01*
X65915677Y-76298270D01*
X65920370Y-76302264D01*
X65920371Y-76302265D01*
X66036042Y-76400708D01*
X66072564Y-76431791D01*
X66252398Y-76532297D01*
X66328152Y-76556911D01*
X66442471Y-76594056D01*
X66442475Y-76594057D01*
X66448329Y-76595959D01*
X66652894Y-76620351D01*
X66659029Y-76619879D01*
X66659031Y-76619879D01*
X66731625Y-76614293D01*
X66858300Y-76604546D01*
X66864230Y-76602890D01*
X66864232Y-76602890D01*
X67050797Y-76550800D01*
X67050796Y-76550800D01*
X67056725Y-76549145D01*
X67062214Y-76546372D01*
X67062220Y-76546370D01*
X67235116Y-76459033D01*
X67240610Y-76456258D01*
X67402951Y-76329424D01*
X67431281Y-76296604D01*
X67533540Y-76178134D01*
X67533540Y-76178133D01*
X67537564Y-76173472D01*
X67558387Y-76136818D01*
X67636276Y-75999707D01*
X67639323Y-75994344D01*
X67704351Y-75798863D01*
X67730171Y-75594474D01*
X67730583Y-75565000D01*
X67729138Y-75550262D01*
X68159520Y-75550262D01*
X68176759Y-75755553D01*
X68178458Y-75761478D01*
X68210440Y-75873011D01*
X68233544Y-75953586D01*
X68236359Y-75959063D01*
X68236360Y-75959066D01*
X68321795Y-76125305D01*
X68327712Y-76136818D01*
X68455677Y-76298270D01*
X68460370Y-76302264D01*
X68460371Y-76302265D01*
X68576042Y-76400708D01*
X68612564Y-76431791D01*
X68792398Y-76532297D01*
X68868152Y-76556911D01*
X68982471Y-76594056D01*
X68982475Y-76594057D01*
X68988329Y-76595959D01*
X69192894Y-76620351D01*
X69199029Y-76619879D01*
X69199031Y-76619879D01*
X69271625Y-76614293D01*
X69398300Y-76604546D01*
X69404230Y-76602890D01*
X69404232Y-76602890D01*
X69590797Y-76550800D01*
X69590796Y-76550800D01*
X69596725Y-76549145D01*
X69602214Y-76546372D01*
X69602220Y-76546370D01*
X69775116Y-76459033D01*
X69780610Y-76456258D01*
X69808142Y-76434748D01*
X70704500Y-76434748D01*
X70705707Y-76440816D01*
X70709331Y-76459033D01*
X70716133Y-76493231D01*
X70760448Y-76559552D01*
X70826769Y-76603867D01*
X70838938Y-76606288D01*
X70838939Y-76606288D01*
X70879184Y-76614293D01*
X70885252Y-76615500D01*
X72624748Y-76615500D01*
X72630816Y-76614293D01*
X72671061Y-76606288D01*
X72671062Y-76606288D01*
X72683231Y-76603867D01*
X72749552Y-76559552D01*
X72793867Y-76493231D01*
X72800670Y-76459033D01*
X72804293Y-76440816D01*
X72805500Y-76434748D01*
X72805500Y-75550262D01*
X73239520Y-75550262D01*
X73256759Y-75755553D01*
X73258458Y-75761478D01*
X73290440Y-75873011D01*
X73313544Y-75953586D01*
X73316359Y-75959063D01*
X73316360Y-75959066D01*
X73401795Y-76125305D01*
X73407712Y-76136818D01*
X73535677Y-76298270D01*
X73540370Y-76302264D01*
X73540371Y-76302265D01*
X73656042Y-76400708D01*
X73692564Y-76431791D01*
X73872398Y-76532297D01*
X73948152Y-76556911D01*
X74062471Y-76594056D01*
X74062475Y-76594057D01*
X74068329Y-76595959D01*
X74272894Y-76620351D01*
X74279029Y-76619879D01*
X74279031Y-76619879D01*
X74351625Y-76614293D01*
X74478300Y-76604546D01*
X74484230Y-76602890D01*
X74484232Y-76602890D01*
X74670797Y-76550800D01*
X74670796Y-76550800D01*
X74676725Y-76549145D01*
X74682214Y-76546372D01*
X74682220Y-76546370D01*
X74855116Y-76459033D01*
X74860610Y-76456258D01*
X75022951Y-76329424D01*
X75051281Y-76296604D01*
X75153540Y-76178134D01*
X75153540Y-76178133D01*
X75157564Y-76173472D01*
X75178387Y-76136818D01*
X75256276Y-75999707D01*
X75259323Y-75994344D01*
X75324351Y-75798863D01*
X75350171Y-75594474D01*
X75350583Y-75565000D01*
X75349138Y-75550262D01*
X75779520Y-75550262D01*
X75796759Y-75755553D01*
X75798458Y-75761478D01*
X75830440Y-75873011D01*
X75853544Y-75953586D01*
X75856359Y-75959063D01*
X75856360Y-75959066D01*
X75941795Y-76125305D01*
X75947712Y-76136818D01*
X76075677Y-76298270D01*
X76080370Y-76302264D01*
X76080371Y-76302265D01*
X76196042Y-76400708D01*
X76232564Y-76431791D01*
X76412398Y-76532297D01*
X76488152Y-76556911D01*
X76602471Y-76594056D01*
X76602475Y-76594057D01*
X76608329Y-76595959D01*
X76812894Y-76620351D01*
X76819029Y-76619879D01*
X76819031Y-76619879D01*
X76891625Y-76614293D01*
X77018300Y-76604546D01*
X77024230Y-76602890D01*
X77024232Y-76602890D01*
X77210797Y-76550800D01*
X77210796Y-76550800D01*
X77216725Y-76549145D01*
X77222214Y-76546372D01*
X77222220Y-76546370D01*
X77395116Y-76459033D01*
X77400610Y-76456258D01*
X77562951Y-76329424D01*
X77591281Y-76296604D01*
X77693540Y-76178134D01*
X77693540Y-76178133D01*
X77697564Y-76173472D01*
X77718387Y-76136818D01*
X77796276Y-75999707D01*
X77799323Y-75994344D01*
X77864351Y-75798863D01*
X77890171Y-75594474D01*
X77890583Y-75565000D01*
X77889138Y-75550262D01*
X78319520Y-75550262D01*
X78336759Y-75755553D01*
X78338458Y-75761478D01*
X78370440Y-75873011D01*
X78393544Y-75953586D01*
X78396359Y-75959063D01*
X78396360Y-75959066D01*
X78481795Y-76125305D01*
X78487712Y-76136818D01*
X78615677Y-76298270D01*
X78620370Y-76302264D01*
X78620371Y-76302265D01*
X78736042Y-76400708D01*
X78772564Y-76431791D01*
X78952398Y-76532297D01*
X79028152Y-76556911D01*
X79142471Y-76594056D01*
X79142475Y-76594057D01*
X79148329Y-76595959D01*
X79352894Y-76620351D01*
X79359029Y-76619879D01*
X79359031Y-76619879D01*
X79431625Y-76614293D01*
X79558300Y-76604546D01*
X79564230Y-76602890D01*
X79564232Y-76602890D01*
X79750797Y-76550800D01*
X79750796Y-76550800D01*
X79756725Y-76549145D01*
X79762214Y-76546372D01*
X79762220Y-76546370D01*
X79935116Y-76459033D01*
X79940610Y-76456258D01*
X80102951Y-76329424D01*
X80131281Y-76296604D01*
X80233540Y-76178134D01*
X80233540Y-76178133D01*
X80237564Y-76173472D01*
X80258387Y-76136818D01*
X80336276Y-75999707D01*
X80339323Y-75994344D01*
X80404351Y-75798863D01*
X80430171Y-75594474D01*
X80430583Y-75565000D01*
X80429138Y-75550262D01*
X80859520Y-75550262D01*
X80876759Y-75755553D01*
X80878458Y-75761478D01*
X80910440Y-75873011D01*
X80933544Y-75953586D01*
X80936359Y-75959063D01*
X80936360Y-75959066D01*
X81021795Y-76125305D01*
X81027712Y-76136818D01*
X81155677Y-76298270D01*
X81160370Y-76302264D01*
X81160371Y-76302265D01*
X81276042Y-76400708D01*
X81312564Y-76431791D01*
X81492398Y-76532297D01*
X81568152Y-76556911D01*
X81682471Y-76594056D01*
X81682475Y-76594057D01*
X81688329Y-76595959D01*
X81892894Y-76620351D01*
X81899029Y-76619879D01*
X81899031Y-76619879D01*
X81971625Y-76614293D01*
X82098300Y-76604546D01*
X82104230Y-76602890D01*
X82104232Y-76602890D01*
X82290797Y-76550800D01*
X82290796Y-76550800D01*
X82296725Y-76549145D01*
X82302214Y-76546372D01*
X82302220Y-76546370D01*
X82475116Y-76459033D01*
X82480610Y-76456258D01*
X82508142Y-76434748D01*
X83404500Y-76434748D01*
X83405707Y-76440816D01*
X83409331Y-76459033D01*
X83416133Y-76493231D01*
X83460448Y-76559552D01*
X83526769Y-76603867D01*
X83538938Y-76606288D01*
X83538939Y-76606288D01*
X83579184Y-76614293D01*
X83585252Y-76615500D01*
X85324748Y-76615500D01*
X85330816Y-76614293D01*
X85371061Y-76606288D01*
X85371062Y-76606288D01*
X85383231Y-76603867D01*
X85449552Y-76559552D01*
X85493867Y-76493231D01*
X85500670Y-76459033D01*
X85504293Y-76440816D01*
X85505500Y-76434748D01*
X85505500Y-75550262D01*
X85939520Y-75550262D01*
X85956759Y-75755553D01*
X85958458Y-75761478D01*
X85990440Y-75873011D01*
X86013544Y-75953586D01*
X86016359Y-75959063D01*
X86016360Y-75959066D01*
X86101795Y-76125305D01*
X86107712Y-76136818D01*
X86235677Y-76298270D01*
X86240370Y-76302264D01*
X86240371Y-76302265D01*
X86356042Y-76400708D01*
X86392564Y-76431791D01*
X86572398Y-76532297D01*
X86648152Y-76556911D01*
X86762471Y-76594056D01*
X86762475Y-76594057D01*
X86768329Y-76595959D01*
X86972894Y-76620351D01*
X86979029Y-76619879D01*
X86979031Y-76619879D01*
X87051625Y-76614293D01*
X87178300Y-76604546D01*
X87184230Y-76602890D01*
X87184232Y-76602890D01*
X87370797Y-76550800D01*
X87370796Y-76550800D01*
X87376725Y-76549145D01*
X87382214Y-76546372D01*
X87382220Y-76546370D01*
X87555116Y-76459033D01*
X87560610Y-76456258D01*
X87722951Y-76329424D01*
X87751281Y-76296604D01*
X87853540Y-76178134D01*
X87853540Y-76178133D01*
X87857564Y-76173472D01*
X87878387Y-76136818D01*
X87956276Y-75999707D01*
X87959323Y-75994344D01*
X88024351Y-75798863D01*
X88050171Y-75594474D01*
X88050583Y-75565000D01*
X88049138Y-75550262D01*
X88479520Y-75550262D01*
X88496759Y-75755553D01*
X88498458Y-75761478D01*
X88530440Y-75873011D01*
X88553544Y-75953586D01*
X88556359Y-75959063D01*
X88556360Y-75959066D01*
X88641795Y-76125305D01*
X88647712Y-76136818D01*
X88775677Y-76298270D01*
X88780370Y-76302264D01*
X88780371Y-76302265D01*
X88896042Y-76400708D01*
X88932564Y-76431791D01*
X89112398Y-76532297D01*
X89188152Y-76556911D01*
X89302471Y-76594056D01*
X89302475Y-76594057D01*
X89308329Y-76595959D01*
X89512894Y-76620351D01*
X89519029Y-76619879D01*
X89519031Y-76619879D01*
X89591625Y-76614293D01*
X89718300Y-76604546D01*
X89724230Y-76602890D01*
X89724232Y-76602890D01*
X89910797Y-76550800D01*
X89910796Y-76550800D01*
X89916725Y-76549145D01*
X89922214Y-76546372D01*
X89922220Y-76546370D01*
X90095116Y-76459033D01*
X90100610Y-76456258D01*
X90262951Y-76329424D01*
X90291281Y-76296604D01*
X90393540Y-76178134D01*
X90393540Y-76178133D01*
X90397564Y-76173472D01*
X90418387Y-76136818D01*
X90496276Y-75999707D01*
X90499323Y-75994344D01*
X90564351Y-75798863D01*
X90590171Y-75594474D01*
X90590583Y-75565000D01*
X90589138Y-75550262D01*
X91019520Y-75550262D01*
X91036759Y-75755553D01*
X91038458Y-75761478D01*
X91070440Y-75873011D01*
X91093544Y-75953586D01*
X91096359Y-75959063D01*
X91096360Y-75959066D01*
X91181795Y-76125305D01*
X91187712Y-76136818D01*
X91315677Y-76298270D01*
X91320370Y-76302264D01*
X91320371Y-76302265D01*
X91436042Y-76400708D01*
X91472564Y-76431791D01*
X91652398Y-76532297D01*
X91728152Y-76556911D01*
X91842471Y-76594056D01*
X91842475Y-76594057D01*
X91848329Y-76595959D01*
X92052894Y-76620351D01*
X92059029Y-76619879D01*
X92059031Y-76619879D01*
X92131625Y-76614293D01*
X92258300Y-76604546D01*
X92264230Y-76602890D01*
X92264232Y-76602890D01*
X92450797Y-76550800D01*
X92450796Y-76550800D01*
X92456725Y-76549145D01*
X92462214Y-76546372D01*
X92462220Y-76546370D01*
X92635116Y-76459033D01*
X92640610Y-76456258D01*
X92802951Y-76329424D01*
X92831281Y-76296604D01*
X92933540Y-76178134D01*
X92933540Y-76178133D01*
X92937564Y-76173472D01*
X92958387Y-76136818D01*
X93036276Y-75999707D01*
X93039323Y-75994344D01*
X93104351Y-75798863D01*
X93130171Y-75594474D01*
X93130583Y-75565000D01*
X93129138Y-75550262D01*
X93559520Y-75550262D01*
X93576759Y-75755553D01*
X93578458Y-75761478D01*
X93610440Y-75873011D01*
X93633544Y-75953586D01*
X93636359Y-75959063D01*
X93636360Y-75959066D01*
X93721795Y-76125305D01*
X93727712Y-76136818D01*
X93855677Y-76298270D01*
X93860370Y-76302264D01*
X93860371Y-76302265D01*
X93976042Y-76400708D01*
X94012564Y-76431791D01*
X94192398Y-76532297D01*
X94268152Y-76556911D01*
X94382471Y-76594056D01*
X94382475Y-76594057D01*
X94388329Y-76595959D01*
X94592894Y-76620351D01*
X94599029Y-76619879D01*
X94599031Y-76619879D01*
X94671625Y-76614293D01*
X94798300Y-76604546D01*
X94804230Y-76602890D01*
X94804232Y-76602890D01*
X94990797Y-76550800D01*
X94990796Y-76550800D01*
X94996725Y-76549145D01*
X95002214Y-76546372D01*
X95002220Y-76546370D01*
X95175116Y-76459033D01*
X95180610Y-76456258D01*
X95208142Y-76434748D01*
X96104500Y-76434748D01*
X96105707Y-76440816D01*
X96109331Y-76459033D01*
X96116133Y-76493231D01*
X96160448Y-76559552D01*
X96226769Y-76603867D01*
X96238938Y-76606288D01*
X96238939Y-76606288D01*
X96279184Y-76614293D01*
X96285252Y-76615500D01*
X98024748Y-76615500D01*
X98030816Y-76614293D01*
X98071061Y-76606288D01*
X98071062Y-76606288D01*
X98083231Y-76603867D01*
X98149552Y-76559552D01*
X98193867Y-76493231D01*
X98200670Y-76459033D01*
X98204293Y-76440816D01*
X98205500Y-76434748D01*
X98205500Y-75550262D01*
X98639520Y-75550262D01*
X98656759Y-75755553D01*
X98658458Y-75761478D01*
X98690440Y-75873011D01*
X98713544Y-75953586D01*
X98716359Y-75959063D01*
X98716360Y-75959066D01*
X98801795Y-76125305D01*
X98807712Y-76136818D01*
X98935677Y-76298270D01*
X98940370Y-76302264D01*
X98940371Y-76302265D01*
X99056042Y-76400708D01*
X99092564Y-76431791D01*
X99272398Y-76532297D01*
X99348152Y-76556911D01*
X99462471Y-76594056D01*
X99462475Y-76594057D01*
X99468329Y-76595959D01*
X99672894Y-76620351D01*
X99679029Y-76619879D01*
X99679031Y-76619879D01*
X99751625Y-76614293D01*
X99878300Y-76604546D01*
X99884230Y-76602890D01*
X99884232Y-76602890D01*
X100070797Y-76550800D01*
X100070796Y-76550800D01*
X100076725Y-76549145D01*
X100082214Y-76546372D01*
X100082220Y-76546370D01*
X100255116Y-76459033D01*
X100260610Y-76456258D01*
X100422951Y-76329424D01*
X100451281Y-76296604D01*
X100553540Y-76178134D01*
X100553540Y-76178133D01*
X100557564Y-76173472D01*
X100578387Y-76136818D01*
X100656276Y-75999707D01*
X100659323Y-75994344D01*
X100724351Y-75798863D01*
X100750171Y-75594474D01*
X100750583Y-75565000D01*
X100749138Y-75550262D01*
X101179520Y-75550262D01*
X101196759Y-75755553D01*
X101198458Y-75761478D01*
X101230440Y-75873011D01*
X101253544Y-75953586D01*
X101256359Y-75959063D01*
X101256360Y-75959066D01*
X101341795Y-76125305D01*
X101347712Y-76136818D01*
X101475677Y-76298270D01*
X101480370Y-76302264D01*
X101480371Y-76302265D01*
X101596042Y-76400708D01*
X101632564Y-76431791D01*
X101812398Y-76532297D01*
X101888152Y-76556911D01*
X102002471Y-76594056D01*
X102002475Y-76594057D01*
X102008329Y-76595959D01*
X102212894Y-76620351D01*
X102219029Y-76619879D01*
X102219031Y-76619879D01*
X102291625Y-76614293D01*
X102418300Y-76604546D01*
X102424230Y-76602890D01*
X102424232Y-76602890D01*
X102610797Y-76550800D01*
X102610796Y-76550800D01*
X102616725Y-76549145D01*
X102622214Y-76546372D01*
X102622220Y-76546370D01*
X102795116Y-76459033D01*
X102800610Y-76456258D01*
X102962951Y-76329424D01*
X102991281Y-76296604D01*
X103093540Y-76178134D01*
X103093540Y-76178133D01*
X103097564Y-76173472D01*
X103118387Y-76136818D01*
X103196276Y-75999707D01*
X103199323Y-75994344D01*
X103264351Y-75798863D01*
X103290171Y-75594474D01*
X103290583Y-75565000D01*
X103270480Y-75359970D01*
X103210935Y-75162749D01*
X103114218Y-74980849D01*
X103040859Y-74890902D01*
X102987906Y-74825975D01*
X102987903Y-74825972D01*
X102984011Y-74821200D01*
X102966786Y-74806950D01*
X102830025Y-74693811D01*
X102830021Y-74693809D01*
X102825275Y-74689882D01*
X102644055Y-74591897D01*
X102447254Y-74530977D01*
X102441129Y-74530333D01*
X102441128Y-74530333D01*
X102248498Y-74510087D01*
X102248496Y-74510087D01*
X102242369Y-74509443D01*
X102161131Y-74516836D01*
X102043342Y-74527555D01*
X102043339Y-74527556D01*
X102037203Y-74528114D01*
X101839572Y-74586280D01*
X101657002Y-74681726D01*
X101652201Y-74685586D01*
X101652198Y-74685588D01*
X101501254Y-74806950D01*
X101496447Y-74810815D01*
X101364024Y-74968630D01*
X101361056Y-74974028D01*
X101361053Y-74974033D01*
X101282001Y-75117829D01*
X101264776Y-75149162D01*
X101202484Y-75345532D01*
X101201798Y-75351649D01*
X101201797Y-75351653D01*
X101182957Y-75519617D01*
X101179520Y-75550262D01*
X100749138Y-75550262D01*
X100730480Y-75359970D01*
X100670935Y-75162749D01*
X100574218Y-74980849D01*
X100500859Y-74890902D01*
X100447906Y-74825975D01*
X100447903Y-74825972D01*
X100444011Y-74821200D01*
X100426786Y-74806950D01*
X100290025Y-74693811D01*
X100290021Y-74693809D01*
X100285275Y-74689882D01*
X100104055Y-74591897D01*
X99907254Y-74530977D01*
X99901129Y-74530333D01*
X99901128Y-74530333D01*
X99708498Y-74510087D01*
X99708496Y-74510087D01*
X99702369Y-74509443D01*
X99621131Y-74516836D01*
X99503342Y-74527555D01*
X99503339Y-74527556D01*
X99497203Y-74528114D01*
X99299572Y-74586280D01*
X99117002Y-74681726D01*
X99112201Y-74685586D01*
X99112198Y-74685588D01*
X98961254Y-74806950D01*
X98956447Y-74810815D01*
X98824024Y-74968630D01*
X98821056Y-74974028D01*
X98821053Y-74974033D01*
X98742001Y-75117829D01*
X98724776Y-75149162D01*
X98662484Y-75345532D01*
X98661798Y-75351649D01*
X98661797Y-75351653D01*
X98642957Y-75519617D01*
X98639520Y-75550262D01*
X98205500Y-75550262D01*
X98205500Y-74695252D01*
X98193867Y-74636769D01*
X98149552Y-74570448D01*
X98083231Y-74526133D01*
X98071062Y-74523712D01*
X98071061Y-74523712D01*
X98030816Y-74515707D01*
X98024748Y-74514500D01*
X96285252Y-74514500D01*
X96279184Y-74515707D01*
X96238939Y-74523712D01*
X96238938Y-74523712D01*
X96226769Y-74526133D01*
X96160448Y-74570448D01*
X96116133Y-74636769D01*
X96104500Y-74695252D01*
X96104500Y-76434748D01*
X95208142Y-76434748D01*
X95342951Y-76329424D01*
X95371281Y-76296604D01*
X95473540Y-76178134D01*
X95473540Y-76178133D01*
X95477564Y-76173472D01*
X95498387Y-76136818D01*
X95576276Y-75999707D01*
X95579323Y-75994344D01*
X95644351Y-75798863D01*
X95670171Y-75594474D01*
X95670583Y-75565000D01*
X95650480Y-75359970D01*
X95590935Y-75162749D01*
X95494218Y-74980849D01*
X95420859Y-74890902D01*
X95367906Y-74825975D01*
X95367903Y-74825972D01*
X95364011Y-74821200D01*
X95346786Y-74806950D01*
X95210025Y-74693811D01*
X95210021Y-74693809D01*
X95205275Y-74689882D01*
X95024055Y-74591897D01*
X94827254Y-74530977D01*
X94821129Y-74530333D01*
X94821128Y-74530333D01*
X94628498Y-74510087D01*
X94628496Y-74510087D01*
X94622369Y-74509443D01*
X94541131Y-74516836D01*
X94423342Y-74527555D01*
X94423339Y-74527556D01*
X94417203Y-74528114D01*
X94219572Y-74586280D01*
X94037002Y-74681726D01*
X94032201Y-74685586D01*
X94032198Y-74685588D01*
X93881254Y-74806950D01*
X93876447Y-74810815D01*
X93744024Y-74968630D01*
X93741056Y-74974028D01*
X93741053Y-74974033D01*
X93662001Y-75117829D01*
X93644776Y-75149162D01*
X93582484Y-75345532D01*
X93581798Y-75351649D01*
X93581797Y-75351653D01*
X93562957Y-75519617D01*
X93559520Y-75550262D01*
X93129138Y-75550262D01*
X93110480Y-75359970D01*
X93050935Y-75162749D01*
X92954218Y-74980849D01*
X92880859Y-74890902D01*
X92827906Y-74825975D01*
X92827903Y-74825972D01*
X92824011Y-74821200D01*
X92806786Y-74806950D01*
X92670025Y-74693811D01*
X92670021Y-74693809D01*
X92665275Y-74689882D01*
X92484055Y-74591897D01*
X92287254Y-74530977D01*
X92281129Y-74530333D01*
X92281128Y-74530333D01*
X92088498Y-74510087D01*
X92088496Y-74510087D01*
X92082369Y-74509443D01*
X92001131Y-74516836D01*
X91883342Y-74527555D01*
X91883339Y-74527556D01*
X91877203Y-74528114D01*
X91679572Y-74586280D01*
X91497002Y-74681726D01*
X91492201Y-74685586D01*
X91492198Y-74685588D01*
X91341254Y-74806950D01*
X91336447Y-74810815D01*
X91204024Y-74968630D01*
X91201056Y-74974028D01*
X91201053Y-74974033D01*
X91122001Y-75117829D01*
X91104776Y-75149162D01*
X91042484Y-75345532D01*
X91041798Y-75351649D01*
X91041797Y-75351653D01*
X91022957Y-75519617D01*
X91019520Y-75550262D01*
X90589138Y-75550262D01*
X90570480Y-75359970D01*
X90510935Y-75162749D01*
X90414218Y-74980849D01*
X90340859Y-74890902D01*
X90287906Y-74825975D01*
X90287903Y-74825972D01*
X90284011Y-74821200D01*
X90266786Y-74806950D01*
X90130025Y-74693811D01*
X90130021Y-74693809D01*
X90125275Y-74689882D01*
X89944055Y-74591897D01*
X89747254Y-74530977D01*
X89741129Y-74530333D01*
X89741128Y-74530333D01*
X89548498Y-74510087D01*
X89548496Y-74510087D01*
X89542369Y-74509443D01*
X89461131Y-74516836D01*
X89343342Y-74527555D01*
X89343339Y-74527556D01*
X89337203Y-74528114D01*
X89139572Y-74586280D01*
X88957002Y-74681726D01*
X88952201Y-74685586D01*
X88952198Y-74685588D01*
X88801254Y-74806950D01*
X88796447Y-74810815D01*
X88664024Y-74968630D01*
X88661056Y-74974028D01*
X88661053Y-74974033D01*
X88582001Y-75117829D01*
X88564776Y-75149162D01*
X88502484Y-75345532D01*
X88501798Y-75351649D01*
X88501797Y-75351653D01*
X88482957Y-75519617D01*
X88479520Y-75550262D01*
X88049138Y-75550262D01*
X88030480Y-75359970D01*
X87970935Y-75162749D01*
X87874218Y-74980849D01*
X87800859Y-74890902D01*
X87747906Y-74825975D01*
X87747903Y-74825972D01*
X87744011Y-74821200D01*
X87726786Y-74806950D01*
X87590025Y-74693811D01*
X87590021Y-74693809D01*
X87585275Y-74689882D01*
X87404055Y-74591897D01*
X87207254Y-74530977D01*
X87201129Y-74530333D01*
X87201128Y-74530333D01*
X87008498Y-74510087D01*
X87008496Y-74510087D01*
X87002369Y-74509443D01*
X86921131Y-74516836D01*
X86803342Y-74527555D01*
X86803339Y-74527556D01*
X86797203Y-74528114D01*
X86599572Y-74586280D01*
X86417002Y-74681726D01*
X86412201Y-74685586D01*
X86412198Y-74685588D01*
X86261254Y-74806950D01*
X86256447Y-74810815D01*
X86124024Y-74968630D01*
X86121056Y-74974028D01*
X86121053Y-74974033D01*
X86042001Y-75117829D01*
X86024776Y-75149162D01*
X85962484Y-75345532D01*
X85961798Y-75351649D01*
X85961797Y-75351653D01*
X85942957Y-75519617D01*
X85939520Y-75550262D01*
X85505500Y-75550262D01*
X85505500Y-74695252D01*
X85493867Y-74636769D01*
X85449552Y-74570448D01*
X85383231Y-74526133D01*
X85371062Y-74523712D01*
X85371061Y-74523712D01*
X85330816Y-74515707D01*
X85324748Y-74514500D01*
X83585252Y-74514500D01*
X83579184Y-74515707D01*
X83538939Y-74523712D01*
X83538938Y-74523712D01*
X83526769Y-74526133D01*
X83460448Y-74570448D01*
X83416133Y-74636769D01*
X83404500Y-74695252D01*
X83404500Y-76434748D01*
X82508142Y-76434748D01*
X82642951Y-76329424D01*
X82671281Y-76296604D01*
X82773540Y-76178134D01*
X82773540Y-76178133D01*
X82777564Y-76173472D01*
X82798387Y-76136818D01*
X82876276Y-75999707D01*
X82879323Y-75994344D01*
X82944351Y-75798863D01*
X82970171Y-75594474D01*
X82970583Y-75565000D01*
X82950480Y-75359970D01*
X82890935Y-75162749D01*
X82794218Y-74980849D01*
X82720859Y-74890902D01*
X82667906Y-74825975D01*
X82667903Y-74825972D01*
X82664011Y-74821200D01*
X82646786Y-74806950D01*
X82510025Y-74693811D01*
X82510021Y-74693809D01*
X82505275Y-74689882D01*
X82324055Y-74591897D01*
X82127254Y-74530977D01*
X82121129Y-74530333D01*
X82121128Y-74530333D01*
X81928498Y-74510087D01*
X81928496Y-74510087D01*
X81922369Y-74509443D01*
X81841131Y-74516836D01*
X81723342Y-74527555D01*
X81723339Y-74527556D01*
X81717203Y-74528114D01*
X81519572Y-74586280D01*
X81337002Y-74681726D01*
X81332201Y-74685586D01*
X81332198Y-74685588D01*
X81181254Y-74806950D01*
X81176447Y-74810815D01*
X81044024Y-74968630D01*
X81041056Y-74974028D01*
X81041053Y-74974033D01*
X80962001Y-75117829D01*
X80944776Y-75149162D01*
X80882484Y-75345532D01*
X80881798Y-75351649D01*
X80881797Y-75351653D01*
X80862957Y-75519617D01*
X80859520Y-75550262D01*
X80429138Y-75550262D01*
X80410480Y-75359970D01*
X80350935Y-75162749D01*
X80254218Y-74980849D01*
X80180859Y-74890902D01*
X80127906Y-74825975D01*
X80127903Y-74825972D01*
X80124011Y-74821200D01*
X80106786Y-74806950D01*
X79970025Y-74693811D01*
X79970021Y-74693809D01*
X79965275Y-74689882D01*
X79784055Y-74591897D01*
X79587254Y-74530977D01*
X79581129Y-74530333D01*
X79581128Y-74530333D01*
X79388498Y-74510087D01*
X79388496Y-74510087D01*
X79382369Y-74509443D01*
X79301131Y-74516836D01*
X79183342Y-74527555D01*
X79183339Y-74527556D01*
X79177203Y-74528114D01*
X78979572Y-74586280D01*
X78797002Y-74681726D01*
X78792201Y-74685586D01*
X78792198Y-74685588D01*
X78641254Y-74806950D01*
X78636447Y-74810815D01*
X78504024Y-74968630D01*
X78501056Y-74974028D01*
X78501053Y-74974033D01*
X78422001Y-75117829D01*
X78404776Y-75149162D01*
X78342484Y-75345532D01*
X78341798Y-75351649D01*
X78341797Y-75351653D01*
X78322957Y-75519617D01*
X78319520Y-75550262D01*
X77889138Y-75550262D01*
X77870480Y-75359970D01*
X77810935Y-75162749D01*
X77714218Y-74980849D01*
X77640859Y-74890902D01*
X77587906Y-74825975D01*
X77587903Y-74825972D01*
X77584011Y-74821200D01*
X77566786Y-74806950D01*
X77430025Y-74693811D01*
X77430021Y-74693809D01*
X77425275Y-74689882D01*
X77244055Y-74591897D01*
X77047254Y-74530977D01*
X77041129Y-74530333D01*
X77041128Y-74530333D01*
X76848498Y-74510087D01*
X76848496Y-74510087D01*
X76842369Y-74509443D01*
X76761131Y-74516836D01*
X76643342Y-74527555D01*
X76643339Y-74527556D01*
X76637203Y-74528114D01*
X76439572Y-74586280D01*
X76257002Y-74681726D01*
X76252201Y-74685586D01*
X76252198Y-74685588D01*
X76101254Y-74806950D01*
X76096447Y-74810815D01*
X75964024Y-74968630D01*
X75961056Y-74974028D01*
X75961053Y-74974033D01*
X75882001Y-75117829D01*
X75864776Y-75149162D01*
X75802484Y-75345532D01*
X75801798Y-75351649D01*
X75801797Y-75351653D01*
X75782957Y-75519617D01*
X75779520Y-75550262D01*
X75349138Y-75550262D01*
X75330480Y-75359970D01*
X75270935Y-75162749D01*
X75174218Y-74980849D01*
X75100859Y-74890902D01*
X75047906Y-74825975D01*
X75047903Y-74825972D01*
X75044011Y-74821200D01*
X75026786Y-74806950D01*
X74890025Y-74693811D01*
X74890021Y-74693809D01*
X74885275Y-74689882D01*
X74704055Y-74591897D01*
X74507254Y-74530977D01*
X74501129Y-74530333D01*
X74501128Y-74530333D01*
X74308498Y-74510087D01*
X74308496Y-74510087D01*
X74302369Y-74509443D01*
X74221131Y-74516836D01*
X74103342Y-74527555D01*
X74103339Y-74527556D01*
X74097203Y-74528114D01*
X73899572Y-74586280D01*
X73717002Y-74681726D01*
X73712201Y-74685586D01*
X73712198Y-74685588D01*
X73561254Y-74806950D01*
X73556447Y-74810815D01*
X73424024Y-74968630D01*
X73421056Y-74974028D01*
X73421053Y-74974033D01*
X73342001Y-75117829D01*
X73324776Y-75149162D01*
X73262484Y-75345532D01*
X73261798Y-75351649D01*
X73261797Y-75351653D01*
X73242957Y-75519617D01*
X73239520Y-75550262D01*
X72805500Y-75550262D01*
X72805500Y-74695252D01*
X72793867Y-74636769D01*
X72749552Y-74570448D01*
X72683231Y-74526133D01*
X72671062Y-74523712D01*
X72671061Y-74523712D01*
X72630816Y-74515707D01*
X72624748Y-74514500D01*
X70885252Y-74514500D01*
X70879184Y-74515707D01*
X70838939Y-74523712D01*
X70838938Y-74523712D01*
X70826769Y-74526133D01*
X70760448Y-74570448D01*
X70716133Y-74636769D01*
X70704500Y-74695252D01*
X70704500Y-76434748D01*
X69808142Y-76434748D01*
X69942951Y-76329424D01*
X69971281Y-76296604D01*
X70073540Y-76178134D01*
X70073540Y-76178133D01*
X70077564Y-76173472D01*
X70098387Y-76136818D01*
X70176276Y-75999707D01*
X70179323Y-75994344D01*
X70244351Y-75798863D01*
X70270171Y-75594474D01*
X70270583Y-75565000D01*
X70250480Y-75359970D01*
X70190935Y-75162749D01*
X70094218Y-74980849D01*
X70020859Y-74890902D01*
X69967906Y-74825975D01*
X69967903Y-74825972D01*
X69964011Y-74821200D01*
X69946786Y-74806950D01*
X69810025Y-74693811D01*
X69810021Y-74693809D01*
X69805275Y-74689882D01*
X69624055Y-74591897D01*
X69427254Y-74530977D01*
X69421129Y-74530333D01*
X69421128Y-74530333D01*
X69228498Y-74510087D01*
X69228496Y-74510087D01*
X69222369Y-74509443D01*
X69141131Y-74516836D01*
X69023342Y-74527555D01*
X69023339Y-74527556D01*
X69017203Y-74528114D01*
X68819572Y-74586280D01*
X68637002Y-74681726D01*
X68632201Y-74685586D01*
X68632198Y-74685588D01*
X68481254Y-74806950D01*
X68476447Y-74810815D01*
X68344024Y-74968630D01*
X68341056Y-74974028D01*
X68341053Y-74974033D01*
X68262001Y-75117829D01*
X68244776Y-75149162D01*
X68182484Y-75345532D01*
X68181798Y-75351649D01*
X68181797Y-75351653D01*
X68162957Y-75519617D01*
X68159520Y-75550262D01*
X67729138Y-75550262D01*
X67710480Y-75359970D01*
X67650935Y-75162749D01*
X67554218Y-74980849D01*
X67480859Y-74890902D01*
X67427906Y-74825975D01*
X67427903Y-74825972D01*
X67424011Y-74821200D01*
X67406786Y-74806950D01*
X67270025Y-74693811D01*
X67270021Y-74693809D01*
X67265275Y-74689882D01*
X67084055Y-74591897D01*
X66887254Y-74530977D01*
X66881129Y-74530333D01*
X66881128Y-74530333D01*
X66688498Y-74510087D01*
X66688496Y-74510087D01*
X66682369Y-74509443D01*
X66601131Y-74516836D01*
X66483342Y-74527555D01*
X66483339Y-74527556D01*
X66477203Y-74528114D01*
X66279572Y-74586280D01*
X66097002Y-74681726D01*
X66092201Y-74685586D01*
X66092198Y-74685588D01*
X65941254Y-74806950D01*
X65936447Y-74810815D01*
X65804024Y-74968630D01*
X65801056Y-74974028D01*
X65801053Y-74974033D01*
X65722001Y-75117829D01*
X65704776Y-75149162D01*
X65642484Y-75345532D01*
X65641798Y-75351649D01*
X65641797Y-75351653D01*
X65622957Y-75519617D01*
X65619520Y-75550262D01*
X65189138Y-75550262D01*
X65170480Y-75359970D01*
X65110935Y-75162749D01*
X65014218Y-74980849D01*
X64940859Y-74890902D01*
X64887906Y-74825975D01*
X64887903Y-74825972D01*
X64884011Y-74821200D01*
X64866786Y-74806950D01*
X64730025Y-74693811D01*
X64730021Y-74693809D01*
X64725275Y-74689882D01*
X64544055Y-74591897D01*
X64347254Y-74530977D01*
X64341129Y-74530333D01*
X64341128Y-74530333D01*
X64148498Y-74510087D01*
X64148496Y-74510087D01*
X64142369Y-74509443D01*
X64061131Y-74516836D01*
X63943342Y-74527555D01*
X63943339Y-74527556D01*
X63937203Y-74528114D01*
X63739572Y-74586280D01*
X63557002Y-74681726D01*
X63552201Y-74685586D01*
X63552198Y-74685588D01*
X63401254Y-74806950D01*
X63396447Y-74810815D01*
X63264024Y-74968630D01*
X63261056Y-74974028D01*
X63261053Y-74974033D01*
X63182001Y-75117829D01*
X63164776Y-75149162D01*
X63102484Y-75345532D01*
X63101798Y-75351649D01*
X63101797Y-75351653D01*
X63082957Y-75519617D01*
X63079520Y-75550262D01*
X62649138Y-75550262D01*
X62630480Y-75359970D01*
X62570935Y-75162749D01*
X62474218Y-74980849D01*
X62400859Y-74890902D01*
X62347906Y-74825975D01*
X62347903Y-74825972D01*
X62344011Y-74821200D01*
X62326786Y-74806950D01*
X62190025Y-74693811D01*
X62190021Y-74693809D01*
X62185275Y-74689882D01*
X62004055Y-74591897D01*
X61807254Y-74530977D01*
X61801129Y-74530333D01*
X61801128Y-74530333D01*
X61608498Y-74510087D01*
X61608496Y-74510087D01*
X61602369Y-74509443D01*
X61521131Y-74516836D01*
X61403342Y-74527555D01*
X61403339Y-74527556D01*
X61397203Y-74528114D01*
X61199572Y-74586280D01*
X61017002Y-74681726D01*
X61012201Y-74685586D01*
X61012198Y-74685588D01*
X60861254Y-74806950D01*
X60856447Y-74810815D01*
X60724024Y-74968630D01*
X60721054Y-74974033D01*
X60721053Y-74974034D01*
X60649414Y-75104345D01*
X60599068Y-75154404D01*
X60529651Y-75169297D01*
X60463202Y-75144296D01*
X60420818Y-75087339D01*
X60412999Y-75043644D01*
X60412999Y-74670331D01*
X60412629Y-74663510D01*
X60407105Y-74612648D01*
X60403479Y-74597396D01*
X60358324Y-74476946D01*
X60349786Y-74461351D01*
X60273285Y-74359276D01*
X60260724Y-74346715D01*
X60158649Y-74270214D01*
X60143054Y-74261676D01*
X60022606Y-74216522D01*
X60007351Y-74212895D01*
X59956486Y-74207369D01*
X59949672Y-74207000D01*
X59327115Y-74207000D01*
X59311876Y-74211475D01*
X59310671Y-74212865D01*
X59309000Y-74220548D01*
X59309000Y-76904884D01*
X58801000Y-76904884D01*
X58801000Y-74225116D01*
X58796525Y-74209877D01*
X58795135Y-74208672D01*
X58787452Y-74207001D01*
X58160331Y-74207001D01*
X58153510Y-74207371D01*
X58102648Y-74212895D01*
X58087396Y-74216521D01*
X57966946Y-74261676D01*
X57951351Y-74270214D01*
X57849276Y-74346715D01*
X57836715Y-74359276D01*
X57760214Y-74461351D01*
X57751676Y-74476946D01*
X57706522Y-74597394D01*
X57702895Y-74612649D01*
X57697369Y-74663514D01*
X57697000Y-74670328D01*
X57697000Y-75044942D01*
X57676998Y-75113063D01*
X57623342Y-75159556D01*
X57553068Y-75169660D01*
X57488488Y-75140166D01*
X57459748Y-75104095D01*
X57459525Y-75103674D01*
X57394218Y-74980849D01*
X57320859Y-74890902D01*
X57267906Y-74825975D01*
X57267903Y-74825972D01*
X57264011Y-74821200D01*
X57246786Y-74806950D01*
X57110025Y-74693811D01*
X57110021Y-74693809D01*
X57105275Y-74689882D01*
X56924055Y-74591897D01*
X56727254Y-74530977D01*
X56721129Y-74530333D01*
X56721128Y-74530333D01*
X56528498Y-74510087D01*
X56528496Y-74510087D01*
X56522369Y-74509443D01*
X56441131Y-74516836D01*
X56323342Y-74527555D01*
X56323339Y-74527556D01*
X56317203Y-74528114D01*
X56119572Y-74586280D01*
X55937002Y-74681726D01*
X55932201Y-74685586D01*
X55932198Y-74685588D01*
X55781254Y-74806950D01*
X55776447Y-74810815D01*
X55644024Y-74968630D01*
X55641056Y-74974028D01*
X55641053Y-74974033D01*
X55562001Y-75117829D01*
X55544776Y-75149162D01*
X55482484Y-75345532D01*
X55481798Y-75351649D01*
X55481797Y-75351653D01*
X55462957Y-75519617D01*
X55459520Y-75550262D01*
X55029138Y-75550262D01*
X55010480Y-75359970D01*
X54950935Y-75162749D01*
X54854218Y-74980849D01*
X54780859Y-74890902D01*
X54727906Y-74825975D01*
X54727903Y-74825972D01*
X54724011Y-74821200D01*
X54706786Y-74806950D01*
X54570025Y-74693811D01*
X54570021Y-74693809D01*
X54565275Y-74689882D01*
X54384055Y-74591897D01*
X54187254Y-74530977D01*
X54181129Y-74530333D01*
X54181128Y-74530333D01*
X53988498Y-74510087D01*
X53988496Y-74510087D01*
X53982369Y-74509443D01*
X53901131Y-74516836D01*
X53783342Y-74527555D01*
X53783339Y-74527556D01*
X53777203Y-74528114D01*
X53579572Y-74586280D01*
X53397002Y-74681726D01*
X53392201Y-74685586D01*
X53392198Y-74685588D01*
X53241254Y-74806950D01*
X53236447Y-74810815D01*
X53104024Y-74968630D01*
X53101056Y-74974028D01*
X53101053Y-74974033D01*
X53022001Y-75117829D01*
X53004776Y-75149162D01*
X52942484Y-75345532D01*
X52941798Y-75351649D01*
X52941797Y-75351653D01*
X52922957Y-75519617D01*
X52919520Y-75550262D01*
X50801000Y-75550262D01*
X50801000Y-72390000D01*
X116234318Y-72390000D01*
X116254956Y-72546762D01*
X116315464Y-72692841D01*
X116411718Y-72818282D01*
X116537159Y-72914536D01*
X116683238Y-72975044D01*
X116840000Y-72995682D01*
X116906843Y-72986882D01*
X116976990Y-72997821D01*
X117012383Y-73022709D01*
X118983152Y-74993478D01*
X118990579Y-75001582D01*
X119014808Y-75030457D01*
X119024357Y-75035970D01*
X119047448Y-75049302D01*
X119056719Y-75055208D01*
X119087579Y-75076817D01*
X119098229Y-75079671D01*
X119101397Y-75081148D01*
X119104673Y-75082340D01*
X119114218Y-75087851D01*
X119147962Y-75093801D01*
X119151321Y-75094393D01*
X119162048Y-75096771D01*
X119198456Y-75106527D01*
X119209432Y-75105567D01*
X119209435Y-75105567D01*
X119236006Y-75103242D01*
X119246987Y-75102763D01*
X125165500Y-75102763D01*
X125233621Y-75122765D01*
X125280114Y-75176421D01*
X125291500Y-75228763D01*
X125291500Y-77219748D01*
X125303133Y-77278231D01*
X125347448Y-77344552D01*
X125413769Y-77388867D01*
X125425938Y-77391288D01*
X125425939Y-77391288D01*
X125466184Y-77399293D01*
X125472252Y-77400500D01*
X127511748Y-77400500D01*
X127517816Y-77399293D01*
X127558061Y-77391288D01*
X127558062Y-77391288D01*
X127570231Y-77388867D01*
X127636552Y-77344552D01*
X127680867Y-77278231D01*
X127692500Y-77219748D01*
X127692500Y-75228763D01*
X127712502Y-75160642D01*
X127766158Y-75114149D01*
X127818500Y-75102763D01*
X131451027Y-75102763D01*
X131462009Y-75103243D01*
X131499544Y-75106527D01*
X131509015Y-75103989D01*
X131577884Y-75117829D01*
X131628876Y-75167228D01*
X131645067Y-75236354D01*
X131619224Y-75306065D01*
X131555464Y-75389159D01*
X131494956Y-75535238D01*
X131474318Y-75692000D01*
X131494956Y-75848762D01*
X131555464Y-75994841D01*
X131651718Y-76120282D01*
X131777159Y-76216536D01*
X131923238Y-76277044D01*
X132080000Y-76297682D01*
X132088188Y-76296604D01*
X132228574Y-76278122D01*
X132236762Y-76277044D01*
X132382841Y-76216536D01*
X132508282Y-76120282D01*
X132604536Y-75994841D01*
X132665044Y-75848762D01*
X132685682Y-75692000D01*
X132676882Y-75625158D01*
X132687821Y-75555011D01*
X132712709Y-75519617D01*
X133431619Y-74800708D01*
X133493931Y-74766683D01*
X133537158Y-74764882D01*
X133604000Y-74773682D01*
X133612188Y-74772604D01*
X133752574Y-74754122D01*
X133760762Y-74753044D01*
X133906841Y-74692536D01*
X134032282Y-74596282D01*
X134128536Y-74470841D01*
X134189044Y-74324762D01*
X134195306Y-74277201D01*
X134204548Y-74207000D01*
X134209682Y-74168000D01*
X134189044Y-74011238D01*
X134128536Y-73865159D01*
X134032282Y-73739718D01*
X133906841Y-73643464D01*
X133760762Y-73582956D01*
X133604000Y-73562318D01*
X133447238Y-73582956D01*
X133301159Y-73643464D01*
X133294608Y-73648491D01*
X133277280Y-73661787D01*
X133211060Y-73687387D01*
X133141511Y-73673122D01*
X133090715Y-73623521D01*
X133080814Y-73599210D01*
X133080379Y-73595903D01*
X133019871Y-73449824D01*
X132923617Y-73324383D01*
X132798176Y-73228129D01*
X132652097Y-73167621D01*
X132495335Y-73146983D01*
X132338573Y-73167621D01*
X132192494Y-73228129D01*
X132067053Y-73324383D01*
X131970799Y-73449824D01*
X131910291Y-73595903D01*
X131909213Y-73604091D01*
X131903368Y-73648491D01*
X131889653Y-73752665D01*
X131898453Y-73819506D01*
X131887514Y-73889653D01*
X131862627Y-73925046D01*
X131372816Y-74414858D01*
X131310503Y-74448883D01*
X131283720Y-74451763D01*
X119414279Y-74451763D01*
X119346158Y-74431761D01*
X119325184Y-74414858D01*
X117935326Y-73025000D01*
X135284318Y-73025000D01*
X135304956Y-73181762D01*
X135365464Y-73327841D01*
X135461718Y-73453282D01*
X135587159Y-73549536D01*
X135733238Y-73610044D01*
X135890000Y-73630682D01*
X135898188Y-73629604D01*
X136038574Y-73611122D01*
X136046762Y-73610044D01*
X136192841Y-73549536D01*
X136318282Y-73453282D01*
X136359323Y-73399796D01*
X136416661Y-73357929D01*
X136459286Y-73350500D01*
X138495714Y-73350500D01*
X138563835Y-73370502D01*
X138595677Y-73399796D01*
X138636718Y-73453282D01*
X138762159Y-73549536D01*
X138908238Y-73610044D01*
X139065000Y-73630682D01*
X139073188Y-73629604D01*
X139213574Y-73611122D01*
X139221762Y-73610044D01*
X139367841Y-73549536D01*
X139493282Y-73453282D01*
X139589536Y-73327841D01*
X139650044Y-73181762D01*
X139670682Y-73025000D01*
X139650044Y-72868238D01*
X139589536Y-72722159D01*
X139493282Y-72596718D01*
X139367841Y-72500464D01*
X139221762Y-72439956D01*
X139065000Y-72419318D01*
X138908238Y-72439956D01*
X138762159Y-72500464D01*
X138636718Y-72596718D01*
X138631695Y-72603264D01*
X138595677Y-72650204D01*
X138538339Y-72692071D01*
X138495714Y-72699500D01*
X136459286Y-72699500D01*
X136391165Y-72679498D01*
X136359323Y-72650204D01*
X136323305Y-72603264D01*
X136318282Y-72596718D01*
X136192841Y-72500464D01*
X136046762Y-72439956D01*
X135890000Y-72419318D01*
X135733238Y-72439956D01*
X135587159Y-72500464D01*
X135461718Y-72596718D01*
X135365464Y-72722159D01*
X135304956Y-72868238D01*
X135284318Y-73025000D01*
X117935326Y-73025000D01*
X117472709Y-72562383D01*
X117438683Y-72500071D01*
X117436882Y-72456842D01*
X117444604Y-72398188D01*
X117445682Y-72390000D01*
X117425044Y-72233238D01*
X117364536Y-72087159D01*
X117268282Y-71961718D01*
X117142841Y-71865464D01*
X116996762Y-71804956D01*
X116840000Y-71784318D01*
X116683238Y-71804956D01*
X116537159Y-71865464D01*
X116411718Y-71961718D01*
X116315464Y-72087159D01*
X116254956Y-72233238D01*
X116234318Y-72390000D01*
X50801000Y-72390000D01*
X50801000Y-70869748D01*
X114369500Y-70869748D01*
X114381133Y-70928231D01*
X114425448Y-70994552D01*
X114491769Y-71038867D01*
X114503938Y-71041288D01*
X114503939Y-71041288D01*
X114544184Y-71049293D01*
X114550252Y-71050500D01*
X116589748Y-71050500D01*
X116595816Y-71049293D01*
X116636061Y-71041288D01*
X116636062Y-71041288D01*
X116648231Y-71038867D01*
X116714552Y-70994552D01*
X116758867Y-70928231D01*
X116770500Y-70869748D01*
X116770500Y-68830252D01*
X116758867Y-68771769D01*
X116714552Y-68705448D01*
X116648231Y-68661133D01*
X116636062Y-68658712D01*
X116636061Y-68658712D01*
X116595816Y-68650707D01*
X116589748Y-68649500D01*
X114550252Y-68649500D01*
X114544184Y-68650707D01*
X114503939Y-68658712D01*
X114503938Y-68658712D01*
X114491769Y-68661133D01*
X114425448Y-68705448D01*
X114381133Y-68771769D01*
X114369500Y-68830252D01*
X114369500Y-70869748D01*
X50801000Y-70869748D01*
X50801000Y-67584020D01*
X128934318Y-67584020D01*
X128954956Y-67740782D01*
X129015464Y-67886861D01*
X129111718Y-68012302D01*
X129237159Y-68108556D01*
X129383238Y-68169064D01*
X129540000Y-68189702D01*
X129548188Y-68188624D01*
X129688574Y-68170142D01*
X129696762Y-68169064D01*
X129842841Y-68108556D01*
X129968282Y-68012302D01*
X130009323Y-67958816D01*
X130066661Y-67916949D01*
X130109286Y-67909520D01*
X132548270Y-67909520D01*
X132559252Y-67910000D01*
X132585800Y-67912323D01*
X132585802Y-67912323D01*
X132596787Y-67913284D01*
X132633195Y-67903528D01*
X132643922Y-67901150D01*
X132647281Y-67900558D01*
X132681025Y-67894608D01*
X132690570Y-67889097D01*
X132693846Y-67887905D01*
X132697014Y-67886428D01*
X132707664Y-67883574D01*
X132738524Y-67861965D01*
X132747795Y-67856059D01*
X132770886Y-67842727D01*
X132780435Y-67837214D01*
X132804665Y-67808337D01*
X132812091Y-67800235D01*
X134447617Y-66164709D01*
X134509929Y-66130683D01*
X134553157Y-66128882D01*
X134620000Y-66137682D01*
X134628188Y-66136604D01*
X134768574Y-66118122D01*
X134776762Y-66117044D01*
X134922841Y-66056536D01*
X135048282Y-65960282D01*
X135144536Y-65834841D01*
X135205044Y-65688762D01*
X135225682Y-65532000D01*
X135205044Y-65375238D01*
X135144536Y-65229159D01*
X135048282Y-65103718D01*
X134922841Y-65007464D01*
X134776762Y-64946956D01*
X134620000Y-64926318D01*
X134463238Y-64946956D01*
X134317159Y-65007464D01*
X134191718Y-65103718D01*
X134095464Y-65229159D01*
X134034956Y-65375238D01*
X134014318Y-65532000D01*
X134015396Y-65540188D01*
X134023118Y-65598842D01*
X134012179Y-65668990D01*
X133987291Y-65704383D01*
X132470059Y-67221615D01*
X132407747Y-67255641D01*
X132380964Y-67258520D01*
X130109286Y-67258520D01*
X130041165Y-67238518D01*
X130009323Y-67209224D01*
X129973305Y-67162284D01*
X129968282Y-67155738D01*
X129842841Y-67059484D01*
X129696762Y-66998976D01*
X129540000Y-66978338D01*
X129383238Y-66998976D01*
X129237159Y-67059484D01*
X129111718Y-67155738D01*
X129015464Y-67281179D01*
X128954956Y-67427258D01*
X128934318Y-67584020D01*
X50801000Y-67584020D01*
X50801000Y-60709748D01*
X118814500Y-60709748D01*
X118826133Y-60768231D01*
X118870448Y-60834552D01*
X118936769Y-60878867D01*
X118948938Y-60881288D01*
X118948939Y-60881288D01*
X118989184Y-60889293D01*
X118995252Y-60890500D01*
X121034748Y-60890500D01*
X121040816Y-60889293D01*
X121081061Y-60881288D01*
X121081062Y-60881288D01*
X121093231Y-60878867D01*
X121159552Y-60834552D01*
X121203867Y-60768231D01*
X121215500Y-60709748D01*
X121215500Y-58670252D01*
X121203867Y-58611769D01*
X121159552Y-58545448D01*
X121093231Y-58501133D01*
X121081062Y-58498712D01*
X121081061Y-58498712D01*
X121040816Y-58490707D01*
X121034748Y-58489500D01*
X118995252Y-58489500D01*
X118989184Y-58490707D01*
X118948939Y-58498712D01*
X118948938Y-58498712D01*
X118936769Y-58501133D01*
X118870448Y-58545448D01*
X118826133Y-58611769D01*
X118814500Y-58670252D01*
X118814500Y-60709748D01*
X50801000Y-60709748D01*
X50801000Y-59088503D01*
X104771500Y-59088503D01*
X104783133Y-59146986D01*
X104827448Y-59213307D01*
X104893769Y-59257622D01*
X104905938Y-59260043D01*
X104905939Y-59260043D01*
X104946184Y-59268048D01*
X104952252Y-59269255D01*
X107391748Y-59269255D01*
X107397816Y-59268048D01*
X107438061Y-59260043D01*
X107438062Y-59260043D01*
X107450231Y-59257622D01*
X107516552Y-59213307D01*
X107560867Y-59146986D01*
X107572500Y-59088503D01*
X107572500Y-58169748D01*
X141674500Y-58169748D01*
X141686133Y-58228231D01*
X141730448Y-58294552D01*
X141796769Y-58338867D01*
X141808938Y-58341288D01*
X141808939Y-58341288D01*
X141849184Y-58349293D01*
X141855252Y-58350500D01*
X143894748Y-58350500D01*
X143900816Y-58349293D01*
X143941061Y-58341288D01*
X143941062Y-58341288D01*
X143953231Y-58338867D01*
X144019552Y-58294552D01*
X144063867Y-58228231D01*
X144075500Y-58169748D01*
X144075500Y-56130252D01*
X144063867Y-56071769D01*
X144019552Y-56005448D01*
X143953231Y-55961133D01*
X143941062Y-55958712D01*
X143941061Y-55958712D01*
X143900816Y-55950707D01*
X143894748Y-55949500D01*
X141855252Y-55949500D01*
X141849184Y-55950707D01*
X141808939Y-55958712D01*
X141808938Y-55958712D01*
X141796769Y-55961133D01*
X141730448Y-56005448D01*
X141686133Y-56071769D01*
X141674500Y-56130252D01*
X141674500Y-58169748D01*
X107572500Y-58169748D01*
X107572500Y-57008385D01*
X126225500Y-57008385D01*
X126240512Y-57146573D01*
X126299730Y-57322535D01*
X126395351Y-57481677D01*
X126400039Y-57486634D01*
X126400041Y-57486637D01*
X126518227Y-57611614D01*
X126522916Y-57616572D01*
X126676471Y-57720928D01*
X126682805Y-57723461D01*
X126682808Y-57723463D01*
X126842516Y-57787342D01*
X126842521Y-57787343D01*
X126848853Y-57789876D01*
X126855580Y-57790990D01*
X126855585Y-57790991D01*
X127025282Y-57819084D01*
X127025285Y-57819084D01*
X127032019Y-57820199D01*
X127038836Y-57819842D01*
X127038840Y-57819842D01*
X127189920Y-57811923D01*
X127217424Y-57810482D01*
X127223996Y-57808672D01*
X127224001Y-57808671D01*
X127389835Y-57762992D01*
X127396417Y-57761179D01*
X127560648Y-57674590D01*
X127702454Y-57554755D01*
X127754534Y-57486637D01*
X127811075Y-57412685D01*
X127811077Y-57412681D01*
X127815219Y-57407264D01*
X127854729Y-57322535D01*
X127890802Y-57245177D01*
X127890803Y-57245174D01*
X127893682Y-57239000D01*
X127920425Y-57119360D01*
X127928190Y-57084617D01*
X127934182Y-57057812D01*
X127934500Y-57052124D01*
X127934500Y-57008385D01*
X128725500Y-57008385D01*
X128740512Y-57146573D01*
X128799730Y-57322535D01*
X128895351Y-57481677D01*
X128900039Y-57486634D01*
X128900041Y-57486637D01*
X129018227Y-57611614D01*
X129022916Y-57616572D01*
X129176471Y-57720928D01*
X129182805Y-57723461D01*
X129182808Y-57723463D01*
X129342516Y-57787342D01*
X129342521Y-57787343D01*
X129348853Y-57789876D01*
X129355580Y-57790990D01*
X129355585Y-57790991D01*
X129525282Y-57819084D01*
X129525285Y-57819084D01*
X129532019Y-57820199D01*
X129538836Y-57819842D01*
X129538840Y-57819842D01*
X129689920Y-57811923D01*
X129717424Y-57810482D01*
X129723996Y-57808672D01*
X129724001Y-57808671D01*
X129889835Y-57762992D01*
X129896417Y-57761179D01*
X130060648Y-57674590D01*
X130202454Y-57554755D01*
X130254534Y-57486637D01*
X130311075Y-57412685D01*
X130311077Y-57412681D01*
X130315219Y-57407264D01*
X130354729Y-57322535D01*
X130390802Y-57245177D01*
X130390803Y-57245174D01*
X130393682Y-57239000D01*
X130420425Y-57119360D01*
X130428190Y-57084617D01*
X130434182Y-57057812D01*
X130434500Y-57052124D01*
X130434500Y-56260244D01*
X131225819Y-56260244D01*
X131226176Y-56267061D01*
X131226176Y-56267065D01*
X131234302Y-56422111D01*
X131235490Y-56444781D01*
X131237301Y-56451354D01*
X131237301Y-56451357D01*
X131262930Y-56544402D01*
X131284562Y-56622936D01*
X131370746Y-56786398D01*
X131490020Y-56927540D01*
X131495444Y-56931687D01*
X131495445Y-56931688D01*
X131631399Y-57035633D01*
X131631403Y-57035636D01*
X131636820Y-57039777D01*
X131643000Y-57042659D01*
X131643002Y-57042660D01*
X131798120Y-57114993D01*
X131798123Y-57114994D01*
X131804297Y-57117873D01*
X131810942Y-57119358D01*
X131810947Y-57119360D01*
X131919207Y-57143558D01*
X131984637Y-57158183D01*
X131990307Y-57158500D01*
X132126164Y-57158500D01*
X132263709Y-57143558D01*
X132438848Y-57084617D01*
X132565719Y-57008385D01*
X133725500Y-57008385D01*
X133740512Y-57146573D01*
X133799730Y-57322535D01*
X133895351Y-57481677D01*
X133900039Y-57486634D01*
X133900041Y-57486637D01*
X134018227Y-57611614D01*
X134022916Y-57616572D01*
X134176471Y-57720928D01*
X134182805Y-57723461D01*
X134182808Y-57723463D01*
X134342516Y-57787342D01*
X134342521Y-57787343D01*
X134348853Y-57789876D01*
X134355580Y-57790990D01*
X134355585Y-57790991D01*
X134525282Y-57819084D01*
X134525285Y-57819084D01*
X134532019Y-57820199D01*
X134538836Y-57819842D01*
X134538840Y-57819842D01*
X134689920Y-57811923D01*
X134717424Y-57810482D01*
X134723996Y-57808672D01*
X134724001Y-57808671D01*
X134889835Y-57762992D01*
X134896417Y-57761179D01*
X135060648Y-57674590D01*
X135202454Y-57554755D01*
X135254534Y-57486637D01*
X135311075Y-57412685D01*
X135311077Y-57412681D01*
X135315219Y-57407264D01*
X135354729Y-57322535D01*
X135390802Y-57245177D01*
X135390803Y-57245174D01*
X135393682Y-57239000D01*
X135420425Y-57119360D01*
X135428190Y-57084617D01*
X135434182Y-57057812D01*
X135434500Y-57052124D01*
X135434500Y-57008385D01*
X136225500Y-57008385D01*
X136240512Y-57146573D01*
X136299730Y-57322535D01*
X136395351Y-57481677D01*
X136400039Y-57486634D01*
X136400041Y-57486637D01*
X136518227Y-57611614D01*
X136522916Y-57616572D01*
X136676471Y-57720928D01*
X136682805Y-57723461D01*
X136682808Y-57723463D01*
X136842516Y-57787342D01*
X136842521Y-57787343D01*
X136848853Y-57789876D01*
X136855580Y-57790990D01*
X136855585Y-57790991D01*
X137025282Y-57819084D01*
X137025285Y-57819084D01*
X137032019Y-57820199D01*
X137038836Y-57819842D01*
X137038840Y-57819842D01*
X137189920Y-57811923D01*
X137217424Y-57810482D01*
X137223996Y-57808672D01*
X137224001Y-57808671D01*
X137389835Y-57762992D01*
X137396417Y-57761179D01*
X137560648Y-57674590D01*
X137702454Y-57554755D01*
X137754534Y-57486637D01*
X137811075Y-57412685D01*
X137811077Y-57412681D01*
X137815219Y-57407264D01*
X137854729Y-57322535D01*
X137890802Y-57245177D01*
X137890803Y-57245174D01*
X137893682Y-57239000D01*
X137920425Y-57119360D01*
X137928190Y-57084617D01*
X137934182Y-57057812D01*
X137934500Y-57052124D01*
X137934500Y-55607615D01*
X137919488Y-55469427D01*
X137860270Y-55293465D01*
X137764649Y-55134323D01*
X137700673Y-55066670D01*
X137641773Y-55004386D01*
X137641771Y-55004384D01*
X137637084Y-54999428D01*
X137483529Y-54895072D01*
X137477195Y-54892539D01*
X137477192Y-54892537D01*
X137317484Y-54828658D01*
X137317479Y-54828657D01*
X137311147Y-54826124D01*
X137304420Y-54825010D01*
X137304415Y-54825009D01*
X137134718Y-54796916D01*
X137134715Y-54796916D01*
X137127981Y-54795801D01*
X137121164Y-54796158D01*
X137121160Y-54796158D01*
X136970080Y-54804077D01*
X136942576Y-54805518D01*
X136936004Y-54807328D01*
X136935999Y-54807329D01*
X136770165Y-54853008D01*
X136763583Y-54854821D01*
X136599352Y-54941410D01*
X136457546Y-55061245D01*
X136453399Y-55066668D01*
X136453398Y-55066670D01*
X136348925Y-55203315D01*
X136348923Y-55203319D01*
X136344781Y-55208736D01*
X136341899Y-55214916D01*
X136341898Y-55214918D01*
X136302254Y-55299936D01*
X136266318Y-55377000D01*
X136264832Y-55383648D01*
X136264831Y-55383651D01*
X136239243Y-55498127D01*
X136225818Y-55558188D01*
X136225500Y-55563876D01*
X136225500Y-57008385D01*
X135434500Y-57008385D01*
X135434500Y-55607615D01*
X135419488Y-55469427D01*
X135360270Y-55293465D01*
X135264649Y-55134323D01*
X135200673Y-55066670D01*
X135141773Y-55004386D01*
X135141771Y-55004384D01*
X135137084Y-54999428D01*
X134983529Y-54895072D01*
X134977195Y-54892539D01*
X134977192Y-54892537D01*
X134817484Y-54828658D01*
X134817479Y-54828657D01*
X134811147Y-54826124D01*
X134804420Y-54825010D01*
X134804415Y-54825009D01*
X134634718Y-54796916D01*
X134634715Y-54796916D01*
X134627981Y-54795801D01*
X134621164Y-54796158D01*
X134621160Y-54796158D01*
X134470080Y-54804077D01*
X134442576Y-54805518D01*
X134436004Y-54807328D01*
X134435999Y-54807329D01*
X134270165Y-54853008D01*
X134263583Y-54854821D01*
X134099352Y-54941410D01*
X133957546Y-55061245D01*
X133953399Y-55066668D01*
X133953398Y-55066670D01*
X133848925Y-55203315D01*
X133848923Y-55203319D01*
X133844781Y-55208736D01*
X133841899Y-55214916D01*
X133841898Y-55214918D01*
X133802254Y-55299936D01*
X133766318Y-55377000D01*
X133764832Y-55383648D01*
X133764831Y-55383651D01*
X133739243Y-55498127D01*
X133725818Y-55558188D01*
X133725500Y-55563876D01*
X133725500Y-57008385D01*
X132565719Y-57008385D01*
X132597244Y-56989443D01*
X132658318Y-56931688D01*
X132726549Y-56867165D01*
X132726551Y-56867163D01*
X132731507Y-56862476D01*
X132835375Y-56709640D01*
X132857152Y-56655194D01*
X132901466Y-56544402D01*
X132901467Y-56544397D01*
X132904000Y-56538065D01*
X132934181Y-56355756D01*
X132928823Y-56253506D01*
X132924867Y-56178032D01*
X132924510Y-56171219D01*
X132911555Y-56124184D01*
X132877251Y-55999646D01*
X132875438Y-55993064D01*
X132789254Y-55829602D01*
X132669980Y-55688460D01*
X132664555Y-55684312D01*
X132528601Y-55580367D01*
X132528597Y-55580364D01*
X132523180Y-55576223D01*
X132517000Y-55573341D01*
X132516998Y-55573340D01*
X132361880Y-55501007D01*
X132361877Y-55501006D01*
X132355703Y-55498127D01*
X132349058Y-55496642D01*
X132349053Y-55496640D01*
X132198372Y-55462960D01*
X132175363Y-55457817D01*
X132169693Y-55457500D01*
X132033836Y-55457500D01*
X131896291Y-55472442D01*
X131721152Y-55531383D01*
X131562756Y-55626557D01*
X131557796Y-55631248D01*
X131557794Y-55631249D01*
X131497296Y-55688460D01*
X131428493Y-55753524D01*
X131324625Y-55906360D01*
X131322092Y-55912694D01*
X131322090Y-55912697D01*
X131258534Y-56071598D01*
X131258533Y-56071603D01*
X131256000Y-56077935D01*
X131225819Y-56260244D01*
X130434500Y-56260244D01*
X130434500Y-55607615D01*
X130419488Y-55469427D01*
X130360270Y-55293465D01*
X130264649Y-55134323D01*
X130200673Y-55066670D01*
X130141773Y-55004386D01*
X130141771Y-55004384D01*
X130137084Y-54999428D01*
X129983529Y-54895072D01*
X129977195Y-54892539D01*
X129977192Y-54892537D01*
X129817484Y-54828658D01*
X129817479Y-54828657D01*
X129811147Y-54826124D01*
X129804420Y-54825010D01*
X129804415Y-54825009D01*
X129634718Y-54796916D01*
X129634715Y-54796916D01*
X129627981Y-54795801D01*
X129621164Y-54796158D01*
X129621160Y-54796158D01*
X129470080Y-54804077D01*
X129442576Y-54805518D01*
X129436004Y-54807328D01*
X129435999Y-54807329D01*
X129270165Y-54853008D01*
X129263583Y-54854821D01*
X129099352Y-54941410D01*
X128957546Y-55061245D01*
X128953399Y-55066668D01*
X128953398Y-55066670D01*
X128848925Y-55203315D01*
X128848923Y-55203319D01*
X128844781Y-55208736D01*
X128841899Y-55214916D01*
X128841898Y-55214918D01*
X128802254Y-55299936D01*
X128766318Y-55377000D01*
X128764832Y-55383648D01*
X128764831Y-55383651D01*
X128739243Y-55498127D01*
X128725818Y-55558188D01*
X128725500Y-55563876D01*
X128725500Y-57008385D01*
X127934500Y-57008385D01*
X127934500Y-55607615D01*
X127919488Y-55469427D01*
X127860270Y-55293465D01*
X127764649Y-55134323D01*
X127700673Y-55066670D01*
X127641773Y-55004386D01*
X127641771Y-55004384D01*
X127637084Y-54999428D01*
X127483529Y-54895072D01*
X127477195Y-54892539D01*
X127477192Y-54892537D01*
X127317484Y-54828658D01*
X127317479Y-54828657D01*
X127311147Y-54826124D01*
X127304420Y-54825010D01*
X127304415Y-54825009D01*
X127134718Y-54796916D01*
X127134715Y-54796916D01*
X127127981Y-54795801D01*
X127121164Y-54796158D01*
X127121160Y-54796158D01*
X126970080Y-54804077D01*
X126942576Y-54805518D01*
X126936004Y-54807328D01*
X126935999Y-54807329D01*
X126770165Y-54853008D01*
X126763583Y-54854821D01*
X126599352Y-54941410D01*
X126457546Y-55061245D01*
X126453399Y-55066668D01*
X126453398Y-55066670D01*
X126348925Y-55203315D01*
X126348923Y-55203319D01*
X126344781Y-55208736D01*
X126341899Y-55214916D01*
X126341898Y-55214918D01*
X126302254Y-55299936D01*
X126266318Y-55377000D01*
X126264832Y-55383648D01*
X126264831Y-55383651D01*
X126239243Y-55498127D01*
X126225818Y-55558188D01*
X126225500Y-55563876D01*
X126225500Y-57008385D01*
X107572500Y-57008385D01*
X107572500Y-56649007D01*
X107560867Y-56590524D01*
X107516552Y-56524203D01*
X107450231Y-56479888D01*
X107438062Y-56477467D01*
X107438061Y-56477467D01*
X107397816Y-56469462D01*
X107391748Y-56468255D01*
X104952252Y-56468255D01*
X104946184Y-56469462D01*
X104905939Y-56477467D01*
X104905938Y-56477467D01*
X104893769Y-56479888D01*
X104827448Y-56524203D01*
X104783133Y-56590524D01*
X104771500Y-56649007D01*
X104771500Y-59088503D01*
X50801000Y-59088503D01*
X50801000Y-51742114D01*
X105163386Y-51742114D01*
X105172099Y-51753634D01*
X105260586Y-51818515D01*
X105268505Y-51823463D01*
X105484877Y-51937302D01*
X105493451Y-51941030D01*
X105724282Y-52021640D01*
X105733291Y-52024054D01*
X105973518Y-52069663D01*
X105982775Y-52070717D01*
X106227107Y-52080318D01*
X106236420Y-52079992D01*
X106479478Y-52053373D01*
X106488655Y-52051672D01*
X106725107Y-51989420D01*
X106733926Y-51986383D01*
X106958584Y-51889862D01*
X106966856Y-51885555D01*
X107174777Y-51756890D01*
X107176620Y-51755551D01*
X107184038Y-51744296D01*
X107177974Y-51733939D01*
X106184812Y-50740777D01*
X106170868Y-50733163D01*
X106169035Y-50733294D01*
X106162420Y-50737545D01*
X105170044Y-51729921D01*
X105163386Y-51742114D01*
X50801000Y-51742114D01*
X50801000Y-50328590D01*
X104460022Y-50328590D01*
X104471754Y-50572819D01*
X104472891Y-50582079D01*
X104520593Y-50821898D01*
X104523082Y-50830873D01*
X104605708Y-51061005D01*
X104609505Y-51069533D01*
X104725234Y-51284915D01*
X104730245Y-51292782D01*
X104787173Y-51369018D01*
X104798431Y-51377467D01*
X104810850Y-51370695D01*
X105799978Y-50381567D01*
X105806356Y-50369887D01*
X106536408Y-50369887D01*
X106536539Y-50371720D01*
X106540790Y-50378335D01*
X107535732Y-51373277D01*
X107548112Y-51380037D01*
X107556453Y-51373793D01*
X107629490Y-51260244D01*
X126225819Y-51260244D01*
X126226176Y-51267061D01*
X126226176Y-51267065D01*
X126231607Y-51370695D01*
X126235490Y-51444781D01*
X126237301Y-51451354D01*
X126237301Y-51451357D01*
X126282502Y-51615459D01*
X126284562Y-51622936D01*
X126370746Y-51786398D01*
X126490020Y-51927540D01*
X126495444Y-51931687D01*
X126495445Y-51931688D01*
X126631399Y-52035633D01*
X126631403Y-52035636D01*
X126636820Y-52039777D01*
X126643000Y-52042659D01*
X126643002Y-52042660D01*
X126798120Y-52114993D01*
X126798123Y-52114994D01*
X126804297Y-52117873D01*
X126810942Y-52119358D01*
X126810947Y-52119360D01*
X126919207Y-52143558D01*
X126984637Y-52158183D01*
X126990307Y-52158500D01*
X127126164Y-52158500D01*
X127263709Y-52143558D01*
X127438848Y-52084617D01*
X127597244Y-51989443D01*
X127648439Y-51941030D01*
X127726549Y-51867165D01*
X127726551Y-51867163D01*
X127731507Y-51862476D01*
X127835375Y-51709640D01*
X127861308Y-51644803D01*
X127886939Y-51580722D01*
X130293749Y-51580722D01*
X130297807Y-51604339D01*
X130300787Y-51615459D01*
X130370705Y-51804981D01*
X130375655Y-51815359D01*
X130478941Y-51988967D01*
X130485705Y-51998276D01*
X130618900Y-52150157D01*
X130627235Y-52158067D01*
X130785879Y-52283132D01*
X130795536Y-52289403D01*
X130974298Y-52383454D01*
X130984941Y-52387862D01*
X131177857Y-52447765D01*
X131189101Y-52450155D01*
X131353085Y-52469564D01*
X131360488Y-52470000D01*
X131807885Y-52470000D01*
X131823124Y-52465525D01*
X131824329Y-52464135D01*
X131826000Y-52456452D01*
X131826000Y-52451885D01*
X132334000Y-52451885D01*
X132338475Y-52467124D01*
X132339865Y-52468329D01*
X132347548Y-52470000D01*
X132785278Y-52470000D01*
X132791067Y-52469734D01*
X132940908Y-52455966D01*
X132952229Y-52453868D01*
X133146643Y-52399038D01*
X133157390Y-52394913D01*
X133338565Y-52305566D01*
X133348374Y-52299554D01*
X133510225Y-52178696D01*
X133518785Y-52170989D01*
X133655907Y-52022651D01*
X133662908Y-52013526D01*
X133770704Y-51842680D01*
X133775924Y-51832436D01*
X133850782Y-51644803D01*
X133854049Y-51633774D01*
X133864791Y-51579768D01*
X133863639Y-51566894D01*
X133848484Y-51562000D01*
X132352115Y-51562000D01*
X132336876Y-51566475D01*
X132335671Y-51567865D01*
X132334000Y-51575548D01*
X132334000Y-52451885D01*
X131826000Y-52451885D01*
X131826000Y-51580115D01*
X131821525Y-51564876D01*
X131820135Y-51563671D01*
X131812452Y-51562000D01*
X130308647Y-51562000D01*
X130295685Y-51565806D01*
X130293749Y-51580722D01*
X127886939Y-51580722D01*
X127901466Y-51544402D01*
X127901467Y-51544397D01*
X127904000Y-51538065D01*
X127920571Y-51437968D01*
X127933066Y-51362494D01*
X127933066Y-51362490D01*
X127934181Y-51355756D01*
X127930469Y-51284915D01*
X127929176Y-51260244D01*
X136225819Y-51260244D01*
X136226176Y-51267061D01*
X136226176Y-51267065D01*
X136231607Y-51370695D01*
X136235490Y-51444781D01*
X136237301Y-51451354D01*
X136237301Y-51451357D01*
X136282502Y-51615459D01*
X136284562Y-51622936D01*
X136370746Y-51786398D01*
X136490020Y-51927540D01*
X136495444Y-51931687D01*
X136495445Y-51931688D01*
X136631399Y-52035633D01*
X136631403Y-52035636D01*
X136636820Y-52039777D01*
X136643000Y-52042659D01*
X136643002Y-52042660D01*
X136798120Y-52114993D01*
X136798123Y-52114994D01*
X136804297Y-52117873D01*
X136810942Y-52119358D01*
X136810947Y-52119360D01*
X136919207Y-52143558D01*
X136984637Y-52158183D01*
X136990307Y-52158500D01*
X137126164Y-52158500D01*
X137263709Y-52143558D01*
X137438848Y-52084617D01*
X137597244Y-51989443D01*
X137648439Y-51941030D01*
X137726549Y-51867165D01*
X137726551Y-51867163D01*
X137731507Y-51862476D01*
X137835375Y-51709640D01*
X137861308Y-51644803D01*
X137901466Y-51544402D01*
X137901467Y-51544397D01*
X137904000Y-51538065D01*
X137920571Y-51437968D01*
X137933066Y-51362494D01*
X137933066Y-51362490D01*
X137934181Y-51355756D01*
X137930469Y-51284915D01*
X137924867Y-51178032D01*
X137924510Y-51171219D01*
X137898816Y-51077935D01*
X137877251Y-50999646D01*
X137875438Y-50993064D01*
X137789254Y-50829602D01*
X137669980Y-50688460D01*
X137664555Y-50684312D01*
X137528601Y-50580367D01*
X137528597Y-50580364D01*
X137523180Y-50576223D01*
X137517000Y-50573341D01*
X137516998Y-50573340D01*
X137361880Y-50501007D01*
X137361877Y-50501006D01*
X137355703Y-50498127D01*
X137349058Y-50496642D01*
X137349053Y-50496640D01*
X137191952Y-50461525D01*
X137175363Y-50457817D01*
X137169693Y-50457500D01*
X137033836Y-50457500D01*
X136896291Y-50472442D01*
X136721152Y-50531383D01*
X136562756Y-50626557D01*
X136557796Y-50631248D01*
X136557794Y-50631249D01*
X136497296Y-50688460D01*
X136428493Y-50753524D01*
X136324625Y-50906360D01*
X136322092Y-50912694D01*
X136322090Y-50912697D01*
X136258534Y-51071598D01*
X136258533Y-51071603D01*
X136256000Y-51077935D01*
X136225819Y-51260244D01*
X127929176Y-51260244D01*
X127924867Y-51178032D01*
X127924510Y-51171219D01*
X127898816Y-51077935D01*
X127887329Y-51036232D01*
X130295209Y-51036232D01*
X130296361Y-51049106D01*
X130311516Y-51054000D01*
X131807885Y-51054000D01*
X131823124Y-51049525D01*
X131824329Y-51048135D01*
X131826000Y-51040452D01*
X131826000Y-51035885D01*
X132334000Y-51035885D01*
X132338475Y-51051124D01*
X132339865Y-51052329D01*
X132347548Y-51054000D01*
X133851353Y-51054000D01*
X133864315Y-51050194D01*
X133866251Y-51035278D01*
X133862193Y-51011661D01*
X133859213Y-51000541D01*
X133789295Y-50811019D01*
X133784345Y-50800641D01*
X133681059Y-50627033D01*
X133674295Y-50617724D01*
X133541100Y-50465843D01*
X133532765Y-50457933D01*
X133374121Y-50332868D01*
X133364464Y-50326597D01*
X133185702Y-50232546D01*
X133175059Y-50228138D01*
X132982143Y-50168235D01*
X132970899Y-50165845D01*
X132806915Y-50146436D01*
X132799512Y-50146000D01*
X132352115Y-50146000D01*
X132336876Y-50150475D01*
X132335671Y-50151865D01*
X132334000Y-50159548D01*
X132334000Y-51035885D01*
X131826000Y-51035885D01*
X131826000Y-50164115D01*
X131821525Y-50148876D01*
X131820135Y-50147671D01*
X131812452Y-50146000D01*
X131374722Y-50146000D01*
X131368933Y-50146266D01*
X131219092Y-50160034D01*
X131207771Y-50162132D01*
X131013357Y-50216962D01*
X131002610Y-50221087D01*
X130821435Y-50310434D01*
X130811626Y-50316446D01*
X130649775Y-50437304D01*
X130641215Y-50445011D01*
X130504093Y-50593349D01*
X130497092Y-50602474D01*
X130389296Y-50773320D01*
X130384076Y-50783564D01*
X130309218Y-50971197D01*
X130305951Y-50982226D01*
X130295209Y-51036232D01*
X127887329Y-51036232D01*
X127877251Y-50999646D01*
X127875438Y-50993064D01*
X127789254Y-50829602D01*
X127669980Y-50688460D01*
X127664555Y-50684312D01*
X127528601Y-50580367D01*
X127528597Y-50580364D01*
X127523180Y-50576223D01*
X127517000Y-50573341D01*
X127516998Y-50573340D01*
X127361880Y-50501007D01*
X127361877Y-50501006D01*
X127355703Y-50498127D01*
X127349058Y-50496642D01*
X127349053Y-50496640D01*
X127191952Y-50461525D01*
X127175363Y-50457817D01*
X127169693Y-50457500D01*
X127033836Y-50457500D01*
X126896291Y-50472442D01*
X126721152Y-50531383D01*
X126562756Y-50626557D01*
X126557796Y-50631248D01*
X126557794Y-50631249D01*
X126497296Y-50688460D01*
X126428493Y-50753524D01*
X126324625Y-50906360D01*
X126322092Y-50912694D01*
X126322090Y-50912697D01*
X126258534Y-51071598D01*
X126258533Y-51071603D01*
X126256000Y-51077935D01*
X126225819Y-51260244D01*
X107629490Y-51260244D01*
X107674700Y-51189957D01*
X107679147Y-51181766D01*
X107779572Y-50958831D01*
X107782767Y-50950053D01*
X107849135Y-50714728D01*
X107850993Y-50705599D01*
X107882044Y-50461525D01*
X107882525Y-50455238D01*
X107884706Y-50371915D01*
X107884555Y-50365606D01*
X107866321Y-50120241D01*
X107864944Y-50111035D01*
X107810979Y-49872541D01*
X107808255Y-49863630D01*
X107719633Y-49635738D01*
X107715619Y-49627322D01*
X107594284Y-49415031D01*
X107589074Y-49407308D01*
X107557787Y-49367620D01*
X107545863Y-49359150D01*
X107534328Y-49365637D01*
X106544022Y-50355943D01*
X106536408Y-50369887D01*
X105806356Y-50369887D01*
X105807592Y-50367623D01*
X105807461Y-50365790D01*
X105803210Y-50359175D01*
X104808828Y-49364793D01*
X104795520Y-49357526D01*
X104785481Y-49364648D01*
X104780581Y-49370539D01*
X104775168Y-49378128D01*
X104648322Y-49587164D01*
X104644084Y-49595481D01*
X104549529Y-49820969D01*
X104546572Y-49829807D01*
X104486384Y-50066797D01*
X104484763Y-50075987D01*
X104460267Y-50319265D01*
X104460022Y-50328590D01*
X50801000Y-50328590D01*
X50801000Y-48993672D01*
X105161330Y-48993672D01*
X105165903Y-49003448D01*
X106159188Y-49996733D01*
X106173132Y-50004347D01*
X106174965Y-50004216D01*
X106181580Y-49999965D01*
X107174488Y-49007057D01*
X107180872Y-48995367D01*
X107171460Y-48983257D01*
X107045144Y-48895628D01*
X107037116Y-48890900D01*
X106817810Y-48782750D01*
X106809177Y-48779262D01*
X106749765Y-48760244D01*
X126225819Y-48760244D01*
X126226176Y-48767061D01*
X126226176Y-48767065D01*
X126231506Y-48868759D01*
X126235490Y-48944781D01*
X126237301Y-48951354D01*
X126237301Y-48951357D01*
X126262930Y-49044402D01*
X126284562Y-49122936D01*
X126370746Y-49286398D01*
X126490020Y-49427540D01*
X126495444Y-49431687D01*
X126495445Y-49431688D01*
X126631399Y-49535633D01*
X126631403Y-49535636D01*
X126636820Y-49539777D01*
X126643000Y-49542659D01*
X126643002Y-49542660D01*
X126798120Y-49614993D01*
X126798123Y-49614994D01*
X126804297Y-49617873D01*
X126810942Y-49619358D01*
X126810947Y-49619360D01*
X126919207Y-49643558D01*
X126984637Y-49658183D01*
X126990307Y-49658500D01*
X127126164Y-49658500D01*
X127263709Y-49643558D01*
X127438848Y-49584617D01*
X127597244Y-49489443D01*
X127658318Y-49431688D01*
X127726549Y-49367165D01*
X127726551Y-49367163D01*
X127731507Y-49362476D01*
X127835375Y-49209640D01*
X127867639Y-49128975D01*
X127901466Y-49044402D01*
X127901467Y-49044397D01*
X127904000Y-49038065D01*
X127920571Y-48937968D01*
X127933066Y-48862494D01*
X127933066Y-48862490D01*
X127934181Y-48855756D01*
X127929327Y-48763122D01*
X127929176Y-48760244D01*
X136225819Y-48760244D01*
X136226176Y-48767061D01*
X136226176Y-48767065D01*
X136231506Y-48868759D01*
X136235490Y-48944781D01*
X136237301Y-48951354D01*
X136237301Y-48951357D01*
X136262930Y-49044402D01*
X136284562Y-49122936D01*
X136370746Y-49286398D01*
X136490020Y-49427540D01*
X136495444Y-49431687D01*
X136495445Y-49431688D01*
X136631399Y-49535633D01*
X136631403Y-49535636D01*
X136636820Y-49539777D01*
X136643000Y-49542659D01*
X136643002Y-49542660D01*
X136798120Y-49614993D01*
X136798123Y-49614994D01*
X136804297Y-49617873D01*
X136810942Y-49619358D01*
X136810947Y-49619360D01*
X136919207Y-49643558D01*
X136984637Y-49658183D01*
X136990307Y-49658500D01*
X137126164Y-49658500D01*
X137263709Y-49643558D01*
X137438848Y-49584617D01*
X137597244Y-49489443D01*
X137658318Y-49431688D01*
X137726549Y-49367165D01*
X137726551Y-49367163D01*
X137731507Y-49362476D01*
X137835375Y-49209640D01*
X137867639Y-49128975D01*
X137901466Y-49044402D01*
X137901467Y-49044397D01*
X137904000Y-49038065D01*
X137920571Y-48937968D01*
X137933066Y-48862494D01*
X137933066Y-48862490D01*
X137934181Y-48855756D01*
X137929327Y-48763122D01*
X137924867Y-48678032D01*
X137924510Y-48671219D01*
X137922088Y-48662423D01*
X137877251Y-48499646D01*
X137875438Y-48493064D01*
X137789254Y-48329602D01*
X137669980Y-48188460D01*
X137664555Y-48184312D01*
X137528601Y-48080367D01*
X137528597Y-48080364D01*
X137523180Y-48076223D01*
X137517000Y-48073341D01*
X137516998Y-48073340D01*
X137361880Y-48001007D01*
X137361877Y-48001006D01*
X137355703Y-47998127D01*
X137349058Y-47996642D01*
X137349053Y-47996640D01*
X137209129Y-47965365D01*
X137175363Y-47957817D01*
X137169693Y-47957500D01*
X137033836Y-47957500D01*
X136896291Y-47972442D01*
X136721152Y-48031383D01*
X136562756Y-48126557D01*
X136557796Y-48131248D01*
X136557794Y-48131249D01*
X136497296Y-48188460D01*
X136428493Y-48253524D01*
X136324625Y-48406360D01*
X136322092Y-48412694D01*
X136322090Y-48412697D01*
X136258534Y-48571598D01*
X136258533Y-48571603D01*
X136256000Y-48577935D01*
X136225819Y-48760244D01*
X127929176Y-48760244D01*
X127924867Y-48678032D01*
X127924510Y-48671219D01*
X127922088Y-48662423D01*
X127877251Y-48499646D01*
X127875438Y-48493064D01*
X127789254Y-48329602D01*
X127669980Y-48188460D01*
X127664555Y-48184312D01*
X127528601Y-48080367D01*
X127528597Y-48080364D01*
X127523180Y-48076223D01*
X127517000Y-48073341D01*
X127516998Y-48073340D01*
X127361880Y-48001007D01*
X127361877Y-48001006D01*
X127355703Y-47998127D01*
X127349058Y-47996642D01*
X127349053Y-47996640D01*
X127209129Y-47965365D01*
X127175363Y-47957817D01*
X127169693Y-47957500D01*
X127033836Y-47957500D01*
X126896291Y-47972442D01*
X126721152Y-48031383D01*
X126562756Y-48126557D01*
X126557796Y-48131248D01*
X126557794Y-48131249D01*
X126497296Y-48188460D01*
X126428493Y-48253524D01*
X126324625Y-48406360D01*
X126322092Y-48412694D01*
X126322090Y-48412697D01*
X126258534Y-48571598D01*
X126258533Y-48571603D01*
X126256000Y-48577935D01*
X126225819Y-48760244D01*
X106749765Y-48760244D01*
X106576288Y-48704713D01*
X106567238Y-48702540D01*
X106325891Y-48663235D01*
X106316602Y-48662423D01*
X106072114Y-48659222D01*
X106062803Y-48659792D01*
X105820522Y-48692765D01*
X105811403Y-48694703D01*
X105576668Y-48763122D01*
X105567915Y-48766394D01*
X105345869Y-48868759D01*
X105337714Y-48873279D01*
X105170468Y-48982930D01*
X105161330Y-48993672D01*
X50801000Y-48993672D01*
X50801000Y-44577000D01*
X50821002Y-44508879D01*
X50874658Y-44462386D01*
X50927000Y-44451000D01*
X145923000Y-44451000D01*
X145991121Y-44471002D01*
G37*
%TD.AperFunction*%
%TD*%
M02*
