%FSLAX45Y45*%
G04 Gerber Fmt 4.5, Leading zero omitted, Abs format (unit mm)*
G04 Created by KiCad (PCBNEW (6.0.4-0)) date 2022-04-29 09:39:13*
%MOMM*%
%LPD*%
G01*
G04 APERTURE LIST*
%TA.AperFunction,Profile*%
%ADD10C,0.100000*%
%TD*%
%ADD11C,0.200000*%
%ADD12C,0.040000*%
%ADD13C,0.080000*%
%ADD14C,0.089000*%
%ADD15C,0.100000*%
%ADD16C,0.102000*%
%ADD17C,0.120000*%
%ADD18C,0.201000*%
G04 APERTURE END LIST*
D10*
X14605000Y-4445000D02*
X14605000Y-13970000D01*
X5080000Y-13970000D02*
X5080000Y-4445000D01*
X5080000Y-4445000D02*
X14605000Y-4445000D01*
X14605000Y-13970000D02*
X5080000Y-13970000D01*
D11*
D12*
X6647500Y-10330500D02*
X6687500Y-10370500D01*
X6687500Y-10330500D02*
X6647500Y-10370500D01*
X7028500Y-10521000D02*
X7068500Y-10561000D01*
X7068500Y-10521000D02*
X7028500Y-10561000D01*
X7092000Y-10775000D02*
X7132000Y-10815000D01*
X7132000Y-10775000D02*
X7092000Y-10815000D01*
X7157880Y-10699834D02*
X7197880Y-10739834D01*
X7197880Y-10699834D02*
X7157880Y-10739834D01*
X11092500Y-9441500D02*
X11132500Y-9481500D01*
X11132500Y-9441500D02*
X11092500Y-9481500D01*
X11664000Y-7219000D02*
X11704000Y-7259000D01*
X11704000Y-7219000D02*
X11664000Y-7259000D01*
X11664000Y-9568500D02*
X11704000Y-9608500D01*
X11704000Y-9568500D02*
X11664000Y-9608500D01*
X12045000Y-10902000D02*
X12085000Y-10942000D01*
X12085000Y-10902000D02*
X12045000Y-10942000D01*
X12108500Y-9886000D02*
X12148500Y-9926000D01*
X12148500Y-9886000D02*
X12108500Y-9926000D01*
X12108500Y-10267000D02*
X12148500Y-10307000D01*
X12148500Y-10267000D02*
X12108500Y-10307000D01*
X12172000Y-7803200D02*
X12212000Y-7843200D01*
X12212000Y-7803200D02*
X12172000Y-7843200D01*
X12375200Y-7803200D02*
X12415200Y-7843200D01*
X12415200Y-7803200D02*
X12375200Y-7843200D01*
X12426000Y-10775000D02*
X12466000Y-10815000D01*
X12466000Y-10775000D02*
X12426000Y-10815000D01*
X12680000Y-6738402D02*
X12720000Y-6778402D01*
X12720000Y-6738402D02*
X12680000Y-6778402D01*
X12680000Y-9777750D02*
X12720000Y-9817750D01*
X12720000Y-9777750D02*
X12680000Y-9817750D01*
X12807000Y-6584000D02*
X12847000Y-6624000D01*
X12847000Y-6584000D02*
X12807000Y-6624000D01*
X12934000Y-6738402D02*
X12974000Y-6778402D01*
X12974000Y-6738402D02*
X12934000Y-6778402D01*
X13188000Y-7549200D02*
X13228000Y-7589200D01*
X13228000Y-7549200D02*
X13188000Y-7589200D01*
X13188000Y-9777750D02*
X13228000Y-9817750D01*
X13228000Y-9777750D02*
X13188000Y-9817750D01*
X13229533Y-7355266D02*
X13269533Y-7395266D01*
X13269533Y-7355266D02*
X13229533Y-7395266D01*
X13340400Y-7396800D02*
X13380400Y-7436800D01*
X13380400Y-7396800D02*
X13340400Y-7436800D01*
X13442000Y-6533200D02*
X13482000Y-6573200D01*
X13482000Y-6533200D02*
X13442000Y-6573200D01*
X13492800Y-7803200D02*
X13532800Y-7843200D01*
X13532800Y-7803200D02*
X13492800Y-7843200D01*
X13506908Y-7619252D02*
X13546908Y-7659252D01*
X13546908Y-7619252D02*
X13506908Y-7659252D01*
X13569000Y-7282500D02*
X13609000Y-7322500D01*
X13609000Y-7282500D02*
X13569000Y-7322500D01*
X13886500Y-7282500D02*
X13926500Y-7322500D01*
X13926500Y-7282500D02*
X13886500Y-7322500D01*
D13*
X12748000Y-5630800D02*
G75*
G03*
X12748000Y-5630800I-40000J0D01*
G01*
D11*
X12678000Y-5595800D02*
X12678000Y-5665800D01*
X12738000Y-5595800D02*
X12738000Y-5665800D01*
X12678000Y-5665800D02*
G75*
G03*
X12738000Y-5665800I30000J0D01*
G01*
X12738000Y-5595800D02*
G75*
G03*
X12678000Y-5595800I-30000J0D01*
G01*
D13*
X12998000Y-5630800D02*
G75*
G03*
X12998000Y-5630800I-40000J0D01*
G01*
D11*
X12928000Y-5595800D02*
X12928000Y-5665800D01*
X12988000Y-5595800D02*
X12988000Y-5665800D01*
X12928000Y-5665800D02*
G75*
G03*
X12988000Y-5665800I30000J0D01*
G01*
X12988000Y-5595800D02*
G75*
G03*
X12928000Y-5595800I-30000J0D01*
G01*
D13*
X13248000Y-5130800D02*
G75*
G03*
X13248000Y-5130800I-40000J0D01*
G01*
D11*
X13243000Y-5100800D02*
X13173000Y-5100800D01*
X13243000Y-5160800D02*
X13173000Y-5160800D01*
X13173000Y-5100800D02*
G75*
G03*
X13173000Y-5160800I0J-30000D01*
G01*
X13243000Y-5160800D02*
G75*
G03*
X13243000Y-5100800I0J30000D01*
G01*
D13*
X13498000Y-5630800D02*
G75*
G03*
X13498000Y-5630800I-40000J0D01*
G01*
D11*
X13428000Y-5595800D02*
X13428000Y-5665800D01*
X13488000Y-5595800D02*
X13488000Y-5665800D01*
X13428000Y-5665800D02*
G75*
G03*
X13488000Y-5665800I30000J0D01*
G01*
X13488000Y-5595800D02*
G75*
G03*
X13428000Y-5595800I-30000J0D01*
G01*
D13*
X13748000Y-5630800D02*
G75*
G03*
X13748000Y-5630800I-40000J0D01*
G01*
D11*
X13678000Y-5595800D02*
X13678000Y-5665800D01*
X13738000Y-5595800D02*
X13738000Y-5665800D01*
X13678000Y-5665800D02*
G75*
G03*
X13738000Y-5665800I30000J0D01*
G01*
X13738000Y-5595800D02*
G75*
G03*
X13678000Y-5595800I-30000J0D01*
G01*
D14*
X6381000Y-12782500D02*
X6381000Y-12871500D01*
X6336500Y-12827000D02*
X6425500Y-12827000D01*
X6381000Y-13036500D02*
X6381000Y-13125500D01*
X6336500Y-13081000D02*
X6425500Y-13081000D01*
D15*
X8417356Y-10258856D02*
X8417356Y-10188144D01*
X8346644Y-10188144D01*
X8346644Y-10258856D01*
X8417356Y-10258856D01*
X8417356Y-10703356D02*
X8417356Y-10632644D01*
X8346644Y-10632644D01*
X8346644Y-10703356D01*
X8417356Y-10703356D01*
X8417356Y-11211356D02*
X8417356Y-11140644D01*
X8346644Y-11140644D01*
X8346644Y-11211356D01*
X8417356Y-11211356D01*
X9369856Y-13433856D02*
X9369856Y-13363144D01*
X9299144Y-13363144D01*
X9299144Y-13433856D01*
X9369856Y-13433856D01*
X10296956Y-13040156D02*
X10296956Y-12969444D01*
X10226244Y-12969444D01*
X10226244Y-13040156D01*
X10296956Y-13040156D01*
X10804956Y-13040156D02*
X10804956Y-12969444D01*
X10734244Y-12969444D01*
X10734244Y-13040156D01*
X10804956Y-13040156D01*
X11592356Y-7020356D02*
X11592356Y-6949644D01*
X11521644Y-6949644D01*
X11521644Y-7020356D01*
X11592356Y-7020356D01*
X11655856Y-9388606D02*
X11655856Y-9317894D01*
X11585144Y-9317894D01*
X11585144Y-9388606D01*
X11655856Y-9388606D01*
X11871756Y-12125756D02*
X11871756Y-12055044D01*
X11801044Y-12055044D01*
X11801044Y-12125756D01*
X11871756Y-12125756D01*
X11871756Y-12633756D02*
X11871756Y-12563044D01*
X11801044Y-12563044D01*
X11801044Y-12633756D01*
X11871756Y-12633756D01*
X12036856Y-6004356D02*
X12036856Y-5933644D01*
X11966144Y-5933644D01*
X11966144Y-6004356D01*
X12036856Y-6004356D01*
X12290856Y-9388606D02*
X12290856Y-9317894D01*
X12220144Y-9317894D01*
X12220144Y-9388606D01*
X12290856Y-9388606D01*
X12684556Y-7655356D02*
X12684556Y-7584644D01*
X12613844Y-7584644D01*
X12613844Y-7655356D01*
X12684556Y-7655356D01*
X12938556Y-13040156D02*
X12938556Y-12969444D01*
X12867844Y-12969444D01*
X12867844Y-13040156D01*
X12938556Y-13040156D01*
X13116356Y-11084356D02*
X13116356Y-11013644D01*
X13045644Y-11013644D01*
X13045644Y-11084356D01*
X13116356Y-11084356D01*
X13370356Y-9388606D02*
X13370356Y-9317894D01*
X13299644Y-9317894D01*
X13299644Y-9388606D01*
X13370356Y-9388606D01*
X13446556Y-13040156D02*
X13446556Y-12969444D01*
X13375844Y-12969444D01*
X13375844Y-13040156D01*
X13446556Y-13040156D01*
X13624356Y-8823756D02*
X13624356Y-8753044D01*
X13553644Y-8753044D01*
X13553644Y-8823756D01*
X13624356Y-8823756D01*
X14068856Y-7655356D02*
X14068856Y-7584644D01*
X13998144Y-7584644D01*
X13998144Y-7655356D01*
X14068856Y-7655356D01*
X14195856Y-9388606D02*
X14195856Y-9317894D01*
X14125144Y-9317894D01*
X14125144Y-9388606D01*
X14195856Y-9388606D01*
X14322856Y-5750356D02*
X14322856Y-5679644D01*
X14252144Y-5679644D01*
X14252144Y-5750356D01*
X14322856Y-5750356D01*
D16*
X5397500Y-7607500D02*
X5448500Y-7556500D01*
X5397500Y-7505500D01*
X5346500Y-7556500D01*
X5397500Y-7607500D01*
X5397500Y-9385500D02*
X5448500Y-9334500D01*
X5397500Y-9283500D01*
X5346500Y-9334500D01*
X5397500Y-9385500D01*
X5651500Y-7607500D02*
X5702500Y-7556500D01*
X5651500Y-7505500D01*
X5600500Y-7556500D01*
X5651500Y-7607500D01*
X5651500Y-9385500D02*
X5702500Y-9334500D01*
X5651500Y-9283500D01*
X5600500Y-9334500D01*
X5651500Y-9385500D01*
X5905500Y-7607500D02*
X5956500Y-7556500D01*
X5905500Y-7505500D01*
X5854500Y-7556500D01*
X5905500Y-7607500D01*
X5905500Y-9385500D02*
X5956500Y-9334500D01*
X5905500Y-9283500D01*
X5854500Y-9334500D01*
X5905500Y-9385500D01*
X6159500Y-7607500D02*
X6210500Y-7556500D01*
X6159500Y-7505500D01*
X6108500Y-7556500D01*
X6159500Y-7607500D01*
X6159500Y-9385500D02*
X6210500Y-9334500D01*
X6159500Y-9283500D01*
X6108500Y-9334500D01*
X6159500Y-9385500D01*
X6413500Y-7607500D02*
X6464500Y-7556500D01*
X6413500Y-7505500D01*
X6362500Y-7556500D01*
X6413500Y-7607500D01*
X6413500Y-9385500D02*
X6464500Y-9334500D01*
X6413500Y-9283500D01*
X6362500Y-9334500D01*
X6413500Y-9385500D01*
X6667500Y-7607500D02*
X6718500Y-7556500D01*
X6667500Y-7505500D01*
X6616500Y-7556500D01*
X6667500Y-7607500D01*
X6667500Y-9385500D02*
X6718500Y-9334500D01*
X6667500Y-9283500D01*
X6616500Y-9334500D01*
X6667500Y-9385500D01*
X6921500Y-7607500D02*
X6972500Y-7556500D01*
X6921500Y-7505500D01*
X6870500Y-7556500D01*
X6921500Y-7607500D01*
X6921500Y-9385500D02*
X6972500Y-9334500D01*
X6921500Y-9283500D01*
X6870500Y-9334500D01*
X6921500Y-9385500D01*
X7175500Y-7607500D02*
X7226500Y-7556500D01*
X7175500Y-7505500D01*
X7124500Y-7556500D01*
X7175500Y-7607500D01*
X7175500Y-9385500D02*
X7226500Y-9334500D01*
X7175500Y-9283500D01*
X7124500Y-9334500D01*
X7175500Y-9385500D01*
X7429500Y-7607500D02*
X7480500Y-7556500D01*
X7429500Y-7505500D01*
X7378500Y-7556500D01*
X7429500Y-7607500D01*
X7429500Y-9385500D02*
X7480500Y-9334500D01*
X7429500Y-9283500D01*
X7378500Y-9334500D01*
X7429500Y-9385500D01*
X7683500Y-7607500D02*
X7734500Y-7556500D01*
X7683500Y-7505500D01*
X7632500Y-7556500D01*
X7683500Y-7607500D01*
X7683500Y-9385500D02*
X7734500Y-9334500D01*
X7683500Y-9283500D01*
X7632500Y-9334500D01*
X7683500Y-9385500D01*
X7937500Y-7607500D02*
X7988500Y-7556500D01*
X7937500Y-7505500D01*
X7886500Y-7556500D01*
X7937500Y-7607500D01*
X7937500Y-9385500D02*
X7988500Y-9334500D01*
X7937500Y-9283500D01*
X7886500Y-9334500D01*
X7937500Y-9385500D01*
X8191500Y-7607500D02*
X8242500Y-7556500D01*
X8191500Y-7505500D01*
X8140500Y-7556500D01*
X8191500Y-7607500D01*
X8191500Y-9385500D02*
X8242500Y-9334500D01*
X8191500Y-9283500D01*
X8140500Y-9334500D01*
X8191500Y-9385500D01*
X8445500Y-7607500D02*
X8496500Y-7556500D01*
X8445500Y-7505500D01*
X8394500Y-7556500D01*
X8445500Y-7607500D01*
X8445500Y-9385500D02*
X8496500Y-9334500D01*
X8445500Y-9283500D01*
X8394500Y-9334500D01*
X8445500Y-9385500D01*
X8699500Y-7607500D02*
X8750500Y-7556500D01*
X8699500Y-7505500D01*
X8648500Y-7556500D01*
X8699500Y-7607500D01*
X8699500Y-9385500D02*
X8750500Y-9334500D01*
X8699500Y-9283500D01*
X8648500Y-9334500D01*
X8699500Y-9385500D01*
X8953500Y-7607500D02*
X9004500Y-7556500D01*
X8953500Y-7505500D01*
X8902500Y-7556500D01*
X8953500Y-7607500D01*
X8953500Y-9385500D02*
X9004500Y-9334500D01*
X8953500Y-9283500D01*
X8902500Y-9334500D01*
X8953500Y-9385500D01*
X9207500Y-7607500D02*
X9258500Y-7556500D01*
X9207500Y-7505500D01*
X9156500Y-7556500D01*
X9207500Y-7607500D01*
X9207500Y-9385500D02*
X9258500Y-9334500D01*
X9207500Y-9283500D01*
X9156500Y-9334500D01*
X9207500Y-9385500D01*
X9461500Y-7607500D02*
X9512500Y-7556500D01*
X9461500Y-7505500D01*
X9410500Y-7556500D01*
X9461500Y-7607500D01*
X9461500Y-9385500D02*
X9512500Y-9334500D01*
X9461500Y-9283500D01*
X9410500Y-9334500D01*
X9461500Y-9385500D01*
X9715500Y-7607500D02*
X9766500Y-7556500D01*
X9715500Y-7505500D01*
X9664500Y-7556500D01*
X9715500Y-7607500D01*
X9715500Y-9385500D02*
X9766500Y-9334500D01*
X9715500Y-9283500D01*
X9664500Y-9334500D01*
X9715500Y-9385500D01*
X9969500Y-7607500D02*
X10020500Y-7556500D01*
X9969500Y-7505500D01*
X9918500Y-7556500D01*
X9969500Y-7607500D01*
X9969500Y-9385500D02*
X10020500Y-9334500D01*
X9969500Y-9283500D01*
X9918500Y-9334500D01*
X9969500Y-9385500D01*
X10200500Y-8242500D02*
X10251500Y-8191500D01*
X10200500Y-8140500D01*
X10149500Y-8191500D01*
X10200500Y-8242500D01*
X10200500Y-8496500D02*
X10251500Y-8445500D01*
X10200500Y-8394500D01*
X10149500Y-8445500D01*
X10200500Y-8496500D01*
X10200500Y-8750500D02*
X10251500Y-8699500D01*
X10200500Y-8648500D01*
X10149500Y-8699500D01*
X10200500Y-8750500D01*
X10223500Y-7607500D02*
X10274500Y-7556500D01*
X10223500Y-7505500D01*
X10172500Y-7556500D01*
X10223500Y-7607500D01*
X10223500Y-9385500D02*
X10274500Y-9334500D01*
X10223500Y-9283500D01*
X10172500Y-9334500D01*
X10223500Y-9385500D01*
D17*
X10557200Y-4976876D02*
X10677200Y-5096876D01*
X10677200Y-4976876D02*
X10557200Y-5096876D01*
X10677200Y-5036876D02*
G75*
G03*
X10677200Y-5036876I-60000J0D01*
G01*
X10557200Y-5726875D02*
X10677200Y-5846875D01*
X10677200Y-5726875D02*
X10557200Y-5846875D01*
X10677200Y-5786875D02*
G75*
G03*
X10677200Y-5786875I-60000J0D01*
G01*
D18*
X5772500Y-12218500D02*
X5973500Y-12419500D01*
X5973500Y-12218500D02*
X5772500Y-12419500D01*
X5873000Y-12218500D02*
X5873000Y-12419500D01*
X5772500Y-12319000D02*
X5973500Y-12319000D01*
X5772500Y-13234500D02*
X5973500Y-13435500D01*
X5973500Y-13234500D02*
X5772500Y-13435500D01*
X5873000Y-13234500D02*
X5873000Y-13435500D01*
X5772500Y-13335000D02*
X5973500Y-13335000D01*
D11*
X5332619Y-14285476D02*
X5332619Y-14085476D01*
X5380238Y-14085476D01*
X5408810Y-14095000D01*
X5427857Y-14114048D01*
X5437381Y-14133095D01*
X5446905Y-14171190D01*
X5446905Y-14199762D01*
X5437381Y-14237857D01*
X5427857Y-14256905D01*
X5408810Y-14275952D01*
X5380238Y-14285476D01*
X5332619Y-14285476D01*
X5532619Y-14285476D02*
X5532619Y-14152143D01*
X5532619Y-14190238D02*
X5542143Y-14171190D01*
X5551667Y-14161667D01*
X5570714Y-14152143D01*
X5589762Y-14152143D01*
X5656428Y-14285476D02*
X5656428Y-14152143D01*
X5656428Y-14085476D02*
X5646905Y-14095000D01*
X5656428Y-14104524D01*
X5665952Y-14095000D01*
X5656428Y-14085476D01*
X5656428Y-14104524D01*
X5780238Y-14285476D02*
X5761190Y-14275952D01*
X5751667Y-14256905D01*
X5751667Y-14085476D01*
X5885000Y-14285476D02*
X5865952Y-14275952D01*
X5856428Y-14256905D01*
X5856428Y-14085476D01*
X6113571Y-14285476D02*
X6113571Y-14085476D01*
X6180238Y-14228333D01*
X6246905Y-14085476D01*
X6246905Y-14285476D01*
X6427857Y-14285476D02*
X6427857Y-14180714D01*
X6418333Y-14161667D01*
X6399286Y-14152143D01*
X6361190Y-14152143D01*
X6342143Y-14161667D01*
X6427857Y-14275952D02*
X6408809Y-14285476D01*
X6361190Y-14285476D01*
X6342143Y-14275952D01*
X6332619Y-14256905D01*
X6332619Y-14237857D01*
X6342143Y-14218809D01*
X6361190Y-14209286D01*
X6408809Y-14209286D01*
X6427857Y-14199762D01*
X6523095Y-14152143D02*
X6523095Y-14352143D01*
X6523095Y-14161667D02*
X6542143Y-14152143D01*
X6580238Y-14152143D01*
X6599286Y-14161667D01*
X6608809Y-14171190D01*
X6618333Y-14190238D01*
X6618333Y-14247381D01*
X6608809Y-14266428D01*
X6599286Y-14275952D01*
X6580238Y-14285476D01*
X6542143Y-14285476D01*
X6523095Y-14275952D01*
X6704048Y-14266428D02*
X6713571Y-14275952D01*
X6704048Y-14285476D01*
X6694524Y-14275952D01*
X6704048Y-14266428D01*
X6704048Y-14285476D01*
X6704048Y-14161667D02*
X6713571Y-14171190D01*
X6704048Y-14180714D01*
X6694524Y-14171190D01*
X6704048Y-14161667D01*
X6704048Y-14180714D01*
D12*
X5035000Y-14595000D02*
X5075000Y-14635000D01*
X5075000Y-14595000D02*
X5035000Y-14635000D01*
D11*
X5370714Y-14505476D02*
X5389762Y-14505476D01*
X5408810Y-14515000D01*
X5418333Y-14524524D01*
X5427857Y-14543571D01*
X5437381Y-14581667D01*
X5437381Y-14629286D01*
X5427857Y-14667381D01*
X5418333Y-14686428D01*
X5408810Y-14695952D01*
X5389762Y-14705476D01*
X5370714Y-14705476D01*
X5351667Y-14695952D01*
X5342143Y-14686428D01*
X5332619Y-14667381D01*
X5323095Y-14629286D01*
X5323095Y-14581667D01*
X5332619Y-14543571D01*
X5342143Y-14524524D01*
X5351667Y-14515000D01*
X5370714Y-14505476D01*
X5523095Y-14686428D02*
X5532619Y-14695952D01*
X5523095Y-14705476D01*
X5513571Y-14695952D01*
X5523095Y-14686428D01*
X5523095Y-14705476D01*
X5704048Y-14572143D02*
X5704048Y-14705476D01*
X5656428Y-14495952D02*
X5608809Y-14638809D01*
X5732619Y-14638809D01*
X5846905Y-14505476D02*
X5865952Y-14505476D01*
X5885000Y-14515000D01*
X5894524Y-14524524D01*
X5904048Y-14543571D01*
X5913571Y-14581667D01*
X5913571Y-14629286D01*
X5904048Y-14667381D01*
X5894524Y-14686428D01*
X5885000Y-14695952D01*
X5865952Y-14705476D01*
X5846905Y-14705476D01*
X5827857Y-14695952D01*
X5818333Y-14686428D01*
X5808809Y-14667381D01*
X5799286Y-14629286D01*
X5799286Y-14581667D01*
X5808809Y-14543571D01*
X5818333Y-14524524D01*
X5827857Y-14515000D01*
X5846905Y-14505476D01*
X6037381Y-14505476D02*
X6056428Y-14505476D01*
X6075476Y-14515000D01*
X6085000Y-14524524D01*
X6094524Y-14543571D01*
X6104048Y-14581667D01*
X6104048Y-14629286D01*
X6094524Y-14667381D01*
X6085000Y-14686428D01*
X6075476Y-14695952D01*
X6056428Y-14705476D01*
X6037381Y-14705476D01*
X6018333Y-14695952D01*
X6008809Y-14686428D01*
X5999286Y-14667381D01*
X5989762Y-14629286D01*
X5989762Y-14581667D01*
X5999286Y-14543571D01*
X6008809Y-14524524D01*
X6018333Y-14515000D01*
X6037381Y-14505476D01*
X6189762Y-14705476D02*
X6189762Y-14572143D01*
X6189762Y-14591190D02*
X6199286Y-14581667D01*
X6218333Y-14572143D01*
X6246905Y-14572143D01*
X6265952Y-14581667D01*
X6275476Y-14600714D01*
X6275476Y-14705476D01*
X6275476Y-14600714D02*
X6285000Y-14581667D01*
X6304048Y-14572143D01*
X6332619Y-14572143D01*
X6351667Y-14581667D01*
X6361190Y-14600714D01*
X6361190Y-14705476D01*
X6456428Y-14705476D02*
X6456428Y-14572143D01*
X6456428Y-14591190D02*
X6465952Y-14581667D01*
X6485000Y-14572143D01*
X6513571Y-14572143D01*
X6532619Y-14581667D01*
X6542143Y-14600714D01*
X6542143Y-14705476D01*
X6542143Y-14600714D02*
X6551667Y-14581667D01*
X6570714Y-14572143D01*
X6599286Y-14572143D01*
X6618333Y-14581667D01*
X6627857Y-14600714D01*
X6627857Y-14705476D01*
X7018333Y-14495952D02*
X6846905Y-14753095D01*
X7275476Y-14505476D02*
X7294524Y-14505476D01*
X7313571Y-14515000D01*
X7323095Y-14524524D01*
X7332619Y-14543571D01*
X7342143Y-14581667D01*
X7342143Y-14629286D01*
X7332619Y-14667381D01*
X7323095Y-14686428D01*
X7313571Y-14695952D01*
X7294524Y-14705476D01*
X7275476Y-14705476D01*
X7256428Y-14695952D01*
X7246905Y-14686428D01*
X7237381Y-14667381D01*
X7227857Y-14629286D01*
X7227857Y-14581667D01*
X7237381Y-14543571D01*
X7246905Y-14524524D01*
X7256428Y-14515000D01*
X7275476Y-14505476D01*
X7427857Y-14686428D02*
X7437381Y-14695952D01*
X7427857Y-14705476D01*
X7418333Y-14695952D01*
X7427857Y-14686428D01*
X7427857Y-14705476D01*
X7561190Y-14505476D02*
X7580238Y-14505476D01*
X7599286Y-14515000D01*
X7608809Y-14524524D01*
X7618333Y-14543571D01*
X7627857Y-14581667D01*
X7627857Y-14629286D01*
X7618333Y-14667381D01*
X7608809Y-14686428D01*
X7599286Y-14695952D01*
X7580238Y-14705476D01*
X7561190Y-14705476D01*
X7542143Y-14695952D01*
X7532619Y-14686428D01*
X7523095Y-14667381D01*
X7513571Y-14629286D01*
X7513571Y-14581667D01*
X7523095Y-14543571D01*
X7532619Y-14524524D01*
X7542143Y-14515000D01*
X7561190Y-14505476D01*
X7818333Y-14705476D02*
X7704048Y-14705476D01*
X7761190Y-14705476D02*
X7761190Y-14505476D01*
X7742143Y-14534048D01*
X7723095Y-14553095D01*
X7704048Y-14562619D01*
X7999286Y-14505476D02*
X7904048Y-14505476D01*
X7894524Y-14600714D01*
X7904048Y-14591190D01*
X7923095Y-14581667D01*
X7970714Y-14581667D01*
X7989762Y-14591190D01*
X7999286Y-14600714D01*
X8008809Y-14619762D01*
X8008809Y-14667381D01*
X7999286Y-14686428D01*
X7989762Y-14695952D01*
X7970714Y-14705476D01*
X7923095Y-14705476D01*
X7904048Y-14695952D01*
X7894524Y-14686428D01*
X8075476Y-14505476D02*
X8208809Y-14505476D01*
X8123095Y-14705476D01*
X8275476Y-14505476D02*
X8275476Y-14543571D01*
X8351667Y-14505476D02*
X8351667Y-14543571D01*
X8646905Y-14781667D02*
X8637381Y-14772143D01*
X8618333Y-14743571D01*
X8608810Y-14724524D01*
X8599286Y-14695952D01*
X8589762Y-14648333D01*
X8589762Y-14610238D01*
X8599286Y-14562619D01*
X8608810Y-14534048D01*
X8618333Y-14515000D01*
X8637381Y-14486428D01*
X8646905Y-14476905D01*
X8713571Y-14524524D02*
X8723095Y-14515000D01*
X8742143Y-14505476D01*
X8789762Y-14505476D01*
X8808810Y-14515000D01*
X8818333Y-14524524D01*
X8827857Y-14543571D01*
X8827857Y-14562619D01*
X8818333Y-14591190D01*
X8704048Y-14705476D01*
X8827857Y-14705476D01*
X8999286Y-14505476D02*
X8961190Y-14505476D01*
X8942143Y-14515000D01*
X8932619Y-14524524D01*
X8913571Y-14553095D01*
X8904048Y-14591190D01*
X8904048Y-14667381D01*
X8913571Y-14686428D01*
X8923095Y-14695952D01*
X8942143Y-14705476D01*
X8980238Y-14705476D01*
X8999286Y-14695952D01*
X9008810Y-14686428D01*
X9018333Y-14667381D01*
X9018333Y-14619762D01*
X9008810Y-14600714D01*
X8999286Y-14591190D01*
X8980238Y-14581667D01*
X8942143Y-14581667D01*
X8923095Y-14591190D01*
X8913571Y-14600714D01*
X8904048Y-14619762D01*
X9256429Y-14705476D02*
X9256429Y-14505476D01*
X9342143Y-14705476D02*
X9342143Y-14600714D01*
X9332619Y-14581667D01*
X9313571Y-14572143D01*
X9285000Y-14572143D01*
X9265952Y-14581667D01*
X9256429Y-14591190D01*
X9465952Y-14705476D02*
X9446905Y-14695952D01*
X9437381Y-14686428D01*
X9427857Y-14667381D01*
X9427857Y-14610238D01*
X9437381Y-14591190D01*
X9446905Y-14581667D01*
X9465952Y-14572143D01*
X9494524Y-14572143D01*
X9513571Y-14581667D01*
X9523095Y-14591190D01*
X9532619Y-14610238D01*
X9532619Y-14667381D01*
X9523095Y-14686428D01*
X9513571Y-14695952D01*
X9494524Y-14705476D01*
X9465952Y-14705476D01*
X9646905Y-14705476D02*
X9627857Y-14695952D01*
X9618333Y-14676905D01*
X9618333Y-14505476D01*
X9799286Y-14695952D02*
X9780238Y-14705476D01*
X9742143Y-14705476D01*
X9723095Y-14695952D01*
X9713571Y-14676905D01*
X9713571Y-14600714D01*
X9723095Y-14581667D01*
X9742143Y-14572143D01*
X9780238Y-14572143D01*
X9799286Y-14581667D01*
X9808810Y-14600714D01*
X9808810Y-14619762D01*
X9713571Y-14638809D01*
X9885000Y-14695952D02*
X9904048Y-14705476D01*
X9942143Y-14705476D01*
X9961190Y-14695952D01*
X9970714Y-14676905D01*
X9970714Y-14667381D01*
X9961190Y-14648333D01*
X9942143Y-14638809D01*
X9913571Y-14638809D01*
X9894524Y-14629286D01*
X9885000Y-14610238D01*
X9885000Y-14600714D01*
X9894524Y-14581667D01*
X9913571Y-14572143D01*
X9942143Y-14572143D01*
X9961190Y-14581667D01*
X10037381Y-14781667D02*
X10046905Y-14772143D01*
X10065952Y-14743571D01*
X10075476Y-14724524D01*
X10085000Y-14695952D01*
X10094524Y-14648333D01*
X10094524Y-14610238D01*
X10085000Y-14562619D01*
X10075476Y-14534048D01*
X10065952Y-14515000D01*
X10046905Y-14486428D01*
X10037381Y-14476905D01*
D13*
X5075000Y-14879000D02*
G75*
G03*
X5075000Y-14879000I-40000J0D01*
G01*
D11*
X5370714Y-14769476D02*
X5389762Y-14769476D01*
X5408810Y-14779000D01*
X5418333Y-14788524D01*
X5427857Y-14807571D01*
X5437381Y-14845667D01*
X5437381Y-14893286D01*
X5427857Y-14931381D01*
X5418333Y-14950428D01*
X5408810Y-14959952D01*
X5389762Y-14969476D01*
X5370714Y-14969476D01*
X5351667Y-14959952D01*
X5342143Y-14950428D01*
X5332619Y-14931381D01*
X5323095Y-14893286D01*
X5323095Y-14845667D01*
X5332619Y-14807571D01*
X5342143Y-14788524D01*
X5351667Y-14779000D01*
X5370714Y-14769476D01*
X5523095Y-14950428D02*
X5532619Y-14959952D01*
X5523095Y-14969476D01*
X5513571Y-14959952D01*
X5523095Y-14950428D01*
X5523095Y-14969476D01*
X5646905Y-14855190D02*
X5627857Y-14845667D01*
X5618333Y-14836143D01*
X5608809Y-14817095D01*
X5608809Y-14807571D01*
X5618333Y-14788524D01*
X5627857Y-14779000D01*
X5646905Y-14769476D01*
X5685000Y-14769476D01*
X5704048Y-14779000D01*
X5713571Y-14788524D01*
X5723095Y-14807571D01*
X5723095Y-14817095D01*
X5713571Y-14836143D01*
X5704048Y-14845667D01*
X5685000Y-14855190D01*
X5646905Y-14855190D01*
X5627857Y-14864714D01*
X5618333Y-14874238D01*
X5608809Y-14893286D01*
X5608809Y-14931381D01*
X5618333Y-14950428D01*
X5627857Y-14959952D01*
X5646905Y-14969476D01*
X5685000Y-14969476D01*
X5704048Y-14959952D01*
X5713571Y-14950428D01*
X5723095Y-14931381D01*
X5723095Y-14893286D01*
X5713571Y-14874238D01*
X5704048Y-14864714D01*
X5685000Y-14855190D01*
X5846905Y-14769476D02*
X5865952Y-14769476D01*
X5885000Y-14779000D01*
X5894524Y-14788524D01*
X5904048Y-14807571D01*
X5913571Y-14845667D01*
X5913571Y-14893286D01*
X5904048Y-14931381D01*
X5894524Y-14950428D01*
X5885000Y-14959952D01*
X5865952Y-14969476D01*
X5846905Y-14969476D01*
X5827857Y-14959952D01*
X5818333Y-14950428D01*
X5808809Y-14931381D01*
X5799286Y-14893286D01*
X5799286Y-14845667D01*
X5808809Y-14807571D01*
X5818333Y-14788524D01*
X5827857Y-14779000D01*
X5846905Y-14769476D01*
X6037381Y-14769476D02*
X6056428Y-14769476D01*
X6075476Y-14779000D01*
X6085000Y-14788524D01*
X6094524Y-14807571D01*
X6104048Y-14845667D01*
X6104048Y-14893286D01*
X6094524Y-14931381D01*
X6085000Y-14950428D01*
X6075476Y-14959952D01*
X6056428Y-14969476D01*
X6037381Y-14969476D01*
X6018333Y-14959952D01*
X6008809Y-14950428D01*
X5999286Y-14931381D01*
X5989762Y-14893286D01*
X5989762Y-14845667D01*
X5999286Y-14807571D01*
X6008809Y-14788524D01*
X6018333Y-14779000D01*
X6037381Y-14769476D01*
X6189762Y-14969476D02*
X6189762Y-14836143D01*
X6189762Y-14855190D02*
X6199286Y-14845667D01*
X6218333Y-14836143D01*
X6246905Y-14836143D01*
X6265952Y-14845667D01*
X6275476Y-14864714D01*
X6275476Y-14969476D01*
X6275476Y-14864714D02*
X6285000Y-14845667D01*
X6304048Y-14836143D01*
X6332619Y-14836143D01*
X6351667Y-14845667D01*
X6361190Y-14864714D01*
X6361190Y-14969476D01*
X6456428Y-14969476D02*
X6456428Y-14836143D01*
X6456428Y-14855190D02*
X6465952Y-14845667D01*
X6485000Y-14836143D01*
X6513571Y-14836143D01*
X6532619Y-14845667D01*
X6542143Y-14864714D01*
X6542143Y-14969476D01*
X6542143Y-14864714D02*
X6551667Y-14845667D01*
X6570714Y-14836143D01*
X6599286Y-14836143D01*
X6618333Y-14845667D01*
X6627857Y-14864714D01*
X6627857Y-14969476D01*
X7018333Y-14759952D02*
X6846905Y-15017095D01*
X7275476Y-14769476D02*
X7294524Y-14769476D01*
X7313571Y-14779000D01*
X7323095Y-14788524D01*
X7332619Y-14807571D01*
X7342143Y-14845667D01*
X7342143Y-14893286D01*
X7332619Y-14931381D01*
X7323095Y-14950428D01*
X7313571Y-14959952D01*
X7294524Y-14969476D01*
X7275476Y-14969476D01*
X7256428Y-14959952D01*
X7246905Y-14950428D01*
X7237381Y-14931381D01*
X7227857Y-14893286D01*
X7227857Y-14845667D01*
X7237381Y-14807571D01*
X7246905Y-14788524D01*
X7256428Y-14779000D01*
X7275476Y-14769476D01*
X7427857Y-14950428D02*
X7437381Y-14959952D01*
X7427857Y-14969476D01*
X7418333Y-14959952D01*
X7427857Y-14950428D01*
X7427857Y-14969476D01*
X7561190Y-14769476D02*
X7580238Y-14769476D01*
X7599286Y-14779000D01*
X7608809Y-14788524D01*
X7618333Y-14807571D01*
X7627857Y-14845667D01*
X7627857Y-14893286D01*
X7618333Y-14931381D01*
X7608809Y-14950428D01*
X7599286Y-14959952D01*
X7580238Y-14969476D01*
X7561190Y-14969476D01*
X7542143Y-14959952D01*
X7532619Y-14950428D01*
X7523095Y-14931381D01*
X7513571Y-14893286D01*
X7513571Y-14845667D01*
X7523095Y-14807571D01*
X7532619Y-14788524D01*
X7542143Y-14779000D01*
X7561190Y-14769476D01*
X7694524Y-14769476D02*
X7818333Y-14769476D01*
X7751667Y-14845667D01*
X7780238Y-14845667D01*
X7799286Y-14855190D01*
X7808809Y-14864714D01*
X7818333Y-14883762D01*
X7818333Y-14931381D01*
X7808809Y-14950428D01*
X7799286Y-14959952D01*
X7780238Y-14969476D01*
X7723095Y-14969476D01*
X7704048Y-14959952D01*
X7694524Y-14950428D01*
X8008809Y-14969476D02*
X7894524Y-14969476D01*
X7951667Y-14969476D02*
X7951667Y-14769476D01*
X7932619Y-14798048D01*
X7913571Y-14817095D01*
X7894524Y-14826619D01*
X8189762Y-14769476D02*
X8094524Y-14769476D01*
X8085000Y-14864714D01*
X8094524Y-14855190D01*
X8113571Y-14845667D01*
X8161190Y-14845667D01*
X8180238Y-14855190D01*
X8189762Y-14864714D01*
X8199286Y-14883762D01*
X8199286Y-14931381D01*
X8189762Y-14950428D01*
X8180238Y-14959952D01*
X8161190Y-14969476D01*
X8113571Y-14969476D01*
X8094524Y-14959952D01*
X8085000Y-14950428D01*
X8275476Y-14769476D02*
X8275476Y-14807571D01*
X8351667Y-14769476D02*
X8351667Y-14807571D01*
X8646905Y-15045667D02*
X8637381Y-15036143D01*
X8618333Y-15007571D01*
X8608810Y-14988524D01*
X8599286Y-14959952D01*
X8589762Y-14912333D01*
X8589762Y-14874238D01*
X8599286Y-14826619D01*
X8608810Y-14798048D01*
X8618333Y-14779000D01*
X8637381Y-14750428D01*
X8646905Y-14740905D01*
X8761190Y-14769476D02*
X8780238Y-14769476D01*
X8799286Y-14779000D01*
X8808810Y-14788524D01*
X8818333Y-14807571D01*
X8827857Y-14845667D01*
X8827857Y-14893286D01*
X8818333Y-14931381D01*
X8808810Y-14950428D01*
X8799286Y-14959952D01*
X8780238Y-14969476D01*
X8761190Y-14969476D01*
X8742143Y-14959952D01*
X8732619Y-14950428D01*
X8723095Y-14931381D01*
X8713571Y-14893286D01*
X8713571Y-14845667D01*
X8723095Y-14807571D01*
X8732619Y-14788524D01*
X8742143Y-14779000D01*
X8761190Y-14769476D01*
X9065952Y-14969476D02*
X9065952Y-14769476D01*
X9151667Y-14969476D02*
X9151667Y-14864714D01*
X9142143Y-14845667D01*
X9123095Y-14836143D01*
X9094524Y-14836143D01*
X9075476Y-14845667D01*
X9065952Y-14855190D01*
X9275476Y-14969476D02*
X9256429Y-14959952D01*
X9246905Y-14950428D01*
X9237381Y-14931381D01*
X9237381Y-14874238D01*
X9246905Y-14855190D01*
X9256429Y-14845667D01*
X9275476Y-14836143D01*
X9304048Y-14836143D01*
X9323095Y-14845667D01*
X9332619Y-14855190D01*
X9342143Y-14874238D01*
X9342143Y-14931381D01*
X9332619Y-14950428D01*
X9323095Y-14959952D01*
X9304048Y-14969476D01*
X9275476Y-14969476D01*
X9456429Y-14969476D02*
X9437381Y-14959952D01*
X9427857Y-14940905D01*
X9427857Y-14769476D01*
X9608810Y-14959952D02*
X9589762Y-14969476D01*
X9551667Y-14969476D01*
X9532619Y-14959952D01*
X9523095Y-14940905D01*
X9523095Y-14864714D01*
X9532619Y-14845667D01*
X9551667Y-14836143D01*
X9589762Y-14836143D01*
X9608810Y-14845667D01*
X9618333Y-14864714D01*
X9618333Y-14883762D01*
X9523095Y-14902809D01*
X9694524Y-14959952D02*
X9713571Y-14969476D01*
X9751667Y-14969476D01*
X9770714Y-14959952D01*
X9780238Y-14940905D01*
X9780238Y-14931381D01*
X9770714Y-14912333D01*
X9751667Y-14902809D01*
X9723095Y-14902809D01*
X9704048Y-14893286D01*
X9694524Y-14874238D01*
X9694524Y-14864714D01*
X9704048Y-14845667D01*
X9723095Y-14836143D01*
X9751667Y-14836143D01*
X9770714Y-14845667D01*
X10018333Y-14893286D02*
X10170714Y-14893286D01*
X10094524Y-14969476D02*
X10094524Y-14817095D01*
X10513571Y-14769476D02*
X10418333Y-14769476D01*
X10408810Y-14864714D01*
X10418333Y-14855190D01*
X10437381Y-14845667D01*
X10485000Y-14845667D01*
X10504048Y-14855190D01*
X10513571Y-14864714D01*
X10523095Y-14883762D01*
X10523095Y-14931381D01*
X10513571Y-14950428D01*
X10504048Y-14959952D01*
X10485000Y-14969476D01*
X10437381Y-14969476D01*
X10418333Y-14959952D01*
X10408810Y-14950428D01*
X10751667Y-14959952D02*
X10770714Y-14969476D01*
X10808810Y-14969476D01*
X10827857Y-14959952D01*
X10837381Y-14940905D01*
X10837381Y-14931381D01*
X10827857Y-14912333D01*
X10808810Y-14902809D01*
X10780238Y-14902809D01*
X10761190Y-14893286D01*
X10751667Y-14874238D01*
X10751667Y-14864714D01*
X10761190Y-14845667D01*
X10780238Y-14836143D01*
X10808810Y-14836143D01*
X10827857Y-14845667D01*
X10951667Y-14969476D02*
X10932619Y-14959952D01*
X10923095Y-14940905D01*
X10923095Y-14769476D01*
X11056429Y-14969476D02*
X11037381Y-14959952D01*
X11027857Y-14950428D01*
X11018333Y-14931381D01*
X11018333Y-14874238D01*
X11027857Y-14855190D01*
X11037381Y-14845667D01*
X11056429Y-14836143D01*
X11085000Y-14836143D01*
X11104048Y-14845667D01*
X11113571Y-14855190D01*
X11123095Y-14874238D01*
X11123095Y-14931381D01*
X11113571Y-14950428D01*
X11104048Y-14959952D01*
X11085000Y-14969476D01*
X11056429Y-14969476D01*
X11180238Y-14836143D02*
X11256428Y-14836143D01*
X11208809Y-14769476D02*
X11208809Y-14940905D01*
X11218333Y-14959952D01*
X11237381Y-14969476D01*
X11256428Y-14969476D01*
X11313571Y-14959952D02*
X11332619Y-14969476D01*
X11370714Y-14969476D01*
X11389762Y-14959952D01*
X11399286Y-14940905D01*
X11399286Y-14931381D01*
X11389762Y-14912333D01*
X11370714Y-14902809D01*
X11342143Y-14902809D01*
X11323095Y-14893286D01*
X11313571Y-14874238D01*
X11313571Y-14864714D01*
X11323095Y-14845667D01*
X11342143Y-14836143D01*
X11370714Y-14836143D01*
X11389762Y-14845667D01*
X11465952Y-15045667D02*
X11475476Y-15036143D01*
X11494524Y-15007571D01*
X11504048Y-14988524D01*
X11513571Y-14959952D01*
X11523095Y-14912333D01*
X11523095Y-14874238D01*
X11513571Y-14826619D01*
X11504048Y-14798048D01*
X11494524Y-14779000D01*
X11475476Y-14750428D01*
X11465952Y-14740905D01*
D14*
X5030500Y-15098500D02*
X5030500Y-15187500D01*
X4986000Y-15143000D02*
X5075000Y-15143000D01*
D11*
X5370714Y-15033476D02*
X5389762Y-15033476D01*
X5408810Y-15043000D01*
X5418333Y-15052524D01*
X5427857Y-15071571D01*
X5437381Y-15109667D01*
X5437381Y-15157286D01*
X5427857Y-15195381D01*
X5418333Y-15214428D01*
X5408810Y-15223952D01*
X5389762Y-15233476D01*
X5370714Y-15233476D01*
X5351667Y-15223952D01*
X5342143Y-15214428D01*
X5332619Y-15195381D01*
X5323095Y-15157286D01*
X5323095Y-15109667D01*
X5332619Y-15071571D01*
X5342143Y-15052524D01*
X5351667Y-15043000D01*
X5370714Y-15033476D01*
X5523095Y-15214428D02*
X5532619Y-15223952D01*
X5523095Y-15233476D01*
X5513571Y-15223952D01*
X5523095Y-15214428D01*
X5523095Y-15233476D01*
X5646905Y-15119190D02*
X5627857Y-15109667D01*
X5618333Y-15100143D01*
X5608809Y-15081095D01*
X5608809Y-15071571D01*
X5618333Y-15052524D01*
X5627857Y-15043000D01*
X5646905Y-15033476D01*
X5685000Y-15033476D01*
X5704048Y-15043000D01*
X5713571Y-15052524D01*
X5723095Y-15071571D01*
X5723095Y-15081095D01*
X5713571Y-15100143D01*
X5704048Y-15109667D01*
X5685000Y-15119190D01*
X5646905Y-15119190D01*
X5627857Y-15128714D01*
X5618333Y-15138238D01*
X5608809Y-15157286D01*
X5608809Y-15195381D01*
X5618333Y-15214428D01*
X5627857Y-15223952D01*
X5646905Y-15233476D01*
X5685000Y-15233476D01*
X5704048Y-15223952D01*
X5713571Y-15214428D01*
X5723095Y-15195381D01*
X5723095Y-15157286D01*
X5713571Y-15138238D01*
X5704048Y-15128714D01*
X5685000Y-15119190D01*
X5818333Y-15233476D02*
X5856428Y-15233476D01*
X5875476Y-15223952D01*
X5885000Y-15214428D01*
X5904048Y-15185857D01*
X5913571Y-15147762D01*
X5913571Y-15071571D01*
X5904048Y-15052524D01*
X5894524Y-15043000D01*
X5875476Y-15033476D01*
X5837381Y-15033476D01*
X5818333Y-15043000D01*
X5808809Y-15052524D01*
X5799286Y-15071571D01*
X5799286Y-15119190D01*
X5808809Y-15138238D01*
X5818333Y-15147762D01*
X5837381Y-15157286D01*
X5875476Y-15157286D01*
X5894524Y-15147762D01*
X5904048Y-15138238D01*
X5913571Y-15119190D01*
X6037381Y-15033476D02*
X6056428Y-15033476D01*
X6075476Y-15043000D01*
X6085000Y-15052524D01*
X6094524Y-15071571D01*
X6104048Y-15109667D01*
X6104048Y-15157286D01*
X6094524Y-15195381D01*
X6085000Y-15214428D01*
X6075476Y-15223952D01*
X6056428Y-15233476D01*
X6037381Y-15233476D01*
X6018333Y-15223952D01*
X6008809Y-15214428D01*
X5999286Y-15195381D01*
X5989762Y-15157286D01*
X5989762Y-15109667D01*
X5999286Y-15071571D01*
X6008809Y-15052524D01*
X6018333Y-15043000D01*
X6037381Y-15033476D01*
X6189762Y-15233476D02*
X6189762Y-15100143D01*
X6189762Y-15119190D02*
X6199286Y-15109667D01*
X6218333Y-15100143D01*
X6246905Y-15100143D01*
X6265952Y-15109667D01*
X6275476Y-15128714D01*
X6275476Y-15233476D01*
X6275476Y-15128714D02*
X6285000Y-15109667D01*
X6304048Y-15100143D01*
X6332619Y-15100143D01*
X6351667Y-15109667D01*
X6361190Y-15128714D01*
X6361190Y-15233476D01*
X6456428Y-15233476D02*
X6456428Y-15100143D01*
X6456428Y-15119190D02*
X6465952Y-15109667D01*
X6485000Y-15100143D01*
X6513571Y-15100143D01*
X6532619Y-15109667D01*
X6542143Y-15128714D01*
X6542143Y-15233476D01*
X6542143Y-15128714D02*
X6551667Y-15109667D01*
X6570714Y-15100143D01*
X6599286Y-15100143D01*
X6618333Y-15109667D01*
X6627857Y-15128714D01*
X6627857Y-15233476D01*
X7018333Y-15023952D02*
X6846905Y-15281095D01*
X7275476Y-15033476D02*
X7294524Y-15033476D01*
X7313571Y-15043000D01*
X7323095Y-15052524D01*
X7332619Y-15071571D01*
X7342143Y-15109667D01*
X7342143Y-15157286D01*
X7332619Y-15195381D01*
X7323095Y-15214428D01*
X7313571Y-15223952D01*
X7294524Y-15233476D01*
X7275476Y-15233476D01*
X7256428Y-15223952D01*
X7246905Y-15214428D01*
X7237381Y-15195381D01*
X7227857Y-15157286D01*
X7227857Y-15109667D01*
X7237381Y-15071571D01*
X7246905Y-15052524D01*
X7256428Y-15043000D01*
X7275476Y-15033476D01*
X7427857Y-15214428D02*
X7437381Y-15223952D01*
X7427857Y-15233476D01*
X7418333Y-15223952D01*
X7427857Y-15214428D01*
X7427857Y-15233476D01*
X7561190Y-15033476D02*
X7580238Y-15033476D01*
X7599286Y-15043000D01*
X7608809Y-15052524D01*
X7618333Y-15071571D01*
X7627857Y-15109667D01*
X7627857Y-15157286D01*
X7618333Y-15195381D01*
X7608809Y-15214428D01*
X7599286Y-15223952D01*
X7580238Y-15233476D01*
X7561190Y-15233476D01*
X7542143Y-15223952D01*
X7532619Y-15214428D01*
X7523095Y-15195381D01*
X7513571Y-15157286D01*
X7513571Y-15109667D01*
X7523095Y-15071571D01*
X7532619Y-15052524D01*
X7542143Y-15043000D01*
X7561190Y-15033476D01*
X7694524Y-15033476D02*
X7818333Y-15033476D01*
X7751667Y-15109667D01*
X7780238Y-15109667D01*
X7799286Y-15119190D01*
X7808809Y-15128714D01*
X7818333Y-15147762D01*
X7818333Y-15195381D01*
X7808809Y-15214428D01*
X7799286Y-15223952D01*
X7780238Y-15233476D01*
X7723095Y-15233476D01*
X7704048Y-15223952D01*
X7694524Y-15214428D01*
X7999286Y-15033476D02*
X7904048Y-15033476D01*
X7894524Y-15128714D01*
X7904048Y-15119190D01*
X7923095Y-15109667D01*
X7970714Y-15109667D01*
X7989762Y-15119190D01*
X7999286Y-15128714D01*
X8008809Y-15147762D01*
X8008809Y-15195381D01*
X7999286Y-15214428D01*
X7989762Y-15223952D01*
X7970714Y-15233476D01*
X7923095Y-15233476D01*
X7904048Y-15223952D01*
X7894524Y-15214428D01*
X8132619Y-15033476D02*
X8151667Y-15033476D01*
X8170714Y-15043000D01*
X8180238Y-15052524D01*
X8189762Y-15071571D01*
X8199286Y-15109667D01*
X8199286Y-15157286D01*
X8189762Y-15195381D01*
X8180238Y-15214428D01*
X8170714Y-15223952D01*
X8151667Y-15233476D01*
X8132619Y-15233476D01*
X8113571Y-15223952D01*
X8104048Y-15214428D01*
X8094524Y-15195381D01*
X8085000Y-15157286D01*
X8085000Y-15109667D01*
X8094524Y-15071571D01*
X8104048Y-15052524D01*
X8113571Y-15043000D01*
X8132619Y-15033476D01*
X8275476Y-15033476D02*
X8275476Y-15071571D01*
X8351667Y-15033476D02*
X8351667Y-15071571D01*
X8646905Y-15309667D02*
X8637381Y-15300143D01*
X8618333Y-15271571D01*
X8608810Y-15252524D01*
X8599286Y-15223952D01*
X8589762Y-15176333D01*
X8589762Y-15138238D01*
X8599286Y-15090619D01*
X8608810Y-15062048D01*
X8618333Y-15043000D01*
X8637381Y-15014428D01*
X8646905Y-15004905D01*
X8713571Y-15052524D02*
X8723095Y-15043000D01*
X8742143Y-15033476D01*
X8789762Y-15033476D01*
X8808810Y-15043000D01*
X8818333Y-15052524D01*
X8827857Y-15071571D01*
X8827857Y-15090619D01*
X8818333Y-15119190D01*
X8704048Y-15233476D01*
X8827857Y-15233476D01*
X9065952Y-15233476D02*
X9065952Y-15033476D01*
X9151667Y-15233476D02*
X9151667Y-15128714D01*
X9142143Y-15109667D01*
X9123095Y-15100143D01*
X9094524Y-15100143D01*
X9075476Y-15109667D01*
X9065952Y-15119190D01*
X9275476Y-15233476D02*
X9256429Y-15223952D01*
X9246905Y-15214428D01*
X9237381Y-15195381D01*
X9237381Y-15138238D01*
X9246905Y-15119190D01*
X9256429Y-15109667D01*
X9275476Y-15100143D01*
X9304048Y-15100143D01*
X9323095Y-15109667D01*
X9332619Y-15119190D01*
X9342143Y-15138238D01*
X9342143Y-15195381D01*
X9332619Y-15214428D01*
X9323095Y-15223952D01*
X9304048Y-15233476D01*
X9275476Y-15233476D01*
X9456429Y-15233476D02*
X9437381Y-15223952D01*
X9427857Y-15204905D01*
X9427857Y-15033476D01*
X9608810Y-15223952D02*
X9589762Y-15233476D01*
X9551667Y-15233476D01*
X9532619Y-15223952D01*
X9523095Y-15204905D01*
X9523095Y-15128714D01*
X9532619Y-15109667D01*
X9551667Y-15100143D01*
X9589762Y-15100143D01*
X9608810Y-15109667D01*
X9618333Y-15128714D01*
X9618333Y-15147762D01*
X9523095Y-15166809D01*
X9694524Y-15223952D02*
X9713571Y-15233476D01*
X9751667Y-15233476D01*
X9770714Y-15223952D01*
X9780238Y-15204905D01*
X9780238Y-15195381D01*
X9770714Y-15176333D01*
X9751667Y-15166809D01*
X9723095Y-15166809D01*
X9704048Y-15157286D01*
X9694524Y-15138238D01*
X9694524Y-15128714D01*
X9704048Y-15109667D01*
X9723095Y-15100143D01*
X9751667Y-15100143D01*
X9770714Y-15109667D01*
X9846905Y-15309667D02*
X9856429Y-15300143D01*
X9875476Y-15271571D01*
X9885000Y-15252524D01*
X9894524Y-15223952D01*
X9904048Y-15176333D01*
X9904048Y-15138238D01*
X9894524Y-15090619D01*
X9885000Y-15062048D01*
X9875476Y-15043000D01*
X9856429Y-15014428D01*
X9846905Y-15004905D01*
D15*
X5060356Y-15442356D02*
X5060356Y-15371644D01*
X4989644Y-15371644D01*
X4989644Y-15442356D01*
X5060356Y-15442356D01*
D11*
X5437381Y-15497476D02*
X5323095Y-15497476D01*
X5380238Y-15497476D02*
X5380238Y-15297476D01*
X5361190Y-15326048D01*
X5342143Y-15345095D01*
X5323095Y-15354619D01*
X5523095Y-15478428D02*
X5532619Y-15487952D01*
X5523095Y-15497476D01*
X5513571Y-15487952D01*
X5523095Y-15478428D01*
X5523095Y-15497476D01*
X5656428Y-15297476D02*
X5675476Y-15297476D01*
X5694524Y-15307000D01*
X5704048Y-15316524D01*
X5713571Y-15335571D01*
X5723095Y-15373667D01*
X5723095Y-15421286D01*
X5713571Y-15459381D01*
X5704048Y-15478428D01*
X5694524Y-15487952D01*
X5675476Y-15497476D01*
X5656428Y-15497476D01*
X5637381Y-15487952D01*
X5627857Y-15478428D01*
X5618333Y-15459381D01*
X5608809Y-15421286D01*
X5608809Y-15373667D01*
X5618333Y-15335571D01*
X5627857Y-15316524D01*
X5637381Y-15307000D01*
X5656428Y-15297476D01*
X5846905Y-15297476D02*
X5865952Y-15297476D01*
X5885000Y-15307000D01*
X5894524Y-15316524D01*
X5904048Y-15335571D01*
X5913571Y-15373667D01*
X5913571Y-15421286D01*
X5904048Y-15459381D01*
X5894524Y-15478428D01*
X5885000Y-15487952D01*
X5865952Y-15497476D01*
X5846905Y-15497476D01*
X5827857Y-15487952D01*
X5818333Y-15478428D01*
X5808809Y-15459381D01*
X5799286Y-15421286D01*
X5799286Y-15373667D01*
X5808809Y-15335571D01*
X5818333Y-15316524D01*
X5827857Y-15307000D01*
X5846905Y-15297476D01*
X6037381Y-15297476D02*
X6056428Y-15297476D01*
X6075476Y-15307000D01*
X6085000Y-15316524D01*
X6094524Y-15335571D01*
X6104048Y-15373667D01*
X6104048Y-15421286D01*
X6094524Y-15459381D01*
X6085000Y-15478428D01*
X6075476Y-15487952D01*
X6056428Y-15497476D01*
X6037381Y-15497476D01*
X6018333Y-15487952D01*
X6008809Y-15478428D01*
X5999286Y-15459381D01*
X5989762Y-15421286D01*
X5989762Y-15373667D01*
X5999286Y-15335571D01*
X6008809Y-15316524D01*
X6018333Y-15307000D01*
X6037381Y-15297476D01*
X6189762Y-15497476D02*
X6189762Y-15364143D01*
X6189762Y-15383190D02*
X6199286Y-15373667D01*
X6218333Y-15364143D01*
X6246905Y-15364143D01*
X6265952Y-15373667D01*
X6275476Y-15392714D01*
X6275476Y-15497476D01*
X6275476Y-15392714D02*
X6285000Y-15373667D01*
X6304048Y-15364143D01*
X6332619Y-15364143D01*
X6351667Y-15373667D01*
X6361190Y-15392714D01*
X6361190Y-15497476D01*
X6456428Y-15497476D02*
X6456428Y-15364143D01*
X6456428Y-15383190D02*
X6465952Y-15373667D01*
X6485000Y-15364143D01*
X6513571Y-15364143D01*
X6532619Y-15373667D01*
X6542143Y-15392714D01*
X6542143Y-15497476D01*
X6542143Y-15392714D02*
X6551667Y-15373667D01*
X6570714Y-15364143D01*
X6599286Y-15364143D01*
X6618333Y-15373667D01*
X6627857Y-15392714D01*
X6627857Y-15497476D01*
X7018333Y-15287952D02*
X6846905Y-15545095D01*
X7275476Y-15297476D02*
X7294524Y-15297476D01*
X7313571Y-15307000D01*
X7323095Y-15316524D01*
X7332619Y-15335571D01*
X7342143Y-15373667D01*
X7342143Y-15421286D01*
X7332619Y-15459381D01*
X7323095Y-15478428D01*
X7313571Y-15487952D01*
X7294524Y-15497476D01*
X7275476Y-15497476D01*
X7256428Y-15487952D01*
X7246905Y-15478428D01*
X7237381Y-15459381D01*
X7227857Y-15421286D01*
X7227857Y-15373667D01*
X7237381Y-15335571D01*
X7246905Y-15316524D01*
X7256428Y-15307000D01*
X7275476Y-15297476D01*
X7427857Y-15478428D02*
X7437381Y-15487952D01*
X7427857Y-15497476D01*
X7418333Y-15487952D01*
X7427857Y-15478428D01*
X7427857Y-15497476D01*
X7561190Y-15297476D02*
X7580238Y-15297476D01*
X7599286Y-15307000D01*
X7608809Y-15316524D01*
X7618333Y-15335571D01*
X7627857Y-15373667D01*
X7627857Y-15421286D01*
X7618333Y-15459381D01*
X7608809Y-15478428D01*
X7599286Y-15487952D01*
X7580238Y-15497476D01*
X7561190Y-15497476D01*
X7542143Y-15487952D01*
X7532619Y-15478428D01*
X7523095Y-15459381D01*
X7513571Y-15421286D01*
X7513571Y-15373667D01*
X7523095Y-15335571D01*
X7532619Y-15316524D01*
X7542143Y-15307000D01*
X7561190Y-15297476D01*
X7694524Y-15297476D02*
X7818333Y-15297476D01*
X7751667Y-15373667D01*
X7780238Y-15373667D01*
X7799286Y-15383190D01*
X7808809Y-15392714D01*
X7818333Y-15411762D01*
X7818333Y-15459381D01*
X7808809Y-15478428D01*
X7799286Y-15487952D01*
X7780238Y-15497476D01*
X7723095Y-15497476D01*
X7704048Y-15487952D01*
X7694524Y-15478428D01*
X7913571Y-15497476D02*
X7951667Y-15497476D01*
X7970714Y-15487952D01*
X7980238Y-15478428D01*
X7999286Y-15449857D01*
X8008809Y-15411762D01*
X8008809Y-15335571D01*
X7999286Y-15316524D01*
X7989762Y-15307000D01*
X7970714Y-15297476D01*
X7932619Y-15297476D01*
X7913571Y-15307000D01*
X7904048Y-15316524D01*
X7894524Y-15335571D01*
X7894524Y-15383190D01*
X7904048Y-15402238D01*
X7913571Y-15411762D01*
X7932619Y-15421286D01*
X7970714Y-15421286D01*
X7989762Y-15411762D01*
X7999286Y-15402238D01*
X8008809Y-15383190D01*
X8180238Y-15364143D02*
X8180238Y-15497476D01*
X8132619Y-15287952D02*
X8085000Y-15430809D01*
X8208809Y-15430809D01*
X8275476Y-15297476D02*
X8275476Y-15335571D01*
X8351667Y-15297476D02*
X8351667Y-15335571D01*
X8646905Y-15573667D02*
X8637381Y-15564143D01*
X8618333Y-15535571D01*
X8608810Y-15516524D01*
X8599286Y-15487952D01*
X8589762Y-15440333D01*
X8589762Y-15402238D01*
X8599286Y-15354619D01*
X8608810Y-15326048D01*
X8618333Y-15307000D01*
X8637381Y-15278428D01*
X8646905Y-15268905D01*
X8713571Y-15316524D02*
X8723095Y-15307000D01*
X8742143Y-15297476D01*
X8789762Y-15297476D01*
X8808810Y-15307000D01*
X8818333Y-15316524D01*
X8827857Y-15335571D01*
X8827857Y-15354619D01*
X8818333Y-15383190D01*
X8704048Y-15497476D01*
X8827857Y-15497476D01*
X9018333Y-15497476D02*
X8904048Y-15497476D01*
X8961190Y-15497476D02*
X8961190Y-15297476D01*
X8942143Y-15326048D01*
X8923095Y-15345095D01*
X8904048Y-15354619D01*
X9256429Y-15497476D02*
X9256429Y-15297476D01*
X9342143Y-15497476D02*
X9342143Y-15392714D01*
X9332619Y-15373667D01*
X9313571Y-15364143D01*
X9285000Y-15364143D01*
X9265952Y-15373667D01*
X9256429Y-15383190D01*
X9465952Y-15497476D02*
X9446905Y-15487952D01*
X9437381Y-15478428D01*
X9427857Y-15459381D01*
X9427857Y-15402238D01*
X9437381Y-15383190D01*
X9446905Y-15373667D01*
X9465952Y-15364143D01*
X9494524Y-15364143D01*
X9513571Y-15373667D01*
X9523095Y-15383190D01*
X9532619Y-15402238D01*
X9532619Y-15459381D01*
X9523095Y-15478428D01*
X9513571Y-15487952D01*
X9494524Y-15497476D01*
X9465952Y-15497476D01*
X9646905Y-15497476D02*
X9627857Y-15487952D01*
X9618333Y-15468905D01*
X9618333Y-15297476D01*
X9799286Y-15487952D02*
X9780238Y-15497476D01*
X9742143Y-15497476D01*
X9723095Y-15487952D01*
X9713571Y-15468905D01*
X9713571Y-15392714D01*
X9723095Y-15373667D01*
X9742143Y-15364143D01*
X9780238Y-15364143D01*
X9799286Y-15373667D01*
X9808810Y-15392714D01*
X9808810Y-15411762D01*
X9713571Y-15430809D01*
X9885000Y-15487952D02*
X9904048Y-15497476D01*
X9942143Y-15497476D01*
X9961190Y-15487952D01*
X9970714Y-15468905D01*
X9970714Y-15459381D01*
X9961190Y-15440333D01*
X9942143Y-15430809D01*
X9913571Y-15430809D01*
X9894524Y-15421286D01*
X9885000Y-15402238D01*
X9885000Y-15392714D01*
X9894524Y-15373667D01*
X9913571Y-15364143D01*
X9942143Y-15364143D01*
X9961190Y-15373667D01*
X10037381Y-15573667D02*
X10046905Y-15564143D01*
X10065952Y-15535571D01*
X10075476Y-15516524D01*
X10085000Y-15487952D01*
X10094524Y-15440333D01*
X10094524Y-15402238D01*
X10085000Y-15354619D01*
X10075476Y-15326048D01*
X10065952Y-15307000D01*
X10046905Y-15278428D01*
X10037381Y-15268905D01*
D16*
X5024000Y-15722000D02*
X5075000Y-15671000D01*
X5024000Y-15620000D01*
X4973000Y-15671000D01*
X5024000Y-15722000D01*
D11*
X5437381Y-15761476D02*
X5323095Y-15761476D01*
X5380238Y-15761476D02*
X5380238Y-15561476D01*
X5361190Y-15590048D01*
X5342143Y-15609095D01*
X5323095Y-15618619D01*
X5523095Y-15742428D02*
X5532619Y-15751952D01*
X5523095Y-15761476D01*
X5513571Y-15751952D01*
X5523095Y-15742428D01*
X5523095Y-15761476D01*
X5656428Y-15561476D02*
X5675476Y-15561476D01*
X5694524Y-15571000D01*
X5704048Y-15580524D01*
X5713571Y-15599571D01*
X5723095Y-15637667D01*
X5723095Y-15685286D01*
X5713571Y-15723381D01*
X5704048Y-15742428D01*
X5694524Y-15751952D01*
X5675476Y-15761476D01*
X5656428Y-15761476D01*
X5637381Y-15751952D01*
X5627857Y-15742428D01*
X5618333Y-15723381D01*
X5608809Y-15685286D01*
X5608809Y-15637667D01*
X5618333Y-15599571D01*
X5627857Y-15580524D01*
X5637381Y-15571000D01*
X5656428Y-15561476D01*
X5799286Y-15580524D02*
X5808809Y-15571000D01*
X5827857Y-15561476D01*
X5875476Y-15561476D01*
X5894524Y-15571000D01*
X5904048Y-15580524D01*
X5913571Y-15599571D01*
X5913571Y-15618619D01*
X5904048Y-15647190D01*
X5789762Y-15761476D01*
X5913571Y-15761476D01*
X6037381Y-15561476D02*
X6056428Y-15561476D01*
X6075476Y-15571000D01*
X6085000Y-15580524D01*
X6094524Y-15599571D01*
X6104048Y-15637667D01*
X6104048Y-15685286D01*
X6094524Y-15723381D01*
X6085000Y-15742428D01*
X6075476Y-15751952D01*
X6056428Y-15761476D01*
X6037381Y-15761476D01*
X6018333Y-15751952D01*
X6008809Y-15742428D01*
X5999286Y-15723381D01*
X5989762Y-15685286D01*
X5989762Y-15637667D01*
X5999286Y-15599571D01*
X6008809Y-15580524D01*
X6018333Y-15571000D01*
X6037381Y-15561476D01*
X6189762Y-15761476D02*
X6189762Y-15628143D01*
X6189762Y-15647190D02*
X6199286Y-15637667D01*
X6218333Y-15628143D01*
X6246905Y-15628143D01*
X6265952Y-15637667D01*
X6275476Y-15656714D01*
X6275476Y-15761476D01*
X6275476Y-15656714D02*
X6285000Y-15637667D01*
X6304048Y-15628143D01*
X6332619Y-15628143D01*
X6351667Y-15637667D01*
X6361190Y-15656714D01*
X6361190Y-15761476D01*
X6456428Y-15761476D02*
X6456428Y-15628143D01*
X6456428Y-15647190D02*
X6465952Y-15637667D01*
X6485000Y-15628143D01*
X6513571Y-15628143D01*
X6532619Y-15637667D01*
X6542143Y-15656714D01*
X6542143Y-15761476D01*
X6542143Y-15656714D02*
X6551667Y-15637667D01*
X6570714Y-15628143D01*
X6599286Y-15628143D01*
X6618333Y-15637667D01*
X6627857Y-15656714D01*
X6627857Y-15761476D01*
X7018333Y-15551952D02*
X6846905Y-15809095D01*
X7275476Y-15561476D02*
X7294524Y-15561476D01*
X7313571Y-15571000D01*
X7323095Y-15580524D01*
X7332619Y-15599571D01*
X7342143Y-15637667D01*
X7342143Y-15685286D01*
X7332619Y-15723381D01*
X7323095Y-15742428D01*
X7313571Y-15751952D01*
X7294524Y-15761476D01*
X7275476Y-15761476D01*
X7256428Y-15751952D01*
X7246905Y-15742428D01*
X7237381Y-15723381D01*
X7227857Y-15685286D01*
X7227857Y-15637667D01*
X7237381Y-15599571D01*
X7246905Y-15580524D01*
X7256428Y-15571000D01*
X7275476Y-15561476D01*
X7427857Y-15742428D02*
X7437381Y-15751952D01*
X7427857Y-15761476D01*
X7418333Y-15751952D01*
X7427857Y-15742428D01*
X7427857Y-15761476D01*
X7561190Y-15561476D02*
X7580238Y-15561476D01*
X7599286Y-15571000D01*
X7608809Y-15580524D01*
X7618333Y-15599571D01*
X7627857Y-15637667D01*
X7627857Y-15685286D01*
X7618333Y-15723381D01*
X7608809Y-15742428D01*
X7599286Y-15751952D01*
X7580238Y-15761476D01*
X7561190Y-15761476D01*
X7542143Y-15751952D01*
X7532619Y-15742428D01*
X7523095Y-15723381D01*
X7513571Y-15685286D01*
X7513571Y-15637667D01*
X7523095Y-15599571D01*
X7532619Y-15580524D01*
X7542143Y-15571000D01*
X7561190Y-15561476D01*
X7799286Y-15628143D02*
X7799286Y-15761476D01*
X7751667Y-15551952D02*
X7704048Y-15694809D01*
X7827857Y-15694809D01*
X7942143Y-15561476D02*
X7961190Y-15561476D01*
X7980238Y-15571000D01*
X7989762Y-15580524D01*
X7999286Y-15599571D01*
X8008809Y-15637667D01*
X8008809Y-15685286D01*
X7999286Y-15723381D01*
X7989762Y-15742428D01*
X7980238Y-15751952D01*
X7961190Y-15761476D01*
X7942143Y-15761476D01*
X7923095Y-15751952D01*
X7913571Y-15742428D01*
X7904048Y-15723381D01*
X7894524Y-15685286D01*
X7894524Y-15637667D01*
X7904048Y-15599571D01*
X7913571Y-15580524D01*
X7923095Y-15571000D01*
X7942143Y-15561476D01*
X8085000Y-15580524D02*
X8094524Y-15571000D01*
X8113571Y-15561476D01*
X8161190Y-15561476D01*
X8180238Y-15571000D01*
X8189762Y-15580524D01*
X8199286Y-15599571D01*
X8199286Y-15618619D01*
X8189762Y-15647190D01*
X8075476Y-15761476D01*
X8199286Y-15761476D01*
X8275476Y-15561476D02*
X8275476Y-15599571D01*
X8351667Y-15561476D02*
X8351667Y-15599571D01*
X8646905Y-15837667D02*
X8637381Y-15828143D01*
X8618333Y-15799571D01*
X8608810Y-15780524D01*
X8599286Y-15751952D01*
X8589762Y-15704333D01*
X8589762Y-15666238D01*
X8599286Y-15618619D01*
X8608810Y-15590048D01*
X8618333Y-15571000D01*
X8637381Y-15542428D01*
X8646905Y-15532905D01*
X8808810Y-15628143D02*
X8808810Y-15761476D01*
X8761190Y-15551952D02*
X8713571Y-15694809D01*
X8837381Y-15694809D01*
X8894524Y-15561476D02*
X9018333Y-15561476D01*
X8951667Y-15637667D01*
X8980238Y-15637667D01*
X8999286Y-15647190D01*
X9008810Y-15656714D01*
X9018333Y-15675762D01*
X9018333Y-15723381D01*
X9008810Y-15742428D01*
X8999286Y-15751952D01*
X8980238Y-15761476D01*
X8923095Y-15761476D01*
X8904048Y-15751952D01*
X8894524Y-15742428D01*
X9256429Y-15761476D02*
X9256429Y-15561476D01*
X9342143Y-15761476D02*
X9342143Y-15656714D01*
X9332619Y-15637667D01*
X9313571Y-15628143D01*
X9285000Y-15628143D01*
X9265952Y-15637667D01*
X9256429Y-15647190D01*
X9465952Y-15761476D02*
X9446905Y-15751952D01*
X9437381Y-15742428D01*
X9427857Y-15723381D01*
X9427857Y-15666238D01*
X9437381Y-15647190D01*
X9446905Y-15637667D01*
X9465952Y-15628143D01*
X9494524Y-15628143D01*
X9513571Y-15637667D01*
X9523095Y-15647190D01*
X9532619Y-15666238D01*
X9532619Y-15723381D01*
X9523095Y-15742428D01*
X9513571Y-15751952D01*
X9494524Y-15761476D01*
X9465952Y-15761476D01*
X9646905Y-15761476D02*
X9627857Y-15751952D01*
X9618333Y-15732905D01*
X9618333Y-15561476D01*
X9799286Y-15751952D02*
X9780238Y-15761476D01*
X9742143Y-15761476D01*
X9723095Y-15751952D01*
X9713571Y-15732905D01*
X9713571Y-15656714D01*
X9723095Y-15637667D01*
X9742143Y-15628143D01*
X9780238Y-15628143D01*
X9799286Y-15637667D01*
X9808810Y-15656714D01*
X9808810Y-15675762D01*
X9713571Y-15694809D01*
X9885000Y-15751952D02*
X9904048Y-15761476D01*
X9942143Y-15761476D01*
X9961190Y-15751952D01*
X9970714Y-15732905D01*
X9970714Y-15723381D01*
X9961190Y-15704333D01*
X9942143Y-15694809D01*
X9913571Y-15694809D01*
X9894524Y-15685286D01*
X9885000Y-15666238D01*
X9885000Y-15656714D01*
X9894524Y-15637667D01*
X9913571Y-15628143D01*
X9942143Y-15628143D01*
X9961190Y-15637667D01*
X10037381Y-15837667D02*
X10046905Y-15828143D01*
X10065952Y-15799571D01*
X10075476Y-15780524D01*
X10085000Y-15751952D01*
X10094524Y-15704333D01*
X10094524Y-15666238D01*
X10085000Y-15618619D01*
X10075476Y-15590048D01*
X10065952Y-15571000D01*
X10046905Y-15542428D01*
X10037381Y-15532905D01*
D17*
X4955000Y-15875000D02*
X5075000Y-15995000D01*
X5075000Y-15875000D02*
X4955000Y-15995000D01*
X5075000Y-15935000D02*
G75*
G03*
X5075000Y-15935000I-60000J0D01*
G01*
D11*
X5437381Y-16025476D02*
X5323095Y-16025476D01*
X5380238Y-16025476D02*
X5380238Y-15825476D01*
X5361190Y-15854048D01*
X5342143Y-15873095D01*
X5323095Y-15882619D01*
X5523095Y-16006428D02*
X5532619Y-16015952D01*
X5523095Y-16025476D01*
X5513571Y-16015952D01*
X5523095Y-16006428D01*
X5523095Y-16025476D01*
X5608809Y-15844524D02*
X5618333Y-15835000D01*
X5637381Y-15825476D01*
X5685000Y-15825476D01*
X5704048Y-15835000D01*
X5713571Y-15844524D01*
X5723095Y-15863571D01*
X5723095Y-15882619D01*
X5713571Y-15911190D01*
X5599286Y-16025476D01*
X5723095Y-16025476D01*
X5846905Y-15825476D02*
X5865952Y-15825476D01*
X5885000Y-15835000D01*
X5894524Y-15844524D01*
X5904048Y-15863571D01*
X5913571Y-15901667D01*
X5913571Y-15949286D01*
X5904048Y-15987381D01*
X5894524Y-16006428D01*
X5885000Y-16015952D01*
X5865952Y-16025476D01*
X5846905Y-16025476D01*
X5827857Y-16015952D01*
X5818333Y-16006428D01*
X5808809Y-15987381D01*
X5799286Y-15949286D01*
X5799286Y-15901667D01*
X5808809Y-15863571D01*
X5818333Y-15844524D01*
X5827857Y-15835000D01*
X5846905Y-15825476D01*
X6037381Y-15825476D02*
X6056428Y-15825476D01*
X6075476Y-15835000D01*
X6085000Y-15844524D01*
X6094524Y-15863571D01*
X6104048Y-15901667D01*
X6104048Y-15949286D01*
X6094524Y-15987381D01*
X6085000Y-16006428D01*
X6075476Y-16015952D01*
X6056428Y-16025476D01*
X6037381Y-16025476D01*
X6018333Y-16015952D01*
X6008809Y-16006428D01*
X5999286Y-15987381D01*
X5989762Y-15949286D01*
X5989762Y-15901667D01*
X5999286Y-15863571D01*
X6008809Y-15844524D01*
X6018333Y-15835000D01*
X6037381Y-15825476D01*
X6189762Y-16025476D02*
X6189762Y-15892143D01*
X6189762Y-15911190D02*
X6199286Y-15901667D01*
X6218333Y-15892143D01*
X6246905Y-15892143D01*
X6265952Y-15901667D01*
X6275476Y-15920714D01*
X6275476Y-16025476D01*
X6275476Y-15920714D02*
X6285000Y-15901667D01*
X6304048Y-15892143D01*
X6332619Y-15892143D01*
X6351667Y-15901667D01*
X6361190Y-15920714D01*
X6361190Y-16025476D01*
X6456428Y-16025476D02*
X6456428Y-15892143D01*
X6456428Y-15911190D02*
X6465952Y-15901667D01*
X6485000Y-15892143D01*
X6513571Y-15892143D01*
X6532619Y-15901667D01*
X6542143Y-15920714D01*
X6542143Y-16025476D01*
X6542143Y-15920714D02*
X6551667Y-15901667D01*
X6570714Y-15892143D01*
X6599286Y-15892143D01*
X6618333Y-15901667D01*
X6627857Y-15920714D01*
X6627857Y-16025476D01*
X7018333Y-15815952D02*
X6846905Y-16073095D01*
X7275476Y-15825476D02*
X7294524Y-15825476D01*
X7313571Y-15835000D01*
X7323095Y-15844524D01*
X7332619Y-15863571D01*
X7342143Y-15901667D01*
X7342143Y-15949286D01*
X7332619Y-15987381D01*
X7323095Y-16006428D01*
X7313571Y-16015952D01*
X7294524Y-16025476D01*
X7275476Y-16025476D01*
X7256428Y-16015952D01*
X7246905Y-16006428D01*
X7237381Y-15987381D01*
X7227857Y-15949286D01*
X7227857Y-15901667D01*
X7237381Y-15863571D01*
X7246905Y-15844524D01*
X7256428Y-15835000D01*
X7275476Y-15825476D01*
X7427857Y-16006428D02*
X7437381Y-16015952D01*
X7427857Y-16025476D01*
X7418333Y-16015952D01*
X7427857Y-16006428D01*
X7427857Y-16025476D01*
X7561190Y-15825476D02*
X7580238Y-15825476D01*
X7599286Y-15835000D01*
X7608809Y-15844524D01*
X7618333Y-15863571D01*
X7627857Y-15901667D01*
X7627857Y-15949286D01*
X7618333Y-15987381D01*
X7608809Y-16006428D01*
X7599286Y-16015952D01*
X7580238Y-16025476D01*
X7561190Y-16025476D01*
X7542143Y-16015952D01*
X7532619Y-16006428D01*
X7523095Y-15987381D01*
X7513571Y-15949286D01*
X7513571Y-15901667D01*
X7523095Y-15863571D01*
X7532619Y-15844524D01*
X7542143Y-15835000D01*
X7561190Y-15825476D01*
X7799286Y-15892143D02*
X7799286Y-16025476D01*
X7751667Y-15815952D02*
X7704048Y-15958809D01*
X7827857Y-15958809D01*
X7885000Y-15825476D02*
X8018333Y-15825476D01*
X7932619Y-16025476D01*
X8085000Y-15844524D02*
X8094524Y-15835000D01*
X8113571Y-15825476D01*
X8161190Y-15825476D01*
X8180238Y-15835000D01*
X8189762Y-15844524D01*
X8199286Y-15863571D01*
X8199286Y-15882619D01*
X8189762Y-15911190D01*
X8075476Y-16025476D01*
X8199286Y-16025476D01*
X8275476Y-15825476D02*
X8275476Y-15863571D01*
X8351667Y-15825476D02*
X8351667Y-15863571D01*
X8646905Y-16101667D02*
X8637381Y-16092143D01*
X8618333Y-16063571D01*
X8608810Y-16044524D01*
X8599286Y-16015952D01*
X8589762Y-15968333D01*
X8589762Y-15930238D01*
X8599286Y-15882619D01*
X8608810Y-15854048D01*
X8618333Y-15835000D01*
X8637381Y-15806428D01*
X8646905Y-15796905D01*
X8713571Y-15844524D02*
X8723095Y-15835000D01*
X8742143Y-15825476D01*
X8789762Y-15825476D01*
X8808810Y-15835000D01*
X8818333Y-15844524D01*
X8827857Y-15863571D01*
X8827857Y-15882619D01*
X8818333Y-15911190D01*
X8704048Y-16025476D01*
X8827857Y-16025476D01*
X9065952Y-16025476D02*
X9065952Y-15825476D01*
X9151667Y-16025476D02*
X9151667Y-15920714D01*
X9142143Y-15901667D01*
X9123095Y-15892143D01*
X9094524Y-15892143D01*
X9075476Y-15901667D01*
X9065952Y-15911190D01*
X9275476Y-16025476D02*
X9256429Y-16015952D01*
X9246905Y-16006428D01*
X9237381Y-15987381D01*
X9237381Y-15930238D01*
X9246905Y-15911190D01*
X9256429Y-15901667D01*
X9275476Y-15892143D01*
X9304048Y-15892143D01*
X9323095Y-15901667D01*
X9332619Y-15911190D01*
X9342143Y-15930238D01*
X9342143Y-15987381D01*
X9332619Y-16006428D01*
X9323095Y-16015952D01*
X9304048Y-16025476D01*
X9275476Y-16025476D01*
X9456429Y-16025476D02*
X9437381Y-16015952D01*
X9427857Y-15996905D01*
X9427857Y-15825476D01*
X9608810Y-16015952D02*
X9589762Y-16025476D01*
X9551667Y-16025476D01*
X9532619Y-16015952D01*
X9523095Y-15996905D01*
X9523095Y-15920714D01*
X9532619Y-15901667D01*
X9551667Y-15892143D01*
X9589762Y-15892143D01*
X9608810Y-15901667D01*
X9618333Y-15920714D01*
X9618333Y-15939762D01*
X9523095Y-15958809D01*
X9694524Y-16015952D02*
X9713571Y-16025476D01*
X9751667Y-16025476D01*
X9770714Y-16015952D01*
X9780238Y-15996905D01*
X9780238Y-15987381D01*
X9770714Y-15968333D01*
X9751667Y-15958809D01*
X9723095Y-15958809D01*
X9704048Y-15949286D01*
X9694524Y-15930238D01*
X9694524Y-15920714D01*
X9704048Y-15901667D01*
X9723095Y-15892143D01*
X9751667Y-15892143D01*
X9770714Y-15901667D01*
X9846905Y-16101667D02*
X9856429Y-16092143D01*
X9875476Y-16063571D01*
X9885000Y-16044524D01*
X9894524Y-16015952D01*
X9904048Y-15968333D01*
X9904048Y-15930238D01*
X9894524Y-15882619D01*
X9885000Y-15854048D01*
X9875476Y-15835000D01*
X9856429Y-15806428D01*
X9846905Y-15796905D01*
X4875000Y-16099000D02*
X5075000Y-16299000D01*
X5075000Y-16099000D02*
X4875000Y-16299000D01*
X4975000Y-16099000D02*
X4975000Y-16299000D01*
X4875000Y-16199000D02*
X5075000Y-16199000D01*
X5323095Y-16108524D02*
X5332619Y-16099000D01*
X5351667Y-16089476D01*
X5399286Y-16089476D01*
X5418333Y-16099000D01*
X5427857Y-16108524D01*
X5437381Y-16127571D01*
X5437381Y-16146619D01*
X5427857Y-16175190D01*
X5313571Y-16289476D01*
X5437381Y-16289476D01*
X5523095Y-16270428D02*
X5532619Y-16279952D01*
X5523095Y-16289476D01*
X5513571Y-16279952D01*
X5523095Y-16270428D01*
X5523095Y-16289476D01*
X5656428Y-16089476D02*
X5675476Y-16089476D01*
X5694524Y-16099000D01*
X5704048Y-16108524D01*
X5713571Y-16127571D01*
X5723095Y-16165667D01*
X5723095Y-16213286D01*
X5713571Y-16251381D01*
X5704048Y-16270428D01*
X5694524Y-16279952D01*
X5675476Y-16289476D01*
X5656428Y-16289476D01*
X5637381Y-16279952D01*
X5627857Y-16270428D01*
X5618333Y-16251381D01*
X5608809Y-16213286D01*
X5608809Y-16165667D01*
X5618333Y-16127571D01*
X5627857Y-16108524D01*
X5637381Y-16099000D01*
X5656428Y-16089476D01*
X5913571Y-16289476D02*
X5799286Y-16289476D01*
X5856428Y-16289476D02*
X5856428Y-16089476D01*
X5837381Y-16118048D01*
X5818333Y-16137095D01*
X5799286Y-16146619D01*
X6037381Y-16089476D02*
X6056428Y-16089476D01*
X6075476Y-16099000D01*
X6085000Y-16108524D01*
X6094524Y-16127571D01*
X6104048Y-16165667D01*
X6104048Y-16213286D01*
X6094524Y-16251381D01*
X6085000Y-16270428D01*
X6075476Y-16279952D01*
X6056428Y-16289476D01*
X6037381Y-16289476D01*
X6018333Y-16279952D01*
X6008809Y-16270428D01*
X5999286Y-16251381D01*
X5989762Y-16213286D01*
X5989762Y-16165667D01*
X5999286Y-16127571D01*
X6008809Y-16108524D01*
X6018333Y-16099000D01*
X6037381Y-16089476D01*
X6189762Y-16289476D02*
X6189762Y-16156143D01*
X6189762Y-16175190D02*
X6199286Y-16165667D01*
X6218333Y-16156143D01*
X6246905Y-16156143D01*
X6265952Y-16165667D01*
X6275476Y-16184714D01*
X6275476Y-16289476D01*
X6275476Y-16184714D02*
X6285000Y-16165667D01*
X6304048Y-16156143D01*
X6332619Y-16156143D01*
X6351667Y-16165667D01*
X6361190Y-16184714D01*
X6361190Y-16289476D01*
X6456428Y-16289476D02*
X6456428Y-16156143D01*
X6456428Y-16175190D02*
X6465952Y-16165667D01*
X6485000Y-16156143D01*
X6513571Y-16156143D01*
X6532619Y-16165667D01*
X6542143Y-16184714D01*
X6542143Y-16289476D01*
X6542143Y-16184714D02*
X6551667Y-16165667D01*
X6570714Y-16156143D01*
X6599286Y-16156143D01*
X6618333Y-16165667D01*
X6627857Y-16184714D01*
X6627857Y-16289476D01*
X7018333Y-16079952D02*
X6846905Y-16337095D01*
X7275476Y-16089476D02*
X7294524Y-16089476D01*
X7313571Y-16099000D01*
X7323095Y-16108524D01*
X7332619Y-16127571D01*
X7342143Y-16165667D01*
X7342143Y-16213286D01*
X7332619Y-16251381D01*
X7323095Y-16270428D01*
X7313571Y-16279952D01*
X7294524Y-16289476D01*
X7275476Y-16289476D01*
X7256428Y-16279952D01*
X7246905Y-16270428D01*
X7237381Y-16251381D01*
X7227857Y-16213286D01*
X7227857Y-16165667D01*
X7237381Y-16127571D01*
X7246905Y-16108524D01*
X7256428Y-16099000D01*
X7275476Y-16089476D01*
X7427857Y-16270428D02*
X7437381Y-16279952D01*
X7427857Y-16289476D01*
X7418333Y-16279952D01*
X7427857Y-16270428D01*
X7427857Y-16289476D01*
X7561190Y-16089476D02*
X7580238Y-16089476D01*
X7599286Y-16099000D01*
X7608809Y-16108524D01*
X7618333Y-16127571D01*
X7627857Y-16165667D01*
X7627857Y-16213286D01*
X7618333Y-16251381D01*
X7608809Y-16270428D01*
X7599286Y-16279952D01*
X7580238Y-16289476D01*
X7561190Y-16289476D01*
X7542143Y-16279952D01*
X7532619Y-16270428D01*
X7523095Y-16251381D01*
X7513571Y-16213286D01*
X7513571Y-16165667D01*
X7523095Y-16127571D01*
X7532619Y-16108524D01*
X7542143Y-16099000D01*
X7561190Y-16089476D01*
X7694524Y-16089476D02*
X7827857Y-16089476D01*
X7742143Y-16289476D01*
X7913571Y-16289476D02*
X7951667Y-16289476D01*
X7970714Y-16279952D01*
X7980238Y-16270428D01*
X7999286Y-16241857D01*
X8008809Y-16203762D01*
X8008809Y-16127571D01*
X7999286Y-16108524D01*
X7989762Y-16099000D01*
X7970714Y-16089476D01*
X7932619Y-16089476D01*
X7913571Y-16099000D01*
X7904048Y-16108524D01*
X7894524Y-16127571D01*
X7894524Y-16175190D01*
X7904048Y-16194238D01*
X7913571Y-16203762D01*
X7932619Y-16213286D01*
X7970714Y-16213286D01*
X7989762Y-16203762D01*
X7999286Y-16194238D01*
X8008809Y-16175190D01*
X8199286Y-16289476D02*
X8085000Y-16289476D01*
X8142143Y-16289476D02*
X8142143Y-16089476D01*
X8123095Y-16118048D01*
X8104048Y-16137095D01*
X8085000Y-16146619D01*
X8275476Y-16089476D02*
X8275476Y-16127571D01*
X8351667Y-16089476D02*
X8351667Y-16127571D01*
X8646905Y-16365667D02*
X8637381Y-16356143D01*
X8618333Y-16327571D01*
X8608810Y-16308524D01*
X8599286Y-16279952D01*
X8589762Y-16232333D01*
X8589762Y-16194238D01*
X8599286Y-16146619D01*
X8608810Y-16118048D01*
X8618333Y-16099000D01*
X8637381Y-16070428D01*
X8646905Y-16060905D01*
X8713571Y-16108524D02*
X8723095Y-16099000D01*
X8742143Y-16089476D01*
X8789762Y-16089476D01*
X8808810Y-16099000D01*
X8818333Y-16108524D01*
X8827857Y-16127571D01*
X8827857Y-16146619D01*
X8818333Y-16175190D01*
X8704048Y-16289476D01*
X8827857Y-16289476D01*
X9065952Y-16289476D02*
X9065952Y-16089476D01*
X9151667Y-16289476D02*
X9151667Y-16184714D01*
X9142143Y-16165667D01*
X9123095Y-16156143D01*
X9094524Y-16156143D01*
X9075476Y-16165667D01*
X9065952Y-16175190D01*
X9275476Y-16289476D02*
X9256429Y-16279952D01*
X9246905Y-16270428D01*
X9237381Y-16251381D01*
X9237381Y-16194238D01*
X9246905Y-16175190D01*
X9256429Y-16165667D01*
X9275476Y-16156143D01*
X9304048Y-16156143D01*
X9323095Y-16165667D01*
X9332619Y-16175190D01*
X9342143Y-16194238D01*
X9342143Y-16251381D01*
X9332619Y-16270428D01*
X9323095Y-16279952D01*
X9304048Y-16289476D01*
X9275476Y-16289476D01*
X9456429Y-16289476D02*
X9437381Y-16279952D01*
X9427857Y-16260905D01*
X9427857Y-16089476D01*
X9608810Y-16279952D02*
X9589762Y-16289476D01*
X9551667Y-16289476D01*
X9532619Y-16279952D01*
X9523095Y-16260905D01*
X9523095Y-16184714D01*
X9532619Y-16165667D01*
X9551667Y-16156143D01*
X9589762Y-16156143D01*
X9608810Y-16165667D01*
X9618333Y-16184714D01*
X9618333Y-16203762D01*
X9523095Y-16222809D01*
X9694524Y-16279952D02*
X9713571Y-16289476D01*
X9751667Y-16289476D01*
X9770714Y-16279952D01*
X9780238Y-16260905D01*
X9780238Y-16251381D01*
X9770714Y-16232333D01*
X9751667Y-16222809D01*
X9723095Y-16222809D01*
X9704048Y-16213286D01*
X9694524Y-16194238D01*
X9694524Y-16184714D01*
X9704048Y-16165667D01*
X9723095Y-16156143D01*
X9751667Y-16156143D01*
X9770714Y-16165667D01*
X9846905Y-16365667D02*
X9856429Y-16356143D01*
X9875476Y-16327571D01*
X9885000Y-16308524D01*
X9894524Y-16279952D01*
X9904048Y-16232333D01*
X9904048Y-16194238D01*
X9894524Y-16146619D01*
X9885000Y-16118048D01*
X9875476Y-16099000D01*
X9856429Y-16070428D01*
X9846905Y-16060905D01*
M02*
