M48
METRIC,TZ
T1C0.400
T2C0.800
T3C0.890
T4C1.000
T5C1.020
T6C1.200
T7C2.010
%
G90
G05
T1
X66675Y-103505
X70485Y-105410
X71120Y-107950
X71779Y-107198
X111125Y-94615
X116840Y-72390
X116840Y-95885
X120650Y-109220
X121285Y-99060
X121285Y-102870
X121920Y-78232
X123952Y-78232
X124460Y-107950
X127000Y-67584
X127000Y-97977
X128270Y-66040
X129540Y-67584
X132080Y-75692
X132080Y-97977
X132495Y-73753
X133604Y-74168
X134620Y-65532
X135128Y-78232
X135269Y-76393
X135890Y-73025
X139065Y-73025
T3
X63810Y-128270
X63810Y-130810
T4
X83820Y-102235
X83820Y-106680
X83820Y-111760
X93345Y-133985
X102616Y-130048
X107696Y-130048
X115570Y-69850
X116205Y-93533
X118364Y-120904
X118364Y-125984
X120015Y-59690
X122555Y-93533
X126492Y-76200
X129032Y-130048
X130810Y-110490
X133350Y-93533
X134112Y-130048
X135890Y-87884
X140335Y-76200
X141605Y-93533
X142875Y-57150
T5
X53975Y-75565
X53975Y-93345
X56515Y-75565
X56515Y-93345
X59055Y-75565
X59055Y-93345
X61595Y-75565
X61595Y-93345
X64135Y-75565
X64135Y-93345
X66675Y-75565
X66675Y-93345
X69215Y-75565
X69215Y-93345
X71755Y-75565
X71755Y-93345
X74295Y-75565
X74295Y-93345
X76835Y-75565
X76835Y-93345
X79375Y-75565
X79375Y-93345
X81915Y-75565
X81915Y-93345
X84455Y-75565
X84455Y-93345
X86995Y-75565
X86995Y-93345
X89535Y-75565
X89535Y-93345
X92075Y-75565
X92075Y-93345
X94615Y-75565
X94615Y-93345
X97155Y-75565
X97155Y-93345
X99695Y-75565
X99695Y-93345
X102005Y-81915
X102005Y-84455
X102005Y-86995
X102235Y-75565
X102235Y-93345
T6
X106172Y-50369
X106172Y-57869
T7
X58730Y-123190
X58730Y-133350
T2
G00X127080Y-55958
M15
G01X127080Y-56658
M16
G05
G00X129580Y-55958
M15
G01X129580Y-56658
M16
G05
G00X132430Y-51308
M15
G01X131730Y-51308
M16
G05
G00X134580Y-55958
M15
G01X134580Y-56658
M16
G05
G00X137080Y-55958
M15
G01X137080Y-56658
M16
G05
T0
M30
