%TF.GenerationSoftware,KiCad,Pcbnew,(6.0.4-0)*%
%TF.CreationDate,2022-04-29T09:39:16-07:00*%
%TF.ProjectId,Receiver Schematic,52656365-6976-4657-9220-536368656d61,rev?*%
%TF.SameCoordinates,Original*%
%TF.FileFunction,Legend,Top*%
%TF.FilePolarity,Positive*%
%FSLAX46Y46*%
G04 Gerber Fmt 4.6, Leading zero omitted, Abs format (unit mm)*
G04 Created by KiCad (PCBNEW (6.0.4-0)) date 2022-04-29 09:39:16*
%MOMM*%
%LPD*%
G01*
G04 APERTURE LIST*
%ADD10C,0.150000*%
%ADD11C,0.120000*%
%ADD12C,0.127000*%
%ADD13C,0.340000*%
G04 APERTURE END LIST*
D10*
X107950000Y-91440000D02*
X107950000Y-99060000D01*
X86360000Y-99060000D02*
X86360000Y-115570000D01*
X114300000Y-91440000D02*
X114300000Y-99060000D01*
X111760000Y-63500000D02*
X76835000Y-63500000D01*
X138430000Y-138430000D02*
X95885000Y-138430000D01*
X145415000Y-108585000D02*
X145415000Y-91440000D01*
X116205000Y-108585000D02*
X145415000Y-108585000D01*
X59690000Y-99060000D02*
X61595000Y-99060000D01*
X116205000Y-99060000D02*
X116205000Y-108585000D01*
X138430000Y-119380000D02*
X138430000Y-138430000D01*
X107950000Y-91440000D02*
X107950000Y-90805000D01*
X95885000Y-123190000D02*
X95885000Y-119380000D01*
X76835000Y-63500000D02*
X76835000Y-45085000D01*
X51435000Y-99060000D02*
X51435000Y-67945000D01*
X118110000Y-63500000D02*
X118110000Y-45085000D01*
X111760000Y-63500000D02*
X111760000Y-67945000D01*
X145415000Y-90805000D02*
X145415000Y-91440000D01*
X59690000Y-115570000D02*
X59690000Y-99060000D01*
X114300000Y-91440000D02*
X114300000Y-90805000D01*
X95885000Y-124460000D02*
X95885000Y-138430000D01*
X114300000Y-99060000D02*
X116205000Y-99060000D01*
X59690000Y-99060000D02*
X51435000Y-99060000D01*
X111760000Y-63500000D02*
X118110000Y-63500000D01*
X111760000Y-90805000D02*
X107950000Y-90805000D01*
X86360000Y-115570000D02*
X59690000Y-115570000D01*
X76835000Y-45085000D02*
X118110000Y-45085000D01*
X145415000Y-90805000D02*
X111760000Y-90805000D01*
X95885000Y-123190000D02*
X95885000Y-124460000D01*
X86360000Y-99060000D02*
X107950000Y-99060000D01*
X111760000Y-67945000D02*
X111760000Y-90805000D01*
X51435000Y-67945000D02*
X111760000Y-67945000D01*
X61595000Y-99060000D02*
X86360000Y-99060000D01*
X86360000Y-108585000D02*
X116205000Y-108585000D01*
X95885000Y-119380000D02*
X138430000Y-119380000D01*
X71470000Y-69667380D02*
X71136666Y-69191190D01*
X70898571Y-69667380D02*
X70898571Y-68667380D01*
X71279523Y-68667380D01*
X71374761Y-68715000D01*
X71422380Y-68762619D01*
X71470000Y-68857857D01*
X71470000Y-69000714D01*
X71422380Y-69095952D01*
X71374761Y-69143571D01*
X71279523Y-69191190D01*
X70898571Y-69191190D01*
X72327142Y-69667380D02*
X72327142Y-69143571D01*
X72279523Y-69048333D01*
X72184285Y-69000714D01*
X71993809Y-69000714D01*
X71898571Y-69048333D01*
X72327142Y-69619761D02*
X72231904Y-69667380D01*
X71993809Y-69667380D01*
X71898571Y-69619761D01*
X71850952Y-69524523D01*
X71850952Y-69429285D01*
X71898571Y-69334047D01*
X71993809Y-69286428D01*
X72231904Y-69286428D01*
X72327142Y-69238809D01*
X72755714Y-69619761D02*
X72850952Y-69667380D01*
X73041428Y-69667380D01*
X73136666Y-69619761D01*
X73184285Y-69524523D01*
X73184285Y-69476904D01*
X73136666Y-69381666D01*
X73041428Y-69334047D01*
X72898571Y-69334047D01*
X72803333Y-69286428D01*
X72755714Y-69191190D01*
X72755714Y-69143571D01*
X72803333Y-69048333D01*
X72898571Y-69000714D01*
X73041428Y-69000714D01*
X73136666Y-69048333D01*
X73612857Y-69000714D02*
X73612857Y-70000714D01*
X73612857Y-69048333D02*
X73708095Y-69000714D01*
X73898571Y-69000714D01*
X73993809Y-69048333D01*
X74041428Y-69095952D01*
X74089047Y-69191190D01*
X74089047Y-69476904D01*
X74041428Y-69572142D01*
X73993809Y-69619761D01*
X73898571Y-69667380D01*
X73708095Y-69667380D01*
X73612857Y-69619761D01*
X74517619Y-69667380D02*
X74517619Y-68667380D01*
X74517619Y-69048333D02*
X74612857Y-69000714D01*
X74803333Y-69000714D01*
X74898571Y-69048333D01*
X74946190Y-69095952D01*
X74993809Y-69191190D01*
X74993809Y-69476904D01*
X74946190Y-69572142D01*
X74898571Y-69619761D01*
X74803333Y-69667380D01*
X74612857Y-69667380D01*
X74517619Y-69619761D01*
X75803333Y-69619761D02*
X75708095Y-69667380D01*
X75517619Y-69667380D01*
X75422380Y-69619761D01*
X75374761Y-69524523D01*
X75374761Y-69143571D01*
X75422380Y-69048333D01*
X75517619Y-69000714D01*
X75708095Y-69000714D01*
X75803333Y-69048333D01*
X75850952Y-69143571D01*
X75850952Y-69238809D01*
X75374761Y-69334047D01*
X76279523Y-69667380D02*
X76279523Y-69000714D01*
X76279523Y-69191190D02*
X76327142Y-69095952D01*
X76374761Y-69048333D01*
X76470000Y-69000714D01*
X76565238Y-69000714D01*
X76898571Y-69667380D02*
X76898571Y-69000714D01*
X76898571Y-69191190D02*
X76946190Y-69095952D01*
X76993809Y-69048333D01*
X77089047Y-69000714D01*
X77184285Y-69000714D01*
X77422380Y-69000714D02*
X77660476Y-69667380D01*
X77898571Y-69000714D02*
X77660476Y-69667380D01*
X77565238Y-69905476D01*
X77517619Y-69953095D01*
X77422380Y-70000714D01*
X79041428Y-69667380D02*
X79041428Y-68667380D01*
X79422380Y-68667380D01*
X79517619Y-68715000D01*
X79565238Y-68762619D01*
X79612857Y-68857857D01*
X79612857Y-69000714D01*
X79565238Y-69095952D01*
X79517619Y-69143571D01*
X79422380Y-69191190D01*
X79041428Y-69191190D01*
X80041428Y-69667380D02*
X80041428Y-69000714D01*
X80041428Y-68667380D02*
X79993809Y-68715000D01*
X80041428Y-68762619D01*
X80089047Y-68715000D01*
X80041428Y-68667380D01*
X80041428Y-68762619D01*
X81279523Y-69667380D02*
X81279523Y-68667380D01*
X81660476Y-68667380D01*
X81755714Y-68715000D01*
X81803333Y-68762619D01*
X81850952Y-68857857D01*
X81850952Y-69000714D01*
X81803333Y-69095952D01*
X81755714Y-69143571D01*
X81660476Y-69191190D01*
X81279523Y-69191190D01*
X82279523Y-69667380D02*
X82279523Y-69000714D01*
X82279523Y-68667380D02*
X82231904Y-68715000D01*
X82279523Y-68762619D01*
X82327142Y-68715000D01*
X82279523Y-68667380D01*
X82279523Y-68762619D01*
X83184285Y-69619761D02*
X83089047Y-69667380D01*
X82898571Y-69667380D01*
X82803333Y-69619761D01*
X82755714Y-69572142D01*
X82708095Y-69476904D01*
X82708095Y-69191190D01*
X82755714Y-69095952D01*
X82803333Y-69048333D01*
X82898571Y-69000714D01*
X83089047Y-69000714D01*
X83184285Y-69048333D01*
X83755714Y-69667380D02*
X83660476Y-69619761D01*
X83612857Y-69572142D01*
X83565238Y-69476904D01*
X83565238Y-69191190D01*
X83612857Y-69095952D01*
X83660476Y-69048333D01*
X83755714Y-69000714D01*
X83898571Y-69000714D01*
X83993809Y-69048333D01*
X84041428Y-69095952D01*
X84089047Y-69191190D01*
X84089047Y-69476904D01*
X84041428Y-69572142D01*
X83993809Y-69619761D01*
X83898571Y-69667380D01*
X83755714Y-69667380D01*
X119920571Y-81392380D02*
X119920571Y-80392380D01*
X120253904Y-81106666D01*
X120587238Y-80392380D01*
X120587238Y-81392380D01*
X121492000Y-80725714D02*
X121492000Y-81392380D01*
X121063428Y-80725714D02*
X121063428Y-81249523D01*
X121111047Y-81344761D01*
X121206285Y-81392380D01*
X121349142Y-81392380D01*
X121444380Y-81344761D01*
X121492000Y-81297142D01*
X122111047Y-81392380D02*
X122015809Y-81344761D01*
X121968190Y-81249523D01*
X121968190Y-80392380D01*
X122349142Y-80725714D02*
X122730095Y-80725714D01*
X122492000Y-80392380D02*
X122492000Y-81249523D01*
X122539619Y-81344761D01*
X122634857Y-81392380D01*
X122730095Y-81392380D01*
X123063428Y-81392380D02*
X123063428Y-80725714D01*
X123063428Y-80392380D02*
X123015809Y-80440000D01*
X123063428Y-80487619D01*
X123111047Y-80440000D01*
X123063428Y-80392380D01*
X123063428Y-80487619D01*
X123539619Y-80725714D02*
X123539619Y-81725714D01*
X123539619Y-80773333D02*
X123634857Y-80725714D01*
X123825333Y-80725714D01*
X123920571Y-80773333D01*
X123968190Y-80820952D01*
X124015809Y-80916190D01*
X124015809Y-81201904D01*
X123968190Y-81297142D01*
X123920571Y-81344761D01*
X123825333Y-81392380D01*
X123634857Y-81392380D01*
X123539619Y-81344761D01*
X124587238Y-81392380D02*
X124492000Y-81344761D01*
X124444380Y-81249523D01*
X124444380Y-80392380D01*
X125349142Y-81344761D02*
X125253904Y-81392380D01*
X125063428Y-81392380D01*
X124968190Y-81344761D01*
X124920571Y-81249523D01*
X124920571Y-80868571D01*
X124968190Y-80773333D01*
X125063428Y-80725714D01*
X125253904Y-80725714D01*
X125349142Y-80773333D01*
X125396761Y-80868571D01*
X125396761Y-80963809D01*
X124920571Y-81059047D01*
X126920571Y-80868571D02*
X126587238Y-80868571D01*
X126587238Y-81392380D02*
X126587238Y-80392380D01*
X127063428Y-80392380D01*
X127825333Y-81344761D02*
X127730095Y-81392380D01*
X127539619Y-81392380D01*
X127444380Y-81344761D01*
X127396761Y-81249523D01*
X127396761Y-80868571D01*
X127444380Y-80773333D01*
X127539619Y-80725714D01*
X127730095Y-80725714D01*
X127825333Y-80773333D01*
X127872952Y-80868571D01*
X127872952Y-80963809D01*
X127396761Y-81059047D01*
X128682476Y-81344761D02*
X128587238Y-81392380D01*
X128396761Y-81392380D01*
X128301523Y-81344761D01*
X128253904Y-81249523D01*
X128253904Y-80868571D01*
X128301523Y-80773333D01*
X128396761Y-80725714D01*
X128587238Y-80725714D01*
X128682476Y-80773333D01*
X128730095Y-80868571D01*
X128730095Y-80963809D01*
X128253904Y-81059047D01*
X129587238Y-81392380D02*
X129587238Y-80392380D01*
X129587238Y-81344761D02*
X129492000Y-81392380D01*
X129301523Y-81392380D01*
X129206285Y-81344761D01*
X129158666Y-81297142D01*
X129111047Y-81201904D01*
X129111047Y-80916190D01*
X129158666Y-80820952D01*
X129206285Y-80773333D01*
X129301523Y-80725714D01*
X129492000Y-80725714D01*
X129587238Y-80773333D01*
X130063428Y-81392380D02*
X130063428Y-80392380D01*
X130063428Y-80773333D02*
X130158666Y-80725714D01*
X130349142Y-80725714D01*
X130444380Y-80773333D01*
X130492000Y-80820952D01*
X130539619Y-80916190D01*
X130539619Y-81201904D01*
X130492000Y-81297142D01*
X130444380Y-81344761D01*
X130349142Y-81392380D01*
X130158666Y-81392380D01*
X130063428Y-81344761D01*
X131396761Y-81392380D02*
X131396761Y-80868571D01*
X131349142Y-80773333D01*
X131253904Y-80725714D01*
X131063428Y-80725714D01*
X130968190Y-80773333D01*
X131396761Y-81344761D02*
X131301523Y-81392380D01*
X131063428Y-81392380D01*
X130968190Y-81344761D01*
X130920571Y-81249523D01*
X130920571Y-81154285D01*
X130968190Y-81059047D01*
X131063428Y-81011428D01*
X131301523Y-81011428D01*
X131396761Y-80963809D01*
X132301523Y-81344761D02*
X132206285Y-81392380D01*
X132015809Y-81392380D01*
X131920571Y-81344761D01*
X131872952Y-81297142D01*
X131825333Y-81201904D01*
X131825333Y-80916190D01*
X131872952Y-80820952D01*
X131920571Y-80773333D01*
X132015809Y-80725714D01*
X132206285Y-80725714D01*
X132301523Y-80773333D01*
X132730095Y-81392380D02*
X132730095Y-80392380D01*
X132825333Y-81011428D02*
X133111047Y-81392380D01*
X133111047Y-80725714D02*
X132730095Y-81106666D01*
X119992000Y-83002380D02*
X119515809Y-83002380D01*
X119515809Y-82002380D01*
X120468190Y-83002380D02*
X120372952Y-82954761D01*
X120325333Y-82907142D01*
X120277714Y-82811904D01*
X120277714Y-82526190D01*
X120325333Y-82430952D01*
X120372952Y-82383333D01*
X120468190Y-82335714D01*
X120611047Y-82335714D01*
X120706285Y-82383333D01*
X120753904Y-82430952D01*
X120801523Y-82526190D01*
X120801523Y-82811904D01*
X120753904Y-82907142D01*
X120706285Y-82954761D01*
X120611047Y-83002380D01*
X120468190Y-83002380D01*
X121134857Y-82335714D02*
X121325333Y-83002380D01*
X121515809Y-82526190D01*
X121706285Y-83002380D01*
X121896761Y-82335714D01*
X123039619Y-83002380D02*
X123039619Y-82002380D01*
X123420571Y-82002380D01*
X123515809Y-82050000D01*
X123563428Y-82097619D01*
X123611047Y-82192857D01*
X123611047Y-82335714D01*
X123563428Y-82430952D01*
X123515809Y-82478571D01*
X123420571Y-82526190D01*
X123039619Y-82526190D01*
X124468190Y-83002380D02*
X124468190Y-82478571D01*
X124420571Y-82383333D01*
X124325333Y-82335714D01*
X124134857Y-82335714D01*
X124039619Y-82383333D01*
X124468190Y-82954761D02*
X124372952Y-83002380D01*
X124134857Y-83002380D01*
X124039619Y-82954761D01*
X123992000Y-82859523D01*
X123992000Y-82764285D01*
X124039619Y-82669047D01*
X124134857Y-82621428D01*
X124372952Y-82621428D01*
X124468190Y-82573809D01*
X124896761Y-82954761D02*
X124992000Y-83002380D01*
X125182476Y-83002380D01*
X125277714Y-82954761D01*
X125325333Y-82859523D01*
X125325333Y-82811904D01*
X125277714Y-82716666D01*
X125182476Y-82669047D01*
X125039619Y-82669047D01*
X124944380Y-82621428D01*
X124896761Y-82526190D01*
X124896761Y-82478571D01*
X124944380Y-82383333D01*
X125039619Y-82335714D01*
X125182476Y-82335714D01*
X125277714Y-82383333D01*
X125706285Y-82954761D02*
X125801523Y-83002380D01*
X125992000Y-83002380D01*
X126087238Y-82954761D01*
X126134857Y-82859523D01*
X126134857Y-82811904D01*
X126087238Y-82716666D01*
X125992000Y-82669047D01*
X125849142Y-82669047D01*
X125753904Y-82621428D01*
X125706285Y-82526190D01*
X125706285Y-82478571D01*
X125753904Y-82383333D01*
X125849142Y-82335714D01*
X125992000Y-82335714D01*
X126087238Y-82383333D01*
X127277714Y-82716666D02*
X127753904Y-82716666D01*
X127182476Y-83002380D02*
X127515809Y-82002380D01*
X127849142Y-83002380D01*
X128182476Y-83002380D02*
X128182476Y-82335714D01*
X128182476Y-82430952D02*
X128230095Y-82383333D01*
X128325333Y-82335714D01*
X128468190Y-82335714D01*
X128563428Y-82383333D01*
X128611047Y-82478571D01*
X128611047Y-83002380D01*
X128611047Y-82478571D02*
X128658666Y-82383333D01*
X128753904Y-82335714D01*
X128896761Y-82335714D01*
X128992000Y-82383333D01*
X129039619Y-82478571D01*
X129039619Y-83002380D01*
X129515809Y-82335714D02*
X129515809Y-83335714D01*
X129515809Y-82383333D02*
X129611047Y-82335714D01*
X129801523Y-82335714D01*
X129896761Y-82383333D01*
X129944380Y-82430952D01*
X129992000Y-82526190D01*
X129992000Y-82811904D01*
X129944380Y-82907142D01*
X129896761Y-82954761D01*
X129801523Y-83002380D01*
X129611047Y-83002380D01*
X129515809Y-82954761D01*
X130563428Y-83002380D02*
X130468190Y-82954761D01*
X130420571Y-82859523D01*
X130420571Y-82002380D01*
X130944380Y-83002380D02*
X130944380Y-82335714D01*
X130944380Y-82002380D02*
X130896761Y-82050000D01*
X130944380Y-82097619D01*
X130992000Y-82050000D01*
X130944380Y-82002380D01*
X130944380Y-82097619D01*
X131277714Y-82335714D02*
X131658666Y-82335714D01*
X131420571Y-83002380D02*
X131420571Y-82145238D01*
X131468190Y-82050000D01*
X131563428Y-82002380D01*
X131658666Y-82002380D01*
X131992000Y-83002380D02*
X131992000Y-82335714D01*
X131992000Y-82002380D02*
X131944380Y-82050000D01*
X131992000Y-82097619D01*
X132039619Y-82050000D01*
X131992000Y-82002380D01*
X131992000Y-82097619D01*
X132849142Y-82954761D02*
X132753904Y-83002380D01*
X132563428Y-83002380D01*
X132468190Y-82954761D01*
X132420571Y-82859523D01*
X132420571Y-82478571D01*
X132468190Y-82383333D01*
X132563428Y-82335714D01*
X132753904Y-82335714D01*
X132849142Y-82383333D01*
X132896761Y-82478571D01*
X132896761Y-82573809D01*
X132420571Y-82669047D01*
X133325333Y-83002380D02*
X133325333Y-82335714D01*
X133325333Y-82526190D02*
X133372952Y-82430952D01*
X133420571Y-82383333D01*
X133515809Y-82335714D01*
X133611047Y-82335714D01*
X119968190Y-84612380D02*
X119396761Y-84612380D01*
X119682476Y-84612380D02*
X119682476Y-83612380D01*
X119587238Y-83755238D01*
X119492000Y-83850476D01*
X119396761Y-83898095D01*
X120587238Y-83612380D02*
X120682476Y-83612380D01*
X120777714Y-83660000D01*
X120825333Y-83707619D01*
X120872952Y-83802857D01*
X120920571Y-83993333D01*
X120920571Y-84231428D01*
X120872952Y-84421904D01*
X120825333Y-84517142D01*
X120777714Y-84564761D01*
X120682476Y-84612380D01*
X120587238Y-84612380D01*
X120492000Y-84564761D01*
X120444380Y-84517142D01*
X120396761Y-84421904D01*
X120349142Y-84231428D01*
X120349142Y-83993333D01*
X120396761Y-83802857D01*
X120444380Y-83707619D01*
X120492000Y-83660000D01*
X120587238Y-83612380D01*
X121539619Y-83612380D02*
X121634857Y-83612380D01*
X121730095Y-83660000D01*
X121777714Y-83707619D01*
X121825333Y-83802857D01*
X121872952Y-83993333D01*
X121872952Y-84231428D01*
X121825333Y-84421904D01*
X121777714Y-84517142D01*
X121730095Y-84564761D01*
X121634857Y-84612380D01*
X121539619Y-84612380D01*
X121444380Y-84564761D01*
X121396761Y-84517142D01*
X121349142Y-84421904D01*
X121301523Y-84231428D01*
X121301523Y-83993333D01*
X121349142Y-83802857D01*
X121396761Y-83707619D01*
X121444380Y-83660000D01*
X121539619Y-83612380D01*
X122492000Y-83612380D02*
X122587238Y-83612380D01*
X122682476Y-83660000D01*
X122730095Y-83707619D01*
X122777714Y-83802857D01*
X122825333Y-83993333D01*
X122825333Y-84231428D01*
X122777714Y-84421904D01*
X122730095Y-84517142D01*
X122682476Y-84564761D01*
X122587238Y-84612380D01*
X122492000Y-84612380D01*
X122396761Y-84564761D01*
X122349142Y-84517142D01*
X122301523Y-84421904D01*
X122253904Y-84231428D01*
X122253904Y-83993333D01*
X122301523Y-83802857D01*
X122349142Y-83707619D01*
X122396761Y-83660000D01*
X122492000Y-83612380D01*
X123872952Y-83612380D02*
X124206285Y-84612380D01*
X124539619Y-83612380D01*
X125587238Y-83564761D02*
X124730095Y-84850476D01*
X125777714Y-83612380D02*
X126111047Y-84612380D01*
X126444380Y-83612380D01*
X128063428Y-84612380D02*
X127492000Y-84612380D01*
X127777714Y-84612380D02*
X127777714Y-83612380D01*
X127682476Y-83755238D01*
X127587238Y-83850476D01*
X127492000Y-83898095D01*
X128682476Y-83612380D02*
X128777714Y-83612380D01*
X128872952Y-83660000D01*
X128920571Y-83707619D01*
X128968190Y-83802857D01*
X129015809Y-83993333D01*
X129015809Y-84231428D01*
X128968190Y-84421904D01*
X128920571Y-84517142D01*
X128872952Y-84564761D01*
X128777714Y-84612380D01*
X128682476Y-84612380D01*
X128587238Y-84564761D01*
X128539619Y-84517142D01*
X128492000Y-84421904D01*
X128444380Y-84231428D01*
X128444380Y-83993333D01*
X128492000Y-83802857D01*
X128539619Y-83707619D01*
X128587238Y-83660000D01*
X128682476Y-83612380D01*
X129634857Y-83612380D02*
X129730095Y-83612380D01*
X129825333Y-83660000D01*
X129872952Y-83707619D01*
X129920571Y-83802857D01*
X129968190Y-83993333D01*
X129968190Y-84231428D01*
X129920571Y-84421904D01*
X129872952Y-84517142D01*
X129825333Y-84564761D01*
X129730095Y-84612380D01*
X129634857Y-84612380D01*
X129539619Y-84564761D01*
X129492000Y-84517142D01*
X129444380Y-84421904D01*
X129396761Y-84231428D01*
X129396761Y-83993333D01*
X129444380Y-83802857D01*
X129492000Y-83707619D01*
X129539619Y-83660000D01*
X129634857Y-83612380D01*
X130587238Y-83612380D02*
X130682476Y-83612380D01*
X130777714Y-83660000D01*
X130825333Y-83707619D01*
X130872952Y-83802857D01*
X130920571Y-83993333D01*
X130920571Y-84231428D01*
X130872952Y-84421904D01*
X130825333Y-84517142D01*
X130777714Y-84564761D01*
X130682476Y-84612380D01*
X130587238Y-84612380D01*
X130492000Y-84564761D01*
X130444380Y-84517142D01*
X130396761Y-84421904D01*
X130349142Y-84231428D01*
X130349142Y-83993333D01*
X130396761Y-83802857D01*
X130444380Y-83707619D01*
X130492000Y-83660000D01*
X130587238Y-83612380D01*
X131349142Y-84612380D02*
X131349142Y-83612380D01*
X131444380Y-84231428D02*
X131730095Y-84612380D01*
X131730095Y-83945714D02*
X131349142Y-84326666D01*
X132158666Y-84612380D02*
X132158666Y-83612380D01*
X132158666Y-84088571D02*
X132730095Y-84088571D01*
X132730095Y-84612380D02*
X132730095Y-83612380D01*
X133111047Y-83945714D02*
X133634857Y-83945714D01*
X133111047Y-84612380D01*
X133634857Y-84612380D01*
X79153571Y-47077380D02*
X79486904Y-48077380D01*
X79820238Y-47077380D01*
X80296428Y-48077380D02*
X80201190Y-48029761D01*
X80153571Y-47982142D01*
X80105952Y-47886904D01*
X80105952Y-47601190D01*
X80153571Y-47505952D01*
X80201190Y-47458333D01*
X80296428Y-47410714D01*
X80439285Y-47410714D01*
X80534523Y-47458333D01*
X80582142Y-47505952D01*
X80629761Y-47601190D01*
X80629761Y-47886904D01*
X80582142Y-47982142D01*
X80534523Y-48029761D01*
X80439285Y-48077380D01*
X80296428Y-48077380D01*
X81201190Y-48077380D02*
X81105952Y-48029761D01*
X81058333Y-47934523D01*
X81058333Y-47077380D01*
X81439285Y-47410714D02*
X81820238Y-47410714D01*
X81582142Y-47077380D02*
X81582142Y-47934523D01*
X81629761Y-48029761D01*
X81725000Y-48077380D01*
X81820238Y-48077380D01*
X82582142Y-48077380D02*
X82582142Y-47553571D01*
X82534523Y-47458333D01*
X82439285Y-47410714D01*
X82248809Y-47410714D01*
X82153571Y-47458333D01*
X82582142Y-48029761D02*
X82486904Y-48077380D01*
X82248809Y-48077380D01*
X82153571Y-48029761D01*
X82105952Y-47934523D01*
X82105952Y-47839285D01*
X82153571Y-47744047D01*
X82248809Y-47696428D01*
X82486904Y-47696428D01*
X82582142Y-47648809D01*
X83486904Y-47410714D02*
X83486904Y-48220238D01*
X83439285Y-48315476D01*
X83391666Y-48363095D01*
X83296428Y-48410714D01*
X83153571Y-48410714D01*
X83058333Y-48363095D01*
X83486904Y-48029761D02*
X83391666Y-48077380D01*
X83201190Y-48077380D01*
X83105952Y-48029761D01*
X83058333Y-47982142D01*
X83010714Y-47886904D01*
X83010714Y-47601190D01*
X83058333Y-47505952D01*
X83105952Y-47458333D01*
X83201190Y-47410714D01*
X83391666Y-47410714D01*
X83486904Y-47458333D01*
X84344047Y-48029761D02*
X84248809Y-48077380D01*
X84058333Y-48077380D01*
X83963095Y-48029761D01*
X83915476Y-47934523D01*
X83915476Y-47553571D01*
X83963095Y-47458333D01*
X84058333Y-47410714D01*
X84248809Y-47410714D01*
X84344047Y-47458333D01*
X84391666Y-47553571D01*
X84391666Y-47648809D01*
X83915476Y-47744047D01*
X85534523Y-48029761D02*
X85677380Y-48077380D01*
X85915476Y-48077380D01*
X86010714Y-48029761D01*
X86058333Y-47982142D01*
X86105952Y-47886904D01*
X86105952Y-47791666D01*
X86058333Y-47696428D01*
X86010714Y-47648809D01*
X85915476Y-47601190D01*
X85725000Y-47553571D01*
X85629761Y-47505952D01*
X85582142Y-47458333D01*
X85534523Y-47363095D01*
X85534523Y-47267857D01*
X85582142Y-47172619D01*
X85629761Y-47125000D01*
X85725000Y-47077380D01*
X85963095Y-47077380D01*
X86105952Y-47125000D01*
X86534523Y-48077380D02*
X86534523Y-47410714D01*
X86534523Y-47505952D02*
X86582142Y-47458333D01*
X86677380Y-47410714D01*
X86820238Y-47410714D01*
X86915476Y-47458333D01*
X86963095Y-47553571D01*
X86963095Y-48077380D01*
X86963095Y-47553571D02*
X87010714Y-47458333D01*
X87105952Y-47410714D01*
X87248809Y-47410714D01*
X87344047Y-47458333D01*
X87391666Y-47553571D01*
X87391666Y-48077380D01*
X88010714Y-48077380D02*
X87915476Y-48029761D01*
X87867857Y-47982142D01*
X87820238Y-47886904D01*
X87820238Y-47601190D01*
X87867857Y-47505952D01*
X87915476Y-47458333D01*
X88010714Y-47410714D01*
X88153571Y-47410714D01*
X88248809Y-47458333D01*
X88296428Y-47505952D01*
X88344047Y-47601190D01*
X88344047Y-47886904D01*
X88296428Y-47982142D01*
X88248809Y-48029761D01*
X88153571Y-48077380D01*
X88010714Y-48077380D01*
X88915476Y-48077380D02*
X88820238Y-48029761D01*
X88772619Y-47982142D01*
X88725000Y-47886904D01*
X88725000Y-47601190D01*
X88772619Y-47505952D01*
X88820238Y-47458333D01*
X88915476Y-47410714D01*
X89058333Y-47410714D01*
X89153571Y-47458333D01*
X89201190Y-47505952D01*
X89248809Y-47601190D01*
X89248809Y-47886904D01*
X89201190Y-47982142D01*
X89153571Y-48029761D01*
X89058333Y-48077380D01*
X88915476Y-48077380D01*
X89534523Y-47410714D02*
X89915476Y-47410714D01*
X89677380Y-47077380D02*
X89677380Y-47934523D01*
X89725000Y-48029761D01*
X89820238Y-48077380D01*
X89915476Y-48077380D01*
X90248809Y-48077380D02*
X90248809Y-47077380D01*
X90677380Y-48077380D02*
X90677380Y-47553571D01*
X90629761Y-47458333D01*
X90534523Y-47410714D01*
X90391666Y-47410714D01*
X90296428Y-47458333D01*
X90248809Y-47505952D01*
X91534523Y-48029761D02*
X91439285Y-48077380D01*
X91248809Y-48077380D01*
X91153571Y-48029761D01*
X91105952Y-47934523D01*
X91105952Y-47553571D01*
X91153571Y-47458333D01*
X91248809Y-47410714D01*
X91439285Y-47410714D01*
X91534523Y-47458333D01*
X91582142Y-47553571D01*
X91582142Y-47648809D01*
X91105952Y-47744047D01*
X92010714Y-48077380D02*
X92010714Y-47410714D01*
X92010714Y-47601190D02*
X92058333Y-47505952D01*
X92105952Y-47458333D01*
X92201190Y-47410714D01*
X92296428Y-47410714D01*
X68271190Y-99528380D02*
X68461666Y-99528380D01*
X68556904Y-99576000D01*
X68652142Y-99671238D01*
X68699761Y-99861714D01*
X68699761Y-100195047D01*
X68652142Y-100385523D01*
X68556904Y-100480761D01*
X68461666Y-100528380D01*
X68271190Y-100528380D01*
X68175952Y-100480761D01*
X68080714Y-100385523D01*
X68033095Y-100195047D01*
X68033095Y-99861714D01*
X68080714Y-99671238D01*
X68175952Y-99576000D01*
X68271190Y-99528380D01*
X69080714Y-100480761D02*
X69175952Y-100528380D01*
X69366428Y-100528380D01*
X69461666Y-100480761D01*
X69509285Y-100385523D01*
X69509285Y-100337904D01*
X69461666Y-100242666D01*
X69366428Y-100195047D01*
X69223571Y-100195047D01*
X69128333Y-100147428D01*
X69080714Y-100052190D01*
X69080714Y-100004571D01*
X69128333Y-99909333D01*
X69223571Y-99861714D01*
X69366428Y-99861714D01*
X69461666Y-99909333D01*
X70366428Y-100480761D02*
X70271190Y-100528380D01*
X70080714Y-100528380D01*
X69985476Y-100480761D01*
X69937857Y-100433142D01*
X69890238Y-100337904D01*
X69890238Y-100052190D01*
X69937857Y-99956952D01*
X69985476Y-99909333D01*
X70080714Y-99861714D01*
X70271190Y-99861714D01*
X70366428Y-99909333D01*
X70795000Y-100528380D02*
X70795000Y-99861714D01*
X70795000Y-99528380D02*
X70747380Y-99576000D01*
X70795000Y-99623619D01*
X70842619Y-99576000D01*
X70795000Y-99528380D01*
X70795000Y-99623619D01*
X71414047Y-100528380D02*
X71318809Y-100480761D01*
X71271190Y-100385523D01*
X71271190Y-99528380D01*
X71937857Y-100528380D02*
X71842619Y-100480761D01*
X71795000Y-100385523D01*
X71795000Y-99528380D01*
X72747380Y-100528380D02*
X72747380Y-100004571D01*
X72699761Y-99909333D01*
X72604523Y-99861714D01*
X72414047Y-99861714D01*
X72318809Y-99909333D01*
X72747380Y-100480761D02*
X72652142Y-100528380D01*
X72414047Y-100528380D01*
X72318809Y-100480761D01*
X72271190Y-100385523D01*
X72271190Y-100290285D01*
X72318809Y-100195047D01*
X72414047Y-100147428D01*
X72652142Y-100147428D01*
X72747380Y-100099809D01*
X73080714Y-99861714D02*
X73461666Y-99861714D01*
X73223571Y-99528380D02*
X73223571Y-100385523D01*
X73271190Y-100480761D01*
X73366428Y-100528380D01*
X73461666Y-100528380D01*
X73937857Y-100528380D02*
X73842619Y-100480761D01*
X73795000Y-100433142D01*
X73747380Y-100337904D01*
X73747380Y-100052190D01*
X73795000Y-99956952D01*
X73842619Y-99909333D01*
X73937857Y-99861714D01*
X74080714Y-99861714D01*
X74175952Y-99909333D01*
X74223571Y-99956952D01*
X74271190Y-100052190D01*
X74271190Y-100337904D01*
X74223571Y-100433142D01*
X74175952Y-100480761D01*
X74080714Y-100528380D01*
X73937857Y-100528380D01*
X74699761Y-100528380D02*
X74699761Y-99861714D01*
X74699761Y-100052190D02*
X74747380Y-99956952D01*
X74795000Y-99909333D01*
X74890238Y-99861714D01*
X74985476Y-99861714D01*
X76033095Y-99623619D02*
X76080714Y-99576000D01*
X76175952Y-99528380D01*
X76414047Y-99528380D01*
X76509285Y-99576000D01*
X76556904Y-99623619D01*
X76604523Y-99718857D01*
X76604523Y-99814095D01*
X76556904Y-99956952D01*
X75985476Y-100528380D01*
X76604523Y-100528380D01*
X77509285Y-99528380D02*
X77033095Y-99528380D01*
X76985476Y-100004571D01*
X77033095Y-99956952D01*
X77128333Y-99909333D01*
X77366428Y-99909333D01*
X77461666Y-99956952D01*
X77509285Y-100004571D01*
X77556904Y-100099809D01*
X77556904Y-100337904D01*
X77509285Y-100433142D01*
X77461666Y-100480761D01*
X77366428Y-100528380D01*
X77128333Y-100528380D01*
X77033095Y-100480761D01*
X76985476Y-100433142D01*
X77985476Y-100528380D02*
X77985476Y-99528380D01*
X78318809Y-100242666D01*
X78652142Y-99528380D01*
X78652142Y-100528380D01*
X79128333Y-100528380D02*
X79128333Y-99528380D01*
X79128333Y-100004571D02*
X79699761Y-100004571D01*
X79699761Y-100528380D02*
X79699761Y-99528380D01*
X80080714Y-99861714D02*
X80604523Y-99861714D01*
X80080714Y-100528380D01*
X80604523Y-100528380D01*
X81391666Y-48982380D02*
X81391666Y-49791904D01*
X81439285Y-49887142D01*
X81486904Y-49934761D01*
X81582142Y-49982380D01*
X81772619Y-49982380D01*
X81867857Y-49934761D01*
X81915476Y-49887142D01*
X81963095Y-49791904D01*
X81963095Y-48982380D01*
X82391666Y-49934761D02*
X82534523Y-49982380D01*
X82772619Y-49982380D01*
X82867857Y-49934761D01*
X82915476Y-49887142D01*
X82963095Y-49791904D01*
X82963095Y-49696666D01*
X82915476Y-49601428D01*
X82867857Y-49553809D01*
X82772619Y-49506190D01*
X82582142Y-49458571D01*
X82486904Y-49410952D01*
X82439285Y-49363333D01*
X82391666Y-49268095D01*
X82391666Y-49172857D01*
X82439285Y-49077619D01*
X82486904Y-49030000D01*
X82582142Y-48982380D01*
X82820238Y-48982380D01*
X82963095Y-49030000D01*
X83725000Y-49458571D02*
X83867857Y-49506190D01*
X83915476Y-49553809D01*
X83963095Y-49649047D01*
X83963095Y-49791904D01*
X83915476Y-49887142D01*
X83867857Y-49934761D01*
X83772619Y-49982380D01*
X83391666Y-49982380D01*
X83391666Y-48982380D01*
X83725000Y-48982380D01*
X83820238Y-49030000D01*
X83867857Y-49077619D01*
X83915476Y-49172857D01*
X83915476Y-49268095D01*
X83867857Y-49363333D01*
X83820238Y-49410952D01*
X83725000Y-49458571D01*
X83391666Y-49458571D01*
X85105952Y-49696666D02*
X85582142Y-49696666D01*
X85010714Y-49982380D02*
X85344047Y-48982380D01*
X85677380Y-49982380D01*
X86772619Y-49982380D02*
X86772619Y-48982380D01*
X87248809Y-49315714D02*
X87248809Y-49982380D01*
X87248809Y-49410952D02*
X87296428Y-49363333D01*
X87391666Y-49315714D01*
X87534523Y-49315714D01*
X87629761Y-49363333D01*
X87677380Y-49458571D01*
X87677380Y-49982380D01*
X88153571Y-49315714D02*
X88153571Y-50315714D01*
X88153571Y-49363333D02*
X88248809Y-49315714D01*
X88439285Y-49315714D01*
X88534523Y-49363333D01*
X88582142Y-49410952D01*
X88629761Y-49506190D01*
X88629761Y-49791904D01*
X88582142Y-49887142D01*
X88534523Y-49934761D01*
X88439285Y-49982380D01*
X88248809Y-49982380D01*
X88153571Y-49934761D01*
X89486904Y-49315714D02*
X89486904Y-49982380D01*
X89058333Y-49315714D02*
X89058333Y-49839523D01*
X89105952Y-49934761D01*
X89201190Y-49982380D01*
X89344047Y-49982380D01*
X89439285Y-49934761D01*
X89486904Y-49887142D01*
X89820238Y-49315714D02*
X90201190Y-49315714D01*
X89963095Y-48982380D02*
X89963095Y-49839523D01*
X90010714Y-49934761D01*
X90105952Y-49982380D01*
X90201190Y-49982380D01*
X103006666Y-136612380D02*
X103625714Y-136612380D01*
X103292380Y-136993333D01*
X103435238Y-136993333D01*
X103530476Y-137040952D01*
X103578095Y-137088571D01*
X103625714Y-137183809D01*
X103625714Y-137421904D01*
X103578095Y-137517142D01*
X103530476Y-137564761D01*
X103435238Y-137612380D01*
X103149523Y-137612380D01*
X103054285Y-137564761D01*
X103006666Y-137517142D01*
X104054285Y-137612380D02*
X104054285Y-136945714D01*
X104054285Y-137136190D02*
X104101904Y-137040952D01*
X104149523Y-136993333D01*
X104244761Y-136945714D01*
X104340000Y-136945714D01*
X105101904Y-137612380D02*
X105101904Y-136612380D01*
X105101904Y-137564761D02*
X105006666Y-137612380D01*
X104816190Y-137612380D01*
X104720952Y-137564761D01*
X104673333Y-137517142D01*
X104625714Y-137421904D01*
X104625714Y-137136190D01*
X104673333Y-137040952D01*
X104720952Y-136993333D01*
X104816190Y-136945714D01*
X105006666Y-136945714D01*
X105101904Y-136993333D01*
X106530476Y-136612380D02*
X106720952Y-136612380D01*
X106816190Y-136660000D01*
X106911428Y-136755238D01*
X106959047Y-136945714D01*
X106959047Y-137279047D01*
X106911428Y-137469523D01*
X106816190Y-137564761D01*
X106720952Y-137612380D01*
X106530476Y-137612380D01*
X106435238Y-137564761D01*
X106340000Y-137469523D01*
X106292380Y-137279047D01*
X106292380Y-136945714D01*
X106340000Y-136755238D01*
X106435238Y-136660000D01*
X106530476Y-136612380D01*
X107387619Y-137612380D02*
X107387619Y-136945714D01*
X107387619Y-137136190D02*
X107435238Y-137040952D01*
X107482857Y-136993333D01*
X107578095Y-136945714D01*
X107673333Y-136945714D01*
X108435238Y-137612380D02*
X108435238Y-136612380D01*
X108435238Y-137564761D02*
X108340000Y-137612380D01*
X108149523Y-137612380D01*
X108054285Y-137564761D01*
X108006666Y-137517142D01*
X107959047Y-137421904D01*
X107959047Y-137136190D01*
X108006666Y-137040952D01*
X108054285Y-136993333D01*
X108149523Y-136945714D01*
X108340000Y-136945714D01*
X108435238Y-136993333D01*
X109292380Y-137564761D02*
X109197142Y-137612380D01*
X109006666Y-137612380D01*
X108911428Y-137564761D01*
X108863809Y-137469523D01*
X108863809Y-137088571D01*
X108911428Y-136993333D01*
X109006666Y-136945714D01*
X109197142Y-136945714D01*
X109292380Y-136993333D01*
X109340000Y-137088571D01*
X109340000Y-137183809D01*
X108863809Y-137279047D01*
X109768571Y-137612380D02*
X109768571Y-136945714D01*
X109768571Y-137136190D02*
X109816190Y-137040952D01*
X109863809Y-136993333D01*
X109959047Y-136945714D01*
X110054285Y-136945714D01*
X111482857Y-137088571D02*
X111625714Y-137136190D01*
X111673333Y-137183809D01*
X111720952Y-137279047D01*
X111720952Y-137421904D01*
X111673333Y-137517142D01*
X111625714Y-137564761D01*
X111530476Y-137612380D01*
X111149523Y-137612380D01*
X111149523Y-136612380D01*
X111482857Y-136612380D01*
X111578095Y-136660000D01*
X111625714Y-136707619D01*
X111673333Y-136802857D01*
X111673333Y-136898095D01*
X111625714Y-136993333D01*
X111578095Y-137040952D01*
X111482857Y-137088571D01*
X111149523Y-137088571D01*
X112578095Y-137612380D02*
X112578095Y-137088571D01*
X112530476Y-136993333D01*
X112435238Y-136945714D01*
X112244761Y-136945714D01*
X112149523Y-136993333D01*
X112578095Y-137564761D02*
X112482857Y-137612380D01*
X112244761Y-137612380D01*
X112149523Y-137564761D01*
X112101904Y-137469523D01*
X112101904Y-137374285D01*
X112149523Y-137279047D01*
X112244761Y-137231428D01*
X112482857Y-137231428D01*
X112578095Y-137183809D01*
X113054285Y-136945714D02*
X113054285Y-137612380D01*
X113054285Y-137040952D02*
X113101904Y-136993333D01*
X113197142Y-136945714D01*
X113340000Y-136945714D01*
X113435238Y-136993333D01*
X113482857Y-137088571D01*
X113482857Y-137612380D01*
X114387619Y-137612380D02*
X114387619Y-136612380D01*
X114387619Y-137564761D02*
X114292380Y-137612380D01*
X114101904Y-137612380D01*
X114006666Y-137564761D01*
X113959047Y-137517142D01*
X113911428Y-137421904D01*
X113911428Y-137136190D01*
X113959047Y-137040952D01*
X114006666Y-136993333D01*
X114101904Y-136945714D01*
X114292380Y-136945714D01*
X114387619Y-136993333D01*
X114863809Y-137612380D02*
X114863809Y-136612380D01*
X115244761Y-136612380D01*
X115340000Y-136660000D01*
X115387619Y-136707619D01*
X115435238Y-136802857D01*
X115435238Y-136945714D01*
X115387619Y-137040952D01*
X115340000Y-137088571D01*
X115244761Y-137136190D01*
X114863809Y-137136190D01*
X116292380Y-137612380D02*
X116292380Y-137088571D01*
X116244761Y-136993333D01*
X116149523Y-136945714D01*
X115959047Y-136945714D01*
X115863809Y-136993333D01*
X116292380Y-137564761D02*
X116197142Y-137612380D01*
X115959047Y-137612380D01*
X115863809Y-137564761D01*
X115816190Y-137469523D01*
X115816190Y-137374285D01*
X115863809Y-137279047D01*
X115959047Y-137231428D01*
X116197142Y-137231428D01*
X116292380Y-137183809D01*
X116720952Y-137564761D02*
X116816190Y-137612380D01*
X117006666Y-137612380D01*
X117101904Y-137564761D01*
X117149523Y-137469523D01*
X117149523Y-137421904D01*
X117101904Y-137326666D01*
X117006666Y-137279047D01*
X116863809Y-137279047D01*
X116768571Y-137231428D01*
X116720952Y-137136190D01*
X116720952Y-137088571D01*
X116768571Y-136993333D01*
X116863809Y-136945714D01*
X117006666Y-136945714D01*
X117101904Y-136993333D01*
X117530476Y-137564761D02*
X117625714Y-137612380D01*
X117816190Y-137612380D01*
X117911428Y-137564761D01*
X117959047Y-137469523D01*
X117959047Y-137421904D01*
X117911428Y-137326666D01*
X117816190Y-137279047D01*
X117673333Y-137279047D01*
X117578095Y-137231428D01*
X117530476Y-137136190D01*
X117530476Y-137088571D01*
X117578095Y-136993333D01*
X117673333Y-136945714D01*
X117816190Y-136945714D01*
X117911428Y-136993333D01*
X119482857Y-137088571D02*
X119149523Y-137088571D01*
X119149523Y-137612380D02*
X119149523Y-136612380D01*
X119625714Y-136612380D01*
X120006666Y-137612380D02*
X120006666Y-136945714D01*
X120006666Y-136612380D02*
X119959047Y-136660000D01*
X120006666Y-136707619D01*
X120054285Y-136660000D01*
X120006666Y-136612380D01*
X120006666Y-136707619D01*
X120625714Y-137612380D02*
X120530476Y-137564761D01*
X120482857Y-137469523D01*
X120482857Y-136612380D01*
X120863809Y-136945714D02*
X121244761Y-136945714D01*
X121006666Y-136612380D02*
X121006666Y-137469523D01*
X121054285Y-137564761D01*
X121149523Y-137612380D01*
X121244761Y-137612380D01*
X121959047Y-137564761D02*
X121863809Y-137612380D01*
X121673333Y-137612380D01*
X121578095Y-137564761D01*
X121530476Y-137469523D01*
X121530476Y-137088571D01*
X121578095Y-136993333D01*
X121673333Y-136945714D01*
X121863809Y-136945714D01*
X121959047Y-136993333D01*
X122006666Y-137088571D01*
X122006666Y-137183809D01*
X121530476Y-137279047D01*
X122435238Y-137612380D02*
X122435238Y-136945714D01*
X122435238Y-137136190D02*
X122482857Y-137040952D01*
X122530476Y-136993333D01*
X122625714Y-136945714D01*
X122720952Y-136945714D01*
X123720952Y-136612380D02*
X124387619Y-136612380D01*
X123959047Y-137612380D01*
X124768571Y-137231428D02*
X125530476Y-137231428D01*
X126530476Y-137612380D02*
X125959047Y-137612380D01*
X126244761Y-137612380D02*
X126244761Y-136612380D01*
X126149523Y-136755238D01*
X126054285Y-136850476D01*
X125959047Y-136898095D01*
X126911428Y-136707619D02*
X126959047Y-136660000D01*
X127054285Y-136612380D01*
X127292380Y-136612380D01*
X127387619Y-136660000D01*
X127435238Y-136707619D01*
X127482857Y-136802857D01*
X127482857Y-136898095D01*
X127435238Y-137040952D01*
X126863809Y-137612380D01*
X127482857Y-137612380D01*
X127911428Y-137612380D02*
X127911428Y-136612380D01*
X128244761Y-137326666D01*
X128578095Y-136612380D01*
X128578095Y-137612380D01*
X129054285Y-137612380D02*
X129054285Y-136612380D01*
X129054285Y-137088571D02*
X129625714Y-137088571D01*
X129625714Y-137612380D02*
X129625714Y-136612380D01*
X130006666Y-136612380D02*
X130673333Y-136612380D01*
X130006666Y-137612380D01*
X130673333Y-137612380D01*
X135104761Y-99782380D02*
X135676190Y-99782380D01*
X135390476Y-100782380D02*
X135390476Y-99782380D01*
X136438095Y-100782380D02*
X136438095Y-100258571D01*
X136390476Y-100163333D01*
X136295238Y-100115714D01*
X136104761Y-100115714D01*
X136009523Y-100163333D01*
X136438095Y-100734761D02*
X136342857Y-100782380D01*
X136104761Y-100782380D01*
X136009523Y-100734761D01*
X135961904Y-100639523D01*
X135961904Y-100544285D01*
X136009523Y-100449047D01*
X136104761Y-100401428D01*
X136342857Y-100401428D01*
X136438095Y-100353809D01*
X136819047Y-100115714D02*
X137057142Y-100782380D01*
X137295238Y-100115714D02*
X137057142Y-100782380D01*
X136961904Y-101020476D01*
X136914285Y-101068095D01*
X136819047Y-101115714D01*
X137819047Y-100782380D02*
X137723809Y-100734761D01*
X137676190Y-100639523D01*
X137676190Y-99782380D01*
X138342857Y-100782380D02*
X138247619Y-100734761D01*
X138200000Y-100687142D01*
X138152380Y-100591904D01*
X138152380Y-100306190D01*
X138200000Y-100210952D01*
X138247619Y-100163333D01*
X138342857Y-100115714D01*
X138485714Y-100115714D01*
X138580952Y-100163333D01*
X138628571Y-100210952D01*
X138676190Y-100306190D01*
X138676190Y-100591904D01*
X138628571Y-100687142D01*
X138580952Y-100734761D01*
X138485714Y-100782380D01*
X138342857Y-100782380D01*
X139485714Y-100734761D02*
X139390476Y-100782380D01*
X139200000Y-100782380D01*
X139104761Y-100734761D01*
X139057142Y-100639523D01*
X139057142Y-100258571D01*
X139104761Y-100163333D01*
X139200000Y-100115714D01*
X139390476Y-100115714D01*
X139485714Y-100163333D01*
X139533333Y-100258571D01*
X139533333Y-100353809D01*
X139057142Y-100449047D01*
X140723809Y-100782380D02*
X140723809Y-99782380D01*
X141057142Y-100496666D01*
X141390476Y-99782380D01*
X141390476Y-100782380D01*
X141866666Y-100782380D02*
X141866666Y-100115714D01*
X141866666Y-99782380D02*
X141819047Y-99830000D01*
X141866666Y-99877619D01*
X141914285Y-99830000D01*
X141866666Y-99782380D01*
X141866666Y-99877619D01*
X142247619Y-100782380D02*
X142771428Y-100115714D01*
X142247619Y-100115714D02*
X142771428Y-100782380D01*
X143533333Y-100734761D02*
X143438095Y-100782380D01*
X143247619Y-100782380D01*
X143152380Y-100734761D01*
X143104761Y-100639523D01*
X143104761Y-100258571D01*
X143152380Y-100163333D01*
X143247619Y-100115714D01*
X143438095Y-100115714D01*
X143533333Y-100163333D01*
X143580952Y-100258571D01*
X143580952Y-100353809D01*
X143104761Y-100449047D01*
X144009523Y-100782380D02*
X144009523Y-100115714D01*
X144009523Y-100306190D02*
X144057142Y-100210952D01*
X144104761Y-100163333D01*
X144200000Y-100115714D01*
X144295238Y-100115714D01*
X51952380Y-47472142D02*
X51904761Y-47519761D01*
X51761904Y-47567380D01*
X51666666Y-47567380D01*
X51523809Y-47519761D01*
X51428571Y-47424523D01*
X51380952Y-47329285D01*
X51333333Y-47138809D01*
X51333333Y-46995952D01*
X51380952Y-46805476D01*
X51428571Y-46710238D01*
X51523809Y-46615000D01*
X51666666Y-46567380D01*
X51761904Y-46567380D01*
X51904761Y-46615000D01*
X51952380Y-46662619D01*
X52809523Y-47567380D02*
X52809523Y-47043571D01*
X52761904Y-46948333D01*
X52666666Y-46900714D01*
X52476190Y-46900714D01*
X52380952Y-46948333D01*
X52809523Y-47519761D02*
X52714285Y-47567380D01*
X52476190Y-47567380D01*
X52380952Y-47519761D01*
X52333333Y-47424523D01*
X52333333Y-47329285D01*
X52380952Y-47234047D01*
X52476190Y-47186428D01*
X52714285Y-47186428D01*
X52809523Y-47138809D01*
X53714285Y-47567380D02*
X53714285Y-46567380D01*
X53714285Y-47519761D02*
X53619047Y-47567380D01*
X53428571Y-47567380D01*
X53333333Y-47519761D01*
X53285714Y-47472142D01*
X53238095Y-47376904D01*
X53238095Y-47091190D01*
X53285714Y-46995952D01*
X53333333Y-46948333D01*
X53428571Y-46900714D01*
X53619047Y-46900714D01*
X53714285Y-46948333D01*
X54095238Y-46900714D02*
X54333333Y-47567380D01*
X54571428Y-46900714D02*
X54333333Y-47567380D01*
X54238095Y-47805476D01*
X54190476Y-47853095D01*
X54095238Y-47900714D01*
X54952380Y-46900714D02*
X54952380Y-47567380D01*
X54952380Y-46995952D02*
X54999999Y-46948333D01*
X55095238Y-46900714D01*
X55238095Y-46900714D01*
X55333333Y-46948333D01*
X55380952Y-47043571D01*
X55380952Y-47567380D01*
X56619047Y-47567380D02*
X56619047Y-46567380D01*
X56952380Y-47281666D01*
X57285714Y-46567380D01*
X57285714Y-47567380D01*
X58190476Y-47567380D02*
X58190476Y-47043571D01*
X58142857Y-46948333D01*
X58047619Y-46900714D01*
X57857142Y-46900714D01*
X57761904Y-46948333D01*
X58190476Y-47519761D02*
X58095238Y-47567380D01*
X57857142Y-47567380D01*
X57761904Y-47519761D01*
X57714285Y-47424523D01*
X57714285Y-47329285D01*
X57761904Y-47234047D01*
X57857142Y-47186428D01*
X58095238Y-47186428D01*
X58190476Y-47138809D01*
X59095238Y-47567380D02*
X59095238Y-46567380D01*
X59095238Y-47519761D02*
X58999999Y-47567380D01*
X58809523Y-47567380D01*
X58714285Y-47519761D01*
X58666666Y-47472142D01*
X58619047Y-47376904D01*
X58619047Y-47091190D01*
X58666666Y-46995952D01*
X58714285Y-46948333D01*
X58809523Y-46900714D01*
X58999999Y-46900714D01*
X59095238Y-46948333D01*
X59999999Y-47567380D02*
X59999999Y-46567380D01*
X59999999Y-47519761D02*
X59904761Y-47567380D01*
X59714285Y-47567380D01*
X59619047Y-47519761D01*
X59571428Y-47472142D01*
X59523809Y-47376904D01*
X59523809Y-47091190D01*
X59571428Y-46995952D01*
X59619047Y-46948333D01*
X59714285Y-46900714D01*
X59904761Y-46900714D01*
X59999999Y-46948333D01*
X60619047Y-47567380D02*
X60523809Y-47519761D01*
X60476190Y-47472142D01*
X60428571Y-47376904D01*
X60428571Y-47091190D01*
X60476190Y-46995952D01*
X60523809Y-46948333D01*
X60619047Y-46900714D01*
X60761904Y-46900714D01*
X60857142Y-46948333D01*
X60904761Y-46995952D01*
X60952380Y-47091190D01*
X60952380Y-47376904D01*
X60904761Y-47472142D01*
X60857142Y-47519761D01*
X60761904Y-47567380D01*
X60619047Y-47567380D01*
X61809523Y-47519761D02*
X61714285Y-47567380D01*
X61523809Y-47567380D01*
X61428571Y-47519761D01*
X61380952Y-47472142D01*
X61333333Y-47376904D01*
X61333333Y-47091190D01*
X61380952Y-46995952D01*
X61428571Y-46948333D01*
X61523809Y-46900714D01*
X61714285Y-46900714D01*
X61809523Y-46948333D01*
X62238095Y-47567380D02*
X62238095Y-46567380D01*
X62333333Y-47186428D02*
X62619047Y-47567380D01*
X62619047Y-46900714D02*
X62238095Y-47281666D01*
X62999999Y-47519761D02*
X63095238Y-47567380D01*
X63285714Y-47567380D01*
X63380952Y-47519761D01*
X63428571Y-47424523D01*
X63428571Y-47376904D01*
X63380952Y-47281666D01*
X63285714Y-47234047D01*
X63142857Y-47234047D01*
X63047619Y-47186428D01*
X62999999Y-47091190D01*
X62999999Y-47043571D01*
X63047619Y-46948333D01*
X63142857Y-46900714D01*
X63285714Y-46900714D01*
X63380952Y-46948333D01*
X65428571Y-47567380D02*
X65380952Y-47567380D01*
X65285714Y-47519761D01*
X65142857Y-47376904D01*
X64904761Y-47091190D01*
X64809523Y-46948333D01*
X64761904Y-46805476D01*
X64761904Y-46710238D01*
X64809523Y-46615000D01*
X64904761Y-46567380D01*
X64952380Y-46567380D01*
X65047619Y-46615000D01*
X65095238Y-46710238D01*
X65095238Y-46757857D01*
X65047619Y-46853095D01*
X64999999Y-46900714D01*
X64714285Y-47091190D01*
X64666666Y-47138809D01*
X64619047Y-47234047D01*
X64619047Y-47376904D01*
X64666666Y-47472142D01*
X64714285Y-47519761D01*
X64809523Y-47567380D01*
X64952380Y-47567380D01*
X65047619Y-47519761D01*
X65095238Y-47472142D01*
X65238095Y-47281666D01*
X65285714Y-47138809D01*
X65285714Y-47043571D01*
X66476190Y-46567380D02*
X67047619Y-46567380D01*
X66761904Y-47567380D02*
X66761904Y-46567380D01*
X67809523Y-47567380D02*
X67809523Y-47043571D01*
X67761904Y-46948333D01*
X67666666Y-46900714D01*
X67476190Y-46900714D01*
X67380952Y-46948333D01*
X67809523Y-47519761D02*
X67714285Y-47567380D01*
X67476190Y-47567380D01*
X67380952Y-47519761D01*
X67333333Y-47424523D01*
X67333333Y-47329285D01*
X67380952Y-47234047D01*
X67476190Y-47186428D01*
X67714285Y-47186428D01*
X67809523Y-47138809D01*
X68190476Y-46900714D02*
X68428571Y-47567380D01*
X68666666Y-46900714D02*
X68428571Y-47567380D01*
X68333333Y-47805476D01*
X68285714Y-47853095D01*
X68190476Y-47900714D01*
X69190476Y-47567380D02*
X69095238Y-47519761D01*
X69047619Y-47424523D01*
X69047619Y-46567380D01*
X69714285Y-47567380D02*
X69619047Y-47519761D01*
X69571428Y-47472142D01*
X69523809Y-47376904D01*
X69523809Y-47091190D01*
X69571428Y-46995952D01*
X69619047Y-46948333D01*
X69714285Y-46900714D01*
X69857142Y-46900714D01*
X69952380Y-46948333D01*
X69999999Y-46995952D01*
X70047619Y-47091190D01*
X70047619Y-47376904D01*
X69999999Y-47472142D01*
X69952380Y-47519761D01*
X69857142Y-47567380D01*
X69714285Y-47567380D01*
X70476190Y-47567380D02*
X70476190Y-46900714D01*
X70476190Y-47091190D02*
X70523809Y-46995952D01*
X70571428Y-46948333D01*
X70666666Y-46900714D01*
X70761904Y-46900714D01*
X71809523Y-47519761D02*
X71952380Y-47567380D01*
X72190476Y-47567380D01*
X72285714Y-47519761D01*
X72333333Y-47472142D01*
X72380952Y-47376904D01*
X72380952Y-47281666D01*
X72333333Y-47186428D01*
X72285714Y-47138809D01*
X72190476Y-47091190D01*
X71999999Y-47043571D01*
X71904761Y-46995952D01*
X71857142Y-46948333D01*
X71809523Y-46853095D01*
X71809523Y-46757857D01*
X71857142Y-46662619D01*
X71904761Y-46615000D01*
X71999999Y-46567380D01*
X72238095Y-46567380D01*
X72380952Y-46615000D01*
X72809523Y-47567380D02*
X72809523Y-46900714D01*
X72809523Y-46995952D02*
X72857142Y-46948333D01*
X72952380Y-46900714D01*
X73095238Y-46900714D01*
X73190476Y-46948333D01*
X73238095Y-47043571D01*
X73238095Y-47567380D01*
X73238095Y-47043571D02*
X73285714Y-46948333D01*
X73380952Y-46900714D01*
X73523809Y-46900714D01*
X73619047Y-46948333D01*
X73666666Y-47043571D01*
X73666666Y-47567380D01*
X74142857Y-47567380D02*
X74142857Y-46900714D01*
X74142857Y-46567380D02*
X74095238Y-46615000D01*
X74142857Y-46662619D01*
X74190476Y-46615000D01*
X74142857Y-46567380D01*
X74142857Y-46662619D01*
X74476190Y-46900714D02*
X74857142Y-46900714D01*
X74619047Y-46567380D02*
X74619047Y-47424523D01*
X74666666Y-47519761D01*
X74761904Y-47567380D01*
X74857142Y-47567380D01*
X75190476Y-47567380D02*
X75190476Y-46567380D01*
X75619047Y-47567380D02*
X75619047Y-47043571D01*
X75571428Y-46948333D01*
X75476190Y-46900714D01*
X75333333Y-46900714D01*
X75238095Y-46948333D01*
X75190476Y-46995952D01*
X55666666Y-49129761D02*
X55809523Y-49177380D01*
X56047619Y-49177380D01*
X56142857Y-49129761D01*
X56190476Y-49082142D01*
X56238095Y-48986904D01*
X56238095Y-48891666D01*
X56190476Y-48796428D01*
X56142857Y-48748809D01*
X56047619Y-48701190D01*
X55857142Y-48653571D01*
X55761904Y-48605952D01*
X55714285Y-48558333D01*
X55666666Y-48463095D01*
X55666666Y-48367857D01*
X55714285Y-48272619D01*
X55761904Y-48225000D01*
X55857142Y-48177380D01*
X56095238Y-48177380D01*
X56238095Y-48225000D01*
X56666666Y-49177380D02*
X56666666Y-48177380D01*
X56904761Y-48177380D01*
X57047619Y-48225000D01*
X57142857Y-48320238D01*
X57190476Y-48415476D01*
X57238095Y-48605952D01*
X57238095Y-48748809D01*
X57190476Y-48939285D01*
X57142857Y-49034523D01*
X57047619Y-49129761D01*
X56904761Y-49177380D01*
X56666666Y-49177380D01*
X58238095Y-49177380D02*
X57904761Y-48701190D01*
X57666666Y-49177380D02*
X57666666Y-48177380D01*
X58047619Y-48177380D01*
X58142857Y-48225000D01*
X58190476Y-48272619D01*
X58238095Y-48367857D01*
X58238095Y-48510714D01*
X58190476Y-48605952D01*
X58142857Y-48653571D01*
X58047619Y-48701190D01*
X57666666Y-48701190D01*
X60000000Y-49177380D02*
X59666666Y-48701190D01*
X59428571Y-49177380D02*
X59428571Y-48177380D01*
X59809523Y-48177380D01*
X59904761Y-48225000D01*
X59952380Y-48272619D01*
X60000000Y-48367857D01*
X60000000Y-48510714D01*
X59952380Y-48605952D01*
X59904761Y-48653571D01*
X59809523Y-48701190D01*
X59428571Y-48701190D01*
X60809523Y-49129761D02*
X60714285Y-49177380D01*
X60523809Y-49177380D01*
X60428571Y-49129761D01*
X60380952Y-49034523D01*
X60380952Y-48653571D01*
X60428571Y-48558333D01*
X60523809Y-48510714D01*
X60714285Y-48510714D01*
X60809523Y-48558333D01*
X60857142Y-48653571D01*
X60857142Y-48748809D01*
X60380952Y-48844047D01*
X61714285Y-49129761D02*
X61619047Y-49177380D01*
X61428571Y-49177380D01*
X61333333Y-49129761D01*
X61285714Y-49082142D01*
X61238095Y-48986904D01*
X61238095Y-48701190D01*
X61285714Y-48605952D01*
X61333333Y-48558333D01*
X61428571Y-48510714D01*
X61619047Y-48510714D01*
X61714285Y-48558333D01*
X62523809Y-49129761D02*
X62428571Y-49177380D01*
X62238095Y-49177380D01*
X62142857Y-49129761D01*
X62095238Y-49034523D01*
X62095238Y-48653571D01*
X62142857Y-48558333D01*
X62238095Y-48510714D01*
X62428571Y-48510714D01*
X62523809Y-48558333D01*
X62571428Y-48653571D01*
X62571428Y-48748809D01*
X62095238Y-48844047D01*
X63000000Y-49177380D02*
X63000000Y-48510714D01*
X63000000Y-48177380D02*
X62952380Y-48225000D01*
X63000000Y-48272619D01*
X63047619Y-48225000D01*
X63000000Y-48177380D01*
X63000000Y-48272619D01*
X63380952Y-48510714D02*
X63619047Y-49177380D01*
X63857142Y-48510714D01*
X64619047Y-49129761D02*
X64523809Y-49177380D01*
X64333333Y-49177380D01*
X64238095Y-49129761D01*
X64190476Y-49034523D01*
X64190476Y-48653571D01*
X64238095Y-48558333D01*
X64333333Y-48510714D01*
X64523809Y-48510714D01*
X64619047Y-48558333D01*
X64666666Y-48653571D01*
X64666666Y-48748809D01*
X64190476Y-48844047D01*
X65095238Y-49177380D02*
X65095238Y-48510714D01*
X65095238Y-48701190D02*
X65142857Y-48605952D01*
X65190476Y-48558333D01*
X65285714Y-48510714D01*
X65380952Y-48510714D01*
X66476190Y-49177380D02*
X66476190Y-48177380D01*
X66857142Y-48177380D01*
X66952380Y-48225000D01*
X67000000Y-48272619D01*
X67047619Y-48367857D01*
X67047619Y-48510714D01*
X67000000Y-48605952D01*
X66952380Y-48653571D01*
X66857142Y-48701190D01*
X66476190Y-48701190D01*
X67476190Y-49177380D02*
X67476190Y-48510714D01*
X67476190Y-48701190D02*
X67523809Y-48605952D01*
X67571428Y-48558333D01*
X67666666Y-48510714D01*
X67761904Y-48510714D01*
X68238095Y-49177380D02*
X68142857Y-49129761D01*
X68095238Y-49082142D01*
X68047619Y-48986904D01*
X68047619Y-48701190D01*
X68095238Y-48605952D01*
X68142857Y-48558333D01*
X68238095Y-48510714D01*
X68380952Y-48510714D01*
X68476190Y-48558333D01*
X68523809Y-48605952D01*
X68571428Y-48701190D01*
X68571428Y-48986904D01*
X68523809Y-49082142D01*
X68476190Y-49129761D01*
X68380952Y-49177380D01*
X68238095Y-49177380D01*
X69000000Y-48510714D02*
X69000000Y-49367857D01*
X68952380Y-49463095D01*
X68857142Y-49510714D01*
X68809523Y-49510714D01*
X69000000Y-48177380D02*
X68952380Y-48225000D01*
X69000000Y-48272619D01*
X69047619Y-48225000D01*
X69000000Y-48177380D01*
X69000000Y-48272619D01*
X69857142Y-49129761D02*
X69761904Y-49177380D01*
X69571428Y-49177380D01*
X69476190Y-49129761D01*
X69428571Y-49034523D01*
X69428571Y-48653571D01*
X69476190Y-48558333D01*
X69571428Y-48510714D01*
X69761904Y-48510714D01*
X69857142Y-48558333D01*
X69904761Y-48653571D01*
X69904761Y-48748809D01*
X69428571Y-48844047D01*
X70761904Y-49129761D02*
X70666666Y-49177380D01*
X70476190Y-49177380D01*
X70380952Y-49129761D01*
X70333333Y-49082142D01*
X70285714Y-48986904D01*
X70285714Y-48701190D01*
X70333333Y-48605952D01*
X70380952Y-48558333D01*
X70476190Y-48510714D01*
X70666666Y-48510714D01*
X70761904Y-48558333D01*
X71047619Y-48510714D02*
X71428571Y-48510714D01*
X71190476Y-48177380D02*
X71190476Y-49034523D01*
X71238095Y-49129761D01*
X71333333Y-49177380D01*
X71428571Y-49177380D01*
X58738095Y-50263571D02*
X59071428Y-50263571D01*
X59214285Y-50787380D02*
X58738095Y-50787380D01*
X58738095Y-49787380D01*
X59214285Y-49787380D01*
X59785714Y-50787380D02*
X59690476Y-50739761D01*
X59642857Y-50644523D01*
X59642857Y-49787380D01*
X60547619Y-50739761D02*
X60452380Y-50787380D01*
X60261904Y-50787380D01*
X60166666Y-50739761D01*
X60119047Y-50644523D01*
X60119047Y-50263571D01*
X60166666Y-50168333D01*
X60261904Y-50120714D01*
X60452380Y-50120714D01*
X60547619Y-50168333D01*
X60595238Y-50263571D01*
X60595238Y-50358809D01*
X60119047Y-50454047D01*
X61452380Y-50739761D02*
X61357142Y-50787380D01*
X61166666Y-50787380D01*
X61071428Y-50739761D01*
X61023809Y-50692142D01*
X60976190Y-50596904D01*
X60976190Y-50311190D01*
X61023809Y-50215952D01*
X61071428Y-50168333D01*
X61166666Y-50120714D01*
X61357142Y-50120714D01*
X61452380Y-50168333D01*
X61738095Y-50120714D02*
X62119047Y-50120714D01*
X61880952Y-49787380D02*
X61880952Y-50644523D01*
X61928571Y-50739761D01*
X62023809Y-50787380D01*
X62119047Y-50787380D01*
X62452380Y-50787380D02*
X62452380Y-50120714D01*
X62452380Y-50311190D02*
X62500000Y-50215952D01*
X62547619Y-50168333D01*
X62642857Y-50120714D01*
X62738095Y-50120714D01*
X63214285Y-50787380D02*
X63119047Y-50739761D01*
X63071428Y-50692142D01*
X63023809Y-50596904D01*
X63023809Y-50311190D01*
X63071428Y-50215952D01*
X63119047Y-50168333D01*
X63214285Y-50120714D01*
X63357142Y-50120714D01*
X63452380Y-50168333D01*
X63500000Y-50215952D01*
X63547619Y-50311190D01*
X63547619Y-50596904D01*
X63500000Y-50692142D01*
X63452380Y-50739761D01*
X63357142Y-50787380D01*
X63214285Y-50787380D01*
X63976190Y-50120714D02*
X63976190Y-50787380D01*
X63976190Y-50215952D02*
X64023809Y-50168333D01*
X64119047Y-50120714D01*
X64261904Y-50120714D01*
X64357142Y-50168333D01*
X64404761Y-50263571D01*
X64404761Y-50787380D01*
X64880952Y-50787380D02*
X64880952Y-50120714D01*
X64880952Y-49787380D02*
X64833333Y-49835000D01*
X64880952Y-49882619D01*
X64928571Y-49835000D01*
X64880952Y-49787380D01*
X64880952Y-49882619D01*
X65785714Y-50739761D02*
X65690476Y-50787380D01*
X65500000Y-50787380D01*
X65404761Y-50739761D01*
X65357142Y-50692142D01*
X65309523Y-50596904D01*
X65309523Y-50311190D01*
X65357142Y-50215952D01*
X65404761Y-50168333D01*
X65500000Y-50120714D01*
X65690476Y-50120714D01*
X65785714Y-50168333D01*
X66166666Y-50739761D02*
X66261904Y-50787380D01*
X66452380Y-50787380D01*
X66547619Y-50739761D01*
X66595238Y-50644523D01*
X66595238Y-50596904D01*
X66547619Y-50501666D01*
X66452380Y-50454047D01*
X66309523Y-50454047D01*
X66214285Y-50406428D01*
X66166666Y-50311190D01*
X66166666Y-50263571D01*
X66214285Y-50168333D01*
X66309523Y-50120714D01*
X66452380Y-50120714D01*
X66547619Y-50168333D01*
X67785714Y-50787380D02*
X67785714Y-49787380D01*
X68261904Y-50787380D02*
X68261904Y-49787380D01*
X62690476Y-51397380D02*
X63023809Y-52397380D01*
X63357142Y-51397380D01*
X64119047Y-51730714D02*
X64119047Y-52397380D01*
X63880952Y-51349761D02*
X63642857Y-52064047D01*
X64261904Y-52064047D01*
X102687857Y-103152380D02*
X102687857Y-102152380D01*
X102925952Y-102152380D01*
X103068809Y-102200000D01*
X103164047Y-102295238D01*
X103211666Y-102390476D01*
X103259285Y-102580952D01*
X103259285Y-102723809D01*
X103211666Y-102914285D01*
X103164047Y-103009523D01*
X103068809Y-103104761D01*
X102925952Y-103152380D01*
X102687857Y-103152380D01*
X104259285Y-103057142D02*
X104211666Y-103104761D01*
X104068809Y-103152380D01*
X103973571Y-103152380D01*
X103830714Y-103104761D01*
X103735476Y-103009523D01*
X103687857Y-102914285D01*
X103640238Y-102723809D01*
X103640238Y-102580952D01*
X103687857Y-102390476D01*
X103735476Y-102295238D01*
X103830714Y-102200000D01*
X103973571Y-102152380D01*
X104068809Y-102152380D01*
X104211666Y-102200000D01*
X104259285Y-102247619D01*
X105640238Y-102152380D02*
X105830714Y-102152380D01*
X105925952Y-102200000D01*
X106021190Y-102295238D01*
X106068809Y-102485714D01*
X106068809Y-102819047D01*
X106021190Y-103009523D01*
X105925952Y-103104761D01*
X105830714Y-103152380D01*
X105640238Y-103152380D01*
X105545000Y-103104761D01*
X105449761Y-103009523D01*
X105402142Y-102819047D01*
X105402142Y-102485714D01*
X105449761Y-102295238D01*
X105545000Y-102200000D01*
X105640238Y-102152380D01*
X106354523Y-102485714D02*
X106735476Y-102485714D01*
X106497380Y-103152380D02*
X106497380Y-102295238D01*
X106545000Y-102200000D01*
X106640238Y-102152380D01*
X106735476Y-102152380D01*
X106925952Y-102485714D02*
X107306904Y-102485714D01*
X107068809Y-103152380D02*
X107068809Y-102295238D01*
X107116428Y-102200000D01*
X107211666Y-102152380D01*
X107306904Y-102152380D01*
X107592619Y-103104761D02*
X107687857Y-103152380D01*
X107878333Y-103152380D01*
X107973571Y-103104761D01*
X108021190Y-103009523D01*
X108021190Y-102961904D01*
X107973571Y-102866666D01*
X107878333Y-102819047D01*
X107735476Y-102819047D01*
X107640238Y-102771428D01*
X107592619Y-102676190D01*
X107592619Y-102628571D01*
X107640238Y-102533333D01*
X107735476Y-102485714D01*
X107878333Y-102485714D01*
X107973571Y-102533333D01*
X108830714Y-103104761D02*
X108735476Y-103152380D01*
X108545000Y-103152380D01*
X108449761Y-103104761D01*
X108402142Y-103009523D01*
X108402142Y-102628571D01*
X108449761Y-102533333D01*
X108545000Y-102485714D01*
X108735476Y-102485714D01*
X108830714Y-102533333D01*
X108878333Y-102628571D01*
X108878333Y-102723809D01*
X108402142Y-102819047D01*
X109164047Y-102485714D02*
X109545000Y-102485714D01*
X109306904Y-102152380D02*
X109306904Y-103009523D01*
X109354523Y-103104761D01*
X109449761Y-103152380D01*
X109545000Y-103152380D01*
X104616428Y-103857619D02*
X104664047Y-103810000D01*
X104759285Y-103762380D01*
X104997380Y-103762380D01*
X105092619Y-103810000D01*
X105140238Y-103857619D01*
X105187857Y-103952857D01*
X105187857Y-104048095D01*
X105140238Y-104190952D01*
X104568809Y-104762380D01*
X105187857Y-104762380D01*
X105616428Y-104667142D02*
X105664047Y-104714761D01*
X105616428Y-104762380D01*
X105568809Y-104714761D01*
X105616428Y-104667142D01*
X105616428Y-104762380D01*
X106568809Y-103762380D02*
X106092619Y-103762380D01*
X106045000Y-104238571D01*
X106092619Y-104190952D01*
X106187857Y-104143333D01*
X106425952Y-104143333D01*
X106521190Y-104190952D01*
X106568809Y-104238571D01*
X106616428Y-104333809D01*
X106616428Y-104571904D01*
X106568809Y-104667142D01*
X106521190Y-104714761D01*
X106425952Y-104762380D01*
X106187857Y-104762380D01*
X106092619Y-104714761D01*
X106045000Y-104667142D01*
X106902142Y-103762380D02*
X107235476Y-104762380D01*
X107568809Y-103762380D01*
%TO.C,R10*%
X121277142Y-77032380D02*
X120943809Y-76556190D01*
X120705714Y-77032380D02*
X120705714Y-76032380D01*
X121086666Y-76032380D01*
X121181904Y-76080000D01*
X121229523Y-76127619D01*
X121277142Y-76222857D01*
X121277142Y-76365714D01*
X121229523Y-76460952D01*
X121181904Y-76508571D01*
X121086666Y-76556190D01*
X120705714Y-76556190D01*
X122229523Y-77032380D02*
X121658095Y-77032380D01*
X121943809Y-77032380D02*
X121943809Y-76032380D01*
X121848571Y-76175238D01*
X121753333Y-76270476D01*
X121658095Y-76318095D01*
X122848571Y-76032380D02*
X122943809Y-76032380D01*
X123039047Y-76080000D01*
X123086666Y-76127619D01*
X123134285Y-76222857D01*
X123181904Y-76413333D01*
X123181904Y-76651428D01*
X123134285Y-76841904D01*
X123086666Y-76937142D01*
X123039047Y-76984761D01*
X122943809Y-77032380D01*
X122848571Y-77032380D01*
X122753333Y-76984761D01*
X122705714Y-76937142D01*
X122658095Y-76841904D01*
X122610476Y-76651428D01*
X122610476Y-76413333D01*
X122658095Y-76222857D01*
X122705714Y-76127619D01*
X122753333Y-76080000D01*
X122848571Y-76032380D01*
%TO.C,R4*%
X139137380Y-89193666D02*
X138661190Y-89527000D01*
X139137380Y-89765095D02*
X138137380Y-89765095D01*
X138137380Y-89384142D01*
X138185000Y-89288904D01*
X138232619Y-89241285D01*
X138327857Y-89193666D01*
X138470714Y-89193666D01*
X138565952Y-89241285D01*
X138613571Y-89288904D01*
X138661190Y-89384142D01*
X138661190Y-89765095D01*
X138470714Y-88336523D02*
X139137380Y-88336523D01*
X138089761Y-88574619D02*
X138804047Y-88812714D01*
X138804047Y-88193666D01*
%TO.C,C12*%
X73157142Y-103324857D02*
X73204761Y-103372476D01*
X73252380Y-103515333D01*
X73252380Y-103610571D01*
X73204761Y-103753428D01*
X73109523Y-103848666D01*
X73014285Y-103896285D01*
X72823809Y-103943904D01*
X72680952Y-103943904D01*
X72490476Y-103896285D01*
X72395238Y-103848666D01*
X72300000Y-103753428D01*
X72252380Y-103610571D01*
X72252380Y-103515333D01*
X72300000Y-103372476D01*
X72347619Y-103324857D01*
X73252380Y-102372476D02*
X73252380Y-102943904D01*
X73252380Y-102658190D02*
X72252380Y-102658190D01*
X72395238Y-102753428D01*
X72490476Y-102848666D01*
X72538095Y-102943904D01*
X72347619Y-101991523D02*
X72300000Y-101943904D01*
X72252380Y-101848666D01*
X72252380Y-101610571D01*
X72300000Y-101515333D01*
X72347619Y-101467714D01*
X72442857Y-101420095D01*
X72538095Y-101420095D01*
X72680952Y-101467714D01*
X73252380Y-102039142D01*
X73252380Y-101420095D01*
%TO.C,Y1*%
X73091190Y-111601190D02*
X73567380Y-111601190D01*
X72567380Y-111934523D02*
X73091190Y-111601190D01*
X72567380Y-111267857D01*
X73567380Y-110410714D02*
X73567380Y-110982142D01*
X73567380Y-110696428D02*
X72567380Y-110696428D01*
X72710238Y-110791666D01*
X72805476Y-110886904D01*
X72853095Y-110982142D01*
%TO.C,C20*%
X123137142Y-60967857D02*
X123184761Y-61015476D01*
X123232380Y-61158333D01*
X123232380Y-61253571D01*
X123184761Y-61396428D01*
X123089523Y-61491666D01*
X122994285Y-61539285D01*
X122803809Y-61586904D01*
X122660952Y-61586904D01*
X122470476Y-61539285D01*
X122375238Y-61491666D01*
X122280000Y-61396428D01*
X122232380Y-61253571D01*
X122232380Y-61158333D01*
X122280000Y-61015476D01*
X122327619Y-60967857D01*
X122327619Y-60586904D02*
X122280000Y-60539285D01*
X122232380Y-60444047D01*
X122232380Y-60205952D01*
X122280000Y-60110714D01*
X122327619Y-60063095D01*
X122422857Y-60015476D01*
X122518095Y-60015476D01*
X122660952Y-60063095D01*
X123232380Y-60634523D01*
X123232380Y-60015476D01*
X122232380Y-59396428D02*
X122232380Y-59301190D01*
X122280000Y-59205952D01*
X122327619Y-59158333D01*
X122422857Y-59110714D01*
X122613333Y-59063095D01*
X122851428Y-59063095D01*
X123041904Y-59110714D01*
X123137142Y-59158333D01*
X123184761Y-59205952D01*
X123232380Y-59301190D01*
X123232380Y-59396428D01*
X123184761Y-59491666D01*
X123137142Y-59539285D01*
X123041904Y-59586904D01*
X122851428Y-59634523D01*
X122613333Y-59634523D01*
X122422857Y-59586904D01*
X122327619Y-59539285D01*
X122280000Y-59491666D01*
X122232380Y-59396428D01*
%TO.C,C3*%
X97623333Y-132212142D02*
X97575714Y-132259761D01*
X97432857Y-132307380D01*
X97337619Y-132307380D01*
X97194761Y-132259761D01*
X97099523Y-132164523D01*
X97051904Y-132069285D01*
X97004285Y-131878809D01*
X97004285Y-131735952D01*
X97051904Y-131545476D01*
X97099523Y-131450238D01*
X97194761Y-131355000D01*
X97337619Y-131307380D01*
X97432857Y-131307380D01*
X97575714Y-131355000D01*
X97623333Y-131402619D01*
X97956666Y-131307380D02*
X98575714Y-131307380D01*
X98242380Y-131688333D01*
X98385238Y-131688333D01*
X98480476Y-131735952D01*
X98528095Y-131783571D01*
X98575714Y-131878809D01*
X98575714Y-132116904D01*
X98528095Y-132212142D01*
X98480476Y-132259761D01*
X98385238Y-132307380D01*
X98099523Y-132307380D01*
X98004285Y-132259761D01*
X97956666Y-132212142D01*
%TO.C,R13*%
X80637142Y-54174380D02*
X80303809Y-53698190D01*
X80065714Y-54174380D02*
X80065714Y-53174380D01*
X80446666Y-53174380D01*
X80541904Y-53222000D01*
X80589523Y-53269619D01*
X80637142Y-53364857D01*
X80637142Y-53507714D01*
X80589523Y-53602952D01*
X80541904Y-53650571D01*
X80446666Y-53698190D01*
X80065714Y-53698190D01*
X81589523Y-54174380D02*
X81018095Y-54174380D01*
X81303809Y-54174380D02*
X81303809Y-53174380D01*
X81208571Y-53317238D01*
X81113333Y-53412476D01*
X81018095Y-53460095D01*
X81922857Y-53174380D02*
X82541904Y-53174380D01*
X82208571Y-53555333D01*
X82351428Y-53555333D01*
X82446666Y-53602952D01*
X82494285Y-53650571D01*
X82541904Y-53745809D01*
X82541904Y-53983904D01*
X82494285Y-54079142D01*
X82446666Y-54126761D01*
X82351428Y-54174380D01*
X82065714Y-54174380D01*
X81970476Y-54126761D01*
X81922857Y-54079142D01*
%TO.C,R9*%
X136715833Y-73732380D02*
X136382500Y-73256190D01*
X136144404Y-73732380D02*
X136144404Y-72732380D01*
X136525357Y-72732380D01*
X136620595Y-72780000D01*
X136668214Y-72827619D01*
X136715833Y-72922857D01*
X136715833Y-73065714D01*
X136668214Y-73160952D01*
X136620595Y-73208571D01*
X136525357Y-73256190D01*
X136144404Y-73256190D01*
X137192023Y-73732380D02*
X137382500Y-73732380D01*
X137477738Y-73684761D01*
X137525357Y-73637142D01*
X137620595Y-73494285D01*
X137668214Y-73303809D01*
X137668214Y-72922857D01*
X137620595Y-72827619D01*
X137572976Y-72780000D01*
X137477738Y-72732380D01*
X137287261Y-72732380D01*
X137192023Y-72780000D01*
X137144404Y-72827619D01*
X137096785Y-72922857D01*
X137096785Y-73160952D01*
X137144404Y-73256190D01*
X137192023Y-73303809D01*
X137287261Y-73351428D01*
X137477738Y-73351428D01*
X137572976Y-73303809D01*
X137620595Y-73256190D01*
X137668214Y-73160952D01*
%TO.C,TP11*%
X124753904Y-73654380D02*
X125325333Y-73654380D01*
X125039619Y-74654380D02*
X125039619Y-73654380D01*
X125658666Y-74654380D02*
X125658666Y-73654380D01*
X126039619Y-73654380D01*
X126134857Y-73702000D01*
X126182476Y-73749619D01*
X126230095Y-73844857D01*
X126230095Y-73987714D01*
X126182476Y-74082952D01*
X126134857Y-74130571D01*
X126039619Y-74178190D01*
X125658666Y-74178190D01*
X127182476Y-74654380D02*
X126611047Y-74654380D01*
X126896761Y-74654380D02*
X126896761Y-73654380D01*
X126801523Y-73797238D01*
X126706285Y-73892476D01*
X126611047Y-73940095D01*
X128134857Y-74654380D02*
X127563428Y-74654380D01*
X127849142Y-74654380D02*
X127849142Y-73654380D01*
X127753904Y-73797238D01*
X127658666Y-73892476D01*
X127563428Y-73940095D01*
%TO.C,J1*%
X139470780Y-51316325D02*
X140185392Y-51316325D01*
X140328315Y-51363966D01*
X140423596Y-51459248D01*
X140471237Y-51602170D01*
X140471237Y-51697452D01*
X140471237Y-50315868D02*
X140471237Y-50887558D01*
X140471237Y-50601713D02*
X139470780Y-50601713D01*
X139613703Y-50696995D01*
X139708984Y-50792276D01*
X139756625Y-50887558D01*
%TO.C,C9*%
X145547142Y-79541666D02*
X145594761Y-79589285D01*
X145642380Y-79732142D01*
X145642380Y-79827380D01*
X145594761Y-79970238D01*
X145499523Y-80065476D01*
X145404285Y-80113095D01*
X145213809Y-80160714D01*
X145070952Y-80160714D01*
X144880476Y-80113095D01*
X144785238Y-80065476D01*
X144690000Y-79970238D01*
X144642380Y-79827380D01*
X144642380Y-79732142D01*
X144690000Y-79589285D01*
X144737619Y-79541666D01*
X145642380Y-79065476D02*
X145642380Y-78875000D01*
X145594761Y-78779761D01*
X145547142Y-78732142D01*
X145404285Y-78636904D01*
X145213809Y-78589285D01*
X144832857Y-78589285D01*
X144737619Y-78636904D01*
X144690000Y-78684523D01*
X144642380Y-78779761D01*
X144642380Y-78970238D01*
X144690000Y-79065476D01*
X144737619Y-79113095D01*
X144832857Y-79160714D01*
X145070952Y-79160714D01*
X145166190Y-79113095D01*
X145213809Y-79065476D01*
X145261428Y-78970238D01*
X145261428Y-78779761D01*
X145213809Y-78684523D01*
X145166190Y-78636904D01*
X145070952Y-78589285D01*
%TO.C,R8*%
X142312380Y-70016666D02*
X141836190Y-70350000D01*
X142312380Y-70588095D02*
X141312380Y-70588095D01*
X141312380Y-70207142D01*
X141360000Y-70111904D01*
X141407619Y-70064285D01*
X141502857Y-70016666D01*
X141645714Y-70016666D01*
X141740952Y-70064285D01*
X141788571Y-70111904D01*
X141836190Y-70207142D01*
X141836190Y-70588095D01*
X141740952Y-69445238D02*
X141693333Y-69540476D01*
X141645714Y-69588095D01*
X141550476Y-69635714D01*
X141502857Y-69635714D01*
X141407619Y-69588095D01*
X141360000Y-69540476D01*
X141312380Y-69445238D01*
X141312380Y-69254761D01*
X141360000Y-69159523D01*
X141407619Y-69111904D01*
X141502857Y-69064285D01*
X141550476Y-69064285D01*
X141645714Y-69111904D01*
X141693333Y-69159523D01*
X141740952Y-69254761D01*
X141740952Y-69445238D01*
X141788571Y-69540476D01*
X141836190Y-69588095D01*
X141931428Y-69635714D01*
X142121904Y-69635714D01*
X142217142Y-69588095D01*
X142264761Y-69540476D01*
X142312380Y-69445238D01*
X142312380Y-69254761D01*
X142264761Y-69159523D01*
X142217142Y-69111904D01*
X142121904Y-69064285D01*
X141931428Y-69064285D01*
X141836190Y-69111904D01*
X141788571Y-69159523D01*
X141740952Y-69254761D01*
%TO.C,R5*%
X116150380Y-89066666D02*
X115674190Y-89400000D01*
X116150380Y-89638095D02*
X115150380Y-89638095D01*
X115150380Y-89257142D01*
X115198000Y-89161904D01*
X115245619Y-89114285D01*
X115340857Y-89066666D01*
X115483714Y-89066666D01*
X115578952Y-89114285D01*
X115626571Y-89161904D01*
X115674190Y-89257142D01*
X115674190Y-89638095D01*
X115150380Y-88161904D02*
X115150380Y-88638095D01*
X115626571Y-88685714D01*
X115578952Y-88638095D01*
X115531333Y-88542857D01*
X115531333Y-88304761D01*
X115578952Y-88209523D01*
X115626571Y-88161904D01*
X115721809Y-88114285D01*
X115959904Y-88114285D01*
X116055142Y-88161904D01*
X116102761Y-88209523D01*
X116150380Y-88304761D01*
X116150380Y-88542857D01*
X116102761Y-88638095D01*
X116055142Y-88685714D01*
%TO.C,C7*%
X123785333Y-128852142D02*
X123737714Y-128899761D01*
X123594857Y-128947380D01*
X123499619Y-128947380D01*
X123356761Y-128899761D01*
X123261523Y-128804523D01*
X123213904Y-128709285D01*
X123166285Y-128518809D01*
X123166285Y-128375952D01*
X123213904Y-128185476D01*
X123261523Y-128090238D01*
X123356761Y-127995000D01*
X123499619Y-127947380D01*
X123594857Y-127947380D01*
X123737714Y-127995000D01*
X123785333Y-128042619D01*
X124118666Y-127947380D02*
X124785333Y-127947380D01*
X124356761Y-128947380D01*
%TO.C,C15*%
X127005142Y-71508857D02*
X127052761Y-71556476D01*
X127100380Y-71699333D01*
X127100380Y-71794571D01*
X127052761Y-71937428D01*
X126957523Y-72032666D01*
X126862285Y-72080285D01*
X126671809Y-72127904D01*
X126528952Y-72127904D01*
X126338476Y-72080285D01*
X126243238Y-72032666D01*
X126148000Y-71937428D01*
X126100380Y-71794571D01*
X126100380Y-71699333D01*
X126148000Y-71556476D01*
X126195619Y-71508857D01*
X127100380Y-70556476D02*
X127100380Y-71127904D01*
X127100380Y-70842190D02*
X126100380Y-70842190D01*
X126243238Y-70937428D01*
X126338476Y-71032666D01*
X126386095Y-71127904D01*
X126100380Y-69651714D02*
X126100380Y-70127904D01*
X126576571Y-70175523D01*
X126528952Y-70127904D01*
X126481333Y-70032666D01*
X126481333Y-69794571D01*
X126528952Y-69699333D01*
X126576571Y-69651714D01*
X126671809Y-69604095D01*
X126909904Y-69604095D01*
X127005142Y-69651714D01*
X127052761Y-69699333D01*
X127100380Y-69794571D01*
X127100380Y-70032666D01*
X127052761Y-70127904D01*
X127005142Y-70175523D01*
%TO.C,AntennaConnector1*%
X67976666Y-135270000D02*
X67976666Y-134793809D01*
X68262380Y-135365238D02*
X67262380Y-135031904D01*
X68262380Y-134698571D01*
X67595714Y-134365238D02*
X68262380Y-134365238D01*
X67690952Y-134365238D02*
X67643333Y-134317619D01*
X67595714Y-134222380D01*
X67595714Y-134079523D01*
X67643333Y-133984285D01*
X67738571Y-133936666D01*
X68262380Y-133936666D01*
X67595714Y-133603333D02*
X67595714Y-133222380D01*
X67262380Y-133460476D02*
X68119523Y-133460476D01*
X68214761Y-133412857D01*
X68262380Y-133317619D01*
X68262380Y-133222380D01*
X68214761Y-132508095D02*
X68262380Y-132603333D01*
X68262380Y-132793809D01*
X68214761Y-132889047D01*
X68119523Y-132936666D01*
X67738571Y-132936666D01*
X67643333Y-132889047D01*
X67595714Y-132793809D01*
X67595714Y-132603333D01*
X67643333Y-132508095D01*
X67738571Y-132460476D01*
X67833809Y-132460476D01*
X67929047Y-132936666D01*
X67595714Y-132031904D02*
X68262380Y-132031904D01*
X67690952Y-132031904D02*
X67643333Y-131984285D01*
X67595714Y-131889047D01*
X67595714Y-131746190D01*
X67643333Y-131650952D01*
X67738571Y-131603333D01*
X68262380Y-131603333D01*
X67595714Y-131127142D02*
X68262380Y-131127142D01*
X67690952Y-131127142D02*
X67643333Y-131079523D01*
X67595714Y-130984285D01*
X67595714Y-130841428D01*
X67643333Y-130746190D01*
X67738571Y-130698571D01*
X68262380Y-130698571D01*
X68262380Y-129793809D02*
X67738571Y-129793809D01*
X67643333Y-129841428D01*
X67595714Y-129936666D01*
X67595714Y-130127142D01*
X67643333Y-130222380D01*
X68214761Y-129793809D02*
X68262380Y-129889047D01*
X68262380Y-130127142D01*
X68214761Y-130222380D01*
X68119523Y-130270000D01*
X68024285Y-130270000D01*
X67929047Y-130222380D01*
X67881428Y-130127142D01*
X67881428Y-129889047D01*
X67833809Y-129793809D01*
X68167142Y-128746190D02*
X68214761Y-128793809D01*
X68262380Y-128936666D01*
X68262380Y-129031904D01*
X68214761Y-129174761D01*
X68119523Y-129270000D01*
X68024285Y-129317619D01*
X67833809Y-129365238D01*
X67690952Y-129365238D01*
X67500476Y-129317619D01*
X67405238Y-129270000D01*
X67310000Y-129174761D01*
X67262380Y-129031904D01*
X67262380Y-128936666D01*
X67310000Y-128793809D01*
X67357619Y-128746190D01*
X68262380Y-128174761D02*
X68214761Y-128270000D01*
X68167142Y-128317619D01*
X68071904Y-128365238D01*
X67786190Y-128365238D01*
X67690952Y-128317619D01*
X67643333Y-128270000D01*
X67595714Y-128174761D01*
X67595714Y-128031904D01*
X67643333Y-127936666D01*
X67690952Y-127889047D01*
X67786190Y-127841428D01*
X68071904Y-127841428D01*
X68167142Y-127889047D01*
X68214761Y-127936666D01*
X68262380Y-128031904D01*
X68262380Y-128174761D01*
X67595714Y-127412857D02*
X68262380Y-127412857D01*
X67690952Y-127412857D02*
X67643333Y-127365238D01*
X67595714Y-127270000D01*
X67595714Y-127127142D01*
X67643333Y-127031904D01*
X67738571Y-126984285D01*
X68262380Y-126984285D01*
X67595714Y-126508095D02*
X68262380Y-126508095D01*
X67690952Y-126508095D02*
X67643333Y-126460476D01*
X67595714Y-126365238D01*
X67595714Y-126222380D01*
X67643333Y-126127142D01*
X67738571Y-126079523D01*
X68262380Y-126079523D01*
X68214761Y-125222380D02*
X68262380Y-125317619D01*
X68262380Y-125508095D01*
X68214761Y-125603333D01*
X68119523Y-125650952D01*
X67738571Y-125650952D01*
X67643333Y-125603333D01*
X67595714Y-125508095D01*
X67595714Y-125317619D01*
X67643333Y-125222380D01*
X67738571Y-125174761D01*
X67833809Y-125174761D01*
X67929047Y-125650952D01*
X68214761Y-124317619D02*
X68262380Y-124412857D01*
X68262380Y-124603333D01*
X68214761Y-124698571D01*
X68167142Y-124746190D01*
X68071904Y-124793809D01*
X67786190Y-124793809D01*
X67690952Y-124746190D01*
X67643333Y-124698571D01*
X67595714Y-124603333D01*
X67595714Y-124412857D01*
X67643333Y-124317619D01*
X67595714Y-124031904D02*
X67595714Y-123650952D01*
X67262380Y-123889047D02*
X68119523Y-123889047D01*
X68214761Y-123841428D01*
X68262380Y-123746190D01*
X68262380Y-123650952D01*
X68262380Y-123174761D02*
X68214761Y-123270000D01*
X68167142Y-123317619D01*
X68071904Y-123365238D01*
X67786190Y-123365238D01*
X67690952Y-123317619D01*
X67643333Y-123270000D01*
X67595714Y-123174761D01*
X67595714Y-123031904D01*
X67643333Y-122936666D01*
X67690952Y-122889047D01*
X67786190Y-122841428D01*
X68071904Y-122841428D01*
X68167142Y-122889047D01*
X68214761Y-122936666D01*
X68262380Y-123031904D01*
X68262380Y-123174761D01*
X68262380Y-122412857D02*
X67595714Y-122412857D01*
X67786190Y-122412857D02*
X67690952Y-122365238D01*
X67643333Y-122317619D01*
X67595714Y-122222380D01*
X67595714Y-122127142D01*
X68262380Y-121270000D02*
X68262380Y-121841428D01*
X68262380Y-121555714D02*
X67262380Y-121555714D01*
X67405238Y-121650952D01*
X67500476Y-121746190D01*
X67548095Y-121841428D01*
%TO.C,L3*%
X127234380Y-130214666D02*
X127234380Y-130690857D01*
X126234380Y-130690857D01*
X126234380Y-129976571D02*
X126234380Y-129357523D01*
X126615333Y-129690857D01*
X126615333Y-129548000D01*
X126662952Y-129452761D01*
X126710571Y-129405142D01*
X126805809Y-129357523D01*
X127043904Y-129357523D01*
X127139142Y-129405142D01*
X127186761Y-129452761D01*
X127234380Y-129548000D01*
X127234380Y-129833714D01*
X127186761Y-129928952D01*
X127139142Y-129976571D01*
%TO.C,C13*%
X118057142Y-101795357D02*
X118104761Y-101842976D01*
X118152380Y-101985833D01*
X118152380Y-102081071D01*
X118104761Y-102223928D01*
X118009523Y-102319166D01*
X117914285Y-102366785D01*
X117723809Y-102414404D01*
X117580952Y-102414404D01*
X117390476Y-102366785D01*
X117295238Y-102319166D01*
X117200000Y-102223928D01*
X117152380Y-102081071D01*
X117152380Y-101985833D01*
X117200000Y-101842976D01*
X117247619Y-101795357D01*
X118152380Y-100842976D02*
X118152380Y-101414404D01*
X118152380Y-101128690D02*
X117152380Y-101128690D01*
X117295238Y-101223928D01*
X117390476Y-101319166D01*
X117438095Y-101414404D01*
X117152380Y-100509642D02*
X117152380Y-99890595D01*
X117533333Y-100223928D01*
X117533333Y-100081071D01*
X117580952Y-99985833D01*
X117628571Y-99938214D01*
X117723809Y-99890595D01*
X117961904Y-99890595D01*
X118057142Y-99938214D01*
X118104761Y-99985833D01*
X118152380Y-100081071D01*
X118152380Y-100366785D01*
X118104761Y-100462023D01*
X118057142Y-100509642D01*
%TO.C,TP15*%
X118276904Y-57144380D02*
X118848333Y-57144380D01*
X118562619Y-58144380D02*
X118562619Y-57144380D01*
X119181666Y-58144380D02*
X119181666Y-57144380D01*
X119562619Y-57144380D01*
X119657857Y-57192000D01*
X119705476Y-57239619D01*
X119753095Y-57334857D01*
X119753095Y-57477714D01*
X119705476Y-57572952D01*
X119657857Y-57620571D01*
X119562619Y-57668190D01*
X119181666Y-57668190D01*
X120705476Y-58144380D02*
X120134047Y-58144380D01*
X120419761Y-58144380D02*
X120419761Y-57144380D01*
X120324523Y-57287238D01*
X120229285Y-57382476D01*
X120134047Y-57430095D01*
X121610238Y-57144380D02*
X121134047Y-57144380D01*
X121086428Y-57620571D01*
X121134047Y-57572952D01*
X121229285Y-57525333D01*
X121467380Y-57525333D01*
X121562619Y-57572952D01*
X121610238Y-57620571D01*
X121657857Y-57715809D01*
X121657857Y-57953904D01*
X121610238Y-58049142D01*
X121562619Y-58096761D01*
X121467380Y-58144380D01*
X121229285Y-58144380D01*
X121134047Y-58096761D01*
X121086428Y-58049142D01*
%TO.C,C10*%
X97279142Y-54761612D02*
X97326761Y-54809231D01*
X97374380Y-54952088D01*
X97374380Y-55047326D01*
X97326761Y-55190183D01*
X97231523Y-55285421D01*
X97136285Y-55333040D01*
X96945809Y-55380659D01*
X96802952Y-55380659D01*
X96612476Y-55333040D01*
X96517238Y-55285421D01*
X96422000Y-55190183D01*
X96374380Y-55047326D01*
X96374380Y-54952088D01*
X96422000Y-54809231D01*
X96469619Y-54761612D01*
X97374380Y-53809231D02*
X97374380Y-54380659D01*
X97374380Y-54094945D02*
X96374380Y-54094945D01*
X96517238Y-54190183D01*
X96612476Y-54285421D01*
X96660095Y-54380659D01*
X96374380Y-53190183D02*
X96374380Y-53094945D01*
X96422000Y-52999707D01*
X96469619Y-52952088D01*
X96564857Y-52904469D01*
X96755333Y-52856850D01*
X96993428Y-52856850D01*
X97183904Y-52904469D01*
X97279142Y-52952088D01*
X97326761Y-52999707D01*
X97374380Y-53094945D01*
X97374380Y-53190183D01*
X97326761Y-53285421D01*
X97279142Y-53333040D01*
X97183904Y-53380659D01*
X96993428Y-53428278D01*
X96755333Y-53428278D01*
X96564857Y-53380659D01*
X96469619Y-53333040D01*
X96422000Y-53285421D01*
X96374380Y-53190183D01*
%TO.C,TP9*%
X121293095Y-90986880D02*
X121864523Y-90986880D01*
X121578809Y-91986880D02*
X121578809Y-90986880D01*
X122197857Y-91986880D02*
X122197857Y-90986880D01*
X122578809Y-90986880D01*
X122674047Y-91034500D01*
X122721666Y-91082119D01*
X122769285Y-91177357D01*
X122769285Y-91320214D01*
X122721666Y-91415452D01*
X122674047Y-91463071D01*
X122578809Y-91510690D01*
X122197857Y-91510690D01*
X123245476Y-91986880D02*
X123435952Y-91986880D01*
X123531190Y-91939261D01*
X123578809Y-91891642D01*
X123674047Y-91748785D01*
X123721666Y-91558309D01*
X123721666Y-91177357D01*
X123674047Y-91082119D01*
X123626428Y-91034500D01*
X123531190Y-90986880D01*
X123340714Y-90986880D01*
X123245476Y-91034500D01*
X123197857Y-91082119D01*
X123150238Y-91177357D01*
X123150238Y-91415452D01*
X123197857Y-91510690D01*
X123245476Y-91558309D01*
X123340714Y-91605928D01*
X123531190Y-91605928D01*
X123626428Y-91558309D01*
X123674047Y-91510690D01*
X123721666Y-91415452D01*
%TO.C,C11*%
X111437142Y-95832142D02*
X111389523Y-95879761D01*
X111246666Y-95927380D01*
X111151428Y-95927380D01*
X111008571Y-95879761D01*
X110913333Y-95784523D01*
X110865714Y-95689285D01*
X110818095Y-95498809D01*
X110818095Y-95355952D01*
X110865714Y-95165476D01*
X110913333Y-95070238D01*
X111008571Y-94975000D01*
X111151428Y-94927380D01*
X111246666Y-94927380D01*
X111389523Y-94975000D01*
X111437142Y-95022619D01*
X112389523Y-95927380D02*
X111818095Y-95927380D01*
X112103809Y-95927380D02*
X112103809Y-94927380D01*
X112008571Y-95070238D01*
X111913333Y-95165476D01*
X111818095Y-95213095D01*
X113341904Y-95927380D02*
X112770476Y-95927380D01*
X113056190Y-95927380D02*
X113056190Y-94927380D01*
X112960952Y-95070238D01*
X112865714Y-95165476D01*
X112770476Y-95213095D01*
%TO.C,TP7*%
X140343095Y-90986880D02*
X140914523Y-90986880D01*
X140628809Y-91986880D02*
X140628809Y-90986880D01*
X141247857Y-91986880D02*
X141247857Y-90986880D01*
X141628809Y-90986880D01*
X141724047Y-91034500D01*
X141771666Y-91082119D01*
X141819285Y-91177357D01*
X141819285Y-91320214D01*
X141771666Y-91415452D01*
X141724047Y-91463071D01*
X141628809Y-91510690D01*
X141247857Y-91510690D01*
X142152619Y-90986880D02*
X142819285Y-90986880D01*
X142390714Y-91986880D01*
%TO.C,TP2*%
X82558095Y-109214380D02*
X83129523Y-109214380D01*
X82843809Y-110214380D02*
X82843809Y-109214380D01*
X83462857Y-110214380D02*
X83462857Y-109214380D01*
X83843809Y-109214380D01*
X83939047Y-109262000D01*
X83986666Y-109309619D01*
X84034285Y-109404857D01*
X84034285Y-109547714D01*
X83986666Y-109642952D01*
X83939047Y-109690571D01*
X83843809Y-109738190D01*
X83462857Y-109738190D01*
X84415238Y-109309619D02*
X84462857Y-109262000D01*
X84558095Y-109214380D01*
X84796190Y-109214380D01*
X84891428Y-109262000D01*
X84939047Y-109309619D01*
X84986666Y-109404857D01*
X84986666Y-109500095D01*
X84939047Y-109642952D01*
X84367619Y-110214380D01*
X84986666Y-110214380D01*
%TO.C,TP4*%
X82558095Y-99689380D02*
X83129523Y-99689380D01*
X82843809Y-100689380D02*
X82843809Y-99689380D01*
X83462857Y-100689380D02*
X83462857Y-99689380D01*
X83843809Y-99689380D01*
X83939047Y-99737000D01*
X83986666Y-99784619D01*
X84034285Y-99879857D01*
X84034285Y-100022714D01*
X83986666Y-100117952D01*
X83939047Y-100165571D01*
X83843809Y-100213190D01*
X83462857Y-100213190D01*
X84891428Y-100022714D02*
X84891428Y-100689380D01*
X84653333Y-99641761D02*
X84415238Y-100356047D01*
X85034285Y-100356047D01*
%TO.C,R1*%
X115132380Y-101319166D02*
X114656190Y-101652500D01*
X115132380Y-101890595D02*
X114132380Y-101890595D01*
X114132380Y-101509642D01*
X114180000Y-101414404D01*
X114227619Y-101366785D01*
X114322857Y-101319166D01*
X114465714Y-101319166D01*
X114560952Y-101366785D01*
X114608571Y-101414404D01*
X114656190Y-101509642D01*
X114656190Y-101890595D01*
X115132380Y-100366785D02*
X115132380Y-100938214D01*
X115132380Y-100652500D02*
X114132380Y-100652500D01*
X114275238Y-100747738D01*
X114370476Y-100842976D01*
X114418095Y-100938214D01*
%TO.C,TP5*%
X82558095Y-104134380D02*
X83129523Y-104134380D01*
X82843809Y-105134380D02*
X82843809Y-104134380D01*
X83462857Y-105134380D02*
X83462857Y-104134380D01*
X83843809Y-104134380D01*
X83939047Y-104182000D01*
X83986666Y-104229619D01*
X84034285Y-104324857D01*
X84034285Y-104467714D01*
X83986666Y-104562952D01*
X83939047Y-104610571D01*
X83843809Y-104658190D01*
X83462857Y-104658190D01*
X84939047Y-104134380D02*
X84462857Y-104134380D01*
X84415238Y-104610571D01*
X84462857Y-104562952D01*
X84558095Y-104515333D01*
X84796190Y-104515333D01*
X84891428Y-104562952D01*
X84939047Y-104610571D01*
X84986666Y-104705809D01*
X84986666Y-104943904D01*
X84939047Y-105039142D01*
X84891428Y-105086761D01*
X84796190Y-105134380D01*
X84558095Y-105134380D01*
X84462857Y-105086761D01*
X84415238Y-105039142D01*
%TO.C,C19*%
X140917142Y-62872857D02*
X140964761Y-62920476D01*
X141012380Y-63063333D01*
X141012380Y-63158571D01*
X140964761Y-63301428D01*
X140869523Y-63396666D01*
X140774285Y-63444285D01*
X140583809Y-63491904D01*
X140440952Y-63491904D01*
X140250476Y-63444285D01*
X140155238Y-63396666D01*
X140060000Y-63301428D01*
X140012380Y-63158571D01*
X140012380Y-63063333D01*
X140060000Y-62920476D01*
X140107619Y-62872857D01*
X141012380Y-61920476D02*
X141012380Y-62491904D01*
X141012380Y-62206190D02*
X140012380Y-62206190D01*
X140155238Y-62301428D01*
X140250476Y-62396666D01*
X140298095Y-62491904D01*
X141012380Y-61444285D02*
X141012380Y-61253809D01*
X140964761Y-61158571D01*
X140917142Y-61110952D01*
X140774285Y-61015714D01*
X140583809Y-60968095D01*
X140202857Y-60968095D01*
X140107619Y-61015714D01*
X140060000Y-61063333D01*
X140012380Y-61158571D01*
X140012380Y-61349047D01*
X140060000Y-61444285D01*
X140107619Y-61491904D01*
X140202857Y-61539523D01*
X140440952Y-61539523D01*
X140536190Y-61491904D01*
X140583809Y-61444285D01*
X140631428Y-61349047D01*
X140631428Y-61158571D01*
X140583809Y-61063333D01*
X140536190Y-61015714D01*
X140440952Y-60968095D01*
%TO.C,R11*%
X63492142Y-103067380D02*
X63158809Y-102591190D01*
X62920714Y-103067380D02*
X62920714Y-102067380D01*
X63301666Y-102067380D01*
X63396904Y-102115000D01*
X63444523Y-102162619D01*
X63492142Y-102257857D01*
X63492142Y-102400714D01*
X63444523Y-102495952D01*
X63396904Y-102543571D01*
X63301666Y-102591190D01*
X62920714Y-102591190D01*
X64444523Y-103067380D02*
X63873095Y-103067380D01*
X64158809Y-103067380D02*
X64158809Y-102067380D01*
X64063571Y-102210238D01*
X63968333Y-102305476D01*
X63873095Y-102353095D01*
X65396904Y-103067380D02*
X64825476Y-103067380D01*
X65111190Y-103067380D02*
X65111190Y-102067380D01*
X65015952Y-102210238D01*
X64920714Y-102305476D01*
X64825476Y-102353095D01*
%TO.C,C18*%
X128852142Y-65727857D02*
X128899761Y-65775476D01*
X128947380Y-65918333D01*
X128947380Y-66013571D01*
X128899761Y-66156428D01*
X128804523Y-66251666D01*
X128709285Y-66299285D01*
X128518809Y-66346904D01*
X128375952Y-66346904D01*
X128185476Y-66299285D01*
X128090238Y-66251666D01*
X127995000Y-66156428D01*
X127947380Y-66013571D01*
X127947380Y-65918333D01*
X127995000Y-65775476D01*
X128042619Y-65727857D01*
X128947380Y-64775476D02*
X128947380Y-65346904D01*
X128947380Y-65061190D02*
X127947380Y-65061190D01*
X128090238Y-65156428D01*
X128185476Y-65251666D01*
X128233095Y-65346904D01*
X128375952Y-64204047D02*
X128328333Y-64299285D01*
X128280714Y-64346904D01*
X128185476Y-64394523D01*
X128137857Y-64394523D01*
X128042619Y-64346904D01*
X127995000Y-64299285D01*
X127947380Y-64204047D01*
X127947380Y-64013571D01*
X127995000Y-63918333D01*
X128042619Y-63870714D01*
X128137857Y-63823095D01*
X128185476Y-63823095D01*
X128280714Y-63870714D01*
X128328333Y-63918333D01*
X128375952Y-64013571D01*
X128375952Y-64204047D01*
X128423571Y-64299285D01*
X128471190Y-64346904D01*
X128566428Y-64394523D01*
X128756904Y-64394523D01*
X128852142Y-64346904D01*
X128899761Y-64299285D01*
X128947380Y-64204047D01*
X128947380Y-64013571D01*
X128899761Y-63918333D01*
X128852142Y-63870714D01*
X128756904Y-63823095D01*
X128566428Y-63823095D01*
X128471190Y-63870714D01*
X128423571Y-63918333D01*
X128375952Y-64013571D01*
%TO.C,TP3*%
X132802380Y-111751904D02*
X132802380Y-111180476D01*
X133802380Y-111466190D02*
X132802380Y-111466190D01*
X133802380Y-110847142D02*
X132802380Y-110847142D01*
X132802380Y-110466190D01*
X132850000Y-110370952D01*
X132897619Y-110323333D01*
X132992857Y-110275714D01*
X133135714Y-110275714D01*
X133230952Y-110323333D01*
X133278571Y-110370952D01*
X133326190Y-110466190D01*
X133326190Y-110847142D01*
X132802380Y-109942380D02*
X132802380Y-109323333D01*
X133183333Y-109656666D01*
X133183333Y-109513809D01*
X133230952Y-109418571D01*
X133278571Y-109370952D01*
X133373809Y-109323333D01*
X133611904Y-109323333D01*
X133707142Y-109370952D01*
X133754761Y-109418571D01*
X133802380Y-109513809D01*
X133802380Y-109799523D01*
X133754761Y-109894761D01*
X133707142Y-109942380D01*
%TO.C,L1*%
X100818380Y-130214666D02*
X100818380Y-130690857D01*
X99818380Y-130690857D01*
X100818380Y-129357523D02*
X100818380Y-129928952D01*
X100818380Y-129643238D02*
X99818380Y-129643238D01*
X99961238Y-129738476D01*
X100056476Y-129833714D01*
X100104095Y-129928952D01*
%TO.C,R2*%
X115132380Y-105576666D02*
X114656190Y-105910000D01*
X115132380Y-106148095D02*
X114132380Y-106148095D01*
X114132380Y-105767142D01*
X114180000Y-105671904D01*
X114227619Y-105624285D01*
X114322857Y-105576666D01*
X114465714Y-105576666D01*
X114560952Y-105624285D01*
X114608571Y-105671904D01*
X114656190Y-105767142D01*
X114656190Y-106148095D01*
X114227619Y-105195714D02*
X114180000Y-105148095D01*
X114132380Y-105052857D01*
X114132380Y-104814761D01*
X114180000Y-104719523D01*
X114227619Y-104671904D01*
X114322857Y-104624285D01*
X114418095Y-104624285D01*
X114560952Y-104671904D01*
X115132380Y-105243333D01*
X115132380Y-104624285D01*
%TO.C,R6*%
X123262380Y-89193666D02*
X122786190Y-89527000D01*
X123262380Y-89765095D02*
X122262380Y-89765095D01*
X122262380Y-89384142D01*
X122310000Y-89288904D01*
X122357619Y-89241285D01*
X122452857Y-89193666D01*
X122595714Y-89193666D01*
X122690952Y-89241285D01*
X122738571Y-89288904D01*
X122786190Y-89384142D01*
X122786190Y-89765095D01*
X122262380Y-88336523D02*
X122262380Y-88527000D01*
X122310000Y-88622238D01*
X122357619Y-88669857D01*
X122500476Y-88765095D01*
X122690952Y-88812714D01*
X123071904Y-88812714D01*
X123167142Y-88765095D01*
X123214761Y-88717476D01*
X123262380Y-88622238D01*
X123262380Y-88431761D01*
X123214761Y-88336523D01*
X123167142Y-88288904D01*
X123071904Y-88241285D01*
X122833809Y-88241285D01*
X122738571Y-88288904D01*
X122690952Y-88336523D01*
X122643333Y-88431761D01*
X122643333Y-88622238D01*
X122690952Y-88717476D01*
X122738571Y-88765095D01*
X122833809Y-88812714D01*
%TO.C,R12*%
X63492142Y-109417380D02*
X63158809Y-108941190D01*
X62920714Y-109417380D02*
X62920714Y-108417380D01*
X63301666Y-108417380D01*
X63396904Y-108465000D01*
X63444523Y-108512619D01*
X63492142Y-108607857D01*
X63492142Y-108750714D01*
X63444523Y-108845952D01*
X63396904Y-108893571D01*
X63301666Y-108941190D01*
X62920714Y-108941190D01*
X64444523Y-109417380D02*
X63873095Y-109417380D01*
X64158809Y-109417380D02*
X64158809Y-108417380D01*
X64063571Y-108560238D01*
X63968333Y-108655476D01*
X63873095Y-108703095D01*
X64825476Y-108512619D02*
X64873095Y-108465000D01*
X64968333Y-108417380D01*
X65206428Y-108417380D01*
X65301666Y-108465000D01*
X65349285Y-108512619D01*
X65396904Y-108607857D01*
X65396904Y-108703095D01*
X65349285Y-108845952D01*
X64777857Y-109417380D01*
X65396904Y-109417380D01*
%TO.C,R7*%
X123770380Y-67222666D02*
X123294190Y-67556000D01*
X123770380Y-67794095D02*
X122770380Y-67794095D01*
X122770380Y-67413142D01*
X122818000Y-67317904D01*
X122865619Y-67270285D01*
X122960857Y-67222666D01*
X123103714Y-67222666D01*
X123198952Y-67270285D01*
X123246571Y-67317904D01*
X123294190Y-67413142D01*
X123294190Y-67794095D01*
X122770380Y-66889333D02*
X122770380Y-66222666D01*
X123770380Y-66651238D01*
%TO.C,C17*%
X121277142Y-63447142D02*
X121229523Y-63494761D01*
X121086666Y-63542380D01*
X120991428Y-63542380D01*
X120848571Y-63494761D01*
X120753333Y-63399523D01*
X120705714Y-63304285D01*
X120658095Y-63113809D01*
X120658095Y-62970952D01*
X120705714Y-62780476D01*
X120753333Y-62685238D01*
X120848571Y-62590000D01*
X120991428Y-62542380D01*
X121086666Y-62542380D01*
X121229523Y-62590000D01*
X121277142Y-62637619D01*
X122229523Y-63542380D02*
X121658095Y-63542380D01*
X121943809Y-63542380D02*
X121943809Y-62542380D01*
X121848571Y-62685238D01*
X121753333Y-62780476D01*
X121658095Y-62828095D01*
X122562857Y-62542380D02*
X123229523Y-62542380D01*
X122800952Y-63542380D01*
%TO.C,C8*%
X145547142Y-73826666D02*
X145594761Y-73874285D01*
X145642380Y-74017142D01*
X145642380Y-74112380D01*
X145594761Y-74255238D01*
X145499523Y-74350476D01*
X145404285Y-74398095D01*
X145213809Y-74445714D01*
X145070952Y-74445714D01*
X144880476Y-74398095D01*
X144785238Y-74350476D01*
X144690000Y-74255238D01*
X144642380Y-74112380D01*
X144642380Y-74017142D01*
X144690000Y-73874285D01*
X144737619Y-73826666D01*
X145070952Y-73255238D02*
X145023333Y-73350476D01*
X144975714Y-73398095D01*
X144880476Y-73445714D01*
X144832857Y-73445714D01*
X144737619Y-73398095D01*
X144690000Y-73350476D01*
X144642380Y-73255238D01*
X144642380Y-73064761D01*
X144690000Y-72969523D01*
X144737619Y-72921904D01*
X144832857Y-72874285D01*
X144880476Y-72874285D01*
X144975714Y-72921904D01*
X145023333Y-72969523D01*
X145070952Y-73064761D01*
X145070952Y-73255238D01*
X145118571Y-73350476D01*
X145166190Y-73398095D01*
X145261428Y-73445714D01*
X145451904Y-73445714D01*
X145547142Y-73398095D01*
X145594761Y-73350476D01*
X145642380Y-73255238D01*
X145642380Y-73064761D01*
X145594761Y-72969523D01*
X145547142Y-72921904D01*
X145451904Y-72874285D01*
X145261428Y-72874285D01*
X145166190Y-72921904D01*
X145118571Y-72969523D01*
X145070952Y-73064761D01*
%TO.C,TP12*%
X134151904Y-85338380D02*
X134723333Y-85338380D01*
X134437619Y-86338380D02*
X134437619Y-85338380D01*
X135056666Y-86338380D02*
X135056666Y-85338380D01*
X135437619Y-85338380D01*
X135532857Y-85386000D01*
X135580476Y-85433619D01*
X135628095Y-85528857D01*
X135628095Y-85671714D01*
X135580476Y-85766952D01*
X135532857Y-85814571D01*
X135437619Y-85862190D01*
X135056666Y-85862190D01*
X136580476Y-86338380D02*
X136009047Y-86338380D01*
X136294761Y-86338380D02*
X136294761Y-85338380D01*
X136199523Y-85481238D01*
X136104285Y-85576476D01*
X136009047Y-85624095D01*
X136961428Y-85433619D02*
X137009047Y-85386000D01*
X137104285Y-85338380D01*
X137342380Y-85338380D01*
X137437619Y-85386000D01*
X137485238Y-85433619D01*
X137532857Y-85528857D01*
X137532857Y-85624095D01*
X137485238Y-85766952D01*
X136913809Y-86338380D01*
X137532857Y-86338380D01*
%TO.C,TP14*%
X141136904Y-54604380D02*
X141708333Y-54604380D01*
X141422619Y-55604380D02*
X141422619Y-54604380D01*
X142041666Y-55604380D02*
X142041666Y-54604380D01*
X142422619Y-54604380D01*
X142517857Y-54652000D01*
X142565476Y-54699619D01*
X142613095Y-54794857D01*
X142613095Y-54937714D01*
X142565476Y-55032952D01*
X142517857Y-55080571D01*
X142422619Y-55128190D01*
X142041666Y-55128190D01*
X143565476Y-55604380D02*
X142994047Y-55604380D01*
X143279761Y-55604380D02*
X143279761Y-54604380D01*
X143184523Y-54747238D01*
X143089285Y-54842476D01*
X142994047Y-54890095D01*
X144422619Y-54937714D02*
X144422619Y-55604380D01*
X144184523Y-54556761D02*
X143946428Y-55271047D01*
X144565476Y-55271047D01*
%TO.C,C4*%
X90429142Y-56554666D02*
X90476761Y-56602285D01*
X90524380Y-56745142D01*
X90524380Y-56840380D01*
X90476761Y-56983238D01*
X90381523Y-57078476D01*
X90286285Y-57126095D01*
X90095809Y-57173714D01*
X89952952Y-57173714D01*
X89762476Y-57126095D01*
X89667238Y-57078476D01*
X89572000Y-56983238D01*
X89524380Y-56840380D01*
X89524380Y-56745142D01*
X89572000Y-56602285D01*
X89619619Y-56554666D01*
X89857714Y-55697523D02*
X90524380Y-55697523D01*
X89476761Y-55935619D02*
X90191047Y-56173714D01*
X90191047Y-55554666D01*
%TO.C,TP8*%
X114943095Y-90986880D02*
X115514523Y-90986880D01*
X115228809Y-91986880D02*
X115228809Y-90986880D01*
X115847857Y-91986880D02*
X115847857Y-90986880D01*
X116228809Y-90986880D01*
X116324047Y-91034500D01*
X116371666Y-91082119D01*
X116419285Y-91177357D01*
X116419285Y-91320214D01*
X116371666Y-91415452D01*
X116324047Y-91463071D01*
X116228809Y-91510690D01*
X115847857Y-91510690D01*
X116990714Y-91415452D02*
X116895476Y-91367833D01*
X116847857Y-91320214D01*
X116800238Y-91224976D01*
X116800238Y-91177357D01*
X116847857Y-91082119D01*
X116895476Y-91034500D01*
X116990714Y-90986880D01*
X117181190Y-90986880D01*
X117276428Y-91034500D01*
X117324047Y-91082119D01*
X117371666Y-91177357D01*
X117371666Y-91224976D01*
X117324047Y-91320214D01*
X117276428Y-91367833D01*
X117181190Y-91415452D01*
X116990714Y-91415452D01*
X116895476Y-91463071D01*
X116847857Y-91510690D01*
X116800238Y-91605928D01*
X116800238Y-91796404D01*
X116847857Y-91891642D01*
X116895476Y-91939261D01*
X116990714Y-91986880D01*
X117181190Y-91986880D01*
X117276428Y-91939261D01*
X117324047Y-91891642D01*
X117371666Y-91796404D01*
X117371666Y-91605928D01*
X117324047Y-91510690D01*
X117276428Y-91463071D01*
X117181190Y-91415452D01*
%TO.C,U3*%
X121187380Y-103884404D02*
X121996904Y-103884404D01*
X122092142Y-103836785D01*
X122139761Y-103789166D01*
X122187380Y-103693928D01*
X122187380Y-103503452D01*
X122139761Y-103408214D01*
X122092142Y-103360595D01*
X121996904Y-103312976D01*
X121187380Y-103312976D01*
X121187380Y-102932023D02*
X121187380Y-102312976D01*
X121568333Y-102646309D01*
X121568333Y-102503452D01*
X121615952Y-102408214D01*
X121663571Y-102360595D01*
X121758809Y-102312976D01*
X121996904Y-102312976D01*
X122092142Y-102360595D01*
X122139761Y-102408214D01*
X122187380Y-102503452D01*
X122187380Y-102789166D01*
X122139761Y-102884404D01*
X122092142Y-102932023D01*
%TO.C,R3*%
X130882380Y-89193666D02*
X130406190Y-89527000D01*
X130882380Y-89765095D02*
X129882380Y-89765095D01*
X129882380Y-89384142D01*
X129930000Y-89288904D01*
X129977619Y-89241285D01*
X130072857Y-89193666D01*
X130215714Y-89193666D01*
X130310952Y-89241285D01*
X130358571Y-89288904D01*
X130406190Y-89384142D01*
X130406190Y-89765095D01*
X129882380Y-88860333D02*
X129882380Y-88241285D01*
X130263333Y-88574619D01*
X130263333Y-88431761D01*
X130310952Y-88336523D01*
X130358571Y-88288904D01*
X130453809Y-88241285D01*
X130691904Y-88241285D01*
X130787142Y-88288904D01*
X130834761Y-88336523D01*
X130882380Y-88431761D01*
X130882380Y-88717476D01*
X130834761Y-88812714D01*
X130787142Y-88860333D01*
%TO.C,U4*%
X130302095Y-66664380D02*
X130302095Y-67473904D01*
X130349714Y-67569142D01*
X130397333Y-67616761D01*
X130492571Y-67664380D01*
X130683047Y-67664380D01*
X130778285Y-67616761D01*
X130825904Y-67569142D01*
X130873523Y-67473904D01*
X130873523Y-66664380D01*
X131778285Y-66997714D02*
X131778285Y-67664380D01*
X131540190Y-66616761D02*
X131302095Y-67331047D01*
X131921142Y-67331047D01*
%TO.C,C6*%
X96017142Y-56554666D02*
X96064761Y-56602285D01*
X96112380Y-56745142D01*
X96112380Y-56840380D01*
X96064761Y-56983238D01*
X95969523Y-57078476D01*
X95874285Y-57126095D01*
X95683809Y-57173714D01*
X95540952Y-57173714D01*
X95350476Y-57126095D01*
X95255238Y-57078476D01*
X95160000Y-56983238D01*
X95112380Y-56840380D01*
X95112380Y-56745142D01*
X95160000Y-56602285D01*
X95207619Y-56554666D01*
X95112380Y-55697523D02*
X95112380Y-55888000D01*
X95160000Y-55983238D01*
X95207619Y-56030857D01*
X95350476Y-56126095D01*
X95540952Y-56173714D01*
X95921904Y-56173714D01*
X96017142Y-56126095D01*
X96064761Y-56078476D01*
X96112380Y-55983238D01*
X96112380Y-55792761D01*
X96064761Y-55697523D01*
X96017142Y-55649904D01*
X95921904Y-55602285D01*
X95683809Y-55602285D01*
X95588571Y-55649904D01*
X95540952Y-55697523D01*
X95493333Y-55792761D01*
X95493333Y-55983238D01*
X95540952Y-56078476D01*
X95588571Y-56126095D01*
X95683809Y-56173714D01*
%TO.C,TP6*%
X132088095Y-90986880D02*
X132659523Y-90986880D01*
X132373809Y-91986880D02*
X132373809Y-90986880D01*
X132992857Y-91986880D02*
X132992857Y-90986880D01*
X133373809Y-90986880D01*
X133469047Y-91034500D01*
X133516666Y-91082119D01*
X133564285Y-91177357D01*
X133564285Y-91320214D01*
X133516666Y-91415452D01*
X133469047Y-91463071D01*
X133373809Y-91510690D01*
X132992857Y-91510690D01*
X134421428Y-90986880D02*
X134230952Y-90986880D01*
X134135714Y-91034500D01*
X134088095Y-91082119D01*
X133992857Y-91224976D01*
X133945238Y-91415452D01*
X133945238Y-91796404D01*
X133992857Y-91891642D01*
X134040476Y-91939261D01*
X134135714Y-91986880D01*
X134326190Y-91986880D01*
X134421428Y-91939261D01*
X134469047Y-91891642D01*
X134516666Y-91796404D01*
X134516666Y-91558309D01*
X134469047Y-91463071D01*
X134421428Y-91415452D01*
X134326190Y-91367833D01*
X134135714Y-91367833D01*
X134040476Y-91415452D01*
X133992857Y-91463071D01*
X133945238Y-91558309D01*
%TO.C,TP1*%
X92083095Y-131439380D02*
X92654523Y-131439380D01*
X92368809Y-132439380D02*
X92368809Y-131439380D01*
X92987857Y-132439380D02*
X92987857Y-131439380D01*
X93368809Y-131439380D01*
X93464047Y-131487000D01*
X93511666Y-131534619D01*
X93559285Y-131629857D01*
X93559285Y-131772714D01*
X93511666Y-131867952D01*
X93464047Y-131915571D01*
X93368809Y-131963190D01*
X92987857Y-131963190D01*
X94511666Y-132439380D02*
X93940238Y-132439380D01*
X94225952Y-132439380D02*
X94225952Y-131439380D01*
X94130714Y-131582238D01*
X94035476Y-131677476D01*
X93940238Y-131725095D01*
%TO.C,C5*%
X109421142Y-124560666D02*
X109468761Y-124608285D01*
X109516380Y-124751142D01*
X109516380Y-124846380D01*
X109468761Y-124989238D01*
X109373523Y-125084476D01*
X109278285Y-125132095D01*
X109087809Y-125179714D01*
X108944952Y-125179714D01*
X108754476Y-125132095D01*
X108659238Y-125084476D01*
X108564000Y-124989238D01*
X108516380Y-124846380D01*
X108516380Y-124751142D01*
X108564000Y-124608285D01*
X108611619Y-124560666D01*
X108516380Y-123655904D02*
X108516380Y-124132095D01*
X108992571Y-124179714D01*
X108944952Y-124132095D01*
X108897333Y-124036857D01*
X108897333Y-123798761D01*
X108944952Y-123703523D01*
X108992571Y-123655904D01*
X109087809Y-123608285D01*
X109325904Y-123608285D01*
X109421142Y-123655904D01*
X109468761Y-123703523D01*
X109516380Y-123798761D01*
X109516380Y-124036857D01*
X109468761Y-124132095D01*
X109421142Y-124179714D01*
%TO.C,U2*%
X74803095Y-102897380D02*
X74803095Y-103706904D01*
X74850714Y-103802142D01*
X74898333Y-103849761D01*
X74993571Y-103897380D01*
X75184047Y-103897380D01*
X75279285Y-103849761D01*
X75326904Y-103802142D01*
X75374523Y-103706904D01*
X75374523Y-102897380D01*
X75803095Y-102992619D02*
X75850714Y-102945000D01*
X75945952Y-102897380D01*
X76184047Y-102897380D01*
X76279285Y-102945000D01*
X76326904Y-102992619D01*
X76374523Y-103087857D01*
X76374523Y-103183095D01*
X76326904Y-103325952D01*
X75755476Y-103897380D01*
X76374523Y-103897380D01*
%TO.C,C14*%
X114247142Y-75572857D02*
X114294761Y-75620476D01*
X114342380Y-75763333D01*
X114342380Y-75858571D01*
X114294761Y-76001428D01*
X114199523Y-76096666D01*
X114104285Y-76144285D01*
X113913809Y-76191904D01*
X113770952Y-76191904D01*
X113580476Y-76144285D01*
X113485238Y-76096666D01*
X113390000Y-76001428D01*
X113342380Y-75858571D01*
X113342380Y-75763333D01*
X113390000Y-75620476D01*
X113437619Y-75572857D01*
X114342380Y-74620476D02*
X114342380Y-75191904D01*
X114342380Y-74906190D02*
X113342380Y-74906190D01*
X113485238Y-75001428D01*
X113580476Y-75096666D01*
X113628095Y-75191904D01*
X113675714Y-73763333D02*
X114342380Y-73763333D01*
X113294761Y-74001428D02*
X114009047Y-74239523D01*
X114009047Y-73620476D01*
%TO.C,C16*%
X136517142Y-64082142D02*
X136469523Y-64129761D01*
X136326666Y-64177380D01*
X136231428Y-64177380D01*
X136088571Y-64129761D01*
X135993333Y-64034523D01*
X135945714Y-63939285D01*
X135898095Y-63748809D01*
X135898095Y-63605952D01*
X135945714Y-63415476D01*
X135993333Y-63320238D01*
X136088571Y-63225000D01*
X136231428Y-63177380D01*
X136326666Y-63177380D01*
X136469523Y-63225000D01*
X136517142Y-63272619D01*
X137469523Y-64177380D02*
X136898095Y-64177380D01*
X137183809Y-64177380D02*
X137183809Y-63177380D01*
X137088571Y-63320238D01*
X136993333Y-63415476D01*
X136898095Y-63463095D01*
X138326666Y-63177380D02*
X138136190Y-63177380D01*
X138040952Y-63225000D01*
X137993333Y-63272619D01*
X137898095Y-63415476D01*
X137850476Y-63605952D01*
X137850476Y-63986904D01*
X137898095Y-64082142D01*
X137945714Y-64129761D01*
X138040952Y-64177380D01*
X138231428Y-64177380D01*
X138326666Y-64129761D01*
X138374285Y-64082142D01*
X138421904Y-63986904D01*
X138421904Y-63748809D01*
X138374285Y-63653571D01*
X138326666Y-63605952D01*
X138231428Y-63558333D01*
X138040952Y-63558333D01*
X137945714Y-63605952D01*
X137898095Y-63653571D01*
X137850476Y-63748809D01*
%TO.C,TP10*%
X113831904Y-67304380D02*
X114403333Y-67304380D01*
X114117619Y-68304380D02*
X114117619Y-67304380D01*
X114736666Y-68304380D02*
X114736666Y-67304380D01*
X115117619Y-67304380D01*
X115212857Y-67352000D01*
X115260476Y-67399619D01*
X115308095Y-67494857D01*
X115308095Y-67637714D01*
X115260476Y-67732952D01*
X115212857Y-67780571D01*
X115117619Y-67828190D01*
X114736666Y-67828190D01*
X116260476Y-68304380D02*
X115689047Y-68304380D01*
X115974761Y-68304380D02*
X115974761Y-67304380D01*
X115879523Y-67447238D01*
X115784285Y-67542476D01*
X115689047Y-67590095D01*
X116879523Y-67304380D02*
X116974761Y-67304380D01*
X117070000Y-67352000D01*
X117117619Y-67399619D01*
X117165238Y-67494857D01*
X117212857Y-67685333D01*
X117212857Y-67923428D01*
X117165238Y-68113904D01*
X117117619Y-68209142D01*
X117070000Y-68256761D01*
X116974761Y-68304380D01*
X116879523Y-68304380D01*
X116784285Y-68256761D01*
X116736666Y-68209142D01*
X116689047Y-68113904D01*
X116641428Y-67923428D01*
X116641428Y-67685333D01*
X116689047Y-67494857D01*
X116736666Y-67399619D01*
X116784285Y-67352000D01*
X116879523Y-67304380D01*
%TO.C,L2*%
X118197333Y-128686380D02*
X117721142Y-128686380D01*
X117721142Y-127686380D01*
X118483047Y-127781619D02*
X118530666Y-127734000D01*
X118625904Y-127686380D01*
X118864000Y-127686380D01*
X118959238Y-127734000D01*
X119006857Y-127781619D01*
X119054476Y-127876857D01*
X119054476Y-127972095D01*
X119006857Y-128114952D01*
X118435428Y-128686380D01*
X119054476Y-128686380D01*
%TO.C,TP13*%
X138596904Y-73654380D02*
X139168333Y-73654380D01*
X138882619Y-74654380D02*
X138882619Y-73654380D01*
X139501666Y-74654380D02*
X139501666Y-73654380D01*
X139882619Y-73654380D01*
X139977857Y-73702000D01*
X140025476Y-73749619D01*
X140073095Y-73844857D01*
X140073095Y-73987714D01*
X140025476Y-74082952D01*
X139977857Y-74130571D01*
X139882619Y-74178190D01*
X139501666Y-74178190D01*
X141025476Y-74654380D02*
X140454047Y-74654380D01*
X140739761Y-74654380D02*
X140739761Y-73654380D01*
X140644523Y-73797238D01*
X140549285Y-73892476D01*
X140454047Y-73940095D01*
X141358809Y-73654380D02*
X141977857Y-73654380D01*
X141644523Y-74035333D01*
X141787380Y-74035333D01*
X141882619Y-74082952D01*
X141930238Y-74130571D01*
X141977857Y-74225809D01*
X141977857Y-74463904D01*
X141930238Y-74559142D01*
X141882619Y-74606761D01*
X141787380Y-74654380D01*
X141501666Y-74654380D01*
X141406428Y-74606761D01*
X141358809Y-74559142D01*
%TO.C,U1*%
X77557380Y-85216904D02*
X78366904Y-85216904D01*
X78462142Y-85169285D01*
X78509761Y-85121666D01*
X78557380Y-85026428D01*
X78557380Y-84835952D01*
X78509761Y-84740714D01*
X78462142Y-84693095D01*
X78366904Y-84645476D01*
X77557380Y-84645476D01*
X78557380Y-83645476D02*
X78557380Y-84216904D01*
X78557380Y-83931190D02*
X77557380Y-83931190D01*
X77700238Y-84026428D01*
X77795476Y-84121666D01*
X77843095Y-84216904D01*
X87385592Y-98465277D02*
X87412529Y-98546089D01*
X87493341Y-98626902D01*
X87601091Y-98680776D01*
X87708841Y-98680776D01*
X87789653Y-98653839D01*
X87924340Y-98573027D01*
X88005152Y-98492215D01*
X88085964Y-98357528D01*
X88112902Y-98276715D01*
X88112902Y-98168966D01*
X88059027Y-98061216D01*
X88005152Y-98007341D01*
X87897402Y-97953467D01*
X87843528Y-97953467D01*
X87654966Y-98142028D01*
X87762715Y-98249778D01*
X87654966Y-97657155D02*
X87089280Y-98222841D01*
X86873781Y-98007341D01*
X86846844Y-97926529D01*
X86846844Y-97872654D01*
X86873781Y-97791842D01*
X86954593Y-97711030D01*
X87035406Y-97684093D01*
X87089280Y-97684093D01*
X87170093Y-97711030D01*
X87385592Y-97926529D01*
X86792969Y-96795158D02*
X87116218Y-97118407D01*
X86954593Y-96956783D02*
X86388908Y-97522468D01*
X86523595Y-97495531D01*
X86631345Y-97495531D01*
X86712157Y-97522468D01*
X85877097Y-97010658D02*
X85823223Y-96956783D01*
X85796285Y-96875971D01*
X85796285Y-96822096D01*
X85823223Y-96741284D01*
X85904035Y-96606597D01*
X86038722Y-96471910D01*
X86173409Y-96391097D01*
X86254221Y-96364160D01*
X86308096Y-96364160D01*
X86388908Y-96391097D01*
X86442783Y-96444972D01*
X86469720Y-96525784D01*
X86469720Y-96579659D01*
X86442783Y-96660471D01*
X86361971Y-96795158D01*
X86227284Y-96929845D01*
X86092597Y-97010658D01*
X86011784Y-97037595D01*
X85957910Y-97037595D01*
X85877097Y-97010658D01*
X87395592Y-72357277D02*
X87422529Y-72438089D01*
X87503341Y-72518902D01*
X87611091Y-72572776D01*
X87718841Y-72572776D01*
X87799653Y-72545839D01*
X87934340Y-72465027D01*
X88015152Y-72384215D01*
X88095964Y-72249528D01*
X88122902Y-72168715D01*
X88122902Y-72060966D01*
X88069027Y-71953216D01*
X88015152Y-71899341D01*
X87907402Y-71845467D01*
X87853528Y-71845467D01*
X87664966Y-72034028D01*
X87772715Y-72141778D01*
X87664966Y-71549155D02*
X87099280Y-72114841D01*
X86883781Y-71899341D01*
X86856844Y-71818529D01*
X86856844Y-71764654D01*
X86883781Y-71683842D01*
X86964593Y-71603030D01*
X87045406Y-71576093D01*
X87099280Y-71576093D01*
X87180093Y-71603030D01*
X87395592Y-71818529D01*
X86614407Y-71522218D02*
X86560532Y-71522218D01*
X86479720Y-71495280D01*
X86345033Y-71360593D01*
X86318096Y-71279781D01*
X86318096Y-71225906D01*
X86345033Y-71145094D01*
X86398908Y-71091219D01*
X86506658Y-71037345D01*
X87153155Y-71037345D01*
X86802969Y-70687158D01*
X86264221Y-70148410D02*
X86587470Y-70471659D01*
X86425845Y-70310035D02*
X85860160Y-70875720D01*
X85994847Y-70848783D01*
X86102597Y-70848783D01*
X86183409Y-70875720D01*
X102625592Y-98465277D02*
X102652529Y-98546089D01*
X102733341Y-98626902D01*
X102841091Y-98680776D01*
X102948841Y-98680776D01*
X103029653Y-98653839D01*
X103164340Y-98573027D01*
X103245152Y-98492215D01*
X103325964Y-98357528D01*
X103352902Y-98276715D01*
X103352902Y-98168966D01*
X103299027Y-98061216D01*
X103245152Y-98007341D01*
X103137402Y-97953467D01*
X103083528Y-97953467D01*
X102894966Y-98142028D01*
X103002715Y-98249778D01*
X102894966Y-97657155D02*
X102329280Y-98222841D01*
X102113781Y-98007341D01*
X102086844Y-97926529D01*
X102086844Y-97872654D01*
X102113781Y-97791842D01*
X102194593Y-97711030D01*
X102275406Y-97684093D01*
X102329280Y-97684093D01*
X102410093Y-97711030D01*
X102625592Y-97926529D01*
X102032969Y-96795158D02*
X102356218Y-97118407D01*
X102194593Y-96956783D02*
X101628908Y-97522468D01*
X101763595Y-97495531D01*
X101871345Y-97495531D01*
X101952157Y-97522468D01*
X100955473Y-96849033D02*
X101224847Y-97118407D01*
X101521158Y-96875971D01*
X101467284Y-96875971D01*
X101386471Y-96849033D01*
X101251784Y-96714346D01*
X101224847Y-96633534D01*
X101224847Y-96579659D01*
X101251784Y-96498847D01*
X101386471Y-96364160D01*
X101467284Y-96337223D01*
X101521158Y-96337223D01*
X101601971Y-96364160D01*
X101736658Y-96498847D01*
X101763595Y-96579659D01*
X101763595Y-96633534D01*
X66796218Y-97941903D02*
X66823155Y-98022715D01*
X66903967Y-98103528D01*
X67011717Y-98157402D01*
X67119467Y-98157402D01*
X67200279Y-98130465D01*
X67334966Y-98049653D01*
X67415778Y-97968841D01*
X67496590Y-97834154D01*
X67523528Y-97753341D01*
X67523528Y-97645592D01*
X67469653Y-97537842D01*
X67415778Y-97483967D01*
X67308028Y-97430093D01*
X67254154Y-97430093D01*
X67065592Y-97618654D01*
X67173341Y-97726404D01*
X67065592Y-97133781D02*
X66499906Y-97699467D01*
X66284407Y-97483967D01*
X66257470Y-97403155D01*
X66257470Y-97349280D01*
X66284407Y-97268468D01*
X66365219Y-97187656D01*
X66446032Y-97160719D01*
X66499906Y-97160719D01*
X66580719Y-97187656D01*
X66796218Y-97403155D01*
X65880346Y-96702783D02*
X66257470Y-96325659D01*
X65799534Y-97052969D02*
X66338282Y-96783595D01*
X65988096Y-96433409D01*
X74695592Y-72357277D02*
X74722529Y-72438089D01*
X74803341Y-72518902D01*
X74911091Y-72572776D01*
X75018841Y-72572776D01*
X75099653Y-72545839D01*
X75234340Y-72465027D01*
X75315152Y-72384215D01*
X75395964Y-72249528D01*
X75422902Y-72168715D01*
X75422902Y-72060966D01*
X75369027Y-71953216D01*
X75315152Y-71899341D01*
X75207402Y-71845467D01*
X75153528Y-71845467D01*
X74964966Y-72034028D01*
X75072715Y-72141778D01*
X74964966Y-71549155D02*
X74399280Y-72114841D01*
X74183781Y-71899341D01*
X74156844Y-71818529D01*
X74156844Y-71764654D01*
X74183781Y-71683842D01*
X74264593Y-71603030D01*
X74345406Y-71576093D01*
X74399280Y-71576093D01*
X74480093Y-71603030D01*
X74695592Y-71818529D01*
X73914407Y-71522218D02*
X73860532Y-71522218D01*
X73779720Y-71495280D01*
X73645033Y-71360593D01*
X73618096Y-71279781D01*
X73618096Y-71225906D01*
X73645033Y-71145094D01*
X73698908Y-71091219D01*
X73806658Y-71037345D01*
X74453155Y-71037345D01*
X74102969Y-70687158D01*
X73348722Y-71064282D02*
X72971598Y-70687158D01*
X73779720Y-70363910D01*
X100085592Y-98511277D02*
X100112529Y-98592089D01*
X100193341Y-98672902D01*
X100301091Y-98726776D01*
X100408841Y-98726776D01*
X100489653Y-98699839D01*
X100624340Y-98619027D01*
X100705152Y-98538215D01*
X100785964Y-98403528D01*
X100812902Y-98322715D01*
X100812902Y-98214966D01*
X100759027Y-98107216D01*
X100705152Y-98053341D01*
X100597402Y-97999467D01*
X100543528Y-97999467D01*
X100354966Y-98188028D01*
X100462715Y-98295778D01*
X100354966Y-97703155D02*
X99789280Y-98268841D01*
X99573781Y-98053341D01*
X99546844Y-97972529D01*
X99546844Y-97918654D01*
X99573781Y-97837842D01*
X99654593Y-97757030D01*
X99735406Y-97730093D01*
X99789280Y-97730093D01*
X99870093Y-97757030D01*
X100085592Y-97972529D01*
X99492969Y-96841158D02*
X99816218Y-97164407D01*
X99654593Y-97002783D02*
X99088908Y-97568468D01*
X99223595Y-97541531D01*
X99331345Y-97541531D01*
X99412157Y-97568468D01*
X98630972Y-96733409D02*
X99008096Y-96356285D01*
X98550160Y-97083595D02*
X99088908Y-96814221D01*
X98738722Y-96464035D01*
X100085592Y-72357277D02*
X100112529Y-72438089D01*
X100193341Y-72518902D01*
X100301091Y-72572776D01*
X100408841Y-72572776D01*
X100489653Y-72545839D01*
X100624340Y-72465027D01*
X100705152Y-72384215D01*
X100785964Y-72249528D01*
X100812902Y-72168715D01*
X100812902Y-72060966D01*
X100759027Y-71953216D01*
X100705152Y-71899341D01*
X100597402Y-71845467D01*
X100543528Y-71845467D01*
X100354966Y-72034028D01*
X100462715Y-72141778D01*
X100354966Y-71549155D02*
X99789280Y-72114841D01*
X99573781Y-71899341D01*
X99546844Y-71818529D01*
X99546844Y-71764654D01*
X99573781Y-71683842D01*
X99654593Y-71603030D01*
X99735406Y-71576093D01*
X99789280Y-71576093D01*
X99870093Y-71603030D01*
X100085592Y-71818529D01*
X99492969Y-70687158D02*
X99816218Y-71010407D01*
X99654593Y-70848783D02*
X99088908Y-71414468D01*
X99223595Y-71387531D01*
X99331345Y-71387531D01*
X99412157Y-71414468D01*
X98738722Y-71064282D02*
X98361598Y-70687158D01*
X99169720Y-70363910D01*
X64256218Y-97941903D02*
X64283155Y-98022715D01*
X64363967Y-98103528D01*
X64471717Y-98157402D01*
X64579467Y-98157402D01*
X64660279Y-98130465D01*
X64794966Y-98049653D01*
X64875778Y-97968841D01*
X64956590Y-97834154D01*
X64983528Y-97753341D01*
X64983528Y-97645592D01*
X64929653Y-97537842D01*
X64875778Y-97483967D01*
X64768028Y-97430093D01*
X64714154Y-97430093D01*
X64525592Y-97618654D01*
X64633341Y-97726404D01*
X64525592Y-97133781D02*
X63959906Y-97699467D01*
X63744407Y-97483967D01*
X63717470Y-97403155D01*
X63717470Y-97349280D01*
X63744407Y-97268468D01*
X63825219Y-97187656D01*
X63906032Y-97160719D01*
X63959906Y-97160719D01*
X64040719Y-97187656D01*
X64256218Y-97403155D01*
X63448096Y-97187656D02*
X63097910Y-96837470D01*
X63501971Y-96810532D01*
X63421158Y-96729720D01*
X63394221Y-96648908D01*
X63394221Y-96595033D01*
X63421158Y-96514221D01*
X63555845Y-96379534D01*
X63636658Y-96352597D01*
X63690532Y-96352597D01*
X63771345Y-96379534D01*
X63932969Y-96541158D01*
X63959906Y-96621971D01*
X63959906Y-96675845D01*
X97303155Y-72368841D02*
X97330093Y-72449653D01*
X97410905Y-72530465D01*
X97518654Y-72584340D01*
X97626404Y-72584340D01*
X97707216Y-72557402D01*
X97841903Y-72476590D01*
X97922715Y-72395778D01*
X98003528Y-72261091D01*
X98030465Y-72180279D01*
X98030465Y-72072529D01*
X97976590Y-71964780D01*
X97922715Y-71910905D01*
X97814966Y-71857030D01*
X97761091Y-71857030D01*
X97572529Y-72045592D01*
X97680279Y-72153341D01*
X97572529Y-71560719D02*
X97006844Y-72126404D01*
X97249280Y-71237470D01*
X96683595Y-71803155D01*
X96979906Y-70968096D02*
X96414221Y-71533781D01*
X96279534Y-71399094D01*
X96225659Y-71291345D01*
X96225659Y-71183595D01*
X96252597Y-71102783D01*
X96333409Y-70968096D01*
X96414221Y-70887284D01*
X96548908Y-70806471D01*
X96629720Y-70779534D01*
X96737470Y-70779534D01*
X96845219Y-70833409D01*
X96979906Y-70968096D01*
X79496218Y-97941903D02*
X79523155Y-98022715D01*
X79603967Y-98103528D01*
X79711717Y-98157402D01*
X79819467Y-98157402D01*
X79900279Y-98130465D01*
X80034966Y-98049653D01*
X80115778Y-97968841D01*
X80196590Y-97834154D01*
X80223528Y-97753341D01*
X80223528Y-97645592D01*
X80169653Y-97537842D01*
X80115778Y-97483967D01*
X80008028Y-97430093D01*
X79954154Y-97430093D01*
X79765592Y-97618654D01*
X79873341Y-97726404D01*
X79765592Y-97133781D02*
X79199906Y-97699467D01*
X78984407Y-97483967D01*
X78957470Y-97403155D01*
X78957470Y-97349280D01*
X78984407Y-97268468D01*
X79065219Y-97187656D01*
X79146032Y-97160719D01*
X79199906Y-97160719D01*
X79280719Y-97187656D01*
X79496218Y-97403155D01*
X78795845Y-96810532D02*
X78822783Y-96891345D01*
X78822783Y-96945219D01*
X78795845Y-97026032D01*
X78768908Y-97052969D01*
X78688096Y-97079906D01*
X78634221Y-97079906D01*
X78553409Y-97052969D01*
X78445659Y-96945219D01*
X78418722Y-96864407D01*
X78418722Y-96810532D01*
X78445659Y-96729720D01*
X78472597Y-96702783D01*
X78553409Y-96675845D01*
X78607284Y-96675845D01*
X78688096Y-96702783D01*
X78795845Y-96810532D01*
X78876658Y-96837470D01*
X78930532Y-96837470D01*
X79011345Y-96810532D01*
X79119094Y-96702783D01*
X79146032Y-96621971D01*
X79146032Y-96568096D01*
X79119094Y-96487284D01*
X79011345Y-96379534D01*
X78930532Y-96352597D01*
X78876658Y-96352597D01*
X78795845Y-96379534D01*
X78688096Y-96487284D01*
X78661158Y-96568096D01*
X78661158Y-96621971D01*
X78688096Y-96702783D01*
X89925592Y-72357277D02*
X89952529Y-72438089D01*
X90033341Y-72518902D01*
X90141091Y-72572776D01*
X90248841Y-72572776D01*
X90329653Y-72545839D01*
X90464340Y-72465027D01*
X90545152Y-72384215D01*
X90625964Y-72249528D01*
X90652902Y-72168715D01*
X90652902Y-72060966D01*
X90599027Y-71953216D01*
X90545152Y-71899341D01*
X90437402Y-71845467D01*
X90383528Y-71845467D01*
X90194966Y-72034028D01*
X90302715Y-72141778D01*
X90194966Y-71549155D02*
X89629280Y-72114841D01*
X89413781Y-71899341D01*
X89386844Y-71818529D01*
X89386844Y-71764654D01*
X89413781Y-71683842D01*
X89494593Y-71603030D01*
X89575406Y-71576093D01*
X89629280Y-71576093D01*
X89710093Y-71603030D01*
X89925592Y-71818529D01*
X89144407Y-71522218D02*
X89090532Y-71522218D01*
X89009720Y-71495280D01*
X88875033Y-71360593D01*
X88848096Y-71279781D01*
X88848096Y-71225906D01*
X88875033Y-71145094D01*
X88928908Y-71091219D01*
X89036658Y-71037345D01*
X89683155Y-71037345D01*
X89332969Y-70687158D01*
X88417097Y-70902658D02*
X88363223Y-70848783D01*
X88336285Y-70767971D01*
X88336285Y-70714096D01*
X88363223Y-70633284D01*
X88444035Y-70498597D01*
X88578722Y-70363910D01*
X88713409Y-70283097D01*
X88794221Y-70256160D01*
X88848096Y-70256160D01*
X88928908Y-70283097D01*
X88982783Y-70336972D01*
X89009720Y-70417784D01*
X89009720Y-70471659D01*
X88982783Y-70552471D01*
X88901971Y-70687158D01*
X88767284Y-70821845D01*
X88632597Y-70902658D01*
X88551784Y-70929595D01*
X88497910Y-70929595D01*
X88417097Y-70902658D01*
X59203155Y-97968841D02*
X59230093Y-98049653D01*
X59310905Y-98130465D01*
X59418654Y-98184340D01*
X59526404Y-98184340D01*
X59607216Y-98157402D01*
X59741903Y-98076590D01*
X59822715Y-97995778D01*
X59903528Y-97861091D01*
X59930465Y-97780279D01*
X59930465Y-97672529D01*
X59876590Y-97564780D01*
X59822715Y-97510905D01*
X59714966Y-97457030D01*
X59661091Y-97457030D01*
X59472529Y-97645592D01*
X59580279Y-97753341D01*
X59472529Y-97160719D02*
X58906844Y-97726404D01*
X59149280Y-96837470D01*
X58583595Y-97403155D01*
X58879906Y-96568096D02*
X58314221Y-97133781D01*
X58179534Y-96999094D01*
X58125659Y-96891345D01*
X58125659Y-96783595D01*
X58152597Y-96702783D01*
X58233409Y-96568096D01*
X58314221Y-96487284D01*
X58448908Y-96406471D01*
X58529720Y-96379534D01*
X58637470Y-96379534D01*
X58745219Y-96433409D01*
X58879906Y-96568096D01*
X80048435Y-71616624D02*
X79967622Y-72074560D01*
X80371683Y-71939873D02*
X79805998Y-72505558D01*
X79590499Y-72290059D01*
X79563561Y-72209247D01*
X79563561Y-72155372D01*
X79590499Y-72074560D01*
X79671311Y-71993748D01*
X79752123Y-71966810D01*
X79805998Y-71966810D01*
X79886810Y-71993748D01*
X80102309Y-72209247D01*
X79240312Y-71939873D02*
X79698248Y-71481937D01*
X79725186Y-71401125D01*
X79725186Y-71347250D01*
X79698248Y-71266438D01*
X79590499Y-71158688D01*
X79509687Y-71131751D01*
X79455812Y-71131751D01*
X79375000Y-71158688D01*
X78917064Y-71616624D01*
X79213375Y-70781564D02*
X78647690Y-71347250D01*
X78890126Y-70458316D01*
X78324441Y-71024001D01*
X82036218Y-97941903D02*
X82063155Y-98022715D01*
X82143967Y-98103528D01*
X82251717Y-98157402D01*
X82359467Y-98157402D01*
X82440279Y-98130465D01*
X82574966Y-98049653D01*
X82655778Y-97968841D01*
X82736590Y-97834154D01*
X82763528Y-97753341D01*
X82763528Y-97645592D01*
X82709653Y-97537842D01*
X82655778Y-97483967D01*
X82548028Y-97430093D01*
X82494154Y-97430093D01*
X82305592Y-97618654D01*
X82413341Y-97726404D01*
X82305592Y-97133781D02*
X81739906Y-97699467D01*
X81524407Y-97483967D01*
X81497470Y-97403155D01*
X81497470Y-97349280D01*
X81524407Y-97268468D01*
X81605219Y-97187656D01*
X81686032Y-97160719D01*
X81739906Y-97160719D01*
X81820719Y-97187656D01*
X82036218Y-97403155D01*
X81712969Y-96541158D02*
X81605219Y-96433409D01*
X81524407Y-96406471D01*
X81470532Y-96406471D01*
X81335845Y-96433409D01*
X81201158Y-96514221D01*
X80985659Y-96729720D01*
X80958722Y-96810532D01*
X80958722Y-96864407D01*
X80985659Y-96945219D01*
X81093409Y-97052969D01*
X81174221Y-97079906D01*
X81228096Y-97079906D01*
X81308908Y-97052969D01*
X81443595Y-96918282D01*
X81470532Y-96837470D01*
X81470532Y-96783595D01*
X81443595Y-96702783D01*
X81335845Y-96595033D01*
X81255033Y-96568096D01*
X81201158Y-96568096D01*
X81120346Y-96595033D01*
X76926218Y-97841903D02*
X76953155Y-97922715D01*
X77033967Y-98003528D01*
X77141717Y-98057402D01*
X77249467Y-98057402D01*
X77330279Y-98030465D01*
X77464966Y-97949653D01*
X77545778Y-97868841D01*
X77626590Y-97734154D01*
X77653528Y-97653341D01*
X77653528Y-97545592D01*
X77599653Y-97437842D01*
X77545778Y-97383967D01*
X77438028Y-97330093D01*
X77384154Y-97330093D01*
X77195592Y-97518654D01*
X77303341Y-97626404D01*
X77195592Y-97033781D02*
X76629906Y-97599467D01*
X76414407Y-97383967D01*
X76387470Y-97303155D01*
X76387470Y-97249280D01*
X76414407Y-97168468D01*
X76495219Y-97087656D01*
X76576032Y-97060719D01*
X76629906Y-97060719D01*
X76710719Y-97087656D01*
X76926218Y-97303155D01*
X76118096Y-97087656D02*
X75740972Y-96710532D01*
X76549094Y-96387284D01*
X71903155Y-97968841D02*
X71930093Y-98049653D01*
X72010905Y-98130465D01*
X72118654Y-98184340D01*
X72226404Y-98184340D01*
X72307216Y-98157402D01*
X72441903Y-98076590D01*
X72522715Y-97995778D01*
X72603528Y-97861091D01*
X72630465Y-97780279D01*
X72630465Y-97672529D01*
X72576590Y-97564780D01*
X72522715Y-97510905D01*
X72414966Y-97457030D01*
X72361091Y-97457030D01*
X72172529Y-97645592D01*
X72280279Y-97753341D01*
X72172529Y-97160719D02*
X71606844Y-97726404D01*
X71849280Y-96837470D01*
X71283595Y-97403155D01*
X71579906Y-96568096D02*
X71014221Y-97133781D01*
X70879534Y-96999094D01*
X70825659Y-96891345D01*
X70825659Y-96783595D01*
X70852597Y-96702783D01*
X70933409Y-96568096D01*
X71014221Y-96487284D01*
X71148908Y-96406471D01*
X71229720Y-96379534D01*
X71337470Y-96379534D01*
X71445219Y-96433409D01*
X71579906Y-96568096D01*
X57174966Y-72534526D02*
X57552089Y-71780279D01*
X56797842Y-72157402D01*
X57174966Y-71457030D02*
X57121091Y-71349280D01*
X56986404Y-71214593D01*
X56905592Y-71187656D01*
X56851717Y-71187656D01*
X56770905Y-71214593D01*
X56717030Y-71268468D01*
X56690093Y-71349280D01*
X56690093Y-71403155D01*
X56717030Y-71483967D01*
X56797842Y-71618654D01*
X56824780Y-71699467D01*
X56824780Y-71753341D01*
X56797842Y-71834154D01*
X56743967Y-71888028D01*
X56663155Y-71914966D01*
X56609280Y-71914966D01*
X56528468Y-71888028D01*
X56393781Y-71753341D01*
X56339906Y-71645592D01*
X56259094Y-71026032D02*
X56528468Y-70756658D01*
X56151345Y-71510905D02*
X56259094Y-71026032D01*
X55774221Y-71133781D01*
X56151345Y-70433409D02*
X56097470Y-70325659D01*
X55962783Y-70190972D01*
X55881971Y-70164035D01*
X55828096Y-70164035D01*
X55747284Y-70190972D01*
X55693409Y-70244847D01*
X55666471Y-70325659D01*
X55666471Y-70379534D01*
X55693409Y-70460346D01*
X55774221Y-70595033D01*
X55801158Y-70675845D01*
X55801158Y-70729720D01*
X55774221Y-70810532D01*
X55720346Y-70864407D01*
X55639534Y-70891345D01*
X55585659Y-70891345D01*
X55504847Y-70864407D01*
X55370160Y-70729720D01*
X55316285Y-70621971D01*
X89925592Y-98611277D02*
X89952529Y-98692089D01*
X90033341Y-98772902D01*
X90141091Y-98826776D01*
X90248841Y-98826776D01*
X90329653Y-98799839D01*
X90464340Y-98719027D01*
X90545152Y-98638215D01*
X90625964Y-98503528D01*
X90652902Y-98422715D01*
X90652902Y-98314966D01*
X90599027Y-98207216D01*
X90545152Y-98153341D01*
X90437402Y-98099467D01*
X90383528Y-98099467D01*
X90194966Y-98288028D01*
X90302715Y-98395778D01*
X90194966Y-97803155D02*
X89629280Y-98368841D01*
X89413781Y-98153341D01*
X89386844Y-98072529D01*
X89386844Y-98018654D01*
X89413781Y-97937842D01*
X89494593Y-97857030D01*
X89575406Y-97830093D01*
X89629280Y-97830093D01*
X89710093Y-97857030D01*
X89925592Y-98072529D01*
X89332969Y-96941158D02*
X89656218Y-97264407D01*
X89494593Y-97102783D02*
X88928908Y-97668468D01*
X89063595Y-97641531D01*
X89171345Y-97641531D01*
X89252157Y-97668468D01*
X88794221Y-96402410D02*
X89117470Y-96725659D01*
X88955845Y-96564035D02*
X88390160Y-97129720D01*
X88524847Y-97102783D01*
X88632597Y-97102783D01*
X88713409Y-97129720D01*
X84603155Y-97968841D02*
X84630093Y-98049653D01*
X84710905Y-98130465D01*
X84818654Y-98184340D01*
X84926404Y-98184340D01*
X85007216Y-98157402D01*
X85141903Y-98076590D01*
X85222715Y-97995778D01*
X85303528Y-97861091D01*
X85330465Y-97780279D01*
X85330465Y-97672529D01*
X85276590Y-97564780D01*
X85222715Y-97510905D01*
X85114966Y-97457030D01*
X85061091Y-97457030D01*
X84872529Y-97645592D01*
X84980279Y-97753341D01*
X84872529Y-97160719D02*
X84306844Y-97726404D01*
X84549280Y-96837470D01*
X83983595Y-97403155D01*
X84279906Y-96568096D02*
X83714221Y-97133781D01*
X83579534Y-96999094D01*
X83525659Y-96891345D01*
X83525659Y-96783595D01*
X83552597Y-96702783D01*
X83633409Y-96568096D01*
X83714221Y-96487284D01*
X83848908Y-96406471D01*
X83929720Y-96379534D01*
X84037470Y-96379534D01*
X84145219Y-96433409D01*
X84279906Y-96568096D01*
X54632309Y-72501870D02*
X55009433Y-71747622D01*
X54255186Y-72124746D01*
X54147436Y-71478248D02*
X54093561Y-71370499D01*
X54093561Y-71316624D01*
X54120499Y-71235812D01*
X54201311Y-71155000D01*
X54282123Y-71128062D01*
X54335998Y-71128062D01*
X54416810Y-71155000D01*
X54632309Y-71370499D01*
X54066624Y-71936184D01*
X53878062Y-71747622D01*
X53851125Y-71666810D01*
X53851125Y-71612935D01*
X53878062Y-71532123D01*
X53931937Y-71478248D01*
X54012749Y-71451311D01*
X54066624Y-71451311D01*
X54147436Y-71478248D01*
X54335998Y-71666810D01*
X53500938Y-71370499D02*
X53958874Y-70912563D01*
X53985812Y-70831751D01*
X53985812Y-70777876D01*
X53958874Y-70697064D01*
X53851125Y-70589314D01*
X53770312Y-70562377D01*
X53716438Y-70562377D01*
X53635625Y-70589314D01*
X53177690Y-71047250D01*
X53474001Y-70266065D02*
X53420126Y-70158316D01*
X53285439Y-70023629D01*
X53204627Y-69996691D01*
X53150752Y-69996691D01*
X53069940Y-70023629D01*
X53016065Y-70077503D01*
X52989128Y-70158316D01*
X52989128Y-70212190D01*
X53016065Y-70293003D01*
X53096877Y-70427690D01*
X53123815Y-70508502D01*
X53123815Y-70562377D01*
X53096877Y-70643189D01*
X53043003Y-70697064D01*
X52962190Y-70724001D01*
X52908316Y-70724001D01*
X52827503Y-70697064D01*
X52692816Y-70562377D01*
X52638942Y-70454627D01*
X67638773Y-72300211D02*
X67369399Y-72030837D01*
X67854272Y-72192462D02*
X67100025Y-72569585D01*
X67477149Y-71815338D01*
X67288587Y-71626776D02*
X66722902Y-72192462D01*
X66588215Y-72057775D01*
X66534340Y-71950025D01*
X66534340Y-71842276D01*
X66561277Y-71761463D01*
X66642089Y-71626776D01*
X66722902Y-71545964D01*
X66857589Y-71465152D01*
X66938401Y-71438215D01*
X67046150Y-71438215D01*
X67153900Y-71492089D01*
X67288587Y-71626776D01*
X66345778Y-70791717D02*
X66399653Y-70791717D01*
X66507402Y-70845592D01*
X66561277Y-70899467D01*
X66615152Y-71007216D01*
X66615152Y-71114966D01*
X66588215Y-71195778D01*
X66507402Y-71330465D01*
X66426590Y-71411277D01*
X66291903Y-71492089D01*
X66211091Y-71519027D01*
X66103341Y-71519027D01*
X65995592Y-71465152D01*
X65941717Y-71411277D01*
X65887842Y-71303528D01*
X65887842Y-71249653D01*
X66345778Y-70576218D02*
X65914780Y-70145219D01*
X65241345Y-70710905D02*
X65618468Y-69956658D01*
X64864221Y-70333781D01*
X64918096Y-69256285D02*
X64837284Y-69714221D01*
X65241345Y-69579534D02*
X64675659Y-70145219D01*
X64460160Y-69929720D01*
X64433223Y-69848908D01*
X64433223Y-69795033D01*
X64460160Y-69714221D01*
X64540972Y-69633409D01*
X64621784Y-69606471D01*
X64675659Y-69606471D01*
X64756471Y-69633409D01*
X64971971Y-69848908D01*
X64379348Y-69310160D02*
X64190786Y-69121598D01*
X64406285Y-68744475D02*
X64675659Y-69013849D01*
X64109974Y-69579534D01*
X63840600Y-69310160D01*
X63678975Y-68609788D02*
X63867537Y-68798349D01*
X64163849Y-68502038D02*
X63598163Y-69067723D01*
X63328789Y-68798349D01*
X69336218Y-97941903D02*
X69363155Y-98022715D01*
X69443967Y-98103528D01*
X69551717Y-98157402D01*
X69659467Y-98157402D01*
X69740279Y-98130465D01*
X69874966Y-98049653D01*
X69955778Y-97968841D01*
X70036590Y-97834154D01*
X70063528Y-97753341D01*
X70063528Y-97645592D01*
X70009653Y-97537842D01*
X69955778Y-97483967D01*
X69848028Y-97430093D01*
X69794154Y-97430093D01*
X69605592Y-97618654D01*
X69713341Y-97726404D01*
X69605592Y-97133781D02*
X69039906Y-97699467D01*
X68824407Y-97483967D01*
X68797470Y-97403155D01*
X68797470Y-97349280D01*
X68824407Y-97268468D01*
X68905219Y-97187656D01*
X68986032Y-97160719D01*
X69039906Y-97160719D01*
X69120719Y-97187656D01*
X69336218Y-97403155D01*
X68204847Y-96864407D02*
X68474221Y-97133781D01*
X68770532Y-96891345D01*
X68716658Y-96891345D01*
X68635845Y-96864407D01*
X68501158Y-96729720D01*
X68474221Y-96648908D01*
X68474221Y-96595033D01*
X68501158Y-96514221D01*
X68635845Y-96379534D01*
X68716658Y-96352597D01*
X68770532Y-96352597D01*
X68851345Y-96379534D01*
X68986032Y-96514221D01*
X69012969Y-96595033D01*
X69012969Y-96648908D01*
X69351592Y-72357277D02*
X69378529Y-72438089D01*
X69459341Y-72518902D01*
X69567091Y-72572776D01*
X69674841Y-72572776D01*
X69755653Y-72545839D01*
X69890340Y-72465027D01*
X69971152Y-72384215D01*
X70051964Y-72249528D01*
X70078902Y-72168715D01*
X70078902Y-72060966D01*
X70025027Y-71953216D01*
X69971152Y-71899341D01*
X69863402Y-71845467D01*
X69809528Y-71845467D01*
X69620966Y-72034028D01*
X69728715Y-72141778D01*
X69620966Y-71549155D02*
X69055280Y-72114841D01*
X68839781Y-71899341D01*
X68812844Y-71818529D01*
X68812844Y-71764654D01*
X68839781Y-71683842D01*
X68920593Y-71603030D01*
X69001406Y-71576093D01*
X69055280Y-71576093D01*
X69136093Y-71603030D01*
X69351592Y-71818529D01*
X68570407Y-71522218D02*
X68516532Y-71522218D01*
X68435720Y-71495280D01*
X68301033Y-71360593D01*
X68274096Y-71279781D01*
X68274096Y-71225906D01*
X68301033Y-71145094D01*
X68354908Y-71091219D01*
X68462658Y-71037345D01*
X69109155Y-71037345D01*
X68758969Y-70687158D01*
X68112471Y-70687158D02*
X68139409Y-70767971D01*
X68139409Y-70821845D01*
X68112471Y-70902658D01*
X68085534Y-70929595D01*
X68004722Y-70956532D01*
X67950847Y-70956532D01*
X67870035Y-70929595D01*
X67762285Y-70821845D01*
X67735348Y-70741033D01*
X67735348Y-70687158D01*
X67762285Y-70606346D01*
X67789223Y-70579409D01*
X67870035Y-70552471D01*
X67923910Y-70552471D01*
X68004722Y-70579409D01*
X68112471Y-70687158D01*
X68193284Y-70714096D01*
X68247158Y-70714096D01*
X68327971Y-70687158D01*
X68435720Y-70579409D01*
X68462658Y-70498597D01*
X68462658Y-70444722D01*
X68435720Y-70363910D01*
X68327971Y-70256160D01*
X68247158Y-70229223D01*
X68193284Y-70229223D01*
X68112471Y-70256160D01*
X68004722Y-70363910D01*
X67977784Y-70444722D01*
X67977784Y-70498597D01*
X68004722Y-70579409D01*
X104628809Y-80550238D02*
X104666904Y-80435952D01*
X104666904Y-80245476D01*
X104628809Y-80169285D01*
X104590714Y-80131190D01*
X104514523Y-80093095D01*
X104438333Y-80093095D01*
X104362142Y-80131190D01*
X104324047Y-80169285D01*
X104285952Y-80245476D01*
X104247857Y-80397857D01*
X104209761Y-80474047D01*
X104171666Y-80512142D01*
X104095476Y-80550238D01*
X104019285Y-80550238D01*
X103943095Y-80512142D01*
X103905000Y-80474047D01*
X103866904Y-80397857D01*
X103866904Y-80207380D01*
X103905000Y-80093095D01*
X103866904Y-79826428D02*
X104666904Y-79635952D01*
X104095476Y-79483571D01*
X104666904Y-79331190D01*
X103866904Y-79140714D01*
X104666904Y-78835952D02*
X103866904Y-78835952D01*
X103866904Y-78645476D01*
X103905000Y-78531190D01*
X103981190Y-78455000D01*
X104057380Y-78416904D01*
X104209761Y-78378809D01*
X104324047Y-78378809D01*
X104476428Y-78416904D01*
X104552619Y-78455000D01*
X104628809Y-78531190D01*
X104666904Y-78645476D01*
X104666904Y-78835952D01*
X104666904Y-78035952D02*
X103866904Y-78035952D01*
X103866904Y-77502619D02*
X103866904Y-77350238D01*
X103905000Y-77274047D01*
X103981190Y-77197857D01*
X104133571Y-77159761D01*
X104400238Y-77159761D01*
X104552619Y-77197857D01*
X104628809Y-77274047D01*
X104666904Y-77350238D01*
X104666904Y-77502619D01*
X104628809Y-77578809D01*
X104552619Y-77655000D01*
X104400238Y-77693095D01*
X104133571Y-77693095D01*
X103981190Y-77655000D01*
X103905000Y-77578809D01*
X103866904Y-77502619D01*
X102625592Y-72357277D02*
X102652529Y-72438089D01*
X102733341Y-72518902D01*
X102841091Y-72572776D01*
X102948841Y-72572776D01*
X103029653Y-72545839D01*
X103164340Y-72465027D01*
X103245152Y-72384215D01*
X103325964Y-72249528D01*
X103352902Y-72168715D01*
X103352902Y-72060966D01*
X103299027Y-71953216D01*
X103245152Y-71899341D01*
X103137402Y-71845467D01*
X103083528Y-71845467D01*
X102894966Y-72034028D01*
X103002715Y-72141778D01*
X102894966Y-71549155D02*
X102329280Y-72114841D01*
X102113781Y-71899341D01*
X102086844Y-71818529D01*
X102086844Y-71764654D01*
X102113781Y-71683842D01*
X102194593Y-71603030D01*
X102275406Y-71576093D01*
X102329280Y-71576093D01*
X102410093Y-71603030D01*
X102625592Y-71818529D01*
X102032969Y-70687158D02*
X102356218Y-71010407D01*
X102194593Y-70848783D02*
X101628908Y-71414468D01*
X101763595Y-71387531D01*
X101871345Y-71387531D01*
X101952157Y-71414468D01*
X100982410Y-70767971D02*
X101090160Y-70875720D01*
X101170972Y-70902658D01*
X101224847Y-70902658D01*
X101359534Y-70875720D01*
X101494221Y-70794908D01*
X101709720Y-70579409D01*
X101736658Y-70498597D01*
X101736658Y-70444722D01*
X101709720Y-70363910D01*
X101601971Y-70256160D01*
X101521158Y-70229223D01*
X101467284Y-70229223D01*
X101386471Y-70256160D01*
X101251784Y-70390847D01*
X101224847Y-70471659D01*
X101224847Y-70525534D01*
X101251784Y-70606346D01*
X101359534Y-70714096D01*
X101440346Y-70741033D01*
X101494221Y-70741033D01*
X101575033Y-70714096D01*
X72845964Y-72303402D02*
X72576590Y-72034028D01*
X73061463Y-72195653D02*
X72307216Y-72572776D01*
X72684340Y-71818529D01*
X71660719Y-71872404D02*
X71687656Y-71953216D01*
X71768468Y-72034028D01*
X71876218Y-72087903D01*
X71983967Y-72087903D01*
X72064780Y-72060966D01*
X72199467Y-71980154D01*
X72280279Y-71899341D01*
X72361091Y-71764654D01*
X72388028Y-71683842D01*
X72388028Y-71576093D01*
X72334154Y-71468343D01*
X72280279Y-71414468D01*
X72172529Y-71360593D01*
X72118654Y-71360593D01*
X71930093Y-71549155D01*
X72037842Y-71656905D01*
X71930093Y-71064282D02*
X71364407Y-71629967D01*
X71606844Y-70741033D01*
X71041158Y-71306719D01*
X71337470Y-70471659D02*
X70771784Y-71037345D01*
X70637097Y-70902658D01*
X70583223Y-70794908D01*
X70583223Y-70687158D01*
X70610160Y-70606346D01*
X70690972Y-70471659D01*
X70771784Y-70390847D01*
X70906471Y-70310035D01*
X70987284Y-70283097D01*
X71095033Y-70283097D01*
X71202783Y-70336972D01*
X71337470Y-70471659D01*
X95005592Y-72357277D02*
X95032529Y-72438089D01*
X95113341Y-72518902D01*
X95221091Y-72572776D01*
X95328841Y-72572776D01*
X95409653Y-72545839D01*
X95544340Y-72465027D01*
X95625152Y-72384215D01*
X95705964Y-72249528D01*
X95732902Y-72168715D01*
X95732902Y-72060966D01*
X95679027Y-71953216D01*
X95625152Y-71899341D01*
X95517402Y-71845467D01*
X95463528Y-71845467D01*
X95274966Y-72034028D01*
X95382715Y-72141778D01*
X95274966Y-71549155D02*
X94709280Y-72114841D01*
X94493781Y-71899341D01*
X94466844Y-71818529D01*
X94466844Y-71764654D01*
X94493781Y-71683842D01*
X94574593Y-71603030D01*
X94655406Y-71576093D01*
X94709280Y-71576093D01*
X94790093Y-71603030D01*
X95005592Y-71818529D01*
X94412969Y-70687158D02*
X94736218Y-71010407D01*
X94574593Y-70848783D02*
X94008908Y-71414468D01*
X94143595Y-71387531D01*
X94251345Y-71387531D01*
X94332157Y-71414468D01*
X93766471Y-70687158D02*
X93793409Y-70767971D01*
X93793409Y-70821845D01*
X93766471Y-70902658D01*
X93739534Y-70929595D01*
X93658722Y-70956532D01*
X93604847Y-70956532D01*
X93524035Y-70929595D01*
X93416285Y-70821845D01*
X93389348Y-70741033D01*
X93389348Y-70687158D01*
X93416285Y-70606346D01*
X93443223Y-70579409D01*
X93524035Y-70552471D01*
X93577910Y-70552471D01*
X93658722Y-70579409D01*
X93766471Y-70687158D01*
X93847284Y-70714096D01*
X93901158Y-70714096D01*
X93981971Y-70687158D01*
X94089720Y-70579409D01*
X94116658Y-70498597D01*
X94116658Y-70444722D01*
X94089720Y-70363910D01*
X93981971Y-70256160D01*
X93901158Y-70229223D01*
X93847284Y-70229223D01*
X93766471Y-70256160D01*
X93658722Y-70363910D01*
X93631784Y-70444722D01*
X93631784Y-70498597D01*
X93658722Y-70579409D01*
X95005592Y-98465277D02*
X95032529Y-98546089D01*
X95113341Y-98626902D01*
X95221091Y-98680776D01*
X95328841Y-98680776D01*
X95409653Y-98653839D01*
X95544340Y-98573027D01*
X95625152Y-98492215D01*
X95705964Y-98357528D01*
X95732902Y-98276715D01*
X95732902Y-98168966D01*
X95679027Y-98061216D01*
X95625152Y-98007341D01*
X95517402Y-97953467D01*
X95463528Y-97953467D01*
X95274966Y-98142028D01*
X95382715Y-98249778D01*
X95274966Y-97657155D02*
X94709280Y-98222841D01*
X94493781Y-98007341D01*
X94466844Y-97926529D01*
X94466844Y-97872654D01*
X94493781Y-97791842D01*
X94574593Y-97711030D01*
X94655406Y-97684093D01*
X94709280Y-97684093D01*
X94790093Y-97711030D01*
X95005592Y-97926529D01*
X94412969Y-96795158D02*
X94736218Y-97118407D01*
X94574593Y-96956783D02*
X94008908Y-97522468D01*
X94143595Y-97495531D01*
X94251345Y-97495531D01*
X94332157Y-97522468D01*
X93658722Y-97172282D02*
X93308536Y-96822096D01*
X93712597Y-96795158D01*
X93631784Y-96714346D01*
X93604847Y-96633534D01*
X93604847Y-96579659D01*
X93631784Y-96498847D01*
X93766471Y-96364160D01*
X93847284Y-96337223D01*
X93901158Y-96337223D01*
X93981971Y-96364160D01*
X94143595Y-96525784D01*
X94170532Y-96606597D01*
X94170532Y-96660471D01*
X82305592Y-72357277D02*
X82332529Y-72438089D01*
X82413341Y-72518902D01*
X82521091Y-72572776D01*
X82628841Y-72572776D01*
X82709653Y-72545839D01*
X82844340Y-72465027D01*
X82925152Y-72384215D01*
X83005964Y-72249528D01*
X83032902Y-72168715D01*
X83032902Y-72060966D01*
X82979027Y-71953216D01*
X82925152Y-71899341D01*
X82817402Y-71845467D01*
X82763528Y-71845467D01*
X82574966Y-72034028D01*
X82682715Y-72141778D01*
X82574966Y-71549155D02*
X82009280Y-72114841D01*
X81793781Y-71899341D01*
X81766844Y-71818529D01*
X81766844Y-71764654D01*
X81793781Y-71683842D01*
X81874593Y-71603030D01*
X81955406Y-71576093D01*
X82009280Y-71576093D01*
X82090093Y-71603030D01*
X82305592Y-71818529D01*
X81524407Y-71522218D02*
X81470532Y-71522218D01*
X81389720Y-71495280D01*
X81255033Y-71360593D01*
X81228096Y-71279781D01*
X81228096Y-71225906D01*
X81255033Y-71145094D01*
X81308908Y-71091219D01*
X81416658Y-71037345D01*
X82063155Y-71037345D01*
X81712969Y-70687158D01*
X80985659Y-70983470D02*
X80931784Y-70983470D01*
X80850972Y-70956532D01*
X80716285Y-70821845D01*
X80689348Y-70741033D01*
X80689348Y-70687158D01*
X80716285Y-70606346D01*
X80770160Y-70552471D01*
X80877910Y-70498597D01*
X81524407Y-70498597D01*
X81174221Y-70148410D01*
X62063308Y-72532868D02*
X61713122Y-72182682D01*
X62117183Y-72155744D01*
X62036370Y-72074932D01*
X62009433Y-71994120D01*
X62009433Y-71940245D01*
X62036370Y-71859433D01*
X62171057Y-71724746D01*
X62251870Y-71697809D01*
X62305744Y-71697809D01*
X62386557Y-71724746D01*
X62548181Y-71886370D01*
X62575118Y-71967183D01*
X62575118Y-72021057D01*
X61551497Y-72021057D02*
X61928621Y-71266810D01*
X61174374Y-71643934D01*
X61039687Y-71509247D02*
X60689500Y-71159061D01*
X61093561Y-71132123D01*
X61012749Y-71051311D01*
X60985812Y-70970499D01*
X60985812Y-70916624D01*
X61012749Y-70835812D01*
X61147436Y-70701125D01*
X61228248Y-70674187D01*
X61282123Y-70674187D01*
X61362935Y-70701125D01*
X61524560Y-70862749D01*
X61551497Y-70943561D01*
X61551497Y-70997436D01*
X61201311Y-70431751D02*
X60770312Y-70000752D01*
X60285439Y-70216251D02*
X60096877Y-70027690D01*
X60312377Y-69650566D02*
X60581751Y-69919940D01*
X60016065Y-70485625D01*
X59746691Y-70216251D01*
X60069940Y-69408129D02*
X59504255Y-69973815D01*
X59746691Y-69084881D01*
X59181006Y-69650566D01*
X92465592Y-72357277D02*
X92492529Y-72438089D01*
X92573341Y-72518902D01*
X92681091Y-72572776D01*
X92788841Y-72572776D01*
X92869653Y-72545839D01*
X93004340Y-72465027D01*
X93085152Y-72384215D01*
X93165964Y-72249528D01*
X93192902Y-72168715D01*
X93192902Y-72060966D01*
X93139027Y-71953216D01*
X93085152Y-71899341D01*
X92977402Y-71845467D01*
X92923528Y-71845467D01*
X92734966Y-72034028D01*
X92842715Y-72141778D01*
X92734966Y-71549155D02*
X92169280Y-72114841D01*
X91953781Y-71899341D01*
X91926844Y-71818529D01*
X91926844Y-71764654D01*
X91953781Y-71683842D01*
X92034593Y-71603030D01*
X92115406Y-71576093D01*
X92169280Y-71576093D01*
X92250093Y-71603030D01*
X92465592Y-71818529D01*
X91872969Y-70687158D02*
X92196218Y-71010407D01*
X92034593Y-70848783D02*
X91468908Y-71414468D01*
X91603595Y-71387531D01*
X91711345Y-71387531D01*
X91792157Y-71414468D01*
X91603595Y-70417784D02*
X91495845Y-70310035D01*
X91415033Y-70283097D01*
X91361158Y-70283097D01*
X91226471Y-70310035D01*
X91091784Y-70390847D01*
X90876285Y-70606346D01*
X90849348Y-70687158D01*
X90849348Y-70741033D01*
X90876285Y-70821845D01*
X90984035Y-70929595D01*
X91064847Y-70956532D01*
X91118722Y-70956532D01*
X91199534Y-70929595D01*
X91334221Y-70794908D01*
X91361158Y-70714096D01*
X91361158Y-70660221D01*
X91334221Y-70579409D01*
X91226471Y-70471659D01*
X91145659Y-70444722D01*
X91091784Y-70444722D01*
X91010972Y-70471659D01*
X84603155Y-72368841D02*
X84630093Y-72449653D01*
X84710905Y-72530465D01*
X84818654Y-72584340D01*
X84926404Y-72584340D01*
X85007216Y-72557402D01*
X85141903Y-72476590D01*
X85222715Y-72395778D01*
X85303528Y-72261091D01*
X85330465Y-72180279D01*
X85330465Y-72072529D01*
X85276590Y-71964780D01*
X85222715Y-71910905D01*
X85114966Y-71857030D01*
X85061091Y-71857030D01*
X84872529Y-72045592D01*
X84980279Y-72153341D01*
X84872529Y-71560719D02*
X84306844Y-72126404D01*
X84549280Y-71237470D01*
X83983595Y-71803155D01*
X84279906Y-70968096D02*
X83714221Y-71533781D01*
X83579534Y-71399094D01*
X83525659Y-71291345D01*
X83525659Y-71183595D01*
X83552597Y-71102783D01*
X83633409Y-70968096D01*
X83714221Y-70887284D01*
X83848908Y-70806471D01*
X83929720Y-70779534D01*
X84037470Y-70779534D01*
X84145219Y-70833409D01*
X84279906Y-70968096D01*
X74416218Y-97941903D02*
X74443155Y-98022715D01*
X74523967Y-98103528D01*
X74631717Y-98157402D01*
X74739467Y-98157402D01*
X74820279Y-98130465D01*
X74954966Y-98049653D01*
X75035778Y-97968841D01*
X75116590Y-97834154D01*
X75143528Y-97753341D01*
X75143528Y-97645592D01*
X75089653Y-97537842D01*
X75035778Y-97483967D01*
X74928028Y-97430093D01*
X74874154Y-97430093D01*
X74685592Y-97618654D01*
X74793341Y-97726404D01*
X74685592Y-97133781D02*
X74119906Y-97699467D01*
X73904407Y-97483967D01*
X73877470Y-97403155D01*
X73877470Y-97349280D01*
X73904407Y-97268468D01*
X73985219Y-97187656D01*
X74066032Y-97160719D01*
X74119906Y-97160719D01*
X74200719Y-97187656D01*
X74416218Y-97403155D01*
X73311784Y-96891345D02*
X73419534Y-96999094D01*
X73500346Y-97026032D01*
X73554221Y-97026032D01*
X73688908Y-96999094D01*
X73823595Y-96918282D01*
X74039094Y-96702783D01*
X74066032Y-96621971D01*
X74066032Y-96568096D01*
X74039094Y-96487284D01*
X73931345Y-96379534D01*
X73850532Y-96352597D01*
X73796658Y-96352597D01*
X73715845Y-96379534D01*
X73581158Y-96514221D01*
X73554221Y-96595033D01*
X73554221Y-96648908D01*
X73581158Y-96729720D01*
X73688908Y-96837470D01*
X73769720Y-96864407D01*
X73823595Y-96864407D01*
X73904407Y-96837470D01*
X54096218Y-97941903D02*
X54123155Y-98022715D01*
X54203967Y-98103528D01*
X54311717Y-98157402D01*
X54419467Y-98157402D01*
X54500279Y-98130465D01*
X54634966Y-98049653D01*
X54715778Y-97968841D01*
X54796590Y-97834154D01*
X54823528Y-97753341D01*
X54823528Y-97645592D01*
X54769653Y-97537842D01*
X54715778Y-97483967D01*
X54608028Y-97430093D01*
X54554154Y-97430093D01*
X54365592Y-97618654D01*
X54473341Y-97726404D01*
X54365592Y-97133781D02*
X53799906Y-97699467D01*
X53584407Y-97483967D01*
X53557470Y-97403155D01*
X53557470Y-97349280D01*
X53584407Y-97268468D01*
X53665219Y-97187656D01*
X53746032Y-97160719D01*
X53799906Y-97160719D01*
X53880719Y-97187656D01*
X54096218Y-97403155D01*
X53126471Y-97026032D02*
X53072597Y-96972157D01*
X53045659Y-96891345D01*
X53045659Y-96837470D01*
X53072597Y-96756658D01*
X53153409Y-96621971D01*
X53288096Y-96487284D01*
X53422783Y-96406471D01*
X53503595Y-96379534D01*
X53557470Y-96379534D01*
X53638282Y-96406471D01*
X53692157Y-96460346D01*
X53719094Y-96541158D01*
X53719094Y-96595033D01*
X53692157Y-96675845D01*
X53611345Y-96810532D01*
X53476658Y-96945219D01*
X53341971Y-97026032D01*
X53261158Y-97052969D01*
X53207284Y-97052969D01*
X53126471Y-97026032D01*
X77225592Y-72357277D02*
X77252529Y-72438089D01*
X77333341Y-72518902D01*
X77441091Y-72572776D01*
X77548841Y-72572776D01*
X77629653Y-72545839D01*
X77764340Y-72465027D01*
X77845152Y-72384215D01*
X77925964Y-72249528D01*
X77952902Y-72168715D01*
X77952902Y-72060966D01*
X77899027Y-71953216D01*
X77845152Y-71899341D01*
X77737402Y-71845467D01*
X77683528Y-71845467D01*
X77494966Y-72034028D01*
X77602715Y-72141778D01*
X77494966Y-71549155D02*
X76929280Y-72114841D01*
X76713781Y-71899341D01*
X76686844Y-71818529D01*
X76686844Y-71764654D01*
X76713781Y-71683842D01*
X76794593Y-71603030D01*
X76875406Y-71576093D01*
X76929280Y-71576093D01*
X77010093Y-71603030D01*
X77225592Y-71818529D01*
X76444407Y-71522218D02*
X76390532Y-71522218D01*
X76309720Y-71495280D01*
X76175033Y-71360593D01*
X76148096Y-71279781D01*
X76148096Y-71225906D01*
X76175033Y-71145094D01*
X76228908Y-71091219D01*
X76336658Y-71037345D01*
X76983155Y-71037345D01*
X76632969Y-70687158D01*
X75582410Y-70767971D02*
X75690160Y-70875720D01*
X75770972Y-70902658D01*
X75824847Y-70902658D01*
X75959534Y-70875720D01*
X76094221Y-70794908D01*
X76309720Y-70579409D01*
X76336658Y-70498597D01*
X76336658Y-70444722D01*
X76309720Y-70363910D01*
X76201971Y-70256160D01*
X76121158Y-70229223D01*
X76067284Y-70229223D01*
X75986471Y-70256160D01*
X75851784Y-70390847D01*
X75824847Y-70471659D01*
X75824847Y-70525534D01*
X75851784Y-70606346D01*
X75959534Y-70714096D01*
X76040346Y-70741033D01*
X76094221Y-70741033D01*
X76175033Y-70714096D01*
X61716218Y-98041903D02*
X61743155Y-98122715D01*
X61823967Y-98203528D01*
X61931717Y-98257402D01*
X62039467Y-98257402D01*
X62120279Y-98230465D01*
X62254966Y-98149653D01*
X62335778Y-98068841D01*
X62416590Y-97934154D01*
X62443528Y-97853341D01*
X62443528Y-97745592D01*
X62389653Y-97637842D01*
X62335778Y-97583967D01*
X62228028Y-97530093D01*
X62174154Y-97530093D01*
X61985592Y-97718654D01*
X62093341Y-97826404D01*
X61985592Y-97233781D02*
X61419906Y-97799467D01*
X61204407Y-97583967D01*
X61177470Y-97503155D01*
X61177470Y-97449280D01*
X61204407Y-97368468D01*
X61285219Y-97287656D01*
X61366032Y-97260719D01*
X61419906Y-97260719D01*
X61500719Y-97287656D01*
X61716218Y-97503155D01*
X60935033Y-97206844D02*
X60881158Y-97206844D01*
X60800346Y-97179906D01*
X60665659Y-97045219D01*
X60638722Y-96964407D01*
X60638722Y-96910532D01*
X60665659Y-96829720D01*
X60719534Y-96775845D01*
X60827284Y-96721971D01*
X61473781Y-96721971D01*
X61123595Y-96371784D01*
X104628809Y-91964523D02*
X104666904Y-91850238D01*
X104666904Y-91659761D01*
X104628809Y-91583571D01*
X104590714Y-91545476D01*
X104514523Y-91507380D01*
X104438333Y-91507380D01*
X104362142Y-91545476D01*
X104324047Y-91583571D01*
X104285952Y-91659761D01*
X104247857Y-91812142D01*
X104209761Y-91888333D01*
X104171666Y-91926428D01*
X104095476Y-91964523D01*
X104019285Y-91964523D01*
X103943095Y-91926428D01*
X103905000Y-91888333D01*
X103866904Y-91812142D01*
X103866904Y-91621666D01*
X103905000Y-91507380D01*
X103866904Y-91240714D02*
X104666904Y-91050238D01*
X104095476Y-90897857D01*
X104666904Y-90745476D01*
X103866904Y-90555000D01*
X104590714Y-89793095D02*
X104628809Y-89831190D01*
X104666904Y-89945476D01*
X104666904Y-90021666D01*
X104628809Y-90135952D01*
X104552619Y-90212142D01*
X104476428Y-90250238D01*
X104324047Y-90288333D01*
X104209761Y-90288333D01*
X104057380Y-90250238D01*
X103981190Y-90212142D01*
X103905000Y-90135952D01*
X103866904Y-90021666D01*
X103866904Y-89945476D01*
X103905000Y-89831190D01*
X103943095Y-89793095D01*
X104666904Y-89069285D02*
X104666904Y-89450238D01*
X103866904Y-89450238D01*
X104666904Y-88802619D02*
X103866904Y-88802619D01*
X104666904Y-88345476D02*
X104209761Y-88688333D01*
X103866904Y-88345476D02*
X104324047Y-88802619D01*
X92465592Y-98611277D02*
X92492529Y-98692089D01*
X92573341Y-98772902D01*
X92681091Y-98826776D01*
X92788841Y-98826776D01*
X92869653Y-98799839D01*
X93004340Y-98719027D01*
X93085152Y-98638215D01*
X93165964Y-98503528D01*
X93192902Y-98422715D01*
X93192902Y-98314966D01*
X93139027Y-98207216D01*
X93085152Y-98153341D01*
X92977402Y-98099467D01*
X92923528Y-98099467D01*
X92734966Y-98288028D01*
X92842715Y-98395778D01*
X92734966Y-97803155D02*
X92169280Y-98368841D01*
X91953781Y-98153341D01*
X91926844Y-98072529D01*
X91926844Y-98018654D01*
X91953781Y-97937842D01*
X92034593Y-97857030D01*
X92115406Y-97830093D01*
X92169280Y-97830093D01*
X92250093Y-97857030D01*
X92465592Y-98072529D01*
X91872969Y-96941158D02*
X92196218Y-97264407D01*
X92034593Y-97102783D02*
X91468908Y-97668468D01*
X91603595Y-97641531D01*
X91711345Y-97641531D01*
X91792157Y-97668468D01*
X91145659Y-97237470D02*
X91091784Y-97237470D01*
X91010972Y-97210532D01*
X90876285Y-97075845D01*
X90849348Y-96995033D01*
X90849348Y-96941158D01*
X90876285Y-96860346D01*
X90930160Y-96806471D01*
X91037910Y-96752597D01*
X91684407Y-96752597D01*
X91334221Y-96402410D01*
X64595592Y-72565152D02*
X64245406Y-72214966D01*
X64649467Y-72188028D01*
X64568654Y-72107216D01*
X64541717Y-72026404D01*
X64541717Y-71972529D01*
X64568654Y-71891717D01*
X64703341Y-71757030D01*
X64784154Y-71730093D01*
X64838028Y-71730093D01*
X64918841Y-71757030D01*
X65080465Y-71918654D01*
X65107402Y-71999467D01*
X65107402Y-72053341D01*
X64083781Y-72053341D02*
X64460905Y-71299094D01*
X63706658Y-71676218D01*
X63571971Y-71541531D02*
X63221784Y-71191345D01*
X63625845Y-71164407D01*
X63545033Y-71083595D01*
X63518096Y-71002783D01*
X63518096Y-70948908D01*
X63545033Y-70868096D01*
X63679720Y-70733409D01*
X63760532Y-70706471D01*
X63814407Y-70706471D01*
X63895219Y-70733409D01*
X64056844Y-70895033D01*
X64083781Y-70975845D01*
X64083781Y-71029720D01*
X97303155Y-97968841D02*
X97330093Y-98049653D01*
X97410905Y-98130465D01*
X97518654Y-98184340D01*
X97626404Y-98184340D01*
X97707216Y-98157402D01*
X97841903Y-98076590D01*
X97922715Y-97995778D01*
X98003528Y-97861091D01*
X98030465Y-97780279D01*
X98030465Y-97672529D01*
X97976590Y-97564780D01*
X97922715Y-97510905D01*
X97814966Y-97457030D01*
X97761091Y-97457030D01*
X97572529Y-97645592D01*
X97680279Y-97753341D01*
X97572529Y-97160719D02*
X97006844Y-97726404D01*
X97249280Y-96837470D01*
X96683595Y-97403155D01*
X96979906Y-96568096D02*
X96414221Y-97133781D01*
X96279534Y-96999094D01*
X96225659Y-96891345D01*
X96225659Y-96783595D01*
X96252597Y-96702783D01*
X96333409Y-96568096D01*
X96414221Y-96487284D01*
X96548908Y-96406471D01*
X96629720Y-96379534D01*
X96737470Y-96379534D01*
X96845219Y-96433409D01*
X96979906Y-96568096D01*
X56626218Y-98041903D02*
X56653155Y-98122715D01*
X56733967Y-98203528D01*
X56841717Y-98257402D01*
X56949467Y-98257402D01*
X57030279Y-98230465D01*
X57164966Y-98149653D01*
X57245778Y-98068841D01*
X57326590Y-97934154D01*
X57353528Y-97853341D01*
X57353528Y-97745592D01*
X57299653Y-97637842D01*
X57245778Y-97583967D01*
X57138028Y-97530093D01*
X57084154Y-97530093D01*
X56895592Y-97718654D01*
X57003341Y-97826404D01*
X56895592Y-97233781D02*
X56329906Y-97799467D01*
X56114407Y-97583967D01*
X56087470Y-97503155D01*
X56087470Y-97449280D01*
X56114407Y-97368468D01*
X56195219Y-97287656D01*
X56276032Y-97260719D01*
X56329906Y-97260719D01*
X56410719Y-97287656D01*
X56626218Y-97503155D01*
X56033595Y-96371784D02*
X56356844Y-96695033D01*
X56195219Y-96533409D02*
X55629534Y-97099094D01*
X55764221Y-97072157D01*
X55871971Y-97072157D01*
X55952783Y-97099094D01*
X59203155Y-72368841D02*
X59230093Y-72449653D01*
X59310905Y-72530465D01*
X59418654Y-72584340D01*
X59526404Y-72584340D01*
X59607216Y-72557402D01*
X59741903Y-72476590D01*
X59822715Y-72395778D01*
X59903528Y-72261091D01*
X59930465Y-72180279D01*
X59930465Y-72072529D01*
X59876590Y-71964780D01*
X59822715Y-71910905D01*
X59714966Y-71857030D01*
X59661091Y-71857030D01*
X59472529Y-72045592D01*
X59580279Y-72153341D01*
X59472529Y-71560719D02*
X58906844Y-72126404D01*
X59149280Y-71237470D01*
X58583595Y-71803155D01*
X58879906Y-70968096D02*
X58314221Y-71533781D01*
X58179534Y-71399094D01*
X58125659Y-71291345D01*
X58125659Y-71183595D01*
X58152597Y-71102783D01*
X58233409Y-70968096D01*
X58314221Y-70887284D01*
X58448908Y-70806471D01*
X58529720Y-70779534D01*
X58637470Y-70779534D01*
X58745219Y-70833409D01*
X58879906Y-70968096D01*
D11*
%TO.C,R10*%
X122147064Y-74195000D02*
X121692936Y-74195000D01*
X122147064Y-75665000D02*
X121692936Y-75665000D01*
%TO.C,R4*%
X141070000Y-89254064D02*
X141070000Y-88799936D01*
X139600000Y-89254064D02*
X139600000Y-88799936D01*
%TO.C,C12*%
X71855000Y-102420748D02*
X71855000Y-102943252D01*
X70385000Y-102420748D02*
X70385000Y-102943252D01*
%TO.C,Y1*%
X73915000Y-113125000D02*
X77215000Y-113125000D01*
X77215000Y-113125000D02*
X77215000Y-109125000D01*
%TO.C,C20*%
X125195000Y-60901252D02*
X125195000Y-60378748D01*
X123725000Y-60901252D02*
X123725000Y-60378748D01*
%TO.C,C3*%
X98051252Y-130910000D02*
X97528748Y-130910000D01*
X98051252Y-129440000D02*
X97528748Y-129440000D01*
%TO.C,R13*%
X81052936Y-56107000D02*
X81507064Y-56107000D01*
X81052936Y-54637000D02*
X81507064Y-54637000D01*
%TO.C,R9*%
X136655436Y-75665000D02*
X137109564Y-75665000D01*
X136655436Y-74195000D02*
X137109564Y-74195000D01*
%TO.C,TP11*%
X127692000Y-75000000D02*
X127692000Y-77400000D01*
X127692000Y-77400000D02*
X125292000Y-77400000D01*
X125292000Y-75000000D02*
X127692000Y-75000000D01*
X125292000Y-77400000D02*
X125292000Y-75000000D01*
D12*
%TO.C,J1*%
X138280000Y-58808000D02*
X138280000Y-47808000D01*
X136580000Y-47808000D02*
X136580000Y-46808000D01*
X138280000Y-58808000D02*
X125880000Y-58808000D01*
X127580000Y-47808000D02*
X125880000Y-47808000D01*
X135080000Y-46808000D02*
X129080000Y-46808000D01*
X125880000Y-58808000D02*
X125880000Y-47808000D01*
X127580000Y-46808000D02*
X127580000Y-47808000D01*
X129080000Y-46808000D02*
X127580000Y-46808000D01*
X135080000Y-46808000D02*
X135080000Y-44808000D01*
X138280000Y-47808000D02*
X136580000Y-47808000D01*
X129080000Y-44808000D02*
X129080000Y-46808000D01*
X135080000Y-44808000D02*
X129080000Y-44808000D01*
X136580000Y-46808000D02*
X135080000Y-46808000D01*
D13*
X139050000Y-51308000D02*
G75*
G03*
X139050000Y-51308000I-170000J0D01*
G01*
D11*
%TO.C,C9*%
X142775000Y-79113748D02*
X142775000Y-79636252D01*
X144245000Y-79113748D02*
X144245000Y-79636252D01*
%TO.C,R8*%
X142775000Y-70077064D02*
X142775000Y-69622936D01*
X144245000Y-70077064D02*
X144245000Y-69622936D01*
%TO.C,R5*%
X116613000Y-89127064D02*
X116613000Y-88672936D01*
X118083000Y-89127064D02*
X118083000Y-88672936D01*
%TO.C,C7*%
X123690748Y-129440000D02*
X124213252Y-129440000D01*
X123690748Y-130910000D02*
X124213252Y-130910000D01*
%TO.C,C15*%
X125703000Y-70604748D02*
X125703000Y-71127252D01*
X124233000Y-70604748D02*
X124233000Y-71127252D01*
%TO.C,AntennaConnector1*%
X66110000Y-135770000D02*
X51110000Y-135770000D01*
X66110000Y-120770000D02*
X66110000Y-135770000D01*
X51110000Y-120770000D02*
X66110000Y-120770000D01*
X51310000Y-128270000D02*
X52310000Y-129270000D01*
X51110000Y-135770000D02*
X51110000Y-120770000D01*
X51310000Y-128270000D02*
X52310000Y-127270000D01*
%TO.C,L3*%
X134192000Y-135168000D02*
X134192000Y-131303000D01*
X134192000Y-128793000D02*
X134192000Y-124928000D01*
X128952000Y-135168000D02*
X134192000Y-135168000D01*
X128952000Y-124928000D02*
X134192000Y-124928000D01*
X128952000Y-128793000D02*
X128952000Y-124928000D01*
X128952000Y-135168000D02*
X128952000Y-131303000D01*
%TO.C,C13*%
X120115000Y-101413752D02*
X120115000Y-100891248D01*
X118645000Y-101413752D02*
X118645000Y-100891248D01*
%TO.C,TP15*%
X118815000Y-60890000D02*
X118815000Y-58490000D01*
X121215000Y-58490000D02*
X121215000Y-60890000D01*
X118815000Y-58490000D02*
X121215000Y-58490000D01*
X121215000Y-60890000D02*
X118815000Y-60890000D01*
%TO.C,C10*%
X100740000Y-48117755D02*
X111604000Y-48117755D01*
X98732000Y-50957755D02*
X104732000Y-50957755D01*
X98312000Y-52237755D02*
X114032000Y-52237755D01*
X98442000Y-51757755D02*
X104732000Y-51757755D01*
X103352000Y-46517755D02*
X108992000Y-46517755D01*
X107612000Y-48957755D02*
X112402000Y-48957755D01*
X98169000Y-52997755D02*
X114175000Y-52997755D01*
X101481000Y-47517755D02*
X110863000Y-47517755D01*
X102959000Y-46677755D02*
X109385000Y-46677755D01*
X98294000Y-52317755D02*
X114050000Y-52317755D01*
X99336000Y-49797755D02*
X104732000Y-49797755D01*
X98352000Y-52077755D02*
X113992000Y-52077755D01*
X104821000Y-46117755D02*
X107523000Y-46117755D01*
X98303000Y-52277755D02*
X114041000Y-52277755D01*
X98838000Y-50717755D02*
X104732000Y-50717755D01*
X98819000Y-50757755D02*
X104732000Y-50757755D01*
X102615000Y-46837755D02*
X109729000Y-46837755D01*
X107612000Y-50557755D02*
X113430000Y-50557755D01*
X107612000Y-49917755D02*
X113082000Y-49917755D01*
X103248000Y-46557755D02*
X109096000Y-46557755D01*
X107612000Y-49557755D02*
X112851000Y-49557755D01*
X98933000Y-50517755D02*
X104732000Y-50517755D01*
X99262000Y-49917755D02*
X104732000Y-49917755D01*
X98106000Y-53638755D02*
X114238000Y-53638755D01*
X100529000Y-48317755D02*
X111815000Y-48317755D01*
X107612000Y-50597755D02*
X113450000Y-50597755D01*
X107612000Y-49517755D02*
X112824000Y-49517755D01*
X107612000Y-50157755D02*
X113221000Y-50157755D01*
X98362000Y-52037755D02*
X113982000Y-52037755D01*
X103575000Y-46437755D02*
X108769000Y-46437755D01*
X100829000Y-48037755D02*
X111515000Y-48037755D01*
X99015000Y-50357755D02*
X104732000Y-50357755D01*
X98108000Y-53598755D02*
X114236000Y-53598755D01*
X99057000Y-50277755D02*
X104732000Y-50277755D01*
X107612000Y-49957755D02*
X113106000Y-49957755D01*
X99909000Y-48997755D02*
X104732000Y-48997755D01*
X107612000Y-49837755D02*
X113033000Y-49837755D01*
X104420000Y-46197755D02*
X107924000Y-46197755D01*
X102236000Y-47037755D02*
X110108000Y-47037755D01*
X107612000Y-50717755D02*
X113506000Y-50717755D01*
X100875000Y-47997755D02*
X111469000Y-47997755D01*
X100370000Y-48477755D02*
X111974000Y-48477755D01*
X99100000Y-50197755D02*
X104732000Y-50197755D01*
X104098000Y-46277755D02*
X108246000Y-46277755D01*
X100570000Y-48277755D02*
X111774000Y-48277755D01*
X107612000Y-49597755D02*
X112878000Y-49597755D01*
X107612000Y-51757755D02*
X113902000Y-51757755D01*
X98430000Y-51797755D02*
X104732000Y-51797755D01*
X100654000Y-48197755D02*
X111690000Y-48197755D01*
X100968000Y-47917755D02*
X111376000Y-47917755D01*
X98095000Y-53878755D02*
X114249000Y-53878755D01*
X107612000Y-50117755D02*
X113199000Y-50117755D01*
X98103000Y-53678755D02*
X114241000Y-53678755D01*
X107612000Y-49117755D02*
X112530000Y-49117755D01*
X98139000Y-53237755D02*
X114205000Y-53237755D01*
X103148000Y-46597755D02*
X109196000Y-46597755D01*
X99752000Y-49197755D02*
X104732000Y-49197755D01*
X98561000Y-51397755D02*
X104732000Y-51397755D01*
X101538000Y-47477755D02*
X110806000Y-47477755D01*
X105074000Y-46077755D02*
X107270000Y-46077755D01*
X107612000Y-51117755D02*
X113678000Y-51117755D01*
X100220000Y-48637755D02*
X112124000Y-48637755D01*
X98749000Y-50917755D02*
X104732000Y-50917755D01*
X98193000Y-52837755D02*
X114151000Y-52837755D01*
X99214000Y-49997755D02*
X104732000Y-49997755D01*
X98875000Y-50637755D02*
X104732000Y-50637755D01*
X98096000Y-53838755D02*
X114248000Y-53838755D01*
X98131000Y-53317755D02*
X114213000Y-53317755D01*
X98994000Y-50397755D02*
X104732000Y-50397755D01*
X107612000Y-51797755D02*
X113914000Y-51797755D01*
X98590000Y-51317755D02*
X104732000Y-51317755D01*
X99311000Y-49837755D02*
X104732000Y-49837755D01*
X101163000Y-47757755D02*
X111181000Y-47757755D01*
X98114000Y-53518755D02*
X114230000Y-53518755D01*
X107612000Y-49357755D02*
X112711000Y-49357755D01*
X98322000Y-52197755D02*
X114022000Y-52197755D01*
X98682000Y-51077755D02*
X104732000Y-51077755D01*
X101836000Y-47277755D02*
X110508000Y-47277755D01*
X98914000Y-50557755D02*
X104732000Y-50557755D01*
X107612000Y-51557755D02*
X113838000Y-51557755D01*
X98894000Y-50597755D02*
X104732000Y-50597755D01*
X107612000Y-51237755D02*
X113725000Y-51237755D01*
X98117000Y-53478755D02*
X114227000Y-53478755D01*
X98235000Y-52597755D02*
X114109000Y-52597755D01*
X98111000Y-53558755D02*
X114233000Y-53558755D01*
X102096000Y-47117755D02*
X110248000Y-47117755D01*
X98479000Y-51637755D02*
X104732000Y-51637755D01*
X107612000Y-51077755D02*
X113662000Y-51077755D01*
X98135000Y-53277755D02*
X114209000Y-53277755D01*
X107612000Y-49797755D02*
X113008000Y-49797755D01*
X98187000Y-52877755D02*
X114157000Y-52877755D01*
X107612000Y-50237755D02*
X113266000Y-50237755D01*
X107612000Y-50677755D02*
X113488000Y-50677755D01*
X107612000Y-50997755D02*
X113629000Y-50997755D01*
X98101000Y-53718755D02*
X114243000Y-53718755D01*
X107612000Y-50277755D02*
X113287000Y-50277755D01*
X98098000Y-53798755D02*
X114246000Y-53798755D01*
X99123000Y-50157755D02*
X104732000Y-50157755D01*
X98158000Y-53077755D02*
X114186000Y-53077755D01*
X105407000Y-46037755D02*
X106937000Y-46037755D01*
X107612000Y-51717755D02*
X113890000Y-51717755D01*
X107612000Y-50637755D02*
X113469000Y-50637755D01*
X100697000Y-48157755D02*
X111647000Y-48157755D01*
X99439000Y-49637755D02*
X104732000Y-49637755D01*
X104608000Y-46157755D02*
X107736000Y-46157755D01*
X107612000Y-50797755D02*
X113543000Y-50797755D01*
X98506000Y-51557755D02*
X104732000Y-51557755D01*
X100183000Y-48677755D02*
X112161000Y-48677755D01*
X100784000Y-48077755D02*
X111560000Y-48077755D01*
X98092000Y-53998755D02*
X114252000Y-53998755D01*
X107612000Y-50837755D02*
X113561000Y-50837755D01*
X98407000Y-51877755D02*
X113937000Y-51877755D01*
X98251000Y-52517755D02*
X114093000Y-52517755D01*
X107612000Y-50757755D02*
X113525000Y-50757755D01*
X101064000Y-47837755D02*
X111280000Y-47837755D01*
X99145000Y-50117755D02*
X104732000Y-50117755D01*
X107612000Y-49397755D02*
X112740000Y-49397755D01*
X98533000Y-51477755D02*
X104732000Y-51477755D01*
X101372000Y-47597755D02*
X110972000Y-47597755D01*
X98094000Y-53918755D02*
X114250000Y-53918755D01*
X107612000Y-51597755D02*
X113852000Y-51597755D01*
X107612000Y-51357755D02*
X113769000Y-51357755D01*
X98373000Y-51997755D02*
X113971000Y-51997755D01*
X100448000Y-48397755D02*
X111896000Y-48397755D01*
X98418000Y-51837755D02*
X113926000Y-51837755D01*
X98395000Y-51917755D02*
X113949000Y-51917755D01*
X98206000Y-52757755D02*
X114138000Y-52757755D01*
X98953000Y-50477755D02*
X104732000Y-50477755D01*
X98276000Y-52397755D02*
X114068000Y-52397755D01*
X107612000Y-50477755D02*
X113391000Y-50477755D01*
X98200000Y-52797755D02*
X114144000Y-52797755D01*
X102382000Y-46957755D02*
X109962000Y-46957755D01*
X101595000Y-47437755D02*
X110749000Y-47437755D01*
X99576000Y-49437755D02*
X104732000Y-49437755D01*
X98220000Y-52677755D02*
X114124000Y-52677755D01*
X101426000Y-47557755D02*
X110918000Y-47557755D01*
X103461000Y-46477755D02*
X108883000Y-46477755D01*
X99722000Y-49237755D02*
X104732000Y-49237755D01*
X98492000Y-51597755D02*
X104732000Y-51597755D01*
X100488000Y-48357755D02*
X111856000Y-48357755D01*
X101016000Y-47877755D02*
X111328000Y-47877755D01*
X107612000Y-49077755D02*
X112499000Y-49077755D01*
X101713000Y-47357755D02*
X110631000Y-47357755D01*
X107612000Y-49717755D02*
X112957000Y-49717755D01*
X98213000Y-52717755D02*
X114131000Y-52717755D01*
X107612000Y-51517755D02*
X113825000Y-51517755D01*
X99942000Y-48957755D02*
X104732000Y-48957755D01*
X98164000Y-53037755D02*
X114180000Y-53037755D01*
X98783000Y-50837755D02*
X104732000Y-50837755D01*
X102457000Y-46917755D02*
X109887000Y-46917755D01*
X107612000Y-50317755D02*
X113308000Y-50317755D01*
X107612000Y-49757755D02*
X112983000Y-49757755D01*
X98120000Y-53438755D02*
X114224000Y-53438755D01*
X107612000Y-50357755D02*
X113329000Y-50357755D01*
X102029000Y-47157755D02*
X110315000Y-47157755D01*
X107612000Y-49277755D02*
X112652000Y-49277755D01*
X101617000Y-62808246D02*
X101617000Y-61208246D01*
X107612000Y-49157755D02*
X112562000Y-49157755D01*
X107612000Y-49317755D02*
X112682000Y-49317755D01*
X107612000Y-49637755D02*
X112905000Y-49637755D01*
X100009000Y-48877755D02*
X112335000Y-48877755D01*
X101899000Y-47237755D02*
X110445000Y-47237755D01*
X100294000Y-48557755D02*
X112050000Y-48557755D01*
X107612000Y-51037755D02*
X113646000Y-51037755D01*
X98228000Y-52637755D02*
X114116000Y-52637755D01*
X107612000Y-50517755D02*
X113411000Y-50517755D01*
X99466000Y-49597755D02*
X104732000Y-49597755D01*
X98650000Y-51157755D02*
X104732000Y-51157755D01*
X100112000Y-48757755D02*
X112232000Y-48757755D01*
X107612000Y-51677755D02*
X113877000Y-51677755D01*
X98666000Y-51117755D02*
X104732000Y-51117755D01*
X103954000Y-46317755D02*
X108390000Y-46317755D01*
X107612000Y-50197755D02*
X113244000Y-50197755D01*
X107612000Y-49237755D02*
X112622000Y-49237755D01*
X107612000Y-51197755D02*
X113709000Y-51197755D01*
X98715000Y-50997755D02*
X104732000Y-50997755D01*
X98342000Y-52117755D02*
X114002000Y-52117755D01*
X98547000Y-51437755D02*
X104732000Y-51437755D01*
X99662000Y-49317755D02*
X104732000Y-49317755D01*
X100077000Y-48797755D02*
X112267000Y-48797755D01*
X101774000Y-47317755D02*
X110570000Y-47317755D01*
X107612000Y-50917755D02*
X113595000Y-50917755D01*
X99238000Y-49957755D02*
X104732000Y-49957755D01*
X102869000Y-46717755D02*
X109475000Y-46717755D01*
X107612000Y-49877755D02*
X113058000Y-49877755D01*
X99975000Y-48917755D02*
X112369000Y-48917755D01*
X99191000Y-50037755D02*
X104732000Y-50037755D01*
X98181000Y-52917755D02*
X114163000Y-52917755D01*
X104252000Y-46237755D02*
X108092000Y-46237755D01*
X98467000Y-51677755D02*
X104732000Y-51677755D01*
X107612000Y-51437755D02*
X113797000Y-51437755D01*
X107612000Y-51277755D02*
X113740000Y-51277755D01*
X98175000Y-52957755D02*
X114169000Y-52957755D01*
X98575000Y-51357755D02*
X104732000Y-51357755D01*
X107612000Y-50037755D02*
X113153000Y-50037755D01*
X99520000Y-49517755D02*
X104732000Y-49517755D01*
X99286000Y-49877755D02*
X104732000Y-49877755D01*
X107612000Y-48997755D02*
X112435000Y-48997755D01*
X102782000Y-46757755D02*
X109562000Y-46757755D01*
X98332000Y-52157755D02*
X114012000Y-52157755D01*
X101266000Y-47677755D02*
X111078000Y-47677755D01*
X102165000Y-47077755D02*
X110179000Y-47077755D01*
X107612000Y-51157755D02*
X113694000Y-51157755D01*
X107612000Y-49997755D02*
X113130000Y-49997755D01*
X107612000Y-49437755D02*
X112768000Y-49437755D01*
X98856000Y-50677755D02*
X104732000Y-50677755D01*
X107612000Y-50437755D02*
X113371000Y-50437755D01*
X98619000Y-51237755D02*
X104732000Y-51237755D01*
X101653000Y-47397755D02*
X110691000Y-47397755D01*
X102697000Y-46797755D02*
X109647000Y-46797755D01*
X98243000Y-52557755D02*
X114101000Y-52557755D01*
X98267000Y-52437755D02*
X114077000Y-52437755D01*
X107612000Y-49197755D02*
X112592000Y-49197755D01*
X98766000Y-50877755D02*
X104732000Y-50877755D01*
X98093000Y-53958755D02*
X114251000Y-53958755D01*
X98092000Y-54038755D02*
X114252000Y-54038755D01*
X99036000Y-50317755D02*
X104732000Y-50317755D01*
X107612000Y-49677755D02*
X112931000Y-49677755D01*
X98384000Y-51957755D02*
X113960000Y-51957755D01*
X101113000Y-47797755D02*
X111231000Y-47797755D01*
X100817000Y-62008246D02*
X102417000Y-62008246D01*
X99361000Y-49757755D02*
X104732000Y-49757755D01*
X99413000Y-49677755D02*
X104732000Y-49677755D01*
X98635000Y-51197755D02*
X104732000Y-51197755D01*
X98454000Y-51717755D02*
X104732000Y-51717755D01*
X98127000Y-53357755D02*
X114217000Y-53357755D01*
X99387000Y-49717755D02*
X104732000Y-49717755D01*
X102535000Y-46877755D02*
X109809000Y-46877755D01*
X99782000Y-49157755D02*
X104732000Y-49157755D01*
X99078000Y-50237755D02*
X104732000Y-50237755D01*
X99692000Y-49277755D02*
X104732000Y-49277755D01*
X107612000Y-51637755D02*
X113865000Y-51637755D01*
X98285000Y-52357755D02*
X114059000Y-52357755D01*
X99845000Y-49077755D02*
X104732000Y-49077755D01*
X98144000Y-53197755D02*
X114200000Y-53197755D01*
X98973000Y-50437755D02*
X104732000Y-50437755D01*
X99493000Y-49557755D02*
X104732000Y-49557755D01*
X99633000Y-49357755D02*
X104732000Y-49357755D01*
X98091000Y-54118755D02*
X114253000Y-54118755D01*
X98519000Y-51517755D02*
X104732000Y-51517755D01*
X99548000Y-49477755D02*
X104732000Y-49477755D01*
X98123000Y-53397755D02*
X114221000Y-53397755D01*
X98801000Y-50797755D02*
X104732000Y-50797755D01*
X100332000Y-48517755D02*
X112012000Y-48517755D01*
X107612000Y-50957755D02*
X113612000Y-50957755D01*
X107612000Y-51397755D02*
X113783000Y-51397755D01*
X103694000Y-46397755D02*
X108650000Y-46397755D01*
X98604000Y-51277755D02*
X104732000Y-51277755D01*
X100612000Y-48237755D02*
X111732000Y-48237755D01*
X99814000Y-49117755D02*
X104732000Y-49117755D01*
X100043000Y-48837755D02*
X112301000Y-48837755D01*
X101318000Y-47637755D02*
X111026000Y-47637755D01*
X101214000Y-47717755D02*
X111130000Y-47717755D01*
X98148000Y-53157755D02*
X114196000Y-53157755D01*
X107612000Y-50077755D02*
X113176000Y-50077755D01*
X107612000Y-50877755D02*
X113578000Y-50877755D01*
X102308000Y-46997755D02*
X110036000Y-46997755D01*
X98092000Y-54078755D02*
X114252000Y-54078755D01*
X107612000Y-49037755D02*
X112467000Y-49037755D01*
X98259000Y-52477755D02*
X114085000Y-52477755D01*
X100409000Y-48437755D02*
X111935000Y-48437755D01*
X99604000Y-49397755D02*
X104732000Y-49397755D01*
X107612000Y-50397755D02*
X113350000Y-50397755D01*
X101963000Y-47197755D02*
X110381000Y-47197755D01*
X98099000Y-53758755D02*
X114245000Y-53758755D01*
X107612000Y-51317755D02*
X113754000Y-51317755D01*
X100256000Y-48597755D02*
X112088000Y-48597755D01*
X98698000Y-51037755D02*
X104732000Y-51037755D01*
X100147000Y-48717755D02*
X112197000Y-48717755D01*
X98153000Y-53117755D02*
X114191000Y-53117755D01*
X103052000Y-46637755D02*
X109292000Y-46637755D01*
X100921000Y-47957755D02*
X111423000Y-47957755D01*
X107612000Y-49477755D02*
X112796000Y-49477755D01*
X99168000Y-50077755D02*
X104732000Y-50077755D01*
X103821000Y-46357755D02*
X108523000Y-46357755D01*
X107612000Y-51477755D02*
X113811000Y-51477755D01*
X99877000Y-49037755D02*
X104732000Y-49037755D01*
X114292000Y-54118755D02*
G75*
G03*
X114292000Y-54118755I-8120000J0D01*
G01*
%TO.C,TP9*%
X121355000Y-94732500D02*
X121355000Y-92332500D01*
X123755000Y-92332500D02*
X123755000Y-94732500D01*
X121355000Y-92332500D02*
X123755000Y-92332500D01*
X123755000Y-94732500D02*
X121355000Y-94732500D01*
%TO.C,C11*%
X111818748Y-97890000D02*
X112341252Y-97890000D01*
X111818748Y-96420000D02*
X112341252Y-96420000D01*
%TO.C,TP7*%
X142805000Y-92332500D02*
X142805000Y-94732500D01*
X142805000Y-94732500D02*
X140405000Y-94732500D01*
X140405000Y-94732500D02*
X140405000Y-92332500D01*
X140405000Y-92332500D02*
X142805000Y-92332500D01*
%TO.C,TP2*%
X82620000Y-110560000D02*
X85020000Y-110560000D01*
X85020000Y-110560000D02*
X85020000Y-112960000D01*
X82620000Y-112960000D02*
X82620000Y-110560000D01*
X85020000Y-112960000D02*
X82620000Y-112960000D01*
%TO.C,TP4*%
X82620000Y-101035000D02*
X85020000Y-101035000D01*
X82620000Y-103435000D02*
X82620000Y-101035000D01*
X85020000Y-101035000D02*
X85020000Y-103435000D01*
X85020000Y-103435000D02*
X82620000Y-103435000D01*
%TO.C,R1*%
X113765000Y-100925436D02*
X113765000Y-101379564D01*
X112295000Y-100925436D02*
X112295000Y-101379564D01*
%TO.C,TP5*%
X85020000Y-107880000D02*
X82620000Y-107880000D01*
X82620000Y-107880000D02*
X82620000Y-105480000D01*
X85020000Y-105480000D02*
X85020000Y-107880000D01*
X82620000Y-105480000D02*
X85020000Y-105480000D01*
%TO.C,C19*%
X141505000Y-62491252D02*
X141505000Y-61968748D01*
X142975000Y-62491252D02*
X142975000Y-61968748D01*
%TO.C,R11*%
X64362064Y-100230000D02*
X63907936Y-100230000D01*
X64362064Y-101700000D02*
X63907936Y-101700000D01*
%TO.C,C18*%
X129440000Y-65346252D02*
X129440000Y-64823748D01*
X130910000Y-65346252D02*
X130910000Y-64823748D01*
%TO.C,TP3*%
X129610000Y-111690000D02*
X129610000Y-109290000D01*
X129610000Y-109290000D02*
X132010000Y-109290000D01*
X132010000Y-111690000D02*
X129610000Y-111690000D01*
X132010000Y-109290000D02*
X132010000Y-111690000D01*
%TO.C,L1*%
X107776000Y-135168000D02*
X107776000Y-131303000D01*
X102536000Y-128793000D02*
X102536000Y-124928000D01*
X102536000Y-135168000D02*
X107776000Y-135168000D01*
X107776000Y-128793000D02*
X107776000Y-124928000D01*
X102536000Y-135168000D02*
X102536000Y-131303000D01*
X102536000Y-124928000D02*
X107776000Y-124928000D01*
%TO.C,R2*%
X112295000Y-105182936D02*
X112295000Y-105637064D01*
X113765000Y-105182936D02*
X113765000Y-105637064D01*
%TO.C,R6*%
X125195000Y-89254064D02*
X125195000Y-88799936D01*
X123725000Y-89254064D02*
X123725000Y-88799936D01*
%TO.C,R12*%
X64362064Y-106580000D02*
X63907936Y-106580000D01*
X64362064Y-108050000D02*
X63907936Y-108050000D01*
%TO.C,R7*%
X125703000Y-67283064D02*
X125703000Y-66828936D01*
X124233000Y-67283064D02*
X124233000Y-66828936D01*
%TO.C,C17*%
X121658748Y-65505000D02*
X122181252Y-65505000D01*
X121658748Y-64035000D02*
X122181252Y-64035000D01*
%TO.C,C8*%
X144245000Y-73398748D02*
X144245000Y-73921252D01*
X142775000Y-73398748D02*
X142775000Y-73921252D01*
%TO.C,TP12*%
X134690000Y-86684000D02*
X137090000Y-86684000D01*
X137090000Y-89084000D02*
X134690000Y-89084000D01*
X134690000Y-89084000D02*
X134690000Y-86684000D01*
X137090000Y-86684000D02*
X137090000Y-89084000D01*
%TO.C,TP14*%
X141675000Y-58350000D02*
X141675000Y-55950000D01*
X141675000Y-55950000D02*
X144075000Y-55950000D01*
X144075000Y-58350000D02*
X141675000Y-58350000D01*
X144075000Y-55950000D02*
X144075000Y-58350000D01*
%TO.C,C4*%
X87657000Y-56126748D02*
X87657000Y-56649252D01*
X89127000Y-56126748D02*
X89127000Y-56649252D01*
%TO.C,TP8*%
X117405000Y-92332500D02*
X117405000Y-94732500D01*
X115005000Y-92332500D02*
X117405000Y-92332500D01*
X117405000Y-94732500D02*
X115005000Y-94732500D01*
X115005000Y-94732500D02*
X115005000Y-92332500D01*
%TO.C,U3*%
X122575000Y-103122500D02*
X122575000Y-106572500D01*
X122575000Y-103122500D02*
X122575000Y-101172500D01*
X132695000Y-103122500D02*
X132695000Y-101172500D01*
X132695000Y-103122500D02*
X132695000Y-105072500D01*
%TO.C,R3*%
X132815000Y-89254064D02*
X132815000Y-88799936D01*
X131345000Y-89254064D02*
X131345000Y-88799936D01*
%TO.C,U4*%
X131064000Y-73172000D02*
X129114000Y-73172000D01*
X131064000Y-68052000D02*
X133014000Y-68052000D01*
X131064000Y-73172000D02*
X133014000Y-73172000D01*
X131064000Y-68052000D02*
X127614000Y-68052000D01*
%TO.C,C6*%
X94715000Y-56126748D02*
X94715000Y-56649252D01*
X93245000Y-56126748D02*
X93245000Y-56649252D01*
%TO.C,TP6*%
X134550000Y-92332500D02*
X134550000Y-94732500D01*
X132150000Y-94732500D02*
X132150000Y-92332500D01*
X132150000Y-92332500D02*
X134550000Y-92332500D01*
X134550000Y-94732500D02*
X132150000Y-94732500D01*
%TO.C,TP1*%
X92145000Y-135185000D02*
X92145000Y-132785000D01*
X94545000Y-132785000D02*
X94545000Y-135185000D01*
X94545000Y-135185000D02*
X92145000Y-135185000D01*
X92145000Y-132785000D02*
X94545000Y-132785000D01*
%TO.C,C5*%
X111479000Y-124655252D02*
X111479000Y-124132748D01*
X110009000Y-124655252D02*
X110009000Y-124132748D01*
D10*
%TO.C,U2*%
X73890000Y-107720000D02*
X77240000Y-107720000D01*
X73890000Y-107720000D02*
X73890000Y-107420000D01*
X77240000Y-104370000D02*
X77240000Y-104670000D01*
X73890000Y-104370000D02*
X77240000Y-104370000D01*
X77240000Y-107720000D02*
X77240000Y-107420000D01*
X73890000Y-104595000D02*
X72665000Y-104595000D01*
X73890000Y-104370000D02*
X73890000Y-104595000D01*
D11*
%TO.C,C14*%
X116305000Y-75191252D02*
X116305000Y-74668748D01*
X114835000Y-75191252D02*
X114835000Y-74668748D01*
%TO.C,C16*%
X136898748Y-64670000D02*
X137421252Y-64670000D01*
X136898748Y-66140000D02*
X137421252Y-66140000D01*
%TO.C,TP10*%
X116770000Y-68650000D02*
X116770000Y-71050000D01*
X114370000Y-68650000D02*
X116770000Y-68650000D01*
X114370000Y-71050000D02*
X114370000Y-68650000D01*
X116770000Y-71050000D02*
X114370000Y-71050000D01*
%TO.C,L2*%
X123484000Y-126064000D02*
X119619000Y-126064000D01*
X123484000Y-126064000D02*
X123484000Y-120824000D01*
X117109000Y-126064000D02*
X113244000Y-126064000D01*
X117109000Y-120824000D02*
X113244000Y-120824000D01*
X123484000Y-120824000D02*
X119619000Y-120824000D01*
X113244000Y-126064000D02*
X113244000Y-120824000D01*
%TO.C,TP13*%
X141535000Y-75000000D02*
X141535000Y-77400000D01*
X141535000Y-77400000D02*
X139135000Y-77400000D01*
X139135000Y-77400000D02*
X139135000Y-75000000D01*
X139135000Y-75000000D02*
X141535000Y-75000000D01*
%TO.C,U1*%
X103605000Y-73955000D02*
X103605000Y-80755000D01*
X70305000Y-94955000D02*
X70705000Y-94955000D01*
X80405000Y-73955000D02*
X80805000Y-73955000D01*
X57605000Y-73955000D02*
X58005000Y-73955000D01*
X72805000Y-94955000D02*
X73205000Y-94955000D01*
X75405000Y-94955000D02*
X75805000Y-94955000D01*
X65205000Y-94955000D02*
X65605000Y-94955000D01*
X62705000Y-94955000D02*
X63105000Y-94955000D01*
X65205000Y-73955000D02*
X65605000Y-73955000D01*
X60105000Y-94955000D02*
X60505000Y-94955000D01*
X55272000Y-94955000D02*
X55272000Y-91948000D01*
X60105000Y-73955000D02*
X60505000Y-73955000D01*
X95705000Y-94955000D02*
X96105000Y-94955000D01*
X85505000Y-73955000D02*
X85905000Y-73955000D01*
X67705000Y-94955000D02*
X68105000Y-94955000D01*
X93205000Y-94955000D02*
X93605000Y-94955000D01*
X57605000Y-94955000D02*
X58005000Y-94955000D01*
X98205000Y-94955000D02*
X98605000Y-94955000D01*
X80405000Y-94955000D02*
X80805000Y-94955000D01*
X75405000Y-73955000D02*
X75805000Y-73955000D01*
X90605000Y-94955000D02*
X91005000Y-94955000D01*
X103605000Y-83355000D02*
X103605000Y-82955000D01*
X100805000Y-94955000D02*
X101205000Y-94955000D01*
X83005000Y-94955000D02*
X83405000Y-94955000D01*
X52605000Y-94955000D02*
X52605000Y-73955000D01*
X100805000Y-73955000D02*
X101205000Y-73955000D01*
X77905000Y-73955000D02*
X78305000Y-73955000D01*
X95705000Y-73955000D02*
X96105000Y-73955000D01*
X83005000Y-73955000D02*
X83405000Y-73955000D01*
X77905000Y-94955000D02*
X78305000Y-94955000D01*
X103605000Y-85955000D02*
X103605000Y-85555000D01*
X103605000Y-88155000D02*
X103605000Y-94955000D01*
X52605000Y-94955000D02*
X52905000Y-94955000D01*
X55005000Y-94955000D02*
X55405000Y-94955000D01*
X85505000Y-94955000D02*
X85905000Y-94955000D01*
X62705000Y-73955000D02*
X63105000Y-73955000D01*
X52605000Y-73955000D02*
X52905000Y-73955000D01*
X98205000Y-73955000D02*
X98605000Y-73955000D01*
X90605000Y-73955000D02*
X91005000Y-73955000D01*
X88105000Y-73955000D02*
X88505000Y-73955000D01*
X93205000Y-73955000D02*
X93605000Y-73955000D01*
X88105000Y-94955000D02*
X88505000Y-94955000D01*
X72805000Y-73955000D02*
X73205000Y-73955000D01*
X55005000Y-73955000D02*
X55405000Y-73955000D01*
X67705000Y-73955000D02*
X68105000Y-73955000D01*
X55272000Y-91948000D02*
X52605000Y-91948000D01*
X70305000Y-73955000D02*
X70705000Y-73955000D01*
%TD*%
M02*
