%TF.GenerationSoftware,KiCad,Pcbnew,(6.0.4-0)*%
%TF.CreationDate,2022-04-29T09:39:16-07:00*%
%TF.ProjectId,Receiver Schematic,52656365-6976-4657-9220-536368656d61,rev?*%
%TF.SameCoordinates,Original*%
%TF.FileFunction,Paste,Top*%
%TF.FilePolarity,Positive*%
%FSLAX46Y46*%
G04 Gerber Fmt 4.6, Leading zero omitted, Abs format (unit mm)*
G04 Created by KiCad (PCBNEW (6.0.4-0)) date 2022-04-29 09:39:16*
%MOMM*%
%LPD*%
G01*
G04 APERTURE LIST*
G04 Aperture macros list*
%AMRoundRect*
0 Rectangle with rounded corners*
0 $1 Rounding radius*
0 $2 $3 $4 $5 $6 $7 $8 $9 X,Y pos of 4 corners*
0 Add a 4 corners polygon primitive as box body*
4,1,4,$2,$3,$4,$5,$6,$7,$8,$9,$2,$3,0*
0 Add four circle primitives for the rounded corners*
1,1,$1+$1,$2,$3*
1,1,$1+$1,$4,$5*
1,1,$1+$1,$6,$7*
1,1,$1+$1,$8,$9*
0 Add four rect primitives between the rounded corners*
20,1,$1+$1,$2,$3,$4,$5,0*
20,1,$1+$1,$4,$5,$6,$7,0*
20,1,$1+$1,$6,$7,$8,$9,0*
20,1,$1+$1,$8,$9,$2,$3,0*%
G04 Aperture macros list end*
%ADD10RoundRect,0.250000X0.262500X0.450000X-0.262500X0.450000X-0.262500X-0.450000X0.262500X-0.450000X0*%
%ADD11RoundRect,0.250000X0.450000X-0.262500X0.450000X0.262500X-0.450000X0.262500X-0.450000X-0.262500X0*%
%ADD12RoundRect,0.250000X-0.475000X0.250000X-0.475000X-0.250000X0.475000X-0.250000X0.475000X0.250000X0*%
%ADD13R,1.200000X1.400000*%
%ADD14RoundRect,0.250000X0.475000X-0.250000X0.475000X0.250000X-0.475000X0.250000X-0.475000X-0.250000X0*%
%ADD15RoundRect,0.250000X0.250000X0.475000X-0.250000X0.475000X-0.250000X-0.475000X0.250000X-0.475000X0*%
%ADD16RoundRect,0.250000X-0.262500X-0.450000X0.262500X-0.450000X0.262500X0.450000X-0.262500X0.450000X0*%
%ADD17RoundRect,0.250000X-0.250000X-0.475000X0.250000X-0.475000X0.250000X0.475000X-0.250000X0.475000X0*%
%ADD18RoundRect,0.250000X-0.450000X0.262500X-0.450000X-0.262500X0.450000X-0.262500X0.450000X0.262500X0*%
%ADD19RoundRect,0.150000X0.150000X-0.825000X0.150000X0.825000X-0.150000X0.825000X-0.150000X-0.825000X0*%
%ADD20RoundRect,0.150000X-0.825000X-0.150000X0.825000X-0.150000X0.825000X0.150000X-0.825000X0.150000X0*%
%ADD21R,1.400000X0.300000*%
G04 APERTURE END LIST*
D10*
%TO.C,R10*%
X122832500Y-74930000D03*
X121007500Y-74930000D03*
%TD*%
D11*
%TO.C,R4*%
X140335000Y-89939500D03*
X140335000Y-88114500D03*
%TD*%
D12*
%TO.C,C12*%
X71120000Y-101732000D03*
X71120000Y-103632000D03*
%TD*%
D13*
%TO.C,Y1*%
X76415000Y-112225000D03*
X76415000Y-110025000D03*
X74715000Y-110025000D03*
X74715000Y-112225000D03*
%TD*%
D14*
%TO.C,C20*%
X124460000Y-61590000D03*
X124460000Y-59690000D03*
%TD*%
D15*
%TO.C,C3*%
X98740000Y-130175000D03*
X96840000Y-130175000D03*
%TD*%
D16*
%TO.C,R13*%
X80367500Y-55372000D03*
X82192500Y-55372000D03*
%TD*%
%TO.C,R9*%
X135970000Y-74930000D03*
X137795000Y-74930000D03*
%TD*%
D12*
%TO.C,C9*%
X143510000Y-78425000D03*
X143510000Y-80325000D03*
%TD*%
D11*
%TO.C,R8*%
X143510000Y-70762500D03*
X143510000Y-68937500D03*
%TD*%
%TO.C,R5*%
X117348000Y-89812500D03*
X117348000Y-87987500D03*
%TD*%
D17*
%TO.C,C7*%
X123002000Y-130175000D03*
X124902000Y-130175000D03*
%TD*%
D12*
%TO.C,C15*%
X124968000Y-69916000D03*
X124968000Y-71816000D03*
%TD*%
D14*
%TO.C,C13*%
X119380000Y-102102500D03*
X119380000Y-100202500D03*
%TD*%
D17*
%TO.C,C11*%
X111130000Y-97155000D03*
X113030000Y-97155000D03*
%TD*%
D18*
%TO.C,R1*%
X113030000Y-100240000D03*
X113030000Y-102065000D03*
%TD*%
D14*
%TO.C,C19*%
X142240000Y-63180000D03*
X142240000Y-61280000D03*
%TD*%
D10*
%TO.C,R11*%
X65047500Y-100965000D03*
X63222500Y-100965000D03*
%TD*%
D14*
%TO.C,C18*%
X130175000Y-66035000D03*
X130175000Y-64135000D03*
%TD*%
D18*
%TO.C,R2*%
X113030000Y-104497500D03*
X113030000Y-106322500D03*
%TD*%
D11*
%TO.C,R6*%
X124460000Y-89939500D03*
X124460000Y-88114500D03*
%TD*%
D10*
%TO.C,R12*%
X65047500Y-107315000D03*
X63222500Y-107315000D03*
%TD*%
D11*
%TO.C,R7*%
X124968000Y-67968500D03*
X124968000Y-66143500D03*
%TD*%
D17*
%TO.C,C17*%
X120970000Y-64770000D03*
X122870000Y-64770000D03*
%TD*%
D12*
%TO.C,C8*%
X143510000Y-72710000D03*
X143510000Y-74610000D03*
%TD*%
%TO.C,C4*%
X88392000Y-55438000D03*
X88392000Y-57338000D03*
%TD*%
D19*
%TO.C,U3*%
X123190000Y-105597500D03*
X124460000Y-105597500D03*
X125730000Y-105597500D03*
X127000000Y-105597500D03*
X128270000Y-105597500D03*
X129540000Y-105597500D03*
X130810000Y-105597500D03*
X132080000Y-105597500D03*
X132080000Y-100647500D03*
X130810000Y-100647500D03*
X129540000Y-100647500D03*
X128270000Y-100647500D03*
X127000000Y-100647500D03*
X125730000Y-100647500D03*
X124460000Y-100647500D03*
X123190000Y-100647500D03*
%TD*%
D11*
%TO.C,R3*%
X132080000Y-89939500D03*
X132080000Y-88114500D03*
%TD*%
D20*
%TO.C,U4*%
X128589000Y-68707000D03*
X128589000Y-69977000D03*
X128589000Y-71247000D03*
X128589000Y-72517000D03*
X133539000Y-72517000D03*
X133539000Y-71247000D03*
X133539000Y-69977000D03*
X133539000Y-68707000D03*
%TD*%
D12*
%TO.C,C6*%
X93980000Y-55438000D03*
X93980000Y-57338000D03*
%TD*%
D14*
%TO.C,C5*%
X110744000Y-125344000D03*
X110744000Y-123444000D03*
%TD*%
D21*
%TO.C,U2*%
X73365000Y-105045000D03*
X73365000Y-105545000D03*
X73365000Y-106045000D03*
X73365000Y-106545000D03*
X73365000Y-107045000D03*
X77765000Y-107045000D03*
X77765000Y-106545000D03*
X77765000Y-106045000D03*
X77765000Y-105545000D03*
X77765000Y-105045000D03*
%TD*%
D14*
%TO.C,C14*%
X115570000Y-75880000D03*
X115570000Y-73980000D03*
%TD*%
D17*
%TO.C,C16*%
X136210000Y-65405000D03*
X138110000Y-65405000D03*
%TD*%
M02*
