%TF.GenerationSoftware,KiCad,Pcbnew,(6.0.4-0)*%
%TF.CreationDate,2022-04-29T09:39:16-07:00*%
%TF.ProjectId,Receiver Schematic,52656365-6976-4657-9220-536368656d61,rev?*%
%TF.SameCoordinates,Original*%
%TF.FileFunction,Soldermask,Top*%
%TF.FilePolarity,Negative*%
%FSLAX46Y46*%
G04 Gerber Fmt 4.6, Leading zero omitted, Abs format (unit mm)*
G04 Created by KiCad (PCBNEW (6.0.4-0)) date 2022-04-29 09:39:16*
%MOMM*%
%LPD*%
G01*
G04 APERTURE LIST*
G04 Aperture macros list*
%AMRoundRect*
0 Rectangle with rounded corners*
0 $1 Rounding radius*
0 $2 $3 $4 $5 $6 $7 $8 $9 X,Y pos of 4 corners*
0 Add a 4 corners polygon primitive as box body*
4,1,4,$2,$3,$4,$5,$6,$7,$8,$9,$2,$3,0*
0 Add four circle primitives for the rounded corners*
1,1,$1+$1,$2,$3*
1,1,$1+$1,$4,$5*
1,1,$1+$1,$6,$7*
1,1,$1+$1,$8,$9*
0 Add four rect primitives between the rounded corners*
20,1,$1+$1,$2,$3,$4,$5,0*
20,1,$1+$1,$4,$5,$6,$7,0*
20,1,$1+$1,$6,$7,$8,$9,0*
20,1,$1+$1,$8,$9,$2,$3,0*%
G04 Aperture macros list end*
%ADD10RoundRect,0.250000X0.262500X0.450000X-0.262500X0.450000X-0.262500X-0.450000X0.262500X-0.450000X0*%
%ADD11RoundRect,0.250000X0.450000X-0.262500X0.450000X0.262500X-0.450000X0.262500X-0.450000X-0.262500X0*%
%ADD12RoundRect,0.250000X-0.475000X0.250000X-0.475000X-0.250000X0.475000X-0.250000X0.475000X0.250000X0*%
%ADD13R,1.200000X1.400000*%
%ADD14RoundRect,0.250000X0.475000X-0.250000X0.475000X0.250000X-0.475000X0.250000X-0.475000X-0.250000X0*%
%ADD15RoundRect,0.250000X0.250000X0.475000X-0.250000X0.475000X-0.250000X-0.475000X0.250000X-0.475000X0*%
%ADD16RoundRect,0.250000X-0.262500X-0.450000X0.262500X-0.450000X0.262500X0.450000X-0.262500X0.450000X0*%
%ADD17R,2.000000X2.000000*%
%ADD18C,1.200000*%
%ADD19O,2.616000X1.308000*%
%ADD20O,1.308000X2.616000*%
%ADD21RoundRect,0.250000X-0.250000X-0.475000X0.250000X-0.475000X0.250000X0.475000X-0.250000X0.475000X0*%
%ADD22O,2.500000X1.600000*%
%ADD23O,7.000000X3.500000*%
%ADD24C,2.000000*%
%ADD25R,2.400000X2.400000*%
%ADD26C,2.400000*%
%ADD27RoundRect,0.250000X-0.450000X0.262500X-0.450000X-0.262500X0.450000X-0.262500X0.450000X0.262500X0*%
%ADD28RoundRect,0.150000X0.150000X-0.825000X0.150000X0.825000X-0.150000X0.825000X-0.150000X-0.825000X0*%
%ADD29RoundRect,0.150000X-0.825000X-0.150000X0.825000X-0.150000X0.825000X0.150000X-0.825000X0.150000X0*%
%ADD30R,1.400000X0.300000*%
%ADD31O,1.800000X1.800000*%
%ADD32O,1.500000X1.500000*%
%ADD33O,1.700000X1.700000*%
%ADD34R,1.700000X3.500000*%
%ADD35R,1.700000X1.700000*%
%ADD36R,3.500000X1.700000*%
G04 APERTURE END LIST*
D10*
%TO.C,R10*%
X122832500Y-74930000D03*
X121007500Y-74930000D03*
%TD*%
D11*
%TO.C,R4*%
X140335000Y-89939500D03*
X140335000Y-88114500D03*
%TD*%
D12*
%TO.C,C12*%
X71120000Y-101732000D03*
X71120000Y-103632000D03*
%TD*%
D13*
%TO.C,Y1*%
X76415000Y-112225000D03*
X76415000Y-110025000D03*
X74715000Y-110025000D03*
X74715000Y-112225000D03*
%TD*%
D14*
%TO.C,C20*%
X124460000Y-61590000D03*
X124460000Y-59690000D03*
%TD*%
D15*
%TO.C,C3*%
X98740000Y-130175000D03*
X96840000Y-130175000D03*
%TD*%
D16*
%TO.C,R13*%
X80367500Y-55372000D03*
X82192500Y-55372000D03*
%TD*%
%TO.C,R9*%
X135970000Y-74930000D03*
X137795000Y-74930000D03*
%TD*%
D17*
%TO.C,TP11*%
X126492000Y-76200000D03*
%TD*%
D18*
%TO.C,J1*%
X137080000Y-51308000D03*
X127080000Y-51308000D03*
X132080000Y-56308000D03*
X127080000Y-48808000D03*
X137080000Y-48808000D03*
D19*
X132080000Y-51308000D03*
D20*
X127080000Y-56308000D03*
X137080000Y-56308000D03*
X129580000Y-56308000D03*
X134580000Y-56308000D03*
%TD*%
D12*
%TO.C,C9*%
X143510000Y-78425000D03*
X143510000Y-80325000D03*
%TD*%
D11*
%TO.C,R8*%
X143510000Y-70762500D03*
X143510000Y-68937500D03*
%TD*%
%TO.C,R5*%
X117348000Y-89812500D03*
X117348000Y-87987500D03*
%TD*%
D21*
%TO.C,C7*%
X123002000Y-130175000D03*
X124902000Y-130175000D03*
%TD*%
D12*
%TO.C,C15*%
X124968000Y-69916000D03*
X124968000Y-71816000D03*
%TD*%
D22*
%TO.C,AntennaConnector1*%
X63810000Y-128270000D03*
D23*
X58730000Y-133350000D03*
X58730000Y-123190000D03*
D22*
X63810000Y-130810000D03*
%TD*%
D24*
%TO.C,L3*%
X129032000Y-130048000D03*
X134112000Y-130048000D03*
%TD*%
D14*
%TO.C,C13*%
X119380000Y-102102500D03*
X119380000Y-100202500D03*
%TD*%
D17*
%TO.C,TP15*%
X120015000Y-59690000D03*
%TD*%
D25*
%TO.C,C10*%
X106172000Y-57868755D03*
D26*
X106172000Y-50368755D03*
%TD*%
D17*
%TO.C,TP9*%
X122555000Y-93532500D03*
%TD*%
D21*
%TO.C,C11*%
X111130000Y-97155000D03*
X113030000Y-97155000D03*
%TD*%
D17*
%TO.C,TP7*%
X141605000Y-93532500D03*
%TD*%
%TO.C,TP2*%
X83820000Y-111760000D03*
%TD*%
%TO.C,TP4*%
X83820000Y-102235000D03*
%TD*%
D27*
%TO.C,R1*%
X113030000Y-100240000D03*
X113030000Y-102065000D03*
%TD*%
D17*
%TO.C,TP5*%
X83820000Y-106680000D03*
%TD*%
D14*
%TO.C,C19*%
X142240000Y-63180000D03*
X142240000Y-61280000D03*
%TD*%
D10*
%TO.C,R11*%
X65047500Y-100965000D03*
X63222500Y-100965000D03*
%TD*%
D14*
%TO.C,C18*%
X130175000Y-66035000D03*
X130175000Y-64135000D03*
%TD*%
D17*
%TO.C,TP3*%
X130810000Y-110490000D03*
%TD*%
D24*
%TO.C,L1*%
X102616000Y-130048000D03*
X107696000Y-130048000D03*
%TD*%
D27*
%TO.C,R2*%
X113030000Y-104497500D03*
X113030000Y-106322500D03*
%TD*%
D11*
%TO.C,R6*%
X124460000Y-89939500D03*
X124460000Y-88114500D03*
%TD*%
D10*
%TO.C,R12*%
X65047500Y-107315000D03*
X63222500Y-107315000D03*
%TD*%
D11*
%TO.C,R7*%
X124968000Y-67968500D03*
X124968000Y-66143500D03*
%TD*%
D21*
%TO.C,C17*%
X120970000Y-64770000D03*
X122870000Y-64770000D03*
%TD*%
D12*
%TO.C,C8*%
X143510000Y-72710000D03*
X143510000Y-74610000D03*
%TD*%
D17*
%TO.C,TP12*%
X135890000Y-87884000D03*
%TD*%
%TO.C,TP14*%
X142875000Y-57150000D03*
%TD*%
D12*
%TO.C,C4*%
X88392000Y-55438000D03*
X88392000Y-57338000D03*
%TD*%
D17*
%TO.C,TP8*%
X116205000Y-93532500D03*
%TD*%
D28*
%TO.C,U3*%
X123190000Y-105597500D03*
X124460000Y-105597500D03*
X125730000Y-105597500D03*
X127000000Y-105597500D03*
X128270000Y-105597500D03*
X129540000Y-105597500D03*
X130810000Y-105597500D03*
X132080000Y-105597500D03*
X132080000Y-100647500D03*
X130810000Y-100647500D03*
X129540000Y-100647500D03*
X128270000Y-100647500D03*
X127000000Y-100647500D03*
X125730000Y-100647500D03*
X124460000Y-100647500D03*
X123190000Y-100647500D03*
%TD*%
D11*
%TO.C,R3*%
X132080000Y-89939500D03*
X132080000Y-88114500D03*
%TD*%
D29*
%TO.C,U4*%
X128589000Y-68707000D03*
X128589000Y-69977000D03*
X128589000Y-71247000D03*
X128589000Y-72517000D03*
X133539000Y-72517000D03*
X133539000Y-71247000D03*
X133539000Y-69977000D03*
X133539000Y-68707000D03*
%TD*%
D12*
%TO.C,C6*%
X93980000Y-55438000D03*
X93980000Y-57338000D03*
%TD*%
D17*
%TO.C,TP6*%
X133350000Y-93532500D03*
%TD*%
%TO.C,TP1*%
X93345000Y-133985000D03*
%TD*%
D14*
%TO.C,C5*%
X110744000Y-125344000D03*
X110744000Y-123444000D03*
%TD*%
D30*
%TO.C,U2*%
X73365000Y-105045000D03*
X73365000Y-105545000D03*
X73365000Y-106045000D03*
X73365000Y-106545000D03*
X73365000Y-107045000D03*
X77765000Y-107045000D03*
X77765000Y-106545000D03*
X77765000Y-106045000D03*
X77765000Y-105545000D03*
X77765000Y-105045000D03*
%TD*%
D14*
%TO.C,C14*%
X115570000Y-75880000D03*
X115570000Y-73980000D03*
%TD*%
D21*
%TO.C,C16*%
X136210000Y-65405000D03*
X138110000Y-65405000D03*
%TD*%
D17*
%TO.C,TP10*%
X115570000Y-69850000D03*
%TD*%
D24*
%TO.C,L2*%
X118364000Y-125984000D03*
X118364000Y-120904000D03*
%TD*%
D17*
%TO.C,TP13*%
X140335000Y-76200000D03*
%TD*%
D31*
%TO.C,U1*%
X54105000Y-81730000D03*
D32*
X57135000Y-86880000D03*
D31*
X54105000Y-87180000D03*
D32*
X57135000Y-82030000D03*
D33*
X53975000Y-93345000D03*
D34*
X53975000Y-94245000D03*
X56515000Y-94245000D03*
D33*
X56515000Y-93345000D03*
D35*
X59055000Y-93345000D03*
D34*
X59055000Y-94245000D03*
X61595000Y-94245000D03*
D33*
X61595000Y-93345000D03*
X64135000Y-93345000D03*
D34*
X64135000Y-94245000D03*
D33*
X66675000Y-93345000D03*
D34*
X66675000Y-94245000D03*
X69215000Y-94245000D03*
D33*
X69215000Y-93345000D03*
D34*
X71755000Y-94245000D03*
D35*
X71755000Y-93345000D03*
D33*
X74295000Y-93345000D03*
D34*
X74295000Y-94245000D03*
X76835000Y-94245000D03*
D33*
X76835000Y-93345000D03*
D34*
X79375000Y-94245000D03*
D33*
X79375000Y-93345000D03*
D34*
X81915000Y-94245000D03*
D33*
X81915000Y-93345000D03*
D34*
X84455000Y-94245000D03*
D35*
X84455000Y-93345000D03*
D33*
X86995000Y-93345000D03*
D34*
X86995000Y-94245000D03*
X89535000Y-94245000D03*
D33*
X89535000Y-93345000D03*
X92075000Y-93345000D03*
D34*
X92075000Y-94245000D03*
X94615000Y-94245000D03*
D33*
X94615000Y-93345000D03*
D35*
X97155000Y-93345000D03*
D34*
X97155000Y-94245000D03*
D33*
X99695000Y-93345000D03*
D34*
X99695000Y-94245000D03*
X102235000Y-94245000D03*
D33*
X102235000Y-93345000D03*
D34*
X102235000Y-74665000D03*
D33*
X102235000Y-75565000D03*
D34*
X99695000Y-74665000D03*
D33*
X99695000Y-75565000D03*
D34*
X97155000Y-74665000D03*
D35*
X97155000Y-75565000D03*
D34*
X94615000Y-74665000D03*
D33*
X94615000Y-75565000D03*
D34*
X92075000Y-74665000D03*
D33*
X92075000Y-75565000D03*
D34*
X89535000Y-74665000D03*
D33*
X89535000Y-75565000D03*
D34*
X86995000Y-74665000D03*
D33*
X86995000Y-75565000D03*
D35*
X84455000Y-75565000D03*
D34*
X84455000Y-74665000D03*
D33*
X81915000Y-75565000D03*
D34*
X81915000Y-74665000D03*
D33*
X79375000Y-75565000D03*
D34*
X79375000Y-74665000D03*
D33*
X76835000Y-75565000D03*
D34*
X76835000Y-74665000D03*
D33*
X74295000Y-75565000D03*
D34*
X74295000Y-74665000D03*
D35*
X71755000Y-75565000D03*
D34*
X71755000Y-74665000D03*
D33*
X69215000Y-75565000D03*
D34*
X69215000Y-74665000D03*
D33*
X66675000Y-75565000D03*
D34*
X66675000Y-74665000D03*
X64135000Y-74665000D03*
D33*
X64135000Y-75565000D03*
X61595000Y-75565000D03*
D34*
X61595000Y-74665000D03*
X59055000Y-74665000D03*
D35*
X59055000Y-75565000D03*
D34*
X56515000Y-74665000D03*
D33*
X56515000Y-75565000D03*
D34*
X53975000Y-74665000D03*
D33*
X53975000Y-75565000D03*
D36*
X102905000Y-86995000D03*
D33*
X102005000Y-86995000D03*
D35*
X102005000Y-84455000D03*
D36*
X102905000Y-84455000D03*
X102905000Y-81915000D03*
D33*
X102005000Y-81915000D03*
%TD*%
M02*
